<svg width="140" height="140" viewBox="0 0 140 140" fill="none" xmlns="http://www.w3.org/2000/svg">
<path opacity="0.503384" d="M38.4569 73.5764C45.8234 69.3009 51.9153 63.2277 59.1121 58.7107C66.0311 54.3681 72.286 49.5762 80.1121 46.9575C84.7813 45.3946 89.2287 43.7646 94.2265 43.5003C159.075 40.0727 34.2646 133.737 31.0557 88.6138" stroke="#75B074" stroke-width="2.1" stroke-linecap="round" stroke-linejoin="round"/>
<path d="M78.1334 25.314C80.0838 23.8032 82.7639 23.1347 84.5594 25.314C86.0807 27.1591 86.5755 30.4207 85.7433 32.6624C80.9015 45.7092 64.3742 27.8064 78.1334 22.75" stroke="#75B074" stroke-width="5.6" stroke-linecap="round" stroke-linejoin="round"/>
<path opacity="0.503384" d="M72.2715 27.2213C46.141 26.173 52.1695 79.3498 55.8941 96.8156C60.2238 117.116 76.6397 127.755 83.5314 101.787C84.8476 96.8276 86.2881 91.8797 87.2838 86.8734C88.4278 81.1273 89.4355 75.2082 90.0141 69.389C90.9012 60.4739 91.3037 49.5245 87.2838 41.4488" stroke="#75B074" stroke-width="2.1" stroke-linecap="round" stroke-linejoin="round"/>
<path d="M28.6943 88.1445C26.8246 86.4936 26.2716 83.6294 26.7786 81.241C29.0715 70.4209 48.9387 80.8902 33.049 89.4598C30.5979 90.7803 29.4244 89.4152 28.3455 87.8153" stroke="#75B074" stroke-width="5.6" stroke-linecap="round" stroke-linejoin="round"/>
<path d="M93.2354 92.4576C95.5501 89.627 101.843 88.8079 104.111 92.2838C112.777 105.561 79.8852 112.436 93.5756 92.4576" stroke="#75B074" stroke-width="5.6" stroke-linecap="round" stroke-linejoin="round"/>
<path opacity="0.503384" d="M88.0541 99.7119C79.5049 96.1632 70.6518 92.6801 62.3463 88.1468C57.441 85.4702 53.1303 81.9657 48.7151 78.6542C40.3762 72.3981 19.1479 43.9939 41.1234 40.8538C60.667 38.0606 87.4769 56.6494 99.7877 70.1971C104.534 75.4203 120.604 91.6352 110.312 97.8123" stroke="#75B074" stroke-width="2.1" stroke-linecap="round" stroke-linejoin="round"/>
<path d="M67.6318 64.755C69.6076 62.695 74.2712 60.3233 76.857 62.5056C88.0315 71.9371 62.0386 87.9034 64.8975 69.0807" stroke="#75B074" stroke-width="5.6" stroke-linecap="round" stroke-linejoin="round"/>
</svg>
