<svg width="140" height="140" viewBox="0 0 140 140" fill="none" xmlns="http://www.w3.org/2000/svg">
<path d="M93.6105 34.4419C94.5166 33.283 97.2057 23.5098 98.0902 23.8064C100.548 24.63 101.538 37.9366 103.201 40.1655C103.635 40.7461 117.565 41.1727 116.624 42.7468C115.628 44.4145 112.04 46.7871 105.859 49.8648C109.924 58.5484 111.418 63.2528 110.341 63.978C109.062 64.8392 96.542 51.9467 96.0878 52.1748C95.6117 52.4136 90.9953 56.6532 82.2388 64.8936C86.4952 54.1707 88.4372 48.4142 88.065 47.6243C87.4497 46.3185 77.7837 41.5263 77.7837 39.3043C77.7837 38.5754 87.7584 39.3043 88.9223 39.3043" stroke="#FF6726" stroke-width="5.6" stroke-linecap="round" stroke-linejoin="round"/>
<path opacity="0.503384" d="M64.0117 41.8486C46.9581 43.9325 23.1001 59.5402 23.1001 76.2792" stroke="#FF6726" stroke-width="4.9" stroke-linecap="round" stroke-linejoin="round"/>
<path opacity="0.503384" d="M73.3279 71.0127C61.8708 81.409 58.4567 105.21 59.8489 116.38" stroke="#FF6726" stroke-width="4.9" stroke-linecap="round" stroke-linejoin="round"/>
</svg>
