<svg width="125" height="125" viewBox="0 0 125 125" fill="none" xmlns="http://www.w3.org/2000/svg">
<path d="M41.6879 54.8613C50.8078 49.9581 66.1012 46.1039 68.3461 46.4774M68.3461 46.4774L60.8631 67.2577C58.4467 71.4605 52.1173 81.3855 50.8078 81.9458C49.1709 82.6463 33.5034 68.6586 32.1003 68.6586C30.9779 68.6586 28.9824 71.4605 28.125 72.8614M68.3461 46.4774C69.7277 46.7073 75.871 48.7485 82.1429 51.4303M96.875 60.4866C95.2131 57.6419 88.6096 54.1955 82.1429 51.4303M82.1429 51.4303C79.7265 57.7957 72.7891 71.9274 72.7891 72.8614C72.7891 74.0288 89.392 77.9981 90.0935 80.5664C90.7951 83.1348 85.6505 106.25 86.8197 106.25C87.7551 106.25 91.5745 105.316 93.3673 104.849" stroke="#CD96E8" stroke-width="6.25" stroke-linecap="round" stroke-linejoin="round"/>
<path d="M74.6327 23.4666C89.7484 7.6829 102.502 33.6475 87.0593 38.6065C74.8534 42.5265 66.093 32.0458 75.73 22.7619" stroke="#CD96E8" stroke-width="6.25" stroke-linecap="round" stroke-linejoin="round"/>
<path d="M59.517 91.9873C72.7733 77.904 83.9583 101.071 70.415 105.496C59.7106 108.994 52.0278 99.6423 60.4793 91.3586" stroke="#CD96E8" stroke-width="6.25" stroke-linecap="round" stroke-linejoin="round"/>
</svg>
