<svg width="140" height="140" viewBox="0 0 140 140" fill="none" xmlns="http://www.w3.org/2000/svg">
<path d="M58.4267 82.7423C58.5521 81.8949 58.5365 77.5396 58.4267 75.8391C58.1856 72.1029 56.7063 67.1762 58.5521 65.7896C59.8433 64.8207 62.9353 64.553 67.8696 64.553C72.2065 64.553 78.162 62.8176 80.4668 65.1245C81.6906 66.35 82.4076 82.7854 81.131 83.7453C77.4304 86.5237 67.5569 85.7393 63.2011 85.7393" stroke="#3F8CFF" stroke-width="5.6" stroke-linecap="round" stroke-linejoin="round"/>
<path d="M63.9326 61.2779C65.2044 49.3573 74.5675 51.3928 74.5675 61.2779" stroke="#3F8CFF" stroke-width="5.6" stroke-linecap="round" stroke-linejoin="round"/>
<path d="M70.4048 77.1725C70.4048 76.6908 70.4048 76.2092 70.4048 75.7275" stroke="#3F8CFF" stroke-width="5.6" stroke-linecap="round" stroke-linejoin="round"/>
<path d="M59.7096 108.837C51.2689 102.509 31.0069 69.0514 37.2121 51.2712C37.5865 50.1983 60.0904 41.0403 70.335 26.5996C81.7755 43.0666 102.483 50.6142 102.766 51.2712C109.51 66.9284 84.4326 106.815 70.7666 113.656" stroke="#3F8CFF" stroke-width="5.6" stroke-linecap="round" stroke-linejoin="round"/>
</svg>
