<svg id="Layer_1" data-name="Layer 1" xmlns="http://www.w3.org/2000/svg" xmlns:xlink="http://www.w3.org/1999/xlink" viewBox="0 0 14 14"><defs><style>.cls-1{fill:none;}.cls-2{clip-path:url(#clip-path);}</style><clipPath id="clip-path"><rect class="cls-1" width="14" height="14"/></clipPath></defs><g class="cls-2"><path d="M12.25,5.9H8.3L9.89,4.26A4.1,4.1,0,0,0,4.13,4.2a4,4,0,0,0,0,5.71,4.09,4.09,0,0,0,5.76,0,3.77,3.77,0,0,0,1.19-2.85h1.17a5.45,5.45,0,0,1-1.54,3.67,5.28,5.28,0,0,1-7.42,0,5.16,5.16,0,0,1,0-7.34,5.25,5.25,0,0,1,7.38,0l1.59-1.64Zm-5-1.23V7.15l2,1.21-.42.7L6.42,7.58V4.67Z"/></g></svg>