<svg id="Layer_1" data-name="Layer 1" xmlns="http://www.w3.org/2000/svg" viewBox="0 0 24 24"><defs><style>.cls-1{fill-rule:evenodd;}</style></defs><path class="cls-1" d="M19.63,4.54a10.29,10.29,0,0,0-7.37-3.06,10.44,10.44,0,0,0-9,15.64l-1.48,5.4,5.53-1.45a10.42,10.42,0,0,0,5,1.27h0a10.42,10.42,0,0,0,7.37-17.8Zm-7.37,16h0a8.65,8.65,0,0,1-4.41-1.21l-.31-.19L4.24,20l.88-3.19-.21-.33A8.68,8.68,0,0,1,12.26,3.24a8.67,8.67,0,0,1,8.67,8.67A8.69,8.69,0,0,1,12.26,20.58Z"/><path class="cls-1" d="M17,14.09c-.26-.13-1.54-.76-1.78-.85s-.41-.13-.59.13-.67.85-.82,1-.3.2-.56.07a7.08,7.08,0,0,1-2.1-1.3,7.94,7.94,0,0,1-1.45-1.8.38.38,0,0,1,.11-.53c.12-.12.27-.31.4-.46a1.9,1.9,0,0,0,.26-.43.49.49,0,0,0,0-.46c-.06-.13-.58-1.41-.8-1.93s-.43-.44-.59-.45h-.5a1,1,0,0,0-.69.32A3,3,0,0,0,7,9.59,5,5,0,0,0,8,12.28a11.59,11.59,0,0,0,4.45,3.94,15.26,15.26,0,0,0,1.49.55,3.5,3.5,0,0,0,1.64.1,2.67,2.67,0,0,0,1.76-1.24,2.1,2.1,0,0,0,.15-1.24C17.45,14.28,17.27,14.22,17,14.09Z"/></svg>