<svg id="Layer_1" data-name="Layer 1" xmlns="http://www.w3.org/2000/svg" viewBox="0 0 24 24"><path d="M7.33,6.59A.72.72,0,0,0,7,6.53a.75.75,0,0,0-.29.06.63.63,0,0,0-.24.16L1.75,11.53a.48.48,0,0,0-.15.22.54.54,0,0,0-.06.25.58.58,0,0,0,.06.26.54.54,0,0,0,.15.22l4.77,4.77a.75.75,0,0,0,.53.22.77.77,0,0,0,.53-.22.77.77,0,0,0,0-1.06L4.14,12.77H21.78a.75.75,0,0,0,.53-.22.76.76,0,0,0,0-1.07.74.74,0,0,0-.53-.21H4.13L7.58,7.82a.82.82,0,0,0,.16-.25.72.72,0,0,0,.06-.29A.75.75,0,0,0,7.74,7a.78.78,0,0,0-.16-.24A.67.67,0,0,0,7.33,6.59Z"/></svg>