<svg id="Layer_1" data-name="Layer 1" xmlns="http://www.w3.org/2000/svg" viewBox="0 0 24 24"><path d="M22.88,17.6C22,16,19.67,14,18.71,13.19a.61.61,0,0,1-.05-.88,19.84,19.84,0,0,0,3.79-5.57.93.93,0,0,0-.89-1.24H19.69a1.17,1.17,0,0,0-1.16.57,15.21,15.21,0,0,1-3.72,5.24.79.79,0,0,1-1.31-.59V6.58a1,1,0,0,0-1-1L9,5.5a.52.52,0,0,0-.42.83l.57.81a1.64,1.64,0,0,1,.32,1v3.66a.72.72,0,0,1-1.23.5A17.76,17.76,0,0,1,4.89,6.21a1,1,0,0,0-1-.71H2.05A1,1,0,0,0,1,6.81C2.73,12.74,6.19,18.38,12.37,19a1,1,0,0,0,1.13-1V16a1,1,0,0,1,1-1h.06c1.63,0,3.46,2.38,4.1,3.49a1,1,0,0,0,.9.52H22A1,1,0,0,0,22.88,17.6Z"/></svg>