<svg width="1104" height="688" viewBox="0 0 1104 688" fill="none" xmlns="http://www.w3.org/2000/svg">
<g clip-path="url(#clip0_376_1600)">
<path d="M139.037 703.769C139.037 703.769 181.424 664.437 264.173 641.76C381.914 609.51 524.4 654.084 599.803 616.747C751.13 541.665 788.863 350.693 873.977 248.821C939.716 170.101 1048.78 138.686 1048.78 138.686L1274.55 92.6992L1319.82 314.931C1319.82 314.931 1210.35 354.039 1138.95 432.425C1047.01 533.42 977.87 769.023 843.085 860.37C736.804 932.427 542.516 844.594 414.813 902.539C303.882 952.884 217.92 1091.05 217.92 1091.05L139.037 703.769Z" fill="#24A4CD"/>
<path d="M126.881 833.502C126.881 833.502 225.968 730.7 295.956 715.032C422.709 686.694 607.547 726.397 716.566 661.47C818.592 600.689 871.508 400.374 949.568 311.381C1038.41 210.111 1301.98 95.1025 1301.98 95.1025L1165.29 59.0764C1165.29 59.0764 933.311 124.677 849.397 199.034C773.186 266.427 752.721 473.264 639.837 547.548C542.061 611.874 388.913 571.992 264.589 610.522C201.375 630.128 98.2913 693.141 98.2913 693.141L126.881 833.502Z" fill="white"/>
<path d="M173.188 1145.1C173.188 1145.1 286.219 1027.86 366.074 1010.03C510.677 977.656 721.506 1022.98 845.829 948.935C962.29 879.593 1022.6 651.107 1111.62 549.497C1212.95 433.963 1513.6 302.782 1513.6 302.782L1362.53 186.108C1362.53 186.108 1130.92 308.745 1035.11 393.489C948.277 470.331 908.415 671.264 779.665 755.988C668.134 829.366 485.786 783.082 343.98 827.089C271.855 849.341 140.576 984.989 140.576 984.989L173.188 1145.1Z" fill="#FA3E64"/>
<path style="mix-blend-mode:multiply" opacity="0.2" d="M139.037 703.769C139.037 703.769 181.424 664.437 264.173 641.76C381.914 609.51 524.4 654.084 599.803 616.747C751.13 541.665 788.863 350.693 873.977 248.821C939.716 170.101 1048.78 138.686 1048.78 138.686L1274.55 92.6992L1319.82 314.931C1319.82 314.931 1210.35 354.039 1138.95 432.425C1047.01 533.42 977.87 769.023 843.085 860.37C736.804 932.427 542.516 844.594 414.813 902.539C303.882 952.884 217.92 1091.05 217.92 1091.05L139.037 703.769Z" fill="url(#paint0_linear_376_1600)"/>
</g>
<defs>
<linearGradient id="paint0_linear_376_1600" x1="141.343" y1="715.095" x2="1351.04" y2="468.695" gradientUnits="userSpaceOnUse">
<stop stop-color="#24A4CD"/>
<stop offset="0.53" stop-color="#24A4CD" stop-opacity="0"/>
<stop offset="1" stop-color="#24A4CD"/>
</linearGradient>
<clipPath id="clip0_376_1600">
<rect width="1481.56" height="866.156" fill="white" transform="translate(0.3125 296.369) rotate(-11.513)"/>
</clipPath>
</defs>
</svg>
