<svg width="32" height="32" viewBox="0 0 32 32" fill="none" xmlns="http://www.w3.org/2000/svg">
    <path
        d="M17.6372 5.57741C18.4052 5.57741 19.1099 5.30608 19.7445 4.76408C20.3732 4.22274 20.7599 3.56474 20.8985 2.79674C21.0285 2.02341 20.8665 1.37141 20.3892 0.829409C19.9132 0.282075 19.2905 0.0107422 18.5205 0.0107422C17.7479 0.0107422 17.0445 0.282075 16.4152 0.829409C15.7785 1.37141 15.3919 2.02408 15.2605 2.79674C15.1652 3.56408 15.3492 4.22274 15.8019 4.76408C16.2559 5.30608 16.8699 5.57741 17.6372 5.57741Z"
        fill="#3a88fd" />
    <path
        d="M24.4533 25.3145C24.4533 25.0799 24.1453 24.8399 23.546 24.5892C23.476 24.6905 23.4053 24.7772 23.3353 24.8792C22.9173 25.4112 21.3586 27.2879 19.33 28.4125C19.3166 28.4179 19.306 28.4232 19.298 28.4305C19.1213 28.5245 18.9406 28.5945 18.7593 28.6779C18.224 28.8685 17.7246 28.9179 17.564 28.9312C17.1086 28.8712 16.862 28.5532 16.862 27.9505C16.862 27.4525 17.008 26.4692 17.304 24.9912L17.644 23.4999L19.0326 16.8325C19.2586 15.6959 19.38 15.0665 19.4073 14.9425L19.71 13.3832C19.8886 12.4172 19.9793 11.7792 19.9793 11.4679C19.9793 10.8719 19.83 10.4199 19.5933 10.0519C19.5726 9.99853 19.544 9.94453 19.5046 9.88853C19.4686 9.84586 19.4333 9.80786 19.3953 9.76853C19.354 9.72453 19.332 9.68253 19.276 9.63653C18.684 9.15253 18.1326 9.01453 17.7513 8.98386L17.758 8.97319C17.758 8.97319 15.252 8.78253 11.5406 11.2285C11.4866 11.2645 11.454 11.2885 11.4046 11.3225C10.4 11.9585 9.59663 12.5979 9.03996 13.1099C8.61196 13.4745 8.2833 13.8152 8.03996 14.1319C8.03996 14.1332 8.02796 14.1459 8.02796 14.1459L8.03063 14.1445C7.7133 14.5605 7.54663 14.9399 7.54663 15.2745C7.54663 15.5392 7.75996 15.8039 8.1853 16.0672C8.1853 16.0672 9.77996 14.0099 12.4586 12.6699C12.6613 12.5825 13.176 12.3699 13.6286 12.2519C13.8393 12.2032 14.2386 12.1659 14.494 12.3765C14.6766 12.5659 14.798 12.8319 14.798 13.2439C14.798 13.6192 14.7413 14.0725 14.6273 14.6179L14.356 15.9019L14.018 17.5065L12.6953 23.8512C12.0186 27.1285 11.68 29.0892 11.68 29.7279C11.68 31.2352 12.5046 31.9892 14.1533 31.9892C14.9 31.9892 15.6693 31.8539 16.4566 31.6119C16.462 31.6119 16.4646 31.6145 16.47 31.6165C16.524 31.5985 16.5733 31.5772 16.6246 31.5599C16.7553 31.5179 16.8873 31.4679 17.018 31.4179C20.7366 30.0339 23.1833 27.2465 23.924 26.3132C23.9893 26.2345 24.044 26.1599 24.0986 26.0885C24.14 26.0312 24.1666 25.9919 24.1666 25.9919H24.164C24.3513 25.7159 24.4533 25.4865 24.4533 25.3145Z"
        fill="#3a88fd" />
</svg>