<svg width="98" height="60" viewBox="0 0 98 60" fill="none" xmlns="http://www.w3.org/2000/svg">
<g clip-path="url(#clip0_266_1545)">
<path d="M51.4486 0.38398C49.2871 0.746735 46.5211 1.94081 44.1481 3.54299C41.9867 4.99401 40.6112 6.52062 39.5229 8.68204C38.9032 9.92146 37.5278 13.3979 37.2557 14.4257C36.8627 15.9221 35.7745 18.3404 34.6257 20.2298C32.4945 23.7516 31.9655 25.1724 32.0713 27.1675C32.1318 28.2256 32.2376 28.6186 32.7817 29.8429C34.2781 33.1379 34.4292 34.075 33.7793 36.2667C32.9631 39.0327 33.1142 41.2244 34.3234 44.4287C34.9582 46.1216 35.9709 49.8247 35.9709 50.4898C35.9709 50.6863 36.0465 50.8525 36.1221 50.8525C36.3488 50.8525 36.3035 49.2655 36.0465 47.7389C35.9105 47.0134 35.5326 45.6379 35.2152 44.6857C34.8827 43.7485 34.535 42.3731 34.4443 41.6627C34.263 40.2872 34.3537 37.1282 34.6106 35.8888C34.9734 34.1657 34.7013 31.6113 33.9456 29.4045C33.477 28.0744 33.4165 26.3513 33.7793 24.9305C33.9002 24.4317 34.656 22.7238 35.4419 21.1518C37.1046 17.8114 37.3464 17.2219 37.951 14.9698C38.6916 12.2189 40.5054 8.95411 42.9087 6.08229C43.8307 4.9789 44.3295 4.55568 45.9921 3.4523C48.8639 1.54782 49.3476 1.35133 51.0102 1.35133C53.6553 1.36645 56.5272 2.72678 58.7642 5.03936C59.4746 5.77999 60.4268 7.03452 61.8778 9.13549C63.3289 11.2213 64.2055 12.2492 65.2333 12.9898C65.7472 13.3828 66.3518 13.9118 66.5483 14.1687C67.1832 15.0152 68.0145 16.7987 68.3772 18.1742C68.8609 19.9124 68.9818 20.2298 69.6771 21.303C70.4177 22.4668 70.6747 23.3888 70.9619 25.9432C71.113 27.4094 71.2944 28.3011 71.5816 29.0418C71.9292 29.9184 71.9897 30.2963 71.9897 31.6567C71.9897 32.5333 71.8688 34.1657 71.7176 35.2842C71.4153 37.5817 71.4607 39.3048 71.899 41.5418L72.1711 42.9172L72.2618 39.7431C72.3222 37.9898 72.4734 35.8888 72.6094 35.0575C73.3349 30.4777 72.9873 27.3187 71.2793 22.9958C70.9014 22.0587 70.4933 20.8646 70.3573 20.3205C69.3748 16.3906 68.7249 15.2268 65.9891 12.5363C63.7067 10.2993 63.087 9.57382 61.4395 7.24613C58.4468 3.0442 55.9982 0.867657 53.6856 0.38398C52.7938 0.202602 52.552 0.202602 51.4486 0.38398Z" fill="#424242"/>
<path d="M43.906 2.349C40.2331 3.30124 38.1775 4.19301 36.3335 5.61381C35.8196 6.02191 34.6709 6.91369 33.764 7.62409C31.5572 9.34718 29.0481 11.8865 28.4284 13.0503C27.7331 14.3804 27.3704 15.9675 27.2041 18.6126C27.0681 20.7287 26.7658 22.5122 26.1007 25.0364C25.8589 25.9282 25.8438 25.9433 25.2996 25.777C24.7555 25.6259 23.9695 25.898 23.8184 26.291C23.6824 26.6537 23.6975 27.0014 23.8637 26.9107C23.9393 26.8653 24.0753 26.9258 24.1811 27.0467C24.5892 27.5304 25.3601 27.1223 25.1938 26.5177C25.1334 26.291 25.1938 26.2154 25.4206 26.2154C25.7077 26.2154 25.7229 26.2758 25.6322 26.8502C25.5717 27.213 25.4961 28.1803 25.4357 29.0116C25.3299 30.9463 25.6019 32.4125 26.5995 34.982C27.6273 37.6573 27.8238 38.4433 28.0354 40.5745L28.2017 42.4639L28.4133 41.3303C28.7307 39.456 28.4133 37.748 27.1285 34.7099C25.9647 31.9288 26.0252 27.8931 27.2797 24.2958C27.582 23.404 27.6576 22.9203 27.6576 21.6507C27.6576 17.6604 28.6551 14.592 30.8166 11.8563C32.2223 10.0878 37.3764 5.7045 39.1751 4.75226C39.6588 4.49531 40.6412 4.08721 41.3365 3.84537C42.8027 3.34658 45.1304 2.37923 45.5687 2.07693C45.9466 1.81998 45.8861 1.83509 43.906 2.349Z" fill="#424242"/>
<path d="M78.0797 6.581C77.0519 6.74726 75.0718 7.42743 73.9835 7.97157C72.4872 8.7122 70.0386 10.4504 69.177 11.4026C68.2852 12.37 68.0736 12.9444 68.3155 13.8059C68.5724 14.743 68.7236 14.8186 68.8143 14.0629C69.0259 12.5967 70.1897 11.0852 71.8675 10.1179C72.2907 9.87604 73.1069 9.36214 73.6813 8.96915C76.1147 7.33675 77.1728 7.07979 79.4098 7.60881C82.1758 8.27387 83.9896 9.58886 86.4684 12.7328C88.2369 14.9849 89.1891 15.9673 90.2472 16.708C91.275 17.4032 92.1365 18.6276 92.726 20.1995C92.9527 20.8041 93.4817 22.0133 93.8898 22.8899C94.3131 23.7666 95.0839 25.792 95.6129 27.4093C96.6861 30.6439 96.7163 30.8706 96.3536 33.4704C96.0664 35.526 96.0664 37.4909 96.3536 39.0931C96.7163 41.1789 96.8977 41.3603 96.807 39.5163C96.7465 38.4129 96.807 37.0979 97.0337 35.1783C97.5174 30.8404 97.3965 29.1324 96.4291 26.7442C96.2024 26.1548 95.7792 25.1421 95.5222 24.477C95.2502 23.812 94.8572 22.6935 94.6607 21.9831C93.905 19.3682 93.4969 18.8089 89.5216 15.0302C88.6147 14.1687 87.7834 13.156 86.9521 11.9317C84.8511 8.818 82.5688 7.03445 80.1202 6.56589C79.2133 6.39962 79.1377 6.39962 78.0797 6.581Z" fill="#424242"/>
<path d="M19.0881 8.30383C17.3045 8.84796 15.6872 10.3141 13.9641 12.9441C13.0119 14.3951 12.241 15.3171 10.9109 16.6472C8.90064 18.6726 8.40185 19.4586 7.78214 21.6503C7.57053 22.4211 7.1322 23.721 6.79967 24.5372C5.83232 26.9707 5.68117 27.7113 5.69629 29.9181C5.69629 30.9913 5.77186 32.412 5.87767 33.062C5.96836 33.7119 6.04393 35.1025 6.05905 36.1605C6.07416 38.0499 6.07416 38.065 6.28577 37.4C6.78456 35.8129 6.86013 34.2409 6.58807 31.5958L6.316 29.1019L6.64853 27.5602C7.14732 25.2476 7.49496 24.2198 8.1449 23.2373C8.56811 22.6176 8.84018 21.9526 9.08202 21.0003C9.62616 18.8087 10.0796 18.0983 11.8934 16.7077C12.241 16.4507 13.3444 15.1509 14.3571 13.8208C15.3698 12.5058 16.5034 11.1454 16.8964 10.828C17.8638 10.0118 19.0276 9.45256 20.267 9.19561C21.189 8.99911 21.4309 8.99911 22.2924 9.21072C24.6957 9.76997 27.0234 11.4477 27.5977 13.0499L27.7942 13.594L27.8093 12.9894C27.8093 12.6569 27.6884 12.143 27.5373 11.8558C26.8873 10.6466 24.1515 8.96888 21.8541 8.3794C20.4786 8.03176 19.9798 8.01665 19.0881 8.30383Z" fill="#424242"/>
<path d="M15.7929 9.66439C15.551 9.78531 14.8709 9.95157 14.2814 10.0423C11.2886 10.5259 9.88295 11.4328 5.46941 15.7103C2.79408 18.3101 2.49178 18.9903 2.12902 23.1922C2.03834 24.2502 1.76627 25.7466 1.41863 27.0465C0.950064 28.8754 0.87449 29.4044 0.859375 30.9008C0.859375 32.4727 0.90472 32.7599 1.32794 33.9238C2.70339 37.7025 2.73362 37.8234 2.82431 39.3953C2.915 40.7406 2.94523 40.8766 3.06615 40.4232C3.14172 40.136 3.17195 39.2744 3.14172 38.5338C3.08126 37.3851 2.97546 36.9316 2.43132 35.6015C1.3884 33.0169 1.34305 31.0822 2.26506 27.636C2.56736 26.5477 2.7185 25.5955 2.7185 24.9153C2.7185 23.4189 2.99057 21.4691 3.33821 20.4111C4.04861 18.3101 5.87751 16.1487 9.29347 13.428C11.2886 11.856 11.606 11.6596 13.5408 10.9492C14.9918 10.405 16.3219 9.72485 16.3219 9.51324C16.3219 9.42255 16.3521 9.40744 15.7929 9.66439Z" fill="#424242"/>
<path d="M49.0478 12.4152C48.1863 12.7326 46.9922 13.3976 46.7201 13.715C46.5992 13.8662 46.8108 13.836 47.4154 13.5941C48.5641 13.1256 50.1814 12.8535 51.179 12.9593C51.6325 13.0046 52.8265 13.3825 53.8846 13.8057C54.9275 14.2289 55.9402 14.5766 56.1367 14.5766C56.3332 14.5766 57.0738 14.1987 57.7842 13.7453C59.2201 12.8081 59.8852 12.6117 60.5502 12.9593C61.6234 13.5185 61.8955 14.4254 61.3815 15.7858C61.0188 16.738 60.9886 17.4786 61.2909 18.1286L61.4874 18.582L61.5025 17.9019C61.5176 17.524 61.6838 16.8589 61.8955 16.4055C62.4245 15.2719 62.5 14.6219 62.2129 13.6244C62.0164 12.9744 61.8652 12.7175 61.4571 12.4756C60.4142 11.8257 58.4946 12.1884 57.0285 13.3069C56.5599 13.6697 56.5146 13.6697 56.1518 13.4279C55.91 13.2616 55.6077 13.2163 55.2903 13.2616C54.9124 13.3221 54.5194 13.2163 53.6881 12.793C52.6905 12.3094 52.4335 12.2489 51.1941 12.2036C50.1512 12.1582 49.6222 12.2187 49.0478 12.4152Z" fill="#424242"/>
<path d="M41.6373 12.7325C40.8513 13.0953 39.9596 14.0929 39.7631 14.8335C39.5212 15.6799 39.5666 16.3601 39.9142 17.6902C40.5188 19.9574 40.549 20.2144 40.3072 20.8039C40.1561 21.1515 39.8387 21.5143 39.4457 21.7561C38.4632 22.3758 37.783 24.2047 38.0702 25.4593L38.176 25.9883L38.2969 25.2628C38.5085 23.9024 38.8108 23.2978 39.8235 22.2851C40.413 21.6805 40.8665 21.0911 40.9572 20.7736C41.199 19.9272 41.1234 18.3553 40.806 17.3275C40.2316 15.4834 40.5037 14.3045 41.6827 13.6243C42.7709 12.9895 43.7081 13.2767 44.7056 14.5614L45.1893 15.2114V14.6521C45.1893 13.4732 44.3429 12.6418 43.0279 12.5209C42.4535 12.4605 42.0757 12.5209 41.6373 12.7325Z" fill="#424242"/>
<path d="M59.233 14.5616C58.5528 15.2417 58.4923 15.6498 59.0214 16.1637C59.7015 16.859 60.427 16.5718 60.0038 15.7859C59.8829 15.5591 59.9434 15.3929 60.3061 14.9848C60.9107 14.2895 60.8956 13.9721 60.291 13.9721C59.9434 13.9721 59.6562 14.1232 59.233 14.5616Z" fill="#424242"/>
<path d="M42.1386 14.5919C41.7002 14.8338 41.6398 15.6651 42.0025 16.4662C42.2292 16.9801 42.3804 17.1614 42.5769 17.1161C42.7885 17.0859 42.8641 16.8894 42.8943 16.2697C42.9396 15.5744 42.985 15.4535 43.3175 15.3325C43.7256 15.1663 43.8163 14.6524 43.4384 14.5163C43.0908 14.3803 42.4257 14.4105 42.1386 14.5919Z" fill="#424242"/>
<path d="M84.9606 17.2368C84.5071 17.4333 83.8119 17.8414 83.4189 18.1286L82.6934 18.6425L81.7411 18.2042C81.2121 17.9624 80.3808 17.6601 79.882 17.524C78.7635 17.2368 76.7532 17.2368 75.8312 17.5089C75.1208 17.7205 73.6849 18.4763 73.7907 18.5821C73.8209 18.6123 74.3197 18.4612 74.8941 18.2495C75.7859 17.917 76.2091 17.8414 77.5392 17.8414C79.0809 17.8263 79.1716 17.8414 80.668 18.4612C81.5144 18.8239 82.4062 19.1111 82.6631 19.1111C82.9654 19.1111 83.5398 18.839 84.2804 18.3553C85.7466 17.388 86.3814 17.3427 87.1522 18.1135C87.772 18.7332 87.8173 19.2925 87.3487 20.5319C87.0464 21.3027 87.0313 21.4539 87.2127 22.0283L87.4243 22.6631L87.5301 21.9829C87.5906 21.605 87.8173 20.9098 88.044 20.4261C88.5277 19.3832 88.4824 18.9448 87.8173 17.9775C87.3185 17.252 86.6988 16.8439 86.1244 16.8439C85.9279 16.8439 85.414 17.0252 84.9606 17.2368Z" fill="#424242"/>
<path d="M56.3328 17.252C56.2875 17.3276 56.5747 17.4939 56.9526 17.645C57.8292 17.9473 58.7815 18.7333 59.1744 19.4739C59.3407 19.7762 59.507 20.0181 59.5523 20.0181C59.7035 20.0181 60.1569 18.9903 60.1569 18.6728C60.1569 18.4612 60.0058 18.3705 59.5674 18.3101C59.2349 18.2647 58.6605 18.0229 58.2675 17.7508C57.5571 17.2672 56.4991 16.9951 56.3328 17.252Z" fill="#424242"/>
<path d="M70.3568 17.4486C70.3115 17.5241 70.387 17.5997 70.5382 17.5997C70.6893 17.5997 71.0974 17.7357 71.4602 17.902C71.959 18.1287 72.1706 18.3403 72.3671 18.8089C72.6845 19.5495 72.8508 19.5798 72.8508 18.8694C72.8508 18.1741 72.6392 17.8113 72.095 17.5241C71.5962 17.2672 70.4929 17.2218 70.3568 17.4486Z" fill="#424242"/>
<path d="M25.2235 17.887C24.9816 18.1289 24.7852 18.4463 24.7852 18.5823C24.7852 18.7637 24.9363 18.7032 25.4502 18.3254C25.813 18.0533 26.2362 17.751 26.3873 17.6452C26.6443 17.494 26.6141 17.4638 26.1757 17.4638C25.813 17.4487 25.5409 17.5696 25.2235 17.887Z" fill="#424242"/>
<path d="M13.1479 17.7961C12.6793 18.0228 12.0898 19.1564 12.0898 19.8064C12.0898 20.0784 12.1654 20.4865 12.2561 20.7284C12.3619 20.9551 12.5131 21.4841 12.6189 21.9073L12.8002 22.6631L12.9212 22.0736C13.0119 21.6353 12.9665 21.2574 12.77 20.683C12.4375 19.7006 12.5433 18.8995 13.0572 18.3705C13.6618 17.781 14.2966 17.8566 15.5209 18.703C16.0953 19.096 16.6999 19.4134 16.8964 19.4134C17.0778 19.4134 17.7882 19.1262 18.4834 18.7786C19.9496 18.0379 21.2646 17.8717 22.6703 18.2647C23.6678 18.5216 23.8492 18.4612 23.0481 18.1135C21.3704 17.4182 19.5112 17.4938 17.8335 18.3251L17.0022 18.7483L16.322 18.3251C15.2035 17.6147 13.9339 17.4031 13.1479 17.7961Z" fill="#424242"/>
<path d="M43.9839 17.8718C43.2735 18.2194 42.8352 18.9298 42.6538 20.003C42.4724 20.9703 42.019 21.9981 41.5202 22.5423C41.0819 23.041 41.5504 23.0108 42.1248 22.5271C42.5782 22.1493 42.8201 21.6656 43.3793 20.1541C43.7723 19.0961 44.3316 18.5368 45.2082 18.3857L45.8733 18.2647L45.4954 18.0229C44.8757 17.6299 44.5432 17.5846 43.9839 17.8718Z" fill="#424242"/>
<path d="M30.591 19.6101C30.5608 21.6053 30.4248 22.2703 29.3818 25.1573C28.8679 26.6234 28.8075 26.9106 28.747 28.7546C28.611 32.7903 29.5783 36.5841 31.3619 38.9874C31.9967 39.8489 31.9967 39.8489 31.241 38.277C30.2736 36.2818 29.9109 34.6343 29.8202 31.9589C29.7295 29.4801 29.7748 29.1929 30.6062 25.4596C31.0747 23.3132 31.2561 20.4716 30.9991 19.0811C30.6968 17.5242 30.6062 17.6452 30.591 19.6101Z" fill="#424242"/>
<path d="M62.3622 18.4613C62.4982 19.4286 62.8459 20.4111 63.4051 21.3331C64.5085 23.2073 65.1131 25.6711 64.9166 27.5302C64.8561 28.0592 64.8561 28.4824 64.9015 28.4824C65.098 28.4824 65.5968 26.3966 65.5968 25.5501C65.5968 24.3863 65.4154 23.7515 64.841 22.8446C64.5992 22.4516 64.2818 21.7412 64.1457 21.2726C63.4958 19.0054 62.1506 16.8893 62.3622 18.4613Z" fill="#424242"/>
<path d="M85.4417 18.6578C84.9429 18.9601 84.6406 19.3833 84.6406 19.7763C84.6406 20.2146 85.3964 20.925 85.8649 20.925H86.3033L86.0312 20.3809L85.7742 19.8368L86.3486 19.3531C87.059 18.7485 87.0892 18.3555 86.4242 18.3555C86.1521 18.3555 85.7138 18.4916 85.4417 18.6578Z" fill="#424242"/>
<path d="M70.9486 18.8693C71.009 19.1112 71.0997 19.489 71.1451 19.7309C71.2509 20.275 71.4474 20.2901 71.6741 19.7762C71.8857 19.3379 71.7497 19.0507 71.1904 18.6728C70.8428 18.4461 70.8428 18.4461 70.9486 18.8693Z" fill="#424242"/>
<path d="M26.2691 19.066C25.9366 19.4287 25.9214 19.7764 26.2237 20.0182C26.5563 20.2903 26.6318 20.1542 26.5714 19.4136C26.526 18.7939 26.526 18.7788 26.2691 19.066Z" fill="#424242"/>
<path d="M13.4492 19.2472C13.4492 19.3379 13.6004 19.5042 13.7666 19.6251C14.0236 19.8065 14.0689 19.9425 14.0085 20.3052C13.8876 20.8494 14.0236 20.8947 14.5677 20.4564C15.0514 20.0785 15.0665 19.8669 14.6131 19.4437C14.2654 19.1112 13.4492 18.9751 13.4492 19.2472Z" fill="#424242"/>
<path d="M51.3109 21.2274C51.2505 21.3181 51.1749 21.7564 51.1296 22.1947C51.054 22.9051 51.1144 23.147 51.5225 23.9783C51.7795 24.5224 51.9911 25.1572 51.9911 25.3991L52.0062 25.8374L52.2329 25.3084C52.7317 24.1748 52.6864 23.6155 52.0213 22.2854C51.6888 21.6204 51.3714 21.1367 51.3109 21.2274Z" fill="#424242"/>
<path d="M14.6898 21.6202C14.2666 21.9074 14.0701 22.3759 13.8887 23.57C13.798 24.0688 13.5411 24.8397 13.2841 25.2629C13.0423 25.7012 12.9063 26.064 12.9818 26.064C13.2992 26.064 13.9038 25.0815 14.2817 23.9479C14.7503 22.5271 15.2642 21.8318 15.8385 21.8318L16.2466 21.8167L15.8688 21.6051C15.37 21.3179 15.0979 21.333 14.6898 21.6202Z" fill="#424242"/>
<path d="M82.9027 22.0434L82.4492 22.2399L83.0992 22.3457C84.0061 22.4817 84.8071 22.9201 85.3664 23.57C85.8501 24.099 85.8501 24.1141 85.8501 23.7211C85.8501 23.5095 85.9559 23.1317 86.0768 22.8898L86.3186 22.4364H85.7896C85.5175 22.4364 85.049 22.3457 84.7769 22.2248C83.9456 21.8922 83.3863 21.8318 82.9027 22.0434Z" fill="#424242"/>
<path d="M11.8314 22.7537C11.6349 23.1316 11.4233 23.8117 11.3326 24.2652C11.2419 24.7186 11.0605 25.5046 10.9245 26.0185C10.6373 27.137 10.7129 29.0264 11.0907 29.8426L11.3174 30.3716L11.2116 29.767C10.9547 28.1799 11.1814 26.4115 11.8918 24.6582C12.1639 23.9931 12.2395 23.5548 12.2092 22.92L12.1639 22.0584L11.8314 22.7537Z" fill="#424242"/>
<path d="M88.4951 23.3735C88.5556 23.8421 88.9183 24.8548 89.3415 25.7768C90.4147 28.0743 90.7623 30.0845 90.3845 31.7321C90.2635 32.2913 90.2635 32.3064 90.4752 32.0344C91.2611 30.9763 91.3367 28.4975 90.6414 27.1825C90.4147 26.7744 90.0671 25.8675 89.8403 25.1571C89.4322 23.7967 88.8125 22.5876 88.5556 22.5876C88.4498 22.5876 88.4195 22.8596 88.4951 23.3735Z" fill="#424242"/>
<path d="M56.9056 23.1772C56.437 23.3737 56.0894 23.8422 55.9835 24.4166C55.908 24.87 55.9231 24.9003 56.1196 24.6736C56.3161 24.4317 56.3463 24.4317 56.4975 24.7794C56.6335 25.0514 56.7846 25.1572 57.1172 25.1572C57.6915 25.1572 58.0392 24.8096 58.0392 24.2352C58.0392 23.8573 58.0845 23.7969 58.3264 23.8725C58.7345 23.9934 58.8705 23.676 58.5531 23.3283C58.281 23.026 57.4648 22.9505 56.9056 23.1772Z" fill="#424242"/>
<path d="M45.8876 23.5098C45.4341 23.8726 45.5097 24.1598 46.0387 24.0389C46.3713 23.9482 46.3864 23.9935 46.3713 24.4923C46.341 25.4294 47.3537 25.8375 47.8525 25.0818C48.0944 24.719 48.1095 24.719 48.306 24.9609C48.5025 25.2027 48.5176 25.1876 48.4269 24.7795C48.2757 24.0842 48.0944 23.8121 47.5653 23.4947C46.9456 23.1017 46.3864 23.1168 45.8876 23.5098Z" fill="#424242"/>
<path d="M21.1595 25.8373C20.9781 26.3361 20.963 27.9836 21.1443 28.0894C21.3559 28.2254 21.6129 27.3186 21.6129 26.4268C21.6129 25.535 21.3862 25.2327 21.1595 25.8373Z" fill="#424242"/>
<path d="M16.488 25.9732C16.1101 26.1848 16.2915 26.472 16.6996 26.3057C16.8659 26.2453 16.9263 26.336 16.9263 26.6534C16.9263 26.8952 17.0321 27.1673 17.1531 27.2731C17.4251 27.4998 17.9844 27.3335 17.9844 27.0161C17.9844 26.8196 18.0297 26.8196 18.2111 26.9708C18.4983 27.2126 18.5134 26.9557 18.2564 26.472C17.8937 25.7616 17.1984 25.5802 16.488 25.9732Z" fill="#424242"/>
<path d="M78.4727 27.2731C78.4727 27.9835 78.5482 28.83 78.654 29.1625L78.8505 29.7671L78.9714 29.3439C79.1377 28.7393 78.9866 27.1522 78.6994 26.5174L78.4727 25.9884V27.2731Z" fill="#424242"/>
<path d="M45.9156 26.9557C46.626 27.4847 47.3817 28.5578 47.6387 29.4194C47.7293 29.7368 47.8654 29.9484 47.9258 29.9031C48.1677 29.7519 48.077 28.18 47.8049 27.7114C47.5177 27.2277 46.6411 26.7289 45.7946 26.5778L45.2656 26.472L45.9156 26.9557Z" fill="#424242"/>
<path d="M57.5101 26.7291C56.6183 27.0163 55.9684 27.3791 55.7114 27.7569C55.4696 28.1046 55.4091 29.1475 55.6056 29.8277C55.6963 30.1451 55.7416 30.0846 55.9684 29.3591C56.2404 28.4673 57.1624 27.2732 57.9635 26.8047C58.4925 26.4722 58.3716 26.457 57.5101 26.7291Z" fill="#424242"/>
<path d="M41.2617 27.5452C41.2617 29.0718 42.1535 30.6589 43.3325 31.2635C44.1789 31.6867 44.8742 32.3971 45.3125 33.2435C45.5695 33.7423 45.6299 33.7876 45.645 33.5005C45.645 32.911 45.0858 32.0041 44.33 31.3995C43.9371 31.0821 43.3476 30.5531 43.015 30.2356C42.3953 29.6008 41.564 28.0289 41.564 27.4696C41.564 27.2882 41.5036 27.0918 41.4129 27.0464C41.3222 26.9859 41.2617 27.1824 41.2617 27.5452Z" fill="#424242"/>
<path d="M88.3894 27.6211C88.4499 28.2106 88.3894 28.4978 88.0418 29.1628C87.7093 29.843 87.6488 30.1151 87.7244 30.629C87.8453 31.4149 88.1174 31.9289 88.1174 31.3847C88.1174 31.1882 88.2987 30.7197 88.5103 30.3569C88.8429 29.7825 88.9033 29.5558 88.8429 28.8152C88.7975 28.3466 88.6615 27.7118 88.5406 27.4246L88.3138 26.8956L88.3894 27.6211Z" fill="#424242"/>
<path d="M73.4881 27.4699C73.0951 27.6966 73.2009 27.878 73.7148 27.878C73.9869 27.878 74.0624 27.9687 74.0624 28.2407C74.0624 28.7093 74.1985 28.8 75.0449 28.8302C75.6646 28.8605 75.7251 28.8302 75.7251 28.5128C75.7251 28.3163 75.5286 27.9536 75.2868 27.7117C74.8031 27.228 74.1078 27.1374 73.4881 27.4699Z" fill="#424242"/>
<path d="M82.4633 27.6512C82.2517 27.8477 82.0703 28.1802 82.0703 28.3767C82.0703 28.679 82.161 28.7697 82.5691 28.8301C83.1586 28.9208 83.7329 28.6034 83.7329 28.1802C83.7329 27.9837 83.8388 27.8779 84.0201 27.8779C84.4887 27.8779 84.5492 27.5907 84.1108 27.4245C83.4609 27.1675 82.9016 27.2431 82.4633 27.6512Z" fill="#424242"/>
<path d="M37.6787 29.3136C37.724 30.9914 38.0112 31.8076 39.0239 33.2435C39.3262 33.6667 39.6436 34.2713 39.7494 34.6038C40.0366 35.541 40.8679 37.128 41.4876 37.9291C41.7899 38.3372 42.2131 39.0023 42.4247 39.4255C42.9386 40.4684 44.0118 41.9648 44.5862 42.4333C44.8431 42.6601 45.6895 43.2042 46.4755 43.6728C47.5789 44.3227 48.0475 44.7006 48.5916 45.411C48.9695 45.9098 49.3322 46.3179 49.3776 46.3179C49.4985 46.3179 48.5311 44.6401 47.987 43.9297C47.7149 43.567 46.9894 42.8868 46.3848 42.4182C45.6291 41.8288 44.7222 40.8312 43.4374 39.229C41.8957 37.2943 41.4876 36.6444 40.9284 35.3747C40.5807 34.5434 39.9157 33.3644 39.4773 32.7749C38.6007 31.5506 38.3588 30.9763 37.9356 29.0869L37.6484 27.8022L37.6787 29.3136Z" fill="#424242"/>
<path d="M13.5244 29.1624C13.7058 29.9635 14.3708 31.3087 14.7941 31.7168C15.0057 31.9284 15.4893 32.2005 15.8672 32.3365C16.23 32.4574 16.6532 32.6841 16.8043 32.8202C17.152 33.1376 17.152 32.9109 16.8043 32.3365C16.6381 32.0796 16.1997 31.7168 15.8219 31.5203C14.9754 31.082 14.6883 30.7948 13.9779 29.6158C13.5546 28.9205 13.4337 28.8147 13.5244 29.1624Z" fill="#424242"/>
<path d="M17.3816 29.7823C17.6385 30.2508 17.835 30.7798 17.835 30.9612C17.835 31.2182 17.8652 31.2333 17.9861 31.0519C18.0617 30.931 18.1373 30.5833 18.1373 30.281C18.1373 29.7369 17.9257 29.4346 17.2757 29.1021C16.9583 28.9358 16.9734 28.9812 17.3816 29.7823Z" fill="#424242"/>
<path d="M60.6371 29.3893C60.5162 29.601 59.9569 30.2055 59.3826 30.7497C58.7931 31.3089 58.2339 31.974 58.1129 32.3216L57.8711 32.896L58.4455 32.3216C58.7629 31.9891 59.3675 31.5205 59.7756 31.2787C60.622 30.7799 60.9545 30.2358 60.879 29.4951L60.8336 29.0115L60.6371 29.3893Z" fill="#424242"/>
<path d="M49.7248 29.6007C49.6341 29.6914 49.5737 29.8425 49.5737 29.9332C49.5737 30.039 49.3318 30.3111 49.0446 30.5378C48.6063 30.8703 48.5156 31.0366 48.5156 31.49V32.0342L48.8179 31.5354C48.9842 31.2784 49.2109 31.0517 49.3318 31.0517C49.4527 31.0517 49.7399 30.825 49.9818 30.5378C50.3899 30.039 50.4503 30.0239 51.72 29.9483L53.035 29.8576L53.3524 30.3111C53.5338 30.5529 53.8814 30.8552 54.1232 30.9913C54.3802 31.1122 54.6371 31.3691 54.7127 31.5505C54.8336 31.8377 54.8488 31.8226 54.8488 31.3691C54.8639 30.9308 54.743 30.7343 54.1081 30.1599L53.3373 29.4647H51.5991C50.6468 29.4647 49.8004 29.5251 49.7248 29.6007Z" fill="#424242"/>
<path d="M83.1903 30.4173C81.8753 31.2184 81.7695 31.3242 81.7695 31.9137C81.7695 32.3671 82.1172 33.3193 82.2834 33.3193C82.3288 33.3193 82.4648 32.9717 82.6008 32.5485C82.752 32.1253 83.1601 31.3393 83.5077 30.8103C83.8705 30.2812 84.1426 29.8429 84.1426 29.8429C84.1275 29.858 83.7042 30.0999 83.1903 30.4173Z" fill="#424242"/>
<path d="M63.675 31.2788C63.1309 32.3671 62.889 32.6543 61.9973 33.3798C60.4858 34.5739 60.2893 34.8459 60.0928 36.0702C60.0323 36.3725 59.6242 37.1736 59.1859 37.8387C58.7476 38.5188 58.2639 39.3804 58.1127 39.7734C57.493 41.4209 55.5583 43.7788 53.5934 45.2601L52.7923 45.8647L52.1272 45.638C51.0843 45.2601 50.253 44.7159 49.5728 43.9451L48.9531 43.2347L49.3159 44.2474C49.7996 45.5624 50.0565 45.9403 50.9029 46.5146C52.0366 47.3006 52.4447 47.7238 52.6412 48.3133L52.8376 48.8574L53.548 47.482C54.4096 45.774 54.8933 45.1694 56.3443 44.0358C57.8104 42.887 58.2337 42.2673 58.7173 40.7105C59.2464 39.0176 59.5487 38.3526 60.1986 37.5817C60.516 37.2039 60.7881 36.6899 60.8334 36.3725C61.045 35.0727 61.3322 34.6041 62.3449 33.8786C62.8739 33.5007 63.4181 32.9868 63.539 32.7601C63.7959 32.2311 64.4459 30.1452 64.3552 30.0696C64.325 30.0394 64.0075 30.5684 63.675 31.2788Z" fill="#424242"/>
<path d="M74.5881 31.2789C74.8753 31.8381 75.1171 32.4276 75.1171 32.609C75.1171 32.881 75.1474 32.8962 75.2683 32.7148C75.4346 32.4427 75.4648 31.3544 75.2985 31.1126C75.2381 31.037 74.9358 30.8103 74.6335 30.6138L74.0742 30.2813L74.5881 31.2789Z" fill="#424242"/>
<path d="M19.7243 31.0672C19.4372 31.3242 19.1953 31.6718 19.1953 31.8381C19.1953 32.1253 19.2255 32.1102 19.5127 31.7474C20.2231 30.8405 21.2207 30.7196 22.3543 31.3695C23.0345 31.7625 23.1252 31.6265 22.5508 31.0521C22.1427 30.644 21.9916 30.5987 21.1754 30.5987C20.3743 30.5987 20.208 30.6591 19.7243 31.0672Z" fill="#424242"/>
<path d="M50.2228 31.9287C49.603 32.3217 49.6786 33.8332 50.3437 34.6041L50.7669 35.0877L50.2379 35.3296C49.9507 35.4807 49.5426 35.5865 49.331 35.5865C48.7566 35.5865 48.2125 34.9517 48.1974 34.2715C48.1823 33.9541 48.1218 33.5309 48.0613 33.3193C47.9555 33.0019 47.9253 33.0623 47.8951 33.6972C47.8044 34.9971 47.88 35.5412 48.1974 36.176C48.5601 36.8713 48.6055 36.9015 48.9985 36.5388C49.1798 36.3725 49.4821 36.2969 49.7995 36.3272C50.0867 36.3423 50.5553 36.2516 50.8425 36.1156C51.3261 35.8888 51.5226 35.8737 52.7016 36.04C53.4422 36.1458 54.2131 36.3272 54.4398 36.4481C54.8177 36.6295 54.8933 36.6143 55.1502 36.3574C55.7095 35.7981 56.0722 33.9995 55.785 33.2437C55.6943 33.017 55.649 33.1379 55.5583 33.7274C55.4223 34.7854 55.0142 35.2842 54.2735 35.2842C53.9561 35.2842 53.4725 35.2389 53.2155 35.1935L52.7318 35.0877L53.1097 34.6948C53.8654 33.8937 54.0619 32.4578 53.4725 32.0497C53.1702 31.838 53.1097 31.838 52.6563 32.1252L52.1575 32.4275L51.4773 32.1101C50.7518 31.7776 50.5099 31.7474 50.2228 31.9287Z" fill="#424242"/>
<path d="M66.0184 32.3368C65.837 33.3646 65.1569 34.4831 64.0535 35.6319C62.8745 36.8562 61.7258 38.4886 60.305 40.9976C59.3528 42.6905 59.2016 42.8568 56.7228 45.124C56.2996 45.5019 55.8461 46.0309 55.7101 46.303L55.4531 46.8018L56.2693 46.182C56.7077 45.8344 57.3123 45.4868 57.5994 45.3961C57.8866 45.2903 58.325 45.0635 58.5819 44.8671C59.0958 44.4892 61.1665 41.1186 61.6653 39.8489C62.0583 38.8211 62.5118 38.2316 63.4791 37.4759C64.9755 36.312 66.2754 33.8483 66.1696 32.3822L66.1242 31.7322L66.0184 32.3368Z" fill="#424242"/>
<path d="M10.6517 32.7447C10.8935 33.9237 11.0447 34.3469 11.5434 35.1328C11.8306 35.5863 12.3597 36.5083 12.7073 37.1582C13.0701 37.8082 13.4933 38.5337 13.6746 38.7453C13.856 38.9569 14.3548 39.6673 14.7931 40.3172C15.564 41.466 15.6245 41.5264 16.8941 42.1008C17.801 42.524 18.4509 42.9472 19.0102 43.4914L19.7962 44.2773L19.5543 43.5669C19.2671 42.7205 18.98 42.4031 16.9999 40.8765C15.3675 39.622 14.2944 38.3674 13.1456 36.342C12.7829 35.7223 12.2387 34.9666 11.9364 34.6794C11.5737 34.3318 11.2563 33.8179 11.0295 33.1981C10.6517 32.1703 10.5005 31.989 10.6517 32.7447Z" fill="#424242"/>
<path d="M13.3868 32.6389C13.7042 33.9841 14.5355 36.1153 15.0948 36.9013C16.1377 38.3977 17.0144 39.2139 17.6038 39.2139C17.891 39.2139 17.8154 39.0778 16.969 38.1861C15.6691 36.8408 15.2459 36.206 14.1879 34.0295C13.6891 33.0168 13.3414 32.3819 13.3868 32.6389Z" fill="#424242"/>
<path d="M19.7829 32.6086C19.5411 33.1225 19.7376 34.0294 20.1759 34.4526L20.5235 34.8154L20.0096 35.0572C19.7225 35.1932 19.3446 35.2537 19.1783 35.2084C18.7702 35.0723 18.2865 34.2712 18.2714 33.6969C18.2714 33.2434 18.2714 33.2434 18.1203 33.6062C17.9389 34.0596 18.0598 34.6793 18.4982 35.5107L18.8307 36.1304L19.6469 35.7676C20.4782 35.4049 20.6596 35.4049 22.292 35.6769C22.6245 35.7223 22.9873 35.8432 23.0931 35.9339C23.3198 36.1153 23.3198 36.1153 23.6372 35.4804C23.9093 34.9514 23.9697 33.848 23.7279 33.6969C23.6372 33.6364 23.5767 33.8178 23.5767 34.1201C23.5767 34.9968 22.685 35.4351 21.9746 34.9212C21.7025 34.7096 21.7025 34.6945 21.9595 34.6038C22.5489 34.3619 22.9117 32.9411 22.4582 32.5784C22.3373 32.4726 21.9443 32.4121 21.5816 32.4272C21.2339 32.4423 20.72 32.397 20.448 32.3365C20.0248 32.2458 19.9341 32.2761 19.7829 32.6086Z" fill="#424242"/>
<path d="M77.3888 32.5633C77.2225 32.7296 77.0865 32.9563 77.0865 33.0772C77.0865 33.1981 76.8447 33.576 76.5575 33.9237C75.9831 34.6189 75.968 34.6492 76.1796 34.9817C76.3005 35.1782 76.3308 35.1782 76.3308 34.9515C76.3308 34.8154 76.5424 34.5585 76.7842 34.3771C77.0412 34.1957 77.3435 33.8178 77.4493 33.5458C77.7062 32.9412 78.462 32.6389 79.3537 32.79C79.8828 32.8807 80.0037 32.9714 80.2002 33.44C80.3211 33.7574 80.6234 34.1806 80.8803 34.4073L81.3187 34.8154V34.4073C81.3187 34.0295 80.3816 32.6842 79.8979 32.3819C79.8072 32.3215 79.2782 32.261 78.7189 32.261C77.8876 32.261 77.6306 32.3215 77.3888 32.5633Z" fill="#424242"/>
<path d="M90.7775 33.9844C90.717 34.3018 90.324 34.8913 89.7043 35.6016C89.1451 36.2365 88.48 37.2038 88.1626 37.8538C87.8603 38.4735 87.286 39.5315 86.8779 40.1966L86.1523 41.4058L87.4522 40.0454C89.6892 37.7177 90.7775 35.9191 90.9438 34.3018C91.0344 33.3949 90.9286 33.1682 90.7775 33.9844Z" fill="#424242"/>
<path d="M43.4535 34.7549C43.4988 35.0874 43.7558 35.692 44.0127 36.1152C44.2697 36.5233 44.708 37.2489 44.9801 37.7023C45.5242 38.6243 46.6729 39.7882 47.4287 40.1811C47.7007 40.3172 47.9123 40.3928 47.9123 40.3625C47.9123 40.2265 46.552 38.579 45.7207 37.6872C45.2824 37.2337 44.708 36.4478 44.4662 35.949C44.2092 35.4653 43.8464 34.8456 43.6802 34.6038L43.3477 34.1503L43.4535 34.7549Z" fill="#424242"/>
<path d="M73.3047 34.7551C73.3047 35.0272 73.4407 35.1934 73.8035 35.3748C74.0604 35.5108 74.4232 35.7376 74.5895 35.8736C74.8766 36.1154 74.8766 36.1154 74.6046 35.662C74.2569 35.1027 73.5919 34.3772 73.4256 34.3772C73.3651 34.3772 73.3047 34.5435 73.3047 34.7551Z" fill="#424242"/>
<path d="M79.3508 34.5436C79.1392 34.6343 78.6706 34.6494 78.2928 34.6041C77.8091 34.5436 77.5219 34.5739 77.3103 34.7401C77.008 34.9517 77.008 34.9669 77.2952 35.7679C77.4463 36.2063 77.7033 36.7202 77.8695 36.8864C78.1567 37.2039 78.1567 37.2039 77.6277 37.4608C77.3405 37.5968 77.0533 37.7026 76.9626 37.7026C76.5999 37.7026 76.0104 37.0225 75.8139 36.3725L75.5872 35.6621V36.433C75.5721 36.962 75.693 37.4306 75.9802 38.0049C76.3581 38.7758 76.3883 38.7909 76.615 38.5188C76.7813 38.3224 77.0382 38.2166 77.4161 38.2166C77.7184 38.2166 78.1416 38.1259 78.3532 38.0201C78.6706 37.8387 78.8671 37.8538 79.6229 38.0654C80.8321 38.3979 81.2099 38.3677 81.7541 37.9294C82.2529 37.5062 82.5098 36.5237 82.2831 35.8586C82.1773 35.5563 82.147 35.5866 82.0412 36.176C81.8447 37.3097 81.4518 37.5364 80.0612 37.3097L79.4868 37.2039L79.7891 36.8864C80.3635 36.2667 80.6204 34.9517 80.2275 34.5588C80.0159 34.3471 79.8647 34.3471 79.3508 34.5436Z" fill="#424242"/>
<path d="M86.6978 36.0547C86.3049 36.6442 85.6852 37.536 85.3073 38.0348C84.6876 38.8812 84.0981 40.3625 84.219 40.7403C84.2795 40.9217 85.6398 38.9417 86.4258 37.5511C86.9246 36.6442 87.5594 35.1327 87.4687 35.042C87.4385 34.9967 87.0908 35.4652 86.6978 36.0547Z" fill="#424242"/>
<path d="M19.6021 36.6747C20.1613 37.234 22.5192 37.234 22.5192 36.6596C22.5192 36.5991 22.0204 36.5689 21.4007 36.6143C20.7357 36.6596 20.0706 36.6143 19.7683 36.5085L19.2695 36.3271L19.6021 36.6747Z" fill="#424242"/>
<path d="M53.5041 37.1282C53.2925 37.2038 52.3251 37.2491 51.3427 37.2189C50.3753 37.1887 49.5742 37.2189 49.5742 37.2642C49.5742 37.5363 50.2242 37.8839 50.8136 37.8991C52.5065 37.9595 53.1716 37.8537 53.6099 37.491C54.0936 37.0677 54.0482 36.9166 53.5041 37.1282Z" fill="#424242"/>
<path d="M25.437 39.1385C25.1045 39.4711 24.3941 40.121 23.8651 40.5745C23.0186 41.3151 22.0664 42.5394 22.0664 42.8719C22.0664 42.9475 22.278 42.751 22.5501 42.4638C22.807 42.1615 23.4872 41.6778 24.0465 41.4058C25.1801 40.8163 25.7242 40.2268 25.9963 39.2292C26.087 38.8816 26.1474 38.5642 26.1172 38.5491C26.087 38.5491 25.7847 38.806 25.437 39.1385Z" fill="#424242"/>
<path d="M80.0316 38.9419C79.6991 39.0175 78.9283 39.0477 78.3388 38.9873C77.2354 38.8966 77.0087 38.9873 77.4621 39.3652C77.6133 39.4861 78.0969 39.5314 78.9585 39.5012C80.0619 39.4558 80.3037 39.3954 80.5909 39.0931C80.9536 38.7303 80.9234 38.7152 80.0316 38.9419Z" fill="#424242"/>
<path d="M73.0039 42.4636C73.0039 43.5066 74.198 44.8216 76.0118 45.7738C76.5861 46.061 77.2965 46.59 77.5988 46.9225C78.3243 47.7387 78.2941 47.3306 77.5233 46.1819C76.828 45.139 76.0873 44.489 74.8479 43.824C74.3491 43.5519 73.7899 43.0985 73.5027 42.7206C73.0341 42.1009 73.0039 42.0858 73.0039 42.4636Z" fill="#424242"/>
<path d="M83.8863 43.3253C83.4329 43.7485 82.6922 44.338 82.2388 44.6403C81.5284 45.1088 81.3017 45.1844 80.5761 45.1693C80.032 45.1693 79.3972 45.0182 78.7926 44.7763L77.8555 44.3985L78.0822 44.8217C78.2031 45.0635 78.6566 45.5321 79.0949 45.8797C80.0774 46.6657 80.2587 46.9226 80.6668 48.1318C80.8482 48.676 80.9994 48.9783 80.9994 48.7969C81.0145 48.2527 81.7249 47.104 82.798 45.8646C83.7352 44.7763 85.1257 42.5393 84.8385 42.5393C84.7781 42.5544 84.3397 42.9021 83.8863 43.3253Z" fill="#424242"/>
<path d="M50.3153 47.9201C49.5596 48.7817 49.5747 50.6559 50.3455 53.3464C50.9955 55.6438 51.3733 57.5634 51.4036 58.6366L51.4187 59.5435L51.5698 58.7121C51.7966 57.4123 51.6303 54.4497 51.2373 52.9987C51.0559 52.3185 50.8292 50.8373 50.7385 49.7037C50.5723 47.7841 50.542 47.6632 50.3153 47.9201Z" fill="#424242"/>
<path d="M54.1423 48.3585C54.0365 48.5701 53.9609 49.1898 53.9609 49.734C53.9609 50.8676 54.3237 51.7594 55.3817 53.165C56.1828 54.2533 58.0571 56.324 58.1478 56.2485C58.2838 56.0973 57.6943 54.0417 57.3164 53.3918C57.0897 52.9988 56.5002 52.3488 56.0166 51.9559C54.8527 51.0187 54.369 50.1118 54.369 48.8724C54.369 48.3887 54.3539 47.9806 54.3388 47.9806C54.3237 47.9806 54.233 48.1469 54.1423 48.3585Z" fill="#424242"/>
</g>
<defs>
<clipPath id="clip0_266_1545">
<rect width="98" height="60" fill="white"/>
</clipPath>
</defs>
</svg>
