<svg id="Layer_1" data-name="Layer 1" xmlns="http://www.w3.org/2000/svg" viewBox="0 0 165 151.99"><defs><style>.cls-1{fill:#ff4646;}</style></defs><path class="cls-1" d="M80.6,128.58a2.79,2.79,0,0,1-1.91-4.84c5.53-5.17,22.36-20.91,32.85-30.31,23.31-20.89,26.68-48.76,16.43-62.6-7.39-10-20.54-10.67-35.16-1.82-5.6,3.38-8.88,7.69-10,13.17a2.8,2.8,0,0,1-5.05,1c-6-8.78-10.12-11.65-12.51-12.51C56.7,27.6,42.74,31.9,35.51,43.21c-9.71,15.18-3.36,35.94,17.43,57,1.75,1.78,3.22,3.31,4.53,4.69,4.73,5,7.34,7.69,14.43,12A2.8,2.8,0,0,1,69,121.65c-7.71-4.7-10.67-7.79-15.56-12.92-1.29-1.36-2.74-2.87-4.46-4.62C16.6,71.38,25.48,48.51,30.8,40.19c8-12.5,24.28-19.13,36.3-14.78,3.75,1.36,7.7,4.71,12,10.2a27,27,0,0,1,10.8-11.4c20.44-12.36,35.39-6.4,42.56,3.29,6.06,8.18,8.05,20,5.48,32.57C135.16,73.67,127.11,87,115.28,97.6c-6.93,6.21-18,16.39-32.77,30.23A2.81,2.81,0,0,1,80.6,128.58Z"/></svg>