<svg width="113" height="120" viewBox="0 0 113 120" fill="none" xmlns="http://www.w3.org/2000/svg">
<path d="M18.0844 57.3427C23.1162 56.0849 32.4996 50.4933 33.6684 48.2189C37.0032 41.6563 45.5084 28.857 52.924 30.6753C56.6946 31.6007 58.4511 33.9337 58.2067 37.3225L61 40.2552L57.1304 40.0857C56.2099 41.196 55.1912 42.2232 54.0862 43.1552C55.5588 45.8467 57.3285 49.4636 56.8531 52.8981C55.0041 66.3295 38.8257 69.8422 31.694 69.0862C30.063 71.6018 29.4027 72.9964 28.0688 75.3034C23.4464 83.3714 19.5702 84.3815 17.9325 83.2411C17.0146 82.5894 17.2127 80.6343 18.2627 78.0275C15.1129 79.8653 12.5309 80.5561 11.6593 79.572C10.7876 78.5879 11.9828 75.9551 14.512 73.0094C11.4876 73.9479 9.22922 74.013 8.6151 72.9703C7.75666 71.4779 10.715 68.1869 15.443 65.15C10.8206 65.7691 7.30102 65.3064 6.91802 63.8466C6.44257 61.898 11.4348 58.9784 18.0844 57.3427Z" fill="#E9E9E9"/>
<path d="M51.2014 35.019C51.1221 35.4005 51.1578 35.797 51.3041 36.1582C51.4503 36.5195 51.7006 36.8291 52.023 37.0479C52.3455 37.2667 52.7257 37.3849 53.1153 37.3874C53.505 37.3899 53.8867 37.2766 54.2119 37.0619C54.5372 36.8473 54.7913 36.5408 54.9422 36.1815C55.0931 35.8222 55.1339 35.4262 55.0595 35.0437C54.985 34.6612 54.7987 34.3094 54.524 34.0329C54.2494 33.7564 53.8988 33.5677 53.5168 33.4907C53.0073 33.388 52.4778 33.4911 52.044 33.7774C51.6101 34.0637 51.3072 34.5101 51.2014 35.019Z" fill="#2B2A8E"/>
<path d="M53.1387 35.229C53.1199 35.4199 53.1297 35.6176 53.1671 35.7973C53.2044 35.9769 53.2675 36.1304 53.3485 36.2383C53.4294 36.3462 53.5245 36.4037 53.6218 36.4035C53.7191 36.4034 53.8141 36.3455 53.895 36.2373C53.9758 36.1291 54.0388 35.9754 54.076 35.7956C54.1131 35.6158 54.1228 35.418 54.1038 35.2273C54.0848 35.0365 54.0379 34.8612 53.9691 34.7237C53.9003 34.5862 53.8126 34.4926 53.7172 34.4547C53.6538 34.4295 53.5885 34.4295 53.5251 34.4548C53.4617 34.4801 53.4015 34.5301 53.3477 34.602C53.294 34.6739 53.2479 34.7663 53.212 34.8739C53.1762 34.9815 53.1513 35.1022 53.1387 35.229Z" fill="#E9E9E9"/>
<path opacity="0.3" d="M19.6775 56.2243C22.4169 58.6794 26.0253 60.0356 29.767 60.0165C37.7898 60.0165 44.2744 54.0182 44.2744 46.6101C44.2705 44.8957 43.916 43.1988 43.2312 41.6164C42.5464 40.034 41.5447 38.597 40.2833 37.3875C37.5913 40.6274 35.2546 44.1271 33.3108 47.8306C32.2741 49.8017 24.956 54.2401 19.6775 56.2243Z" fill="#2B2A8E"/>
<path d="M0.524349 16.2473C1.70451 14.9738 4.64164 15.7044 7.85723 17.8223C6.99736 15.8633 6.39337 13.7996 6.06049 11.6831C5.03945 5.65107 6.10689 0.403235 8.43405 0.0078047C8.82872 -0.0232549 9.22514 0.0386615 9.59213 0.188683C9.95913 0.338704 10.2867 0.572741 10.5491 0.872391C12.1999 1.87102 15.4222 4.43797 16.9139 11.301C18.24 17.5274 18.167 18.774 23.4048 24.5714C27.1508 28.7134 33.2571 30.7508 36.9501 32.5202C44.5217 36.1461 44.6012 40.6567 44.0974 44.0145C43.5948 47.5121 41.8595 50.7085 39.211 53.0156C37.4179 54.4817 35.2542 55.4104 32.9654 55.6965C30.8077 56.1594 28.5827 56.2049 26.4083 55.8305C21.7672 54.8721 18.3991 52.1979 18.8698 49.8521C18.9914 49.4027 19.2138 48.9875 19.5196 48.6388C19.8254 48.2902 20.2066 48.0173 20.6334 47.8415C18.7939 47.8626 16.9575 47.6806 15.157 47.2986C9.18989 46.0721 4.77424 43.1768 5.24498 40.831C5.49029 39.6246 6.99532 38.8203 9.22303 38.4584C8.69263 38.1501 8.15559 37.7882 7.62518 37.4531C2.59293 34.0215 -0.410496 29.6316 0.915524 27.6477C1.61831 26.5955 3.39518 26.4413 5.66267 27.0311H5.61626C1.1741 22.8087 -1.10003 17.9898 0.524349 16.2473Z" fill="#E9E9E9"/>
<path d="M101.007 103.087C97.8408 102.295 91.9357 98.7764 91.2001 97.345C89.1015 93.2151 83.7491 85.1602 79.0823 86.3045C76.7095 86.8868 75.6041 88.3551 75.7578 90.4877L74 92.3333L76.4352 92.2267C77.0145 92.9254 77.6556 93.5718 78.3509 94.1583C77.4242 95.8522 76.3105 98.1284 76.6097 100.29C77.7733 108.742 87.9546 110.953 92.4427 110.477C93.4691 112.06 93.8847 112.938 94.7241 114.39C97.633 119.467 100.072 120.103 101.103 119.385C101.681 118.975 101.556 117.745 100.895 116.104C102.877 117.261 104.502 117.695 105.051 117.076C105.599 116.457 104.847 114.8 103.256 112.946C105.159 113.537 106.58 113.578 106.967 112.922C107.507 111.982 105.645 109.911 102.67 108C105.579 108.39 107.794 108.098 108.035 107.18C108.334 105.954 105.192 104.116 101.007 103.087Z" fill="#E9E9E9"/>
<path d="M80.1666 89.038C80.2165 89.2781 80.194 89.5276 80.102 89.7549C80.0099 89.9822 79.8524 90.1771 79.6495 90.3148C79.4466 90.4525 79.2073 90.5269 78.9621 90.5284C78.7168 90.53 78.4767 90.4587 78.272 90.3236C78.0673 90.1885 77.9074 89.9957 77.8124 89.7696C77.7174 89.5435 77.6918 89.2942 77.7386 89.0535C77.7855 88.8128 77.9028 88.5914 78.0756 88.4174C78.2484 88.2434 78.469 88.1246 78.7094 88.0762C79.0301 88.0115 79.3633 88.0764 79.6363 88.2566C79.9093 88.4368 80.0999 88.7177 80.1666 89.038Z" fill="#2B2A8E"/>
<path d="M78.9463 89.1703C78.9582 89.2904 78.952 89.4149 78.9285 89.5279C78.905 89.641 78.8653 89.7376 78.8143 89.8055C78.7634 89.8734 78.7035 89.9096 78.6423 89.9095C78.5811 89.9094 78.5213 89.873 78.4704 89.8049C78.4195 89.7368 78.3799 89.64 78.3565 89.5269C78.3331 89.4138 78.327 89.2893 78.339 89.1692C78.351 89.0492 78.3805 88.9389 78.4238 88.8523C78.4671 88.7658 78.5222 88.7069 78.5823 88.683C78.6222 88.6672 78.6632 88.6672 78.7031 88.6831C78.743 88.699 78.781 88.7305 78.8148 88.7758C78.8486 88.821 78.8776 88.8792 78.9002 88.9469C78.9227 89.0146 78.9384 89.0905 78.9463 89.1703Z" fill="#E9E9E9"/>
<path opacity="0.3" d="M100.005 102.383C98.2807 103.928 96.0098 104.781 93.6551 104.769C88.6063 104.769 84.5254 100.995 84.5254 96.3325C84.5279 95.2536 84.751 94.1858 85.1819 93.1899C85.6129 92.1941 86.2432 91.2897 87.037 90.5286C88.7312 92.5675 90.2017 94.77 91.4249 97.1006C92.0774 98.3411 96.6828 101.134 100.005 102.383Z" fill="#2B2A8E"/>
<path d="M112.058 77.2247C111.315 76.4233 109.467 76.8831 107.443 78.2159C107.984 76.9831 108.364 75.6843 108.574 74.3524C109.217 70.5563 108.545 67.2538 107.08 67.0049C106.832 66.9854 106.582 67.0243 106.351 67.1187C106.12 67.2132 105.914 67.3604 105.749 67.549C104.71 68.1775 102.683 69.7929 101.744 74.1119C100.909 78.0303 100.955 78.8148 97.6589 82.4632C95.3015 85.0699 91.4587 86.3521 89.1347 87.4656C84.3698 89.7474 84.3197 92.586 84.6368 94.6991C84.9531 96.9002 86.0451 98.9118 87.7119 100.364C88.8403 101.286 90.2019 101.871 91.6423 102.051C93.0002 102.342 94.4004 102.371 95.7688 102.135C98.6895 101.532 100.809 99.8491 100.513 98.3729C100.436 98.09 100.296 97.8287 100.104 97.6093C99.9115 97.3899 99.6716 97.2182 99.403 97.1075C100.561 97.1208 101.716 97.0063 102.849 96.7659C106.605 95.994 109.383 94.1719 109.087 92.6957C108.933 91.9365 107.986 91.4303 106.584 91.2026C106.918 91.0085 107.255 90.7808 107.589 90.5699C110.756 88.4104 112.646 85.6477 111.812 84.3992C111.369 83.737 110.251 83.64 108.824 84.0112H108.854C111.649 81.354 113.08 78.3213 112.058 77.2247Z" fill="#E9E9E9"/>
</svg>
