<svg width="99" height="136" viewBox="0 0 99 136" fill="none" xmlns="http://www.w3.org/2000/svg">
<path d="M69.6494 93.0636C61.4831 91.0223 46.2543 81.9476 44.3574 78.2563C38.9454 67.6056 25.142 46.8331 13.1068 49.784C6.98746 51.2859 4.13675 55.0723 4.53328 60.5722L0 65.3317L6.28014 65.0567C7.77402 66.8585 9.42736 68.5256 11.2206 70.0383C8.83076 74.4064 5.95862 80.2764 6.73024 85.8503C9.73098 107.649 35.9875 113.35 47.5618 112.123C50.2089 116.205 51.2806 118.469 53.4454 122.213C60.9472 135.307 67.2381 136.946 69.8959 135.095C71.3856 134.037 71.064 130.864 69.36 126.634C74.472 129.616 78.6624 130.738 80.077 129.14C81.4916 127.543 79.5518 123.27 75.4473 118.49C80.3556 120.013 84.0208 120.119 85.0175 118.426C86.4107 116.004 81.6095 110.663 73.9362 105.734C81.438 106.739 87.1502 105.988 87.7717 103.619C88.5434 100.457 80.4414 95.7183 69.6494 93.0636Z" fill="#E9E9E9"/>
<path d="M15.9012 56.8336C16.03 57.4528 15.972 58.0963 15.7347 58.6825C15.4973 59.2687 15.0912 59.7713 14.5678 60.1264C14.0445 60.4815 13.4275 60.6733 12.795 60.6773C12.1626 60.6814 11.5432 60.4975 11.0153 60.1491C10.4875 59.8007 10.075 59.3034 9.83013 58.7203C9.58526 58.1372 9.51905 57.4945 9.63989 56.8737C9.76073 56.2529 10.0632 55.6819 10.5089 55.2332C10.9546 54.7845 11.5235 54.4783 12.1435 54.3533C12.9705 54.1866 13.8298 54.3538 14.5339 54.8186C15.2379 55.2833 15.7295 56.0077 15.9012 56.8336Z" fill="#2B2A8E"/>
<path d="M12.7594 57.1745C12.79 57.4842 12.774 57.8052 12.7134 58.0967C12.6528 58.3883 12.5503 58.6374 12.419 58.8125C12.2876 58.9877 12.1333 59.081 11.9754 59.0807C11.8175 59.0804 11.6632 58.9865 11.532 58.8109C11.4009 58.6353 11.2986 58.3858 11.2383 58.0941C11.178 57.8023 11.1623 57.4813 11.1932 57.1716C11.224 56.862 11.3001 56.5776 11.4118 56.3544C11.5234 56.1313 11.6657 55.9793 11.8205 55.9178C11.9235 55.8769 12.0294 55.8769 12.1323 55.918C12.2352 55.959 12.333 56.0402 12.4202 56.1569C12.5074 56.2736 12.5822 56.4236 12.6404 56.5982C12.6986 56.7728 12.739 56.9686 12.7594 57.1745Z" fill="#E9E9E9"/>
<path opacity="0.3" d="M67.0639 91.2485C62.618 95.2329 56.7618 97.434 50.6892 97.4029C37.6687 97.4029 27.1445 87.6681 27.1445 75.6452C27.1509 72.8628 27.7262 70.1089 28.8376 67.5407C29.949 64.9725 31.5747 62.6404 33.6218 60.6774C37.9908 65.9357 41.7831 71.6155 44.9378 77.626C46.6204 80.8251 58.4972 88.0282 67.0639 91.2485Z" fill="#2B2A8E"/>
<path d="M98.1482 26.3683C96.2329 24.3016 91.4661 25.4872 86.2474 28.9245C87.6429 25.7452 88.6231 22.3959 89.1634 18.9609C90.8205 9.17134 89.0881 0.654426 85.3112 0.0126665C84.6707 -0.0377413 84.0273 0.0627452 83.4317 0.306221C82.8361 0.549696 82.3045 0.929523 81.8787 1.41584C79.1994 3.03655 73.9699 7.20255 71.5489 18.3409C69.3968 28.4459 69.5152 30.469 61.0146 39.8779C54.9351 46.6 45.0249 49.9067 39.0314 52.7783C26.7432 58.6629 26.6141 65.9834 27.4319 71.4329C28.2475 77.1092 31.0637 82.2968 35.3622 86.0411C38.2723 88.4204 41.7838 89.9277 45.4983 90.392C49.0002 91.1432 52.6112 91.217 56.1402 90.6095C63.6724 89.0541 69.1386 84.714 68.3746 80.907C68.1772 80.1775 67.8164 79.5037 67.3201 78.9379C66.8237 78.372 66.2052 77.9292 65.5124 77.6438C68.4979 77.6781 71.4782 77.3826 74.4003 76.7627C84.0846 74.7722 91.2509 70.0732 90.4869 66.2662C90.0888 64.3083 87.6462 63.003 84.0308 62.4156C84.8916 61.9153 85.7632 61.3279 86.624 60.784C94.791 55.2149 99.6654 48.0902 97.5133 44.8706C96.3728 43.1628 93.489 42.9127 89.809 43.8699H89.8843C97.0937 37.0172 100.784 29.1964 98.1482 26.3683Z" fill="#E9E9E9"/>
</svg>
