<svg width="155" height="102" viewBox="0 0 155 102" fill="none" xmlns="http://www.w3.org/2000/svg">
<path d="M18.0844 57.3427C23.1162 56.0849 32.4996 50.4933 33.6684 48.2189C37.0032 41.6563 45.5084 28.857 52.924 30.6753C56.6946 31.6007 58.4511 33.9337 58.2067 37.3225L61 40.2552L57.1304 40.0857C56.2099 41.196 55.1912 42.2232 54.0862 43.1552C55.5588 45.8467 57.3285 49.4636 56.8531 52.8981C55.0041 66.3295 38.8257 69.8422 31.694 69.0862C30.063 71.6018 29.4027 72.9964 28.0688 75.3034C23.4464 83.3714 19.5702 84.3815 17.9325 83.2411C17.0146 82.5894 17.2127 80.6343 18.2627 78.0275C15.1129 79.8653 12.5309 80.5561 11.6593 79.572C10.7876 78.5879 11.9828 75.9551 14.512 73.0094C11.4876 73.9479 9.22922 74.013 8.6151 72.9703C7.75666 71.4779 10.715 68.1869 15.443 65.15C10.8206 65.7691 7.30102 65.3064 6.91802 63.8466C6.44257 61.898 11.4348 58.9784 18.0844 57.3427Z" fill="#E9E9E9"/>
<path d="M51.2014 35.019C51.1221 35.4005 51.1578 35.797 51.3041 36.1582C51.4503 36.5194 51.7006 36.8291 52.023 37.0479C52.3455 37.2667 52.7257 37.3849 53.1153 37.3873C53.505 37.3898 53.8867 37.2766 54.2119 37.0619C54.5372 36.8472 54.7913 36.5408 54.9422 36.1815C55.0931 35.8222 55.1339 35.4262 55.0595 35.0437C54.985 34.6612 54.7987 34.3094 54.524 34.0329C54.2494 33.7564 53.8988 33.5677 53.5168 33.4907C53.0073 33.388 52.4778 33.491 52.044 33.7774C51.6101 34.0637 51.3072 34.5101 51.2014 35.019Z" fill="#2B2A8E"/>
<path d="M53.1387 35.229C53.1199 35.4198 53.1297 35.6176 53.1671 35.7972C53.2044 35.9769 53.2675 36.1304 53.3485 36.2383C53.4294 36.3462 53.5245 36.4037 53.6218 36.4035C53.7191 36.4033 53.8141 36.3455 53.895 36.2373C53.9758 36.1291 54.0388 35.9754 54.076 35.7956C54.1131 35.6158 54.1228 35.418 54.1038 35.2272C54.0848 35.0364 54.0379 34.8612 53.9691 34.7237C53.9003 34.5862 53.8126 34.4925 53.7172 34.4546C53.6538 34.4294 53.5885 34.4295 53.5251 34.4548C53.4617 34.48 53.4015 34.5301 53.3477 34.602C53.294 34.6739 53.2479 34.7663 53.212 34.8739C53.1762 34.9815 53.1513 35.1021 53.1387 35.229Z" fill="#E9E9E9"/>
<path opacity="0.3" d="M19.6775 56.2242C22.4169 58.6793 26.0253 60.0355 29.767 60.0164C37.7898 60.0164 44.2744 54.0181 44.2744 46.61C44.2705 44.8956 43.916 43.1987 43.2312 41.6163C42.5464 40.0339 41.5447 38.5969 40.2833 37.3874C37.5913 40.6273 35.2546 44.127 33.3108 47.8305C32.2741 49.8017 24.956 54.24 19.6775 56.2242Z" fill="#2B2A8E"/>
<path d="M0.524349 16.2473C1.70451 14.9738 4.64164 15.7044 7.85723 17.8223C6.99736 15.8633 6.39337 13.7996 6.06049 11.6831C5.03945 5.65107 6.10689 0.403235 8.43405 0.0078047C8.82872 -0.0232549 9.22514 0.0386615 9.59213 0.188683C9.95913 0.338704 10.2867 0.572741 10.5491 0.872391C12.1999 1.87102 15.4222 4.43797 16.9139 11.301C18.24 17.5274 18.167 18.774 23.4048 24.5714C27.1508 28.7134 33.2571 30.7508 36.9501 32.5202C44.5217 36.1461 44.6012 40.6567 44.0974 44.0145C43.5948 47.5121 41.8595 50.7085 39.211 53.0156C37.4179 54.4817 35.2542 55.4104 32.9654 55.6965C30.8077 56.1594 28.5827 56.2049 26.4083 55.8305C21.7672 54.8721 18.3991 52.1979 18.8698 49.8521C18.9914 49.4027 19.2138 48.9875 19.5196 48.6388C19.8254 48.2902 20.2066 48.0173 20.6334 47.8415C18.7939 47.8626 16.9575 47.6806 15.157 47.2986C9.18989 46.0721 4.77424 43.1768 5.24498 40.831C5.49029 39.6246 6.99532 38.8203 9.22303 38.4584C8.69263 38.1501 8.15559 37.7882 7.62518 37.4531C2.59293 34.0215 -0.410496 29.6316 0.915524 27.6477C1.61831 26.5955 3.39518 26.4413 5.66267 27.0311H5.61626C1.1741 22.8087 -1.10003 17.9898 0.524349 16.2473Z" fill="#E9E9E9"/>
<path d="M143.007 85.0868C139.841 84.2952 133.936 80.7764 133.2 79.345C131.102 75.2151 125.749 67.1603 121.082 68.3045C118.709 68.8869 117.604 70.3551 117.758 72.4878L116 74.3333L118.435 74.2267C119.014 74.9254 119.656 75.5718 120.351 76.1584C119.424 77.8522 118.311 80.1284 118.61 82.2897C119.773 90.7424 129.955 92.953 134.443 92.4772C135.469 94.0603 135.885 94.938 136.724 96.3898C139.633 101.467 142.072 102.103 143.103 101.385C143.681 100.975 143.556 99.7446 142.895 98.1041C144.877 99.2607 146.502 99.6954 147.051 99.0761C147.599 98.4568 146.847 96.7999 145.256 94.9462C147.159 95.5367 148.58 95.5778 148.967 94.9216C149.507 93.9824 147.645 91.9112 144.67 90.0001C147.579 90.3897 149.794 90.0985 150.035 89.1798C150.334 87.9536 147.192 86.1162 143.007 85.0868Z" fill="#E9E9E9"/>
<path d="M122.167 71.0381C122.216 71.2782 122.194 71.5277 122.102 71.755C122.01 71.9823 121.852 72.1772 121.65 72.3149C121.447 72.4526 121.207 72.527 120.962 72.5285C120.717 72.5301 120.477 72.4588 120.272 72.3237C120.067 72.1886 119.907 71.9958 119.812 71.7697C119.717 71.5436 119.692 71.2944 119.739 71.0536C119.785 70.8129 119.903 70.5915 120.076 70.4175C120.248 70.2435 120.469 70.1248 120.709 70.0763C121.03 70.0117 121.363 70.0765 121.636 70.2567C121.909 70.4369 122.1 70.7178 122.167 71.0381Z" fill="#2B2A8E"/>
<path d="M120.946 71.1702C120.958 71.2903 120.952 71.4148 120.928 71.5279C120.905 71.6409 120.865 71.7375 120.814 71.8054C120.763 71.8733 120.704 71.9095 120.642 71.9094C120.581 71.9093 120.521 71.8729 120.47 71.8048C120.42 71.7367 120.38 71.64 120.356 71.5268C120.333 71.4137 120.327 71.2892 120.339 71.1691C120.351 71.0491 120.38 70.9388 120.424 70.8522C120.467 70.7657 120.522 70.7068 120.582 70.6829C120.622 70.6671 120.663 70.6671 120.703 70.683C120.743 70.6989 120.781 70.7304 120.815 70.7757C120.849 70.8209 120.878 70.8791 120.9 70.9468C120.923 71.0145 120.938 71.0904 120.946 71.1702Z" fill="#E9E9E9"/>
<path opacity="0.3" d="M142.005 84.3829C140.281 85.9279 138.01 86.7814 135.655 86.7694C130.606 86.7694 126.525 82.9946 126.525 78.3325C126.528 77.2536 126.751 76.1857 127.182 75.1899C127.613 74.194 128.243 73.2897 129.037 72.5285C130.731 74.5675 132.202 76.7699 133.425 79.1006C134.077 80.3411 138.683 83.1342 142.005 84.3829Z" fill="#2B2A8E"/>
<path d="M154.058 59.2247C153.315 58.4233 151.467 58.8831 149.443 60.2159C149.984 58.9831 150.364 57.6843 150.574 56.3524C151.217 52.5563 150.545 49.2538 149.08 49.0049C148.832 48.9854 148.582 49.0243 148.351 49.1187C148.12 49.2132 147.914 49.3604 147.749 49.549C146.71 50.1775 144.683 51.7929 143.744 56.1119C142.909 60.0303 142.955 60.8148 139.659 64.4632C137.302 67.0699 133.459 68.3521 131.135 69.4656C126.37 71.7474 126.32 74.586 126.637 76.6991C126.953 78.9002 128.045 80.9118 129.712 82.3637C130.84 83.2863 132.202 83.8708 133.642 84.0508C135 84.3421 136.4 84.3707 137.769 84.1352C140.69 83.532 142.809 81.8491 142.513 80.3729C142.436 80.09 142.296 79.8287 142.104 79.6093C141.911 79.3899 141.672 79.2182 141.403 79.1075C142.561 79.1208 143.716 79.0063 144.849 78.7659C148.605 77.994 151.383 76.1719 151.087 74.6957C150.933 73.9365 149.986 73.4303 148.584 73.2026C148.918 73.0085 149.255 72.7808 149.589 72.5699C152.756 70.4104 154.646 67.6477 153.812 66.3992C153.369 65.737 152.251 65.64 150.824 66.0112H150.854C153.649 63.354 155.08 60.3213 154.058 59.2247Z" fill="#E9E9E9"/>
</svg>
