<svg id="Layer_1" data-name="Layer 1" xmlns="http://www.w3.org/2000/svg" viewBox="0 0 140 140"><defs><style>.cls-1{fill:#ff4646;}</style></defs><path class="cls-1" d="M68.11,129.83a5,5,0,0,1-3.42-8.66c5.75-5.37,23.23-21.71,34.13-31.49,23.32-20.89,26.86-48.52,16.77-62.15-7.07-9.55-19.37-10-33.73-1.35-5.28,3.19-8.37,7.22-9.45,12.32a5,5,0,0,1-9,1.79c-6.24-9.1-10.18-11.55-12-12.2-8.06-2.91-21.37,1.28-28.34,12.17-9.5,14.85-3,35.45,17.82,56.51,1.82,1.85,3.35,3.45,4.72,4.89,5,5.19,7.43,7.79,14.55,12.12A5,5,0,1,1,55,122.33c-8.24-5-11.56-8.5-16.57-13.76-1.34-1.4-2.83-3-4.61-4.76C-.87,68.76,8.86,43.92,14.66,34.86c8.79-13.74,26.81-21,40.16-16.17,3.65,1.32,7.42,4.23,11.4,8.84a31.16,31.16,0,0,1,10.47-9.91c22.41-13.56,38.94-6.84,46.94,4,13,17.53,9.74,50.58-18.13,75.55-10.82,9.71-28.25,26-34,31.35A5,5,0,0,1,68.11,129.83Z"/></svg>