<svg width="246" height="188" viewBox="0 0 246 188" fill="none" xmlns="http://www.w3.org/2000/svg">
<g clip-path="url(#clip0_531_1101)">
<path d="M73.0092 167.825C71.8859 156.327 67.1251 144.26 58.002 128.601L14.3317 134.616C7.68989 148.743 3.03735 161.583 3.06359 182.894C3.06359 187.247 5.33656 196.459 10.0645 201.679C14.6089 206.696 20.0847 211.561 27.2119 214.125C34.3391 216.689 42.921 216.992 49.8564 214.109C59.2927 210.185 63.7419 208.346 66.6233 200.127C70.5116 189.03 74.1342 179.322 73.0092 167.825Z" fill="#9C613B"/>
<path d="M73.2175 171.411L42.2224 204.295C41.7649 214.24 51.3586 231.455 51.2422 231.692C51.1257 231.928 45.8303 233.684 43.3294 238.187C42.3454 239.943 45.9533 240.948 50.1417 240.945C57.2116 240.945 66.0099 239.082 67.1448 237.043C73.2175 226.12 76.0038 187.136 73.2175 171.411Z" fill="#9C613B"/>
<path d="M27.1463 230.438C26.8413 230.264 30.7378 213.645 32.8288 197.092L3.26367 185.495C4.2132 200.049 6.45994 223.276 13.0132 236.299C14.8926 240.033 26.7888 240.936 30.9772 239.985C35.0492 238.114 33.4979 234.047 27.1463 230.438Z" fill="#9C613B"/>
<path d="M14.1415 135.215C10.614 142.159 9.8481 150.538 12.0538 158.038L13.5429 157.404C13.9431 163.81 20.2749 168.461 20.9998 174.838C21.232 173.637 21.684 172.491 22.3331 171.455C22.8054 173.946 26.3198 177.436 28.3025 178.939C29.2619 173.903 30.8051 171.664 33.3322 167.424C34.5753 169.658 34.5327 172.459 34.7705 175.022C37.0664 172.788 40.0282 167.237 40.9285 164.123C41.5746 164.873 41.9403 166.14 42.4405 168.977C42.68 170.335 46.506 167.662 46.301 159.817C46.9023 160.627 47.2898 161.575 47.4276 162.575C50.7945 159.398 57.4428 154.13 58.7597 149.618C60.6752 143.056 60.2832 134.616 57.6823 129.921L14.1415 135.215Z" fill="#E0A361"/>
<path d="M51.652 136.916C50.9747 135.109 49.2462 133.942 47.6194 132.899L21.2161 136.285C17.7722 139.757 16.4603 145.198 17.9362 149.861L19.3105 148.782C18.935 154.154 21.2555 159.295 23.5252 164.185C23.4872 163.061 23.7421 161.946 24.2648 160.951C25.2977 163.491 25.9295 166.177 26.1376 168.911C28.2696 166.924 30.6508 165.214 32.8352 163.279C35.0196 161.344 37.04 159.131 38.2142 156.458C38.2809 157.772 38.3476 159.09 38.4143 160.412C40.0838 158.934 41.7664 157.455 43.098 155.67C44.4297 153.884 45.394 151.754 45.4415 149.526C45.7864 150.111 46.011 150.759 46.1023 151.431C46.1935 152.104 46.1495 152.789 45.9729 153.444C49.2497 149.836 51.3176 145.292 51.8865 140.447C52.0309 139.256 52.0686 138.024 51.652 136.916Z" fill="#F7B26D"/>
<path d="M3.4276 172.926C5.04623 174.853 7.44549 175.799 9.61022 177.077C11.7627 178.354 13.4825 180.249 14.5465 182.517C15.0188 183.531 15.4304 184.571 15.9634 185.555C17.7674 188.881 21.5212 186.151 22.6708 183.498C23.6187 181.312 23.4006 178.542 22.8578 176.247C22.0148 172.679 19.3466 169.488 16.8523 166.804C14.3579 164.12 11.4273 161.887 8.50489 159.678C8.01291 159.305 7.49468 158.896 7.30281 158.309C7.15193 157.853 6.88462 157.105 6.96006 156.631C7.28805 154.561 8.1851 149.38 9.66762 145.382C6.22726 148.154 3.68009 151.881 2.34523 156.097C0.733152 161.268 0.308405 169.21 3.4276 172.926Z" fill="#7F4D32"/>
<path d="M62.1313 145.487C61.7016 146.955 61.7311 148.511 61.7164 150.042C61.6934 152.486 61.5524 154.93 61.2818 157.361C61.003 159.914 60.5701 162.514 59.3138 164.753C57.2409 168.472 53.2706 170.667 50.3236 173.729C48.7412 175.378 47.4521 177.286 46.5124 179.371C45.6612 181.264 45.1004 183.376 45.4776 185.418C45.8548 187.46 47.3487 189.391 49.3839 189.787C51.3404 190.168 53.3116 189.106 54.7597 187.734C56.2078 186.362 57.3213 184.666 58.7891 183.317C61.905 180.454 72.9402 177.732 74.2948 170.1C77.4583 152.277 68.924 143.846 67.735 143.052C65.8032 141.764 62.93 142.758 62.1313 145.487Z" fill="#7F4D32"/>
<path d="M46.4911 191.522C46.5091 191.67 46.5633 191.851 46.7125 191.874C46.7667 191.877 46.8204 191.863 46.8666 191.835C47.0616 191.698 47.209 191.504 47.2881 191.279L48.4886 188.733C48.7526 188.173 48.9625 187.509 48.3869 187.072C48.1784 186.909 47.917 186.829 47.6529 186.846C47.3887 186.864 47.1403 186.978 46.9552 187.168C46.0352 188.081 46.355 190.371 46.4911 191.522Z" fill="#7F4D32"/>
<path d="M43.7078 188.207C43.68 188.354 43.6767 188.547 43.8128 188.608C43.8647 188.63 43.9226 188.634 43.9768 188.618C44.2046 188.548 44.4044 188.408 44.5475 188.217L46.4613 186.154C46.8828 185.701 47.2813 185.132 46.8664 184.541C46.717 184.322 46.4921 184.166 46.2349 184.102C45.9777 184.039 45.7062 184.073 45.4724 184.198C44.313 184.789 43.9259 187.069 43.7078 188.207Z" fill="#7F4D32"/>
<path d="M18.1478 190.024C18.2166 190.157 18.3314 190.311 18.4757 190.275C18.5274 190.26 18.5727 190.228 18.6053 190.185C18.7412 189.989 18.8118 189.755 18.807 189.516C18.8835 188.581 18.9612 187.646 19.0399 186.711C19.0907 186.093 19.0563 185.397 18.3642 185.191C18.1112 185.11 17.8371 185.125 17.5948 185.234C17.3525 185.344 17.1592 185.539 17.0523 185.783C16.516 186.96 17.6164 188.987 18.1478 190.024Z" fill="#7F4D32"/>
<path d="M20.5631 189.103C20.632 189.236 20.7485 189.39 20.8911 189.354C20.943 189.338 20.9888 189.306 21.0223 189.264C21.1566 189.067 21.2265 188.833 21.2224 188.595C21.3011 187.659 21.3793 186.724 21.4569 185.79C21.5078 185.172 21.4717 184.475 20.7796 184.268C20.5264 184.188 20.2524 184.204 20.0103 184.313C19.7681 184.423 19.5749 184.618 19.4676 184.861C18.9314 186.039 20.0334 188.073 20.5631 189.103Z" fill="#7F4D32"/>
<path d="M22.7101 185.867C22.7889 185.993 22.9184 186.136 23.0594 186.087C23.1098 186.067 23.1527 186.032 23.1824 185.986C23.299 185.779 23.3483 185.54 23.3235 185.303L23.3087 182.486C23.3087 181.867 23.2087 181.172 22.5002 181.032C22.2416 180.975 21.971 181.015 21.7404 181.146C21.5097 181.276 21.3353 181.487 21.2506 181.739C20.8209 182.957 22.0902 184.881 22.7101 185.867Z" fill="#7F4D32"/>
<path d="M68.8372 149.619C66.7824 141.721 64.8669 135.799 58.7597 129.053C58.4202 128.678 56.9148 130.109 58.2513 131.602C59.7945 133.327 61.6657 134.621 64.7472 141.556C65.6278 143.539 68.2813 147.49 68.8372 149.619Z" fill="#7F4D32"/>
<path d="M59.3124 104.555C58.909 102.903 57.7496 101.506 56.3605 100.536C54.3926 99.1591 51.7801 98.5645 49.5055 99.3546C47.2309 100.145 45.4761 102.489 45.7336 104.885L54.491 111.384C55.2789 111.305 56.0408 111.058 56.7251 110.659C57.4094 110.261 58.0002 109.719 58.4574 109.072C58.9146 108.424 59.2275 107.686 59.375 106.906C59.5226 106.127 59.5012 105.325 59.3124 104.555Z" fill="#9C613B"/>
<path d="M48.1475 105.213C48.2215 104.314 48.595 103.466 49.2081 102.806C49.8212 102.145 50.6381 101.711 51.5277 101.572C52.4172 101.432 53.3276 101.597 54.1125 102.039C54.8974 102.48 55.5112 103.174 55.8552 104.007C56.1518 104.66 56.1973 105.399 55.9832 106.083C55.8011 106.531 55.5337 106.94 55.196 107.286C54.5778 107.973 53.8734 108.578 53.1001 109.084C53.046 109.02 52.9902 108.958 52.9361 108.895L48.1475 105.213Z" fill="#E0A361"/>
<path d="M53.0195 103.25C53.9378 103.12 54.8726 103.312 55.6664 103.792C54.8956 102.314 53.131 101.385 51.473 101.645C50.5942 101.803 49.7902 102.242 49.1813 102.896C48.5723 103.55 48.1911 104.384 48.0947 105.274L49.6953 106.506C50.0118 104.884 51.3861 103.506 53.0195 103.25Z" fill="#F7B26D"/>
<path d="M26.8033 102.487C19.7089 103.668 4.73444 112.717 6.83358 127.518C8.65721 140.381 24.3811 143.647 34.8128 142.972C55.7009 141.622 62.9397 128.801 61.485 119.975C59.4171 107.423 46.404 99.2247 26.8033 102.487Z" fill="#9C613B"/>
<path d="M0.0821066 117.312C-0.209805 115.636 0.293662 113.892 1.18252 112.441C2.44036 110.386 4.5887 108.791 6.98795 108.604C9.3872 108.417 11.9341 109.856 12.6622 112.154L7.24215 121.624C6.48892 121.87 5.69161 121.951 4.90429 121.862C4.11696 121.773 3.35803 121.515 2.67896 121.106C1.99988 120.697 1.41654 120.146 0.968484 119.492C0.520428 118.837 0.218136 118.094 0.0821066 117.312Z" fill="#9C613B"/>
<path d="M32.532 119.832C27.64 121.161 21.5541 125.662 23.4532 131.003C25.3523 136.343 35.3232 139.395 40.6038 138.049C45.8845 136.704 50.7715 128.489 49.9663 124.71C49.1611 120.93 43.2228 116.93 32.532 119.832Z" fill="#E0A361"/>
<path d="M23.9465 118.225C23.858 116.975 23.2905 115.712 22.2393 115.027C21.847 114.775 21.4 114.62 20.9357 114.576C20.4715 114.533 20.0036 114.601 19.5711 114.776C19.1769 114.839 18.8054 115.003 18.492 115.25C18.0558 115.602 17.7606 116.095 17.4753 116.578C16.6695 117.942 15.8637 119.306 15.058 120.67C14.5545 121.52 14.0346 122.445 14.1232 123.431C14.2216 124.54 15.0973 125.453 16.0911 125.938C16.6558 126.216 17.2713 126.376 17.8998 126.408C18.5283 126.44 19.1567 126.343 19.7466 126.123C21.4981 125.432 22.5657 123.649 23.2413 121.888C23.6973 120.719 24.0351 119.475 23.9465 118.225Z" fill="#7F4D32"/>
<path d="M22.4508 118.751C22.4166 119.173 22.2582 119.575 21.9957 119.906C21.7331 120.238 21.3782 120.483 20.976 120.613C20.5738 120.742 20.1424 120.748 19.7365 120.631C19.3306 120.514 18.9685 120.279 18.6962 119.956C18.4239 119.632 18.2536 119.235 18.2069 118.815C18.1602 118.394 18.2393 117.97 18.434 117.594C18.6287 117.219 18.9304 116.91 19.3007 116.706C19.671 116.503 20.0933 116.414 20.514 116.452C21.0744 116.501 21.5926 116.771 21.9554 117.202C22.3182 117.633 22.4962 118.19 22.4508 118.751Z" fill="black"/>
<path d="M20.5536 117.158C20.4255 117.12 20.291 117.11 20.1588 117.128C20.0266 117.145 19.8996 117.191 19.7861 117.261C19.5778 117.371 19.4087 117.544 19.3023 117.754C19.2021 117.868 19.1267 118.002 19.0809 118.147C19.0457 118.25 19.0325 118.36 19.0421 118.469C19.0517 118.578 19.0839 118.683 19.1366 118.779C19.1926 118.873 19.2783 118.946 19.3802 118.986C19.4821 119.026 19.5943 119.03 19.6991 118.999C19.9927 118.886 20.0517 118.495 20.2748 118.275C20.4584 118.094 20.7569 118.027 20.8668 117.793C20.9767 117.56 20.8028 117.251 20.5536 117.158Z" fill="white"/>
<path d="M21.28 111.821C21.1286 111.668 20.9349 111.564 20.724 111.523C19.7761 111.275 18.7561 111.555 17.8951 112.006C16.9439 112.499 16.0502 113.294 15.8599 114.35C15.7878 114.755 15.896 115.269 16.2617 115.417C16.3756 115.486 16.5048 115.526 16.6379 115.533C16.7709 115.54 16.9037 115.514 17.0243 115.458C17.3326 115.32 17.5606 115.052 17.8049 114.817C18.3188 114.322 18.9345 113.945 19.6089 113.713C20.0845 113.549 20.601 113.454 20.9979 113.143C21.3948 112.833 21.6096 112.2 21.28 111.821Z" fill="#7F4D32"/>
<path d="M41.6482 114.974C41.0086 113.898 40.7561 112.533 41.2268 111.372C41.4061 110.942 41.6857 110.561 42.042 110.261C42.3983 109.961 42.8211 109.75 43.2751 109.647C43.6346 109.474 44.0328 109.396 44.4312 109.421C44.9888 109.458 45.512 109.695 46.022 109.928L50.3383 111.899C51.237 112.31 52.1915 112.772 52.6802 113.631C53.2312 114.598 53.0328 115.848 52.4867 116.819C52.1818 117.37 51.7678 117.854 51.2701 118.239C50.7725 118.625 50.2015 118.904 49.5922 119.061C47.7587 119.495 45.8662 118.642 44.3082 117.583C43.2734 116.875 42.2878 116.054 41.6482 114.974Z" fill="#7F4D32"/>
<path d="M43.1752 114.551C43.4439 114.878 43.8033 115.116 44.2078 115.238C44.6122 115.359 45.0436 115.357 45.4471 115.233C45.8506 115.108 46.2081 114.867 46.4743 114.538C46.7405 114.21 46.9034 113.81 46.9423 113.389C46.9812 112.968 46.8945 112.545 46.693 112.173C46.4915 111.801 46.1844 111.498 45.8105 111.301C45.4367 111.105 45.013 111.024 44.5932 111.069C44.1734 111.114 43.7763 111.282 43.4523 111.553C43.0202 111.915 42.7485 112.433 42.6966 112.995C42.6447 113.557 42.8167 114.116 43.1752 114.551Z" fill="black"/>
<path d="M43.8242 112.158C43.908 112.054 44.0128 111.968 44.1318 111.907C44.2507 111.847 44.3812 111.812 44.5147 111.805C44.7489 111.777 44.986 111.822 45.1936 111.935C45.3409 111.971 45.4789 112.038 45.5987 112.132C45.687 112.196 45.7607 112.278 45.815 112.373C45.8693 112.468 45.9029 112.573 45.9135 112.682C45.919 112.79 45.8891 112.896 45.8284 112.985C45.7677 113.074 45.6795 113.141 45.5774 113.175C45.2723 113.25 45.0001 112.963 44.6918 112.91C44.4376 112.868 44.1539 112.983 43.9325 112.853C43.7111 112.723 43.6734 112.378 43.8242 112.158Z" fill="white"/>
<path d="M40.1869 108.193C40.2246 107.98 40.3245 107.784 40.4739 107.629C41.1102 106.885 42.1007 106.533 43.0716 106.409C44.1343 106.271 45.32 106.409 46.0776 107.169C46.3695 107.46 46.5696 107.945 46.3564 108.275C46.3015 108.396 46.2178 108.502 46.1127 108.584C46.0075 108.666 45.884 108.721 45.7529 108.744C45.4249 108.807 45.0822 108.718 44.7476 108.664C44.0421 108.552 43.3206 108.595 42.6337 108.792C42.1499 108.93 41.6711 109.147 41.1676 109.121C40.6641 109.094 40.1328 108.694 40.1869 108.193Z" fill="#7F4D32"/>
<path d="M10.7646 113.041C10.1759 111.854 8.83276 111.213 7.52244 111.024C7.05959 110.94 6.58396 110.957 6.12848 111.075C5.70645 111.221 5.32093 111.456 4.99855 111.765C4.02509 112.621 3.39417 113.802 3.22248 115.088C3.14385 115.727 3.20396 116.376 3.39869 116.99C3.59342 117.604 3.91818 118.168 4.35077 118.645C4.79111 119.115 5.34266 119.467 5.95455 119.668C6.56645 119.869 7.21901 119.913 7.85207 119.794L10.7646 113.041Z" fill="#E0A361"/>
<path d="M5.85613 116.218C5.42354 115.742 5.09878 115.178 4.90405 114.564C4.70932 113.95 4.64922 113.301 4.72784 112.662C4.76155 112.384 4.81917 112.109 4.90004 111.841C3.99103 112.687 3.40427 113.823 3.24041 115.056C3.16197 115.695 3.22217 116.344 3.41688 116.958C3.6116 117.572 3.93625 118.137 4.36869 118.613C4.80896 119.084 5.36024 119.436 5.9718 119.636C6.58336 119.837 7.23555 119.881 7.86835 119.763L8.87201 117.437C8.31122 117.465 7.75117 117.37 7.23049 117.16C6.70982 116.949 6.24092 116.628 5.85613 116.218Z" fill="#F7B26D"/>
<path d="M43.4622 131.643C43.4228 131.603 43.3759 131.572 43.3242 131.55C43.2726 131.529 43.2172 131.518 43.1613 131.518C43.1054 131.518 43.05 131.529 42.9984 131.55C42.9467 131.572 42.8998 131.603 42.8604 131.643C41.91 132.508 40.7676 133.133 39.528 133.466L38.0209 127.658C37.9832 127.56 37.9109 127.48 37.8177 127.432C37.7246 127.384 37.6171 127.372 37.5158 127.399C37.4145 127.425 37.3264 127.488 37.2683 127.575C37.2102 127.662 37.1862 127.768 37.2009 127.872L38.6982 133.641C36.4924 133.981 34.2572 133.503 34.2326 133.498C34.1766 133.482 34.1179 133.477 34.0602 133.485C34.0025 133.493 33.9469 133.512 33.897 133.542C33.847 133.572 33.8037 133.612 33.7697 133.659C33.7357 133.706 33.7118 133.76 33.6993 133.817C33.6869 133.874 33.6862 133.933 33.6973 133.99C33.7085 134.047 33.7312 134.102 33.7641 134.15C33.797 134.198 33.8394 134.239 33.8887 134.27C33.9379 134.301 33.993 134.322 34.0505 134.331C34.5878 134.439 35.131 134.516 35.6774 134.56C36.862 134.674 38.0567 134.624 39.2279 134.413C40.813 134.091 42.2799 133.341 43.4688 132.243C43.5077 132.203 43.5384 132.156 43.5591 132.104C43.5798 132.052 43.5902 131.997 43.5895 131.942C43.5889 131.886 43.5774 131.831 43.5555 131.78C43.5337 131.728 43.502 131.682 43.4622 131.643Z" fill="#7F4D32"/>
<path d="M34.3539 120.991C31.6381 121.883 26.8921 123.547 27.4234 125.493C27.9548 127.44 35.1788 129.501 37.9552 128.967C40.9481 128.394 44.7938 123.136 43.9181 121.125C43.3966 119.931 38.4046 119.668 34.3539 120.991Z" fill="black"/>
<path d="M35.4818 122.097C35.4184 122.019 35.3334 121.962 35.2375 121.933C34.6947 121.736 34.0895 121.841 33.5368 122C32.3587 122.339 31.2609 122.913 30.3094 123.687C30.2717 123.718 30.234 123.753 30.1963 123.787C29.9473 123.919 29.7503 124.132 29.637 124.39C29.4632 124.906 29.9568 125.461 30.4947 125.525C31.0326 125.589 31.5541 125.297 31.9707 124.945C32.3872 124.594 32.7398 124.168 33.1957 123.876C33.878 123.439 34.757 123.314 35.3277 122.738C35.4917 122.572 35.6261 122.296 35.4818 122.097Z" fill="white"/>
<path d="M18.4315 107.601C19.4373 107.736 20.397 108.107 21.2325 108.684C21.2789 108.715 21.3355 108.726 21.3904 108.716C21.4452 108.706 21.4938 108.674 21.5257 108.629C21.5577 108.583 21.5705 108.526 21.5613 108.471C21.5522 108.416 21.5219 108.367 21.4769 108.334C20.5779 107.719 19.5469 107.325 18.4676 107.184C18.1953 107.146 18.1609 107.572 18.4315 107.608V107.601Z" fill="#7F4D32"/>
<path d="M22.3297 107.204C22.9928 107.575 23.5942 108.048 24.1124 108.605C24.2993 108.807 24.6257 108.533 24.4404 108.331C23.899 107.745 23.2706 107.246 22.5774 106.852C22.3396 106.719 22.0854 107.066 22.3314 107.2L22.3297 107.204Z" fill="#7F4D32"/>
<path d="M23.976 110.655C24.3425 110.878 24.6573 111.177 24.8993 111.532C25.0551 111.758 25.3798 111.482 25.2273 111.257C24.9624 110.873 24.6199 110.549 24.222 110.306C23.9891 110.163 23.7431 110.51 23.9777 110.655H23.976Z" fill="#7F4D32"/>
<path d="M26.638 113.942L27.7859 116.143C27.9122 116.385 28.2992 116.204 28.1697 115.959L27.0217 113.755C26.8954 113.513 26.5101 113.694 26.638 113.937V113.942Z" fill="#7F4D32"/>
<path d="M28.9532 114.392L29.7355 115.806C29.8667 116.046 30.2521 115.865 30.1192 115.624L29.3386 114.21C29.2058 113.971 28.8204 114.152 28.9532 114.392Z" fill="#7F4D32"/>
<path d="M27.343 110.783L28.0958 111.738C28.2598 111.953 28.5878 111.678 28.4238 111.463L27.671 110.509C27.507 110.294 27.179 110.568 27.343 110.783Z" fill="#7F4D32"/>
<path d="M32.2331 108.864L32.3266 110.965C32.3397 111.235 32.7628 111.276 32.7514 111.001L32.6579 108.9C32.6464 108.629 32.2217 108.59 32.2331 108.864Z" fill="#7F4D32"/>
<path d="M34.3441 114.055C34.3997 114.058 34.4545 114.04 34.4966 114.003C34.5388 113.967 34.565 113.915 34.5698 113.86C34.5745 113.804 34.5573 113.749 34.5219 113.706C34.4864 113.663 34.4356 113.635 34.3802 113.629C34.3246 113.626 34.2699 113.644 34.2277 113.681C34.1855 113.717 34.1593 113.769 34.1546 113.824C34.1499 113.88 34.1671 113.935 34.2025 113.978C34.2379 114.021 34.2887 114.049 34.3441 114.055Z" fill="#7F4D32"/>
<path d="M34.1603 113.88C34.3363 114.657 34.5391 115.424 34.7687 116.179C34.8458 116.439 35.2607 116.365 35.1869 116.102C34.9573 115.336 34.755 114.569 34.5801 113.802C34.5194 113.536 34.0996 113.612 34.1603 113.88Z" fill="#7F4D32"/>
<path d="M32.8122 116.594L33.4813 118.304C33.5813 118.56 33.9732 118.376 33.8666 118.122L33.1975 116.41C33.0975 116.156 32.7056 116.34 32.8122 116.594Z" fill="#7F4D32"/>
<path d="M29.9211 118.211C30.1357 118.702 30.425 119.156 30.7788 119.558C30.9592 119.765 31.2855 119.49 31.1068 119.283C30.7781 118.909 30.5087 118.485 30.3081 118.029C30.1982 117.777 29.8161 117.96 29.9244 118.211H29.9211Z" fill="#7F4D32"/>
<path d="M38.6637 117.456C38.5632 116.724 38.5133 115.986 38.5145 115.247C38.5145 114.976 38.0914 114.937 38.0914 115.211C38.0889 115.988 38.1398 116.765 38.2439 117.535C38.2816 117.806 38.6998 117.729 38.6637 117.456Z" fill="#7F4D32"/>
<path d="M38.4554 112.095C38.5932 111.208 38.7315 110.321 38.8703 109.434C38.9113 109.161 38.4882 109.127 38.4456 109.396L38.0323 112.057C37.9897 112.33 38.4144 112.365 38.4554 112.095Z" fill="#7F4D32"/>
<path d="M40.2102 105.954L40.6152 105.535C40.657 105.498 40.683 105.446 40.6879 105.39C40.6928 105.334 40.6762 105.278 40.6415 105.234C40.623 105.213 40.6003 105.195 40.5749 105.182C40.5495 105.169 40.5218 105.162 40.4934 105.16C40.4651 105.158 40.4366 105.161 40.4096 105.171C40.3827 105.18 40.3578 105.194 40.3365 105.213L39.9314 105.632C39.8896 105.669 39.8636 105.721 39.8587 105.777C39.8539 105.833 39.8705 105.888 39.9051 105.932C39.942 105.975 39.994 106.002 40.0502 106.006C40.1063 106.011 40.162 105.993 40.2053 105.957L40.2102 105.954Z" fill="#7F4D32"/>
<path d="M36.1873 110.937C36.0545 110.039 36.0545 109.125 36.1873 108.227C36.2267 107.954 35.8036 107.92 35.7642 108.191C35.6248 109.127 35.6248 110.079 35.7642 111.016C35.8036 111.287 36.2234 111.21 36.1824 110.937H36.1873Z" fill="#7F4D32"/>
<path d="M36.215 106.198C36.2682 106.198 36.3194 106.178 36.3585 106.142C36.3976 106.105 36.4218 106.056 36.4263 106.003C36.4308 105.95 36.4153 105.897 36.3829 105.855C36.3505 105.812 36.3035 105.784 36.2511 105.774C36.1979 105.775 36.1467 105.795 36.1076 105.831C36.0685 105.867 36.0444 105.917 36.0398 105.97C36.0353 106.023 36.0508 106.076 36.0832 106.118C36.1156 106.16 36.1626 106.189 36.215 106.198Z" fill="#7F4D32"/>
<path d="M36.4236 106.052C36.6961 105.297 37.029 104.565 37.419 103.864C37.5502 103.627 37.2042 103.379 37.0714 103.619C36.6616 104.352 36.3112 105.116 36.0234 105.904C36.0137 105.93 36.0093 105.958 36.0104 105.986C36.0115 106.015 36.0181 106.042 36.0298 106.068C36.0535 106.119 36.0966 106.159 36.1497 106.178C36.2028 106.198 36.2614 106.196 36.3128 106.172C36.3642 106.148 36.404 106.105 36.4236 106.052Z" fill="#7F4D32"/>
<path d="M29.1455 108.858C28.7991 107.961 28.3594 107.103 27.8335 106.298C27.6843 106.068 27.3612 106.344 27.5055 106.573C28.0067 107.348 28.4255 108.174 28.7551 109.037C28.8535 109.293 29.2389 109.109 29.1405 108.854L29.1455 108.858Z" fill="#7F4D32"/>
<path d="M24.9206 105.443C24.5718 104.906 24.127 104.438 23.6086 104.063C23.5624 104.033 23.5067 104.023 23.4529 104.033C23.3992 104.044 23.3516 104.075 23.3199 104.12C23.2883 104.164 23.2751 104.22 23.283 104.274C23.291 104.328 23.3195 104.377 23.3626 104.411C23.8494 104.769 24.2654 105.215 24.5893 105.725C24.7369 105.955 25.0616 105.679 24.9173 105.451L24.9206 105.443Z" fill="#7F4D32"/>
<path d="M30.5853 106.384C30.6409 106.387 30.6957 106.369 30.7378 106.332C30.78 106.296 30.8063 106.244 30.811 106.189C30.8157 106.133 30.7985 106.078 30.7631 106.035C30.7276 105.992 30.6768 105.964 30.6214 105.958C30.5658 105.955 30.5111 105.973 30.4689 106.01C30.4268 106.046 30.4005 106.098 30.3958 106.153C30.3911 106.209 30.4083 106.264 30.4437 106.307C30.4791 106.35 30.53 106.378 30.5853 106.384Z" fill="#7F4D32"/>
<path d="M30.7541 106.095C30.4254 105.175 30.2806 104.199 30.3277 103.223C30.3392 102.95 29.9161 102.913 29.903 103.187C29.8548 104.238 30.0136 105.289 30.3704 106.278C30.4622 106.536 30.8459 106.352 30.7541 106.095Z" fill="#7F4D32"/>
<path d="M31.4002 111.579C31.2753 110.981 31.1969 110.373 31.1656 109.763C31.1525 109.49 30.7327 109.57 30.7475 109.84C30.7779 110.451 30.8563 111.058 30.982 111.657C31.0377 111.924 31.4576 111.849 31.4002 111.579Z" fill="#7F4D32"/>
<path d="M33.9407 105.409C34.0078 104.511 34.3667 103.66 34.9624 102.986C35.1428 102.778 34.7984 102.535 34.6147 102.74C33.9743 103.474 33.5888 104.396 33.516 105.368C33.511 105.425 33.5285 105.481 33.5648 105.524C33.6011 105.567 33.6532 105.595 33.7095 105.6C33.7658 105.605 33.8218 105.587 33.8652 105.551C33.9085 105.514 33.9357 105.462 33.9407 105.406V105.409Z" fill="#7F4D32"/>
<path d="M39.6885 104.273C40.1554 103.733 40.7355 103.302 41.3875 103.011C41.437 102.986 41.4747 102.943 41.4927 102.89C41.5107 102.838 41.5075 102.78 41.4838 102.73C41.4601 102.68 41.4177 102.64 41.3657 102.621C41.3138 102.601 41.2563 102.603 41.2054 102.625C40.4888 102.95 39.8522 103.428 39.3408 104.027C39.1604 104.235 39.5048 104.478 39.6885 104.273Z" fill="#7F4D32"/>
<path d="M72.3153 167.82L65.4751 175.795C69.4257 183.58 70.0293 192.582 70.4737 201.304C70.8181 208.07 71.1067 214.879 70.2556 221.599C75.734 204.18 76.4454 185.608 72.3153 167.82Z" fill="#7F4D32"/>
<path d="M46.76 184.137C46.9074 183.007 47.178 181.898 47.5669 180.827C47.6669 180.549 47.2274 180.431 47.1274 180.705C46.7302 181.816 46.4552 182.967 46.3074 184.137C46.2697 184.426 46.7256 184.424 46.7633 184.137H46.76Z" fill="#9C613B"/>
<path d="M48.6526 179.212C49.1396 178.537 49.6798 177.901 50.2679 177.312C50.3114 177.268 50.3358 177.209 50.3358 177.147C50.3358 177.086 50.3114 177.027 50.2679 176.983C50.2244 176.94 50.1654 176.915 50.1039 176.915C50.0424 176.915 49.9834 176.94 49.9399 176.983C49.3251 177.602 48.7608 178.268 48.2524 178.977C48.0884 179.215 48.4771 179.444 48.646 179.207L48.6526 179.212Z" fill="#9C613B"/>
<path d="M49.0016 181.963C49.4389 181.36 49.8762 180.758 50.3136 180.156C50.4857 179.918 50.0905 179.69 49.92 179.925L48.608 181.732C48.444 181.97 48.831 182.198 49.0016 181.962V181.963Z" fill="#9C613B"/>
<path d="M48.536 185.514C48.646 184.945 48.8553 184.401 49.1542 183.906C49.1807 183.854 49.1864 183.794 49.1702 183.738C49.154 183.682 49.1171 183.634 49.0671 183.605C49.0171 183.575 48.9577 183.566 48.901 183.579C48.8444 183.592 48.7948 183.626 48.7623 183.674C48.4414 184.203 48.216 184.785 48.0965 185.392C48.0391 185.68 48.4786 185.803 48.536 185.514Z" fill="#9C613B"/>
<path d="M52.093 177.46L53.6297 175.763C53.8264 175.546 53.505 175.222 53.3017 175.434C52.79 175.999 52.2778 176.565 51.765 177.131C51.5682 177.348 51.8897 177.672 52.093 177.46Z" fill="#9C613B"/>
<path d="M51.2698 175.362C51.7459 174.668 52.418 174.132 53.2 173.822C53.469 173.716 53.3509 173.274 53.0787 173.382C52.1853 173.73 51.4176 174.34 50.8762 175.132C50.7122 175.373 51.1042 175.601 51.2698 175.362Z" fill="#9C613B"/>
<path d="M57.313 172.932L59.4564 171.475C59.6975 171.311 59.4695 170.915 59.2268 171.081L57.0834 172.538C56.8423 172.702 57.0686 173.098 57.313 172.932Z" fill="#9C613B"/>
<path d="M61.8523 172.916L63.6825 171.647C63.9219 171.483 63.6956 171.086 63.4529 171.253L61.621 172.521C61.3816 172.686 61.6096 173.083 61.8523 172.916Z" fill="#9C613B"/>
<path d="M66.2263 168.828L67.3153 167.76C67.5252 167.553 67.2037 167.231 66.9873 167.431L65.8983 168.499C65.6884 168.706 66.0099 169.028 66.2263 168.828Z" fill="#9C613B"/>
<path d="M56.7507 170.966C57.825 170.094 58.78 169.083 59.5911 167.961C59.765 167.723 59.3697 167.495 59.1975 167.731C58.4058 168.818 57.4745 169.796 56.4277 170.639C56.1997 170.823 56.5244 171.145 56.7556 170.968L56.7507 170.966Z" fill="#9C613B"/>
<path d="M62.6772 165.426C63.025 164.767 63.2732 164.06 63.4135 163.328C63.4693 163.042 63.0297 162.919 62.974 163.208C62.8442 163.901 62.6115 164.571 62.2836 165.196C62.1475 165.455 62.541 165.688 62.6772 165.426Z" fill="#9C613B"/>
<path d="M62.3263 161.947C62.3766 160.869 62.428 159.791 62.4805 158.711C62.4936 158.417 62.0377 158.417 62.0246 158.711C61.9743 159.789 61.9229 160.868 61.8704 161.947C61.8573 162.241 62.3115 162.241 62.3263 161.947Z" fill="#9C613B"/>
<path d="M63.6581 152.712V151.033C63.6581 150.972 63.634 150.914 63.5913 150.872C63.5485 150.829 63.4906 150.805 63.4301 150.805C63.3696 150.805 63.3117 150.829 63.2689 150.872C63.2262 150.914 63.2021 150.972 63.2021 151.033V152.712C63.2021 152.772 63.2262 152.83 63.2689 152.873C63.3117 152.916 63.3696 152.94 63.4301 152.94C63.4906 152.94 63.5485 152.916 63.5913 152.873C63.634 152.83 63.6581 152.772 63.6581 152.712Z" fill="#9C613B"/>
<path d="M64.2798 147.623C64.4799 146.983 64.6805 146.344 64.8817 145.704C64.9686 145.423 64.5291 145.303 64.4422 145.583C64.2421 146.223 64.0415 146.863 63.8403 147.501C63.7518 147.782 64.1913 147.902 64.2798 147.623Z" fill="#9C613B"/>
<path d="M65.6932 151.392V150.193C65.6932 150.133 65.6692 150.075 65.6264 150.032C65.5837 149.989 65.5257 149.965 65.4653 149.965C65.4048 149.965 65.3468 149.989 65.3041 150.032C65.2613 150.075 65.2373 150.133 65.2373 150.193V151.392C65.2373 151.453 65.2613 151.511 65.3041 151.554C65.3468 151.597 65.4048 151.621 65.4653 151.621C65.5257 151.621 65.5837 151.597 65.6264 151.554C65.6692 151.511 65.6932 151.453 65.6932 151.392Z" fill="#9C613B"/>
<path d="M65.3079 160.207L65.5342 158.893C65.5817 158.605 65.1439 158.482 65.0947 158.771L64.8684 160.085C64.8208 160.373 65.2587 160.496 65.3079 160.207Z" fill="#9C613B"/>
<path d="M71.8876 161.522C72.0655 160.736 72.0655 159.92 71.8876 159.134C71.822 158.848 71.3825 158.969 71.4481 159.255C71.608 159.961 71.608 160.694 71.4481 161.401C71.3841 161.686 71.8236 161.81 71.8876 161.522Z" fill="#9C613B"/>
<path d="M4.99385 157.212C5.13807 158.152 5.41989 159.066 5.83023 159.924C5.95651 160.188 6.35009 159.958 6.22382 159.694C5.83395 158.87 5.5676 157.994 5.43336 157.092C5.38908 156.801 4.94957 156.928 4.99385 157.212Z" fill="#9C613B"/>
<path d="M4.99531 162.253C5.27499 163.102 5.79038 163.854 6.48111 164.42C6.70742 164.604 7.03213 164.282 6.8091 164.092C6.17382 163.579 5.69858 162.895 5.43974 162.12C5.3479 161.843 4.90675 161.956 5.00023 162.242L4.99531 162.253Z" fill="#9C613B"/>
<path d="M7.8818 162.126C8.4616 162.462 9.0037 162.86 9.4988 163.312C9.71527 163.509 10.0383 163.187 9.82679 162.983C9.30435 162.504 8.73136 162.083 8.11796 161.728C8.06641 161.704 8.00754 161.699 7.95297 161.716C7.8984 161.733 7.85211 161.77 7.82325 161.819C7.7944 161.868 7.78508 161.927 7.79713 161.983C7.80919 162.038 7.84175 162.088 7.88837 162.121L7.8818 162.126Z" fill="#9C613B"/>
<path d="M12.9916 164.966C13.702 165.564 14.2968 166.288 14.7463 167.101C14.889 167.357 15.2826 167.127 15.1399 166.869C14.6713 166.024 14.0522 165.272 13.313 164.65C13.09 164.461 12.7669 164.783 12.985 164.979L12.9916 164.966Z" fill="#9C613B"/>
<path d="M11.1072 165.858C11.6192 166.137 12.0863 166.491 12.4929 166.909C12.6979 167.12 13.021 166.796 12.8209 166.581C12.3878 166.135 11.8903 165.757 11.345 165.459C11.0875 165.318 10.853 165.712 11.1154 165.853L11.1072 165.858Z" fill="#9C613B"/>
<path d="M8.22413 166.83L9.65581 167.797C9.90017 167.962 10.1281 167.566 9.88704 167.403L8.45537 166.436C8.21101 166.271 7.98306 166.666 8.22413 166.83Z" fill="#9C613B"/>
<path d="M13.9328 170.145C14.5732 170.717 15.1575 171.348 15.6777 172.031C15.8532 172.261 16.2501 172.031 16.0713 171.799C15.5301 171.086 14.9222 170.426 14.2559 169.828C14.0378 169.633 13.7131 169.955 13.9279 170.157L13.9328 170.145Z" fill="#9C613B"/>
<path d="M17.1719 170.378L18.6167 171.811C18.6602 171.854 18.7192 171.879 18.7807 171.879C18.8422 171.879 18.9012 171.854 18.9447 171.811C18.9882 171.767 19.0127 171.708 19.0127 171.646C19.0127 171.585 18.9882 171.526 18.9447 171.482L17.4999 170.051C17.4564 170.008 17.3974 169.983 17.3359 169.983C17.2744 169.983 17.2154 170.008 17.1719 170.051C17.1284 170.095 17.104 170.154 17.104 170.216C17.104 170.277 17.1284 170.336 17.1719 170.38V170.378Z" fill="#9C613B"/>
<path d="M20.3814 175.489L21.2178 177.296C21.3424 177.562 21.7344 177.33 21.6114 177.064L20.775 175.265C20.652 174.999 20.2584 175.231 20.3814 175.495V175.489Z" fill="#9C613B"/>
<path d="M18.571 175.255L19.3057 176.807C19.4303 177.072 19.8239 176.84 19.6992 176.576C19.4543 176.058 19.2094 175.541 18.9645 175.025C18.8399 174.759 18.4463 174.991 18.571 175.255Z" fill="#9C613B"/>
<path d="M12.8524 173.026C13.5279 173.62 14.0844 174.337 14.4924 175.139C14.6269 175.4 15.0204 175.17 14.886 174.907C14.4597 174.071 13.8787 173.323 13.1739 172.704C12.9557 172.511 12.631 172.832 12.8459 173.033L12.8524 173.026Z" fill="#9C613B"/>
<path d="M18.9331 179.571C19.2935 180.15 19.5634 180.781 19.7334 181.442C19.7495 181.5 19.7881 181.55 19.8407 181.58C19.8933 181.61 19.9555 181.617 20.0138 181.601C20.0721 181.585 20.1216 181.546 20.1515 181.494C20.1813 181.441 20.189 181.379 20.1729 181.32C19.9921 180.621 19.7068 179.953 19.3267 179.339C19.1725 179.091 18.7789 179.32 18.9331 179.571Z" fill="#9C613B"/>
<path d="M65.1946 183.095C65.8147 184.937 66.1061 186.873 66.0556 188.815C66.0474 189.109 66.5033 189.109 66.5115 188.815C66.5632 186.832 66.2663 184.854 65.6341 182.974C65.5406 182.696 65.1011 182.81 65.1946 183.095Z" fill="#7F4D32"/>
<path d="M66.684 181.56C66.7671 181.878 66.8513 182.197 66.9366 182.516C66.9445 182.545 66.9581 182.572 66.9765 182.595C66.9949 182.619 67.0178 182.639 67.0438 182.654C67.0699 182.668 67.0986 182.678 67.1283 182.682C67.158 182.685 67.1881 182.683 67.217 182.675C67.2458 182.667 67.2729 182.653 67.2965 182.635C67.3201 182.617 67.3398 182.594 67.3546 182.568C67.3694 182.541 67.3789 182.513 67.3826 182.483C67.3862 182.453 67.384 182.423 67.3761 182.394C67.2908 182.075 67.2066 181.757 67.1235 181.438C67.1074 181.38 67.0688 181.33 67.0162 181.3C66.9637 181.27 66.9014 181.263 66.8431 181.279C66.7848 181.295 66.7353 181.334 66.7055 181.386C66.6756 181.439 66.6679 181.501 66.684 181.56Z" fill="#7F4D32"/>
<path d="M4.06234 175.623C3.94217 177.575 4.0973 179.533 4.52316 181.442C4.58712 181.729 5.02663 181.606 4.96267 181.322C4.54788 179.452 4.39826 177.534 4.51825 175.623C4.53628 175.329 4.08202 175.331 4.06234 175.623Z" fill="#7F4D32"/>
<path d="M6.06947 177.768C6.12638 177.764 6.1794 177.738 6.21803 177.695C6.25667 177.653 6.27811 177.598 6.27811 177.541C6.27811 177.484 6.25667 177.429 6.21803 177.387C6.1794 177.344 6.12638 177.318 6.06947 177.313C6.01256 177.318 5.95955 177.344 5.92091 177.387C5.88228 177.429 5.86084 177.484 5.86084 177.541C5.86084 177.598 5.88228 177.653 5.92091 177.695C5.95955 177.738 6.01256 177.764 6.06947 177.768Z" fill="#7F4D32"/>
<path d="M5.84979 177.542C5.79399 178.901 5.83509 180.263 5.97278 181.617C6.0023 181.908 6.46477 181.911 6.42869 181.617C6.29097 180.263 6.24987 178.901 6.30569 177.542C6.31717 177.248 5.86291 177.248 5.84979 177.542Z" fill="#7F4D32"/>
<path d="M5.24132 181.564C5.57156 182.511 5.77719 183.497 5.85302 184.497C5.87434 184.789 6.33025 184.791 6.30893 184.497C6.23313 183.456 6.02198 182.429 5.68083 181.443C5.58571 181.167 5.14456 181.279 5.24132 181.564Z" fill="#7F4D32"/>
<path d="M4.29023 184.259C4.19331 185.744 4.39519 187.234 4.88389 188.64C4.97901 188.916 5.41852 188.804 5.3234 188.518C4.84669 187.152 4.65035 185.703 4.74614 184.259C4.76418 183.965 4.30827 183.967 4.29023 184.259Z" fill="#7F4D32"/>
<path d="M7.75684 181.019V183.419C7.75684 183.48 7.78085 183.538 7.8236 183.581C7.86635 183.624 7.92433 183.648 7.98479 183.648C8.04525 183.648 8.10323 183.624 8.14598 183.581C8.18873 183.538 8.21274 183.48 8.21274 183.419V181.019C8.21274 180.959 8.18873 180.901 8.14598 180.858C8.10323 180.815 8.04525 180.791 7.98479 180.791C7.92433 180.791 7.86635 180.815 7.8236 180.858C7.78085 180.901 7.75684 180.959 7.75684 181.019Z" fill="#7F4D32"/>
<path d="M9.20654 179.039C9.31626 179.531 9.35109 180.037 9.30985 180.539C9.28689 180.832 9.7428 180.83 9.76576 180.539C9.80725 179.996 9.76689 179.449 9.64604 178.918C9.58208 178.632 9.14258 178.754 9.20654 179.039Z" fill="#7F4D32"/>
<path d="M67.4971 185.459C67.6174 186.539 67.7366 187.619 67.8546 188.699C67.8858 188.986 68.3466 188.989 68.3106 188.699C68.1903 187.618 68.0711 186.538 67.953 185.459C67.9202 185.17 67.4611 185.167 67.4971 185.459Z" fill="#7F4D32"/>
<path d="M59.1285 186.242C59.4025 187.112 59.5251 188.023 59.4909 188.936C59.4794 189.23 59.9354 189.23 59.9452 188.936C59.9819 187.982 59.8543 187.03 59.568 186.12C59.4811 185.841 59.0416 185.956 59.1285 186.242Z" fill="#7F4D32"/>
<path d="M61.1636 180.722C61.3964 181.883 61.6288 183.043 61.8605 184.204C61.9196 184.492 62.3525 184.368 62.3001 184.083C62.0683 182.923 61.8359 181.762 61.6031 180.6C61.5457 180.313 61.1111 180.436 61.1636 180.722Z" fill="#7F4D32"/>
<path d="M63.1004 180.236C63.3859 180.982 63.4981 181.783 63.4284 182.578C63.4054 182.871 63.8613 182.869 63.8843 182.578C63.956 181.741 63.8371 180.899 63.5366 180.114C63.4333 179.843 62.9921 179.961 63.0971 180.236H63.1004Z" fill="#7F4D32"/>
<path d="M65.2635 179.033C65.3882 179.471 65.5112 179.912 65.6342 180.347C65.6421 180.376 65.6557 180.403 65.6741 180.427C65.6925 180.45 65.7154 180.47 65.7414 180.485C65.7675 180.5 65.7962 180.509 65.8259 180.513C65.8556 180.516 65.8857 180.514 65.9146 180.506C65.9435 180.498 65.9705 180.485 65.9941 180.466C66.0177 180.448 66.0375 180.425 66.0522 180.399C66.067 180.373 66.0765 180.344 66.0802 180.314C66.0839 180.284 66.0817 180.254 66.0737 180.225C65.9512 179.787 65.8277 179.349 65.7031 178.911C65.6853 178.855 65.6465 178.808 65.5948 178.78C65.5432 178.752 65.4826 178.744 65.4259 178.76C65.3691 178.775 65.3205 178.812 65.2903 178.863C65.26 178.913 65.2504 178.974 65.2635 179.031V179.033Z" fill="#7F4D32"/>
</g>
<g clip-path="url(#clip1_531_1101)">
<path d="M220.749 140.402C220.749 140.402 237.554 179.616 237.248 218.337C237.008 248.75 215.82 309.506 166.435 298.234C117.05 286.962 101.596 257.551 101.414 208.533C101.232 159.515 152.442 91.3884 170.076 96.2926C187.71 101.197 220.749 140.402 220.749 140.402Z" fill="#7D3413"/>
<path d="M174.364 247.691C178.886 248.612 183.595 244.877 186.661 234.318C195.834 202.74 224.941 195.455 240.271 170.112C255.6 144.769 235.313 112.611 235.313 112.611C233.756 80.4727 214.493 71.1015 214.493 71.1015C212.151 70.2604 209.818 70.7499 207.533 72.2325C193.382 81.3614 181.132 128.127 181.132 128.127C181.132 128.127 189.597 151.93 189.362 159.453C189.128 166.976 174.268 171.362 163.973 203.885C157.094 225.541 165.377 245.837 174.364 247.691Z" fill="#8E4113"/>
<path d="M116.907 243.599C118.323 245.029 119.919 246.273 121.654 247.3C133.899 254.11 131.475 226.448 126.354 207.478C120.648 186.354 126.354 148.238 126.354 148.238C126.354 148.238 129.262 115.101 120.706 98.0409C119.724 96.0056 118.444 94.1256 116.907 92.4619C116.907 92.4619 103.451 110.962 105.855 130.812C105.855 130.812 78.3486 206.385 116.907 243.599Z" fill="#8E4113"/>
<path d="M174.364 247.691C178.886 248.612 183.595 244.877 186.661 234.318C195.834 202.74 224.941 195.455 240.271 170.112C255.6 144.769 235.313 112.611 235.313 112.611C233.756 80.4727 214.493 71.1015 214.493 71.1015C212.151 70.2604 209.818 70.7499 207.533 72.2325C204.309 78.0254 206.21 84.1461 206.21 84.1461C206.21 84.1461 220.721 99.3529 217.08 123.114C217.08 123.114 241.071 152.786 212.769 182.776C189.655 207.297 176.61 226.149 174.364 247.691Z" fill="#823B13"/>
<path d="M116.907 243.599C118.323 245.029 119.919 246.273 121.654 247.3C89.5295 185.998 111.422 132.503 111.422 132.503C110.746 122.785 116.907 107.688 116.907 107.688C118.344 104.361 119.781 101.177 120.706 98.0409C119.724 96.0056 118.444 94.1256 116.907 92.4619C116.907 92.4619 103.451 110.962 105.855 130.812C105.855 130.812 78.3486 206.385 116.907 243.599Z" fill="#823B13"/>
<path d="M138.512 172.264C144.045 153.864 161.717 146.531 181.147 128.136C190.507 119.294 198.626 109.243 205.286 98.2546C232.232 54.1406 191.676 36.8809 191.676 36.8809C191.676 36.8809 148.96 39.8367 124.821 73.9474C124.466 74.4226 124.121 74.9454 123.776 75.4586C99.8383 111.019 138.512 172.264 138.512 172.264Z" fill="#9A572C"/>
<path d="M138.512 172.264C144.045 153.864 161.717 146.532 181.147 128.136C158.598 131.905 121.745 129.728 124.821 73.9619C124.466 74.4371 124.121 74.9598 123.776 75.4731C99.8385 111.019 138.512 172.264 138.512 172.264Z" fill="#954A22"/>
<path d="M128.49 25.2913C128.49 25.2913 118.483 18.472 121.726 12.9025C124.969 7.33301 132.203 10.6832 141.247 15.6112C150.292 20.5391 128.49 25.2913 128.49 25.2913Z" fill="#823B13"/>
<path d="M153.879 82.9529C144.605 85.0343 137.194 84.8538 132.193 84.1599C129.727 83.8759 127.303 83.3098 124.969 82.4729L117.472 50.5054C117.472 50.5054 112.231 48.8184 111.206 44.3704C110.775 42.5123 112.547 37.4798 118.492 34.2864C121.295 32.7516 123.468 30.2919 124.634 27.3341C126.622 22.3776 131.393 15.102 142.698 11.5475C149.788 9.31395 156.054 8.22099 162.109 9.2522C171.513 10.8632 180.418 17.6159 191.111 33.2266C208.682 58.8881 171.8 78.9183 153.879 82.9529Z" fill="#904213"/>
<path d="M138.684 15.107C140.26 15.9718 139.259 21.8788 137.137 26.3695C132.912 35.3178 124.083 38.9817 118.516 41.296C117.501 41.7189 113.754 43.2728 113.295 42.522C112.883 41.8567 115.24 39.6327 117.007 37.9647C119.781 35.3463 121.103 34.6382 122.607 33.3076C126.162 30.1807 125.606 28.1848 128.969 23.3947C131.915 19.1986 136.955 14.1565 138.684 15.107Z" fill="#954A22"/>
<path d="M142.862 73.9142C139.547 75.8483 131.666 81.912 124.96 82.468C115.221 83.2806 115.163 85.9941 111.623 86.3315C109.453 86.5406 107.384 85.2052 107.369 84.0172C107.352 82.935 107.542 81.8594 107.93 80.8476C105.305 81.4083 104.505 80.1348 104.505 80.1348C104.279 79.6595 104.025 79.1843 103.776 78.7091C101.257 74.1898 97.1655 70.4452 97.1655 70.4452C97.1655 70.4452 99.7524 63.8492 107.532 55.9179C115.312 47.9866 124.586 51.0707 124.586 51.0707C154.934 57.182 151.106 69.086 142.862 73.9142Z" fill="#E0956B"/>
<path d="M135.082 72.5456C135.307 72.8213 131.786 76.5232 126.612 79.3412C124.567 80.4579 119.072 83.3662 112.241 83.0146C110.588 82.929 108.447 82.6344 108.461 82.3351C108.461 81.8598 113.467 82.0784 118.55 80.9569C128.638 78.7234 134.78 72.1845 135.082 72.5456Z" fill="#EBA07A"/>
<path d="M105.204 65.1042C106.693 67.2759 113.798 66.1781 117.659 62.1055C120.054 59.5869 121.831 55.2245 120.289 53.4757C118.818 51.8077 114.842 53.1098 112.979 53.9794C107.666 56.4648 103.671 62.8564 105.204 65.1042Z" fill="#EBA07A"/>
<path d="M138.1 66.4775C137.956 66.8102 131.872 81.1616 107.968 81.4325C105.093 81.4325 104.509 80.1209 104.509 80.1209C104.284 79.6457 104.03 79.1704 103.781 78.6952C104.116 78.6952 118.152 78.6525 126.535 74.6702C134.828 70.7117 137.961 66.6629 138.1 66.4775Z" fill="#C37D59"/>
<path d="M101.663 75.4686C101.663 75.4686 95.0141 73.3635 94.995 70.3459C94.9758 67.3283 97.7543 66.259 99.4501 66.069C101.146 65.8789 102.569 67.1192 103.512 69.0913C104.538 71.2393 101.663 75.4686 101.663 75.4686Z" fill="#61311B"/>
<path d="M99.2396 69.0526C99.7761 70.1884 99.9246 71.9799 99.1486 72.4266C98.3725 72.8733 96.3078 71.8611 96.0587 70.2977C95.8575 69.0336 96.8108 67.5462 97.7306 67.5557C98.5354 67.5842 99.0863 68.7247 99.2396 69.0526Z" fill="#935F4B"/>
<path d="M123.882 44.19C124.538 46.6563 127.292 45.1023 128.84 49.6786C130.248 53.8368 139.101 49.6787 136.754 45.6251C133.582 40.1554 122.478 38.9104 123.882 44.19Z" fill="#672F18"/>
<path d="M128.969 45.2502C128.696 46.2814 129.803 48.149 131.058 48.1395C132.313 48.13 133.218 46.7139 132.457 45.2359C131.695 43.758 129.51 43.202 128.969 45.2502Z" fill="#41221B"/>
<path d="M129.391 45.5439C129.271 45.9906 129.75 46.8033 130.296 46.7985C130.438 46.7863 130.575 46.7375 130.692 46.6569C130.809 46.5763 130.903 46.4667 130.965 46.339C131.026 46.2113 131.053 46.07 131.042 45.9288C131.032 45.7877 130.984 45.6517 130.904 45.5344C130.559 44.8834 129.63 44.6505 129.391 45.5439Z" fill="#98727A"/>
<path d="M153.879 82.9528C144.605 85.0342 137.194 84.8536 132.193 84.1598C144.294 81.4606 176.428 73.3915 180.754 53.808C184.725 35.8307 174.747 21.9688 162.124 9.25684C171.527 10.8678 180.433 17.6206 191.125 33.2313C208.682 58.888 171.8 78.9182 153.879 82.9528Z" fill="#823B13"/>
<path d="M170.076 18.0389C170.143 20.51 168.572 22.2588 166.119 23.2662C161.875 25.034 154.991 24.6443 149.353 22.1304C146.421 20.8284 143.834 18.9465 142.129 16.4944C142.129 16.4944 135.733 4.38129 143.139 1.31617C144.455 0.770946 145.832 0.384807 147.24 0.166138C153.832 -0.817552 161.391 2.20953 168.423 13.3913C169.535 15.1591 170.043 16.7035 170.076 18.0389Z" fill="#904213"/>
<path d="M149.357 22.1449C146.905 19.9637 142.584 9.70383 148.782 8.87221C156.002 7.92179 163.436 18.3765 166.124 23.2759C168.811 28.1754 153.4 25.7328 149.357 22.1449Z" fill="#672F18"/>
<path d="M152.308 3.78736C152.308 4.41939 148.581 3.83966 145.654 6.48659C143.23 8.68207 143.086 11.5096 142.651 11.4098C142.061 11.272 141.237 5.80227 144.461 3.38344C147.546 1.0549 152.313 3.07929 152.308 3.78736Z" fill="#954A22"/>
<path d="M166.953 118.099C170.028 119.097 172.371 99.8418 191.207 84.2168C200.165 76.7892 207.245 74.8313 208.452 67.6176C209.889 59.0305 201.952 49.3837 198.819 50.2153C196.577 50.8093 198.273 56.3931 195.111 63.2029C190.9 72.3127 182.91 73.1823 176.088 79.3601C162.22 91.939 163.542 117.006 166.953 118.099Z" fill="#A4643C"/>
<path d="M168.989 204.736C165.894 218.123 168.069 231.533 170.263 231.771C172.285 231.989 171.7 220.793 179.844 207.72C188.294 194.129 197.741 192.067 200.304 179.816C201.075 176.123 201.909 168.23 198.814 166.719C193.161 163.963 174.158 182.339 168.989 204.736Z" fill="#954A22"/>
<path d="M112.523 170.416C107.867 198.853 120.255 225.788 122.952 225.222C125.017 224.795 120.217 208.618 119.973 170.416C119.91 160.717 120.159 151.916 118.698 151.726C117.07 151.507 113.889 162.052 112.523 170.416Z" fill="#954A22"/>
</g>
<defs>
<clipPath id="clip0_531_1101">
<rect width="75" height="143.617" fill="white" transform="translate(0 99)"/>
</clipPath>
<clipPath id="clip1_531_1101">
<rect width="151" height="392.925" fill="white" transform="matrix(-1 0 0 1 246 0)"/>
</clipPath>
</defs>
</svg>
