<svg width="91" height="92" viewBox="0 0 91 92" fill="none" xmlns="http://www.w3.org/2000/svg">
<path d="M21.8625 79.0615C21.7318 75.5831 23.2321 58.1106 22.6705 56.4568C22.3018 55.3691 20.8479 54.6932 21.1538 51.8951C21.6078 47.7413 26.2505 46.8828 26.8088 42.7752C26.9553 41.6937 27.1112 40.5926 27.1112 39.5028C27.1112 39.0391 27.2124 37.6513 27.2124 38.115C27.2124 40.1693 26.1999 42.5454 27.1112 44.5594" stroke="#FDA55E" stroke-width="4.53237" stroke-linecap="round" stroke-linejoin="round"/>
<path d="M35.2021 29.9795C35.1693 31.9383 35.057 34.0283 34.1543 36.1686C32.3216 40.5139 26.982 43.2898 29.7293 50.7745C30.8138 53.7293 38.6754 53.2485 40.4428 51.5175C45.3753 46.6866 37.439 39.2723 36.3667 36.5395C35.861 35.2487 36.0798 34.0793 35.7844 32.826C35.5559 31.8543 35.0964 31.5184 35.7844 30.9692" stroke="#FDA55E" stroke-width="4.53237" stroke-linecap="round" stroke-linejoin="round"/>
<path d="M23.3301 56.7295C25.3901 57.5997 27.3334 57.2835 29.4306 57.0481" stroke="#FDA55E" stroke-width="4.53237" stroke-linecap="round" stroke-linejoin="round"/>
<path d="M31.106 52.9951C31.4321 54.9947 30.9085 70.8561 31.6373 71.8513" stroke="#FDA55E" stroke-width="4.53237" stroke-linecap="round" stroke-linejoin="round"/>
<path d="M39.1818 53.2725C39.067 61.861 39.6593 70.4915 39.6593 79.0611" stroke="#FDA55E" stroke-width="4.53237" stroke-linecap="round" stroke-linejoin="round"/>
<path d="M39.1367 42.1811C41.8376 36.7925 43.2003 31.7451 44.5164 25.8913C44.7304 24.9383 45.4399 21.6611 45.6103 21.6611C45.8201 21.6611 49.4733 35.8529 50.7832 40.5144" stroke="#FDA55E" stroke-width="4.53237" stroke-linecap="round" stroke-linejoin="round"/>
<path fill-rule="evenodd" clip-rule="evenodd" d="M61.0423 52.8573C59.6772 51.8868 59.1785 49.8068 59.2791 48.9009C59.523 46.7023 62.1515 45.2316 62.8582 43.1183C63.274 41.8751 63.3398 40.3199 63.5546 40.5347C63.9355 40.9155 63.8535 43.0218 64.251 43.7149C65.6438 46.1522 70.7921 49.3911 66.8655 52.8573C65.9105 53.7003 63.9695 53.7003 61.0423 52.8573Z" stroke="#FDA55E" stroke-width="4.53237" stroke-linecap="round" stroke-linejoin="round"/>
<path d="M57.438 60.3499C60.0883 58.9721 69.0971 59.3809 69.2565 59.624C69.5978 60.1457 68.8771 77.3293 69.4528 78.5027" stroke="#FDA55E" stroke-width="4.53237" stroke-linecap="round" stroke-linejoin="round"/>
<path d="M46.2066 59.3733C41.3539 50.4998 49.5042 49.3939 50.507 45.609C51.0305 43.6331 51.2367 43.29 51.3697 43.29C52.1383 43.29 51.5542 44.8098 51.7954 45.609C52.7231 48.683 60.2101 51.8862 57.0219 57.935" stroke="#FDA55E" stroke-width="4.53237" stroke-linecap="round" stroke-linejoin="round"/>
<path d="M46.3881 64.6416C46.2017 69.2997 46.6268 73.9213 46.6268 78.5065" stroke="#FDA55E" stroke-width="4.53237" stroke-linecap="round" stroke-linejoin="round"/>
<path d="M49.9502 35.4113C48.0784 34.8014 46.3305 36.0982 46.1672 36.0797C44.9217 35.9373 43.5829 34.5688 41.354 35.8438" stroke="#FDA55E" stroke-width="4.53237" stroke-linecap="round" stroke-linejoin="round"/>
<path opacity="0.503384" d="M53.2782 47.1719C51.9244 50.7568 49.1882 53.507 46.623 56.3227" stroke="#FDA55E" stroke-width="3.6259" stroke-linecap="round" stroke-linejoin="round"/>
<path opacity="0.503384" d="M55.2195 51.8867C54.6287 55.3279 53.4529 58.0344 50.7827 58.8191" stroke="#FDA55E" stroke-width="4.53237" stroke-linecap="round" stroke-linejoin="round"/>
<path opacity="0.503384" d="M60.2104 46.6172C62.6181 47.5207 63.5647 49.7744 64.6472 51.8858" stroke="#FDA55E" stroke-width="3.6259" stroke-linecap="round" stroke-linejoin="round"/>
<path opacity="0.503384" d="M27.8389 49.3906C29.894 52.363 24.7163 53.5471 24.7163 56.3231" stroke="#FDA55E" stroke-width="4.53237" stroke-linecap="round" stroke-linejoin="round"/>
<path opacity="0.503384" d="M33.1192 39.9619C33.4187 43.4503 33.2534 47.0769 32.8003 50.4992" stroke="#FDA55E" stroke-width="4.53237" stroke-linecap="round" stroke-linejoin="round"/>
<path opacity="0.503384" d="M37.5557 41.0713C37.8552 44.5596 37.6899 48.1862 37.2368 51.6086" stroke="#FDA55E" stroke-width="3.6259" stroke-linecap="round" stroke-linejoin="round"/>
<path d="M64.9243 68.2467C64.9243 67.4141 64.9243 66.5825 64.9243 65.751" stroke="#FDA55E" stroke-width="4.53237" stroke-linecap="round" stroke-linejoin="round"/>
<path d="M55.2219 58.8184C55.3584 61.203 54.93 74.1862 55.2943 78.5065" stroke="#FDA55E" stroke-width="4.53237" stroke-linecap="round" stroke-linejoin="round"/>
<path d="M44.354 21.6607C43.1332 19.5143 44.4581 17.6503 44.9186 17.1618C46.1341 15.8685 45.7845 13.0826 46.0467 13.3613C46.3383 13.6713 46.0329 15.3236 46.2352 15.8612C46.514 16.6023 50.1585 19.8184 47.7403 21.3611" stroke="#FDA55E" stroke-width="4.53237" stroke-linecap="round" stroke-linejoin="round"/>
<path d="M34.7575 56.6006C34.7525 56.9061 34.8523 57.1508 34.9172 57.4325" stroke="#FDA55E" stroke-width="4.53237" stroke-linecap="round" stroke-linejoin="round"/>
<path d="M66.5088 52.9951C66.5304 53.503 66.668 57.5454 66.668 56.7816" stroke="#FDA55E" stroke-width="4.53237" stroke-linecap="round" stroke-linejoin="round"/>
<path d="M61.3843 53.2725C61.7093 55.0111 61.5096 56.8226 61.8091 58.5411" stroke="#FDA55E" stroke-width="4.53237" stroke-linecap="round" stroke-linejoin="round"/>
</svg>
