<svg width="90" height="90" viewBox="0 0 90 90" fill="none" xmlns="http://www.w3.org/2000/svg">
<path d="M30.0275 39.5047C36.5886 35.9772 47.591 33.2043 49.2061 33.4731M49.2061 33.4731L43.8226 48.4229C42.0842 51.4465 37.5307 58.5868 36.5886 58.9899C35.411 59.4938 24.1394 49.4308 23.13 49.4308C22.3225 49.4308 20.8869 51.4465 20.27 52.4544M49.2061 33.4731C50.2 33.6385 54.6196 35.1069 59.1318 37.0363M69.7304 43.5516C68.5348 41.5051 63.7841 39.0257 59.1318 37.0363M59.1318 37.0363C57.3934 41.6158 52.4025 51.7825 52.4025 52.4544C52.4025 53.2942 64.347 56.1498 64.8517 57.9976C65.3564 59.8453 61.6553 76.4749 62.4964 76.4749C63.1694 76.4749 65.9172 75.803 67.207 75.467" stroke="#CD96E8" stroke-width="4.4964" stroke-linecap="round" stroke-linejoin="round"/>
<path d="M53.7284 16.9188C64.603 5.56366 73.7784 24.2432 62.6683 27.8109C53.8872 30.631 47.5847 23.0909 54.5178 16.4119" stroke="#CD96E8" stroke-width="4.4964" stroke-linecap="round" stroke-linejoin="round"/>
<path d="M42.8544 66.2136C52.3912 56.0817 60.438 72.749 50.6946 75.9323C42.9936 78.4486 37.4664 71.7208 43.5466 65.7613" stroke="#CD96E8" stroke-width="4.4964" stroke-linecap="round" stroke-linejoin="round"/>
</svg>
