<svg width="1920" height="780" viewBox="0 0 1920 780" fill="none" xmlns="http://www.w3.org/2000/svg">
<g clip-path="url(#clip0_376_1610)">
<path fill-rule="evenodd" clip-rule="evenodd" d="M1839.81 186.64C1842.59 180.068 1847.22 174.446 1853.13 170.459C1859.04 166.472 1865.97 164.292 1873.09 164.183C1889.47 164.183 1903.36 175.605 1908.13 191.374C1910.4 190.879 1912.71 190.629 1915.03 190.631C1928.33 190.631 1939.61 198.629 1943.42 209.648C1946.15 208.87 1948.99 208.479 1951.83 208.484C1967.14 208.484 1979.59 219.633 1979.59 233.382C1979.58 237.549 1978.43 241.635 1976.27 245.193C1995.61 247.18 2045.57 250.169 2050.04 251.655C2055.44 253.4 2003.78 254.887 1986.94 256.131C1983.41 256.405 1979.59 258.57 1979.59 259.992C1979.59 274.63 1962.71 286.522 1941.9 286.522C1934.17 286.603 1926.53 284.836 1919.61 281.368C1916.8 285.073 1913.17 288.061 1908.99 290.091C1904.81 292.121 1900.22 293.134 1895.58 293.049C1891.29 293.111 1887.03 292.244 1883.1 290.507C1879.18 288.77 1875.67 286.204 1872.82 282.983C1866.2 287.584 1858.31 289.975 1850.25 289.818C1839.99 289.818 1830.91 286.279 1825.13 280.802C1818.91 284.308 1809.91 286.522 1799.92 286.522C1781.29 286.522 1766.07 278.863 1765.93 269.395C1757.24 268.24 1748.49 267.598 1739.73 267.473C1715.02 267.101 1668.02 266.552 1664.9 264.694C1661.77 262.836 1691.4 258.231 1731.59 255.759C1730.45 254.31 1729.81 252.52 1729.79 250.67C1729.79 244.643 1736.78 239.748 1745.42 239.748C1748.64 239.701 1751.83 240.415 1754.72 241.832C1755.22 231.718 1766.25 223.607 1779.75 223.607C1781.2 223.606 1782.65 223.703 1784.09 223.898C1785.72 218.572 1789.14 213.973 1793.76 210.876C1795.08 195.769 1809.06 183.862 1826.08 183.862C1830.8 183.849 1835.47 184.794 1839.81 186.64Z" fill="#F1F1F1"/>
<path fill-rule="evenodd" clip-rule="evenodd" d="M1836.35 174.442C1839.12 167.871 1843.75 162.251 1849.65 158.266C1855.56 154.282 1862.49 152.105 1869.61 152C1886 152 1899.9 163.407 1904.65 179.176C1906.92 178.695 1909.23 178.451 1911.55 178.449C1924.87 178.449 1936.15 186.446 1939.94 197.449C1942.67 196.671 1945.5 196.28 1948.35 196.286C1963.68 196.286 1980.25 204.542 1980.25 218.291C1980.25 222.557 1985.08 227.63 1982.89 231.217C2002.23 233.204 2053.25 250.168 2057.68 251.59C2063.06 253.335 2000.88 249.183 1984.03 250.492C1980.49 250.766 1976.68 252.931 1976.68 254.353C1976.68 269.007 1959.23 274.323 1938.44 274.323C1930.7 274.401 1923.06 272.641 1916.13 269.185C1913.32 272.887 1909.69 275.873 1905.51 277.903C1901.34 279.933 1896.75 280.948 1892.11 280.866C1887.82 280.93 1883.56 280.062 1879.63 278.322C1875.7 276.582 1872.19 274.011 1869.34 270.784C1862.72 275.386 1854.83 277.778 1846.77 277.619C1836.49 277.619 1827.43 274.08 1821.65 268.603C1815.42 272.125 1806.41 274.323 1796.42 274.323C1777.79 274.323 1762.57 266.664 1762.43 257.197C1759.2 263.385 1753.84 263.062 1742.47 262.851C1734.22 262.706 1660.27 264.839 1657.18 262.981C1654.08 261.123 1687.9 246.081 1728.1 243.593C1726.95 242.145 1726.31 240.354 1726.29 238.503C1726.29 232.477 1733.3 227.597 1741.93 227.597C1745.16 227.56 1748.36 228.297 1751.26 229.746C1751.76 219.616 1762.77 211.521 1776.27 211.521C1777.72 211.522 1779.17 211.614 1780.61 211.796C1782.24 206.47 1785.66 201.871 1790.28 198.774C1791.6 183.667 1805.58 171.76 1822.61 171.76C1827.32 171.728 1831.99 172.639 1836.35 174.442Z" fill="white"/>
<path fill-rule="evenodd" clip-rule="evenodd" d="M1813.7 249.506C1812.93 253.537 1813.6 257.712 1815.58 261.301C1817.57 264.889 1820.76 267.662 1824.58 269.135C1828.4 270.608 1832.62 270.687 1836.49 269.358C1840.37 268.029 1843.65 265.377 1845.77 261.866C1845.62 262.573 1845.42 263.269 1845.18 263.95C1843.56 268.206 1840.34 271.656 1836.21 273.562C1832.08 275.468 1827.37 275.677 1823.09 274.146C1818.81 272.615 1815.29 269.465 1813.3 265.37C1811.31 261.275 1810.99 256.561 1812.43 252.236C1812.77 251.291 1813.2 250.378 1813.7 249.506Z" fill="#F1F1F1"/>
<path fill-rule="evenodd" clip-rule="evenodd" d="M1758.21 244.126C1756.72 251.283 1761.15 258.812 1768.79 261.543C1772.16 262.853 1775.87 262.959 1779.3 261.843C1782.73 260.727 1785.67 258.458 1787.62 255.42C1787.49 256.027 1787.32 256.626 1787.12 257.213C1784.4 264.871 1775.47 268.684 1767.18 265.711C1758.9 262.739 1754.39 254.143 1757.11 246.501C1757.4 245.675 1757.76 244.879 1758.21 244.126Z" fill="#F1F1F1"/>
<path fill-rule="evenodd" clip-rule="evenodd" d="M1845.77 211.78C1843.05 208.688 1839.33 206.658 1835.26 206.049C1831.19 205.439 1827.04 206.289 1823.54 208.449C1820.03 210.609 1817.4 213.94 1816.11 217.854C1814.82 221.768 1814.95 226.014 1816.47 229.843C1816.01 229.291 1815.58 228.714 1815.18 228.115C1812.77 224.235 1811.97 219.56 1812.96 215.096C1813.95 210.633 1816.65 206.738 1820.48 204.252C1824.31 201.766 1828.96 200.888 1833.43 201.807C1837.9 202.725 1841.83 205.367 1844.37 209.163C1844.91 209.996 1845.38 210.871 1845.77 211.78Z" fill="#F1F1F1"/>
<path fill-rule="evenodd" clip-rule="evenodd" d="M1867.15 253.9C1866.38 257.932 1867.04 262.107 1869.03 265.695C1871.02 269.283 1874.2 272.056 1878.03 273.529C1881.85 275.002 1886.07 275.081 1889.94 273.752C1893.82 272.424 1897.1 269.772 1899.22 266.26C1899.07 266.967 1898.87 267.663 1898.63 268.344C1896.88 272.416 1893.65 275.667 1889.59 277.436C1885.54 279.205 1880.96 279.36 1876.8 277.867C1872.63 276.375 1869.19 273.348 1867.17 269.403C1865.16 265.458 1864.72 260.891 1865.94 256.631C1866.26 255.688 1866.67 254.774 1867.15 253.9Z" fill="#F1F1F1"/>
<path fill-rule="evenodd" clip-rule="evenodd" d="M1885.46 222.88C1887.8 219.506 1888.88 215.413 1888.51 211.319C1888.14 207.226 1886.35 203.393 1883.44 200.492C1880.54 197.592 1876.71 195.809 1872.62 195.456C1868.54 195.104 1864.46 196.204 1861.1 198.564C1861.52 197.994 1861.98 197.454 1862.47 196.948C1865.69 193.777 1870 191.981 1874.51 191.938C1879.02 191.896 1883.37 193.61 1886.64 196.721C1889.91 199.831 1891.85 204.093 1892.05 208.609C1892.25 213.124 1890.69 217.54 1887.7 220.925C1887 221.635 1886.25 222.289 1885.46 222.88Z" fill="#F1F1F1"/>
<path fill-rule="evenodd" clip-rule="evenodd" d="M1934.2 249.232C1936.82 245.278 1937.98 240.525 1937.47 235.803C1936.96 231.08 1934.8 226.689 1931.39 223.396C1927.97 220.103 1923.51 218.118 1918.78 217.787C1914.06 217.457 1909.36 218.802 1905.52 221.588C1907.14 219.4 1909.17 217.561 1911.51 216.183C1913.85 214.806 1916.44 213.917 1919.14 213.571C1921.83 213.225 1924.56 213.429 1927.17 214.17C1929.78 214.911 1932.21 216.174 1934.33 217.884C1936.44 219.593 1938.18 221.713 1939.45 224.116C1940.72 226.519 1941.49 229.155 1941.72 231.865C1941.95 234.576 1941.63 237.304 1940.77 239.886C1939.92 242.468 1938.56 244.85 1936.76 246.889C1935.98 247.745 1935.12 248.529 1934.2 249.232Z" fill="#F1F1F1"/>
</g>
<g clip-path="url(#clip1_376_1610)">
<path fill-rule="evenodd" clip-rule="evenodd" d="M1655.92 24.7108C1657.46 16.837 1665.03 10.8477 1674.12 10.8477C1682.04 10.8477 1688.83 15.411 1691.48 21.818C1694.41 19.2894 1698.17 17.9101 1702.04 17.9371C1709.77 17.9371 1716.18 23.2135 1717.19 30.0483C1717.94 29.9338 1718.69 29.8759 1719.45 29.8751C1727.24 29.8751 1733.57 35.7626 1733.57 43.0252C1733.57 43.5325 1733.54 44.0394 1733.48 44.543H1734.18C1736.38 44.4654 1738.58 44.8316 1740.64 45.6198C1742.7 46.408 1744.58 47.602 1746.17 49.1306C1747.76 50.6592 1749.02 52.4911 1749.88 54.5169C1750.75 56.5428 1751.19 58.7212 1751.19 60.9221C1751.19 63.123 1750.75 65.3013 1749.88 67.3272C1749.02 69.3531 1747.76 71.1849 1746.17 72.7135C1744.58 74.2421 1742.7 75.4361 1740.64 76.2243C1738.58 77.0125 1736.38 77.3787 1734.18 77.3012C1732.48 77.3058 1730.79 77.0552 1729.16 76.5576C1728.55 83.3211 1721.93 88.6484 1713.84 88.6484C1711.62 88.6831 1709.42 88.2686 1707.36 87.43C1705.31 86.5914 1703.45 85.346 1701.89 83.7693C1698.83 88.6178 1691.76 92.0199 1683.55 92.0199C1676.83 92.0199 1670.88 89.7383 1667.21 86.2343C1663.57 89.178 1657.67 91.1032 1651.02 91.1032C1642.44 91.1032 1635.12 87.9048 1632.25 83.423C1629.39 85.0249 1626.16 85.8504 1622.88 85.8167C1614.51 85.8167 1607.7 80.795 1607.7 74.6121C1607.7 73.4114 1607.96 72.2243 1608.45 71.1284C1602.46 69.9672 1597.98 65.2817 1597.98 59.6896C1597.98 53.2214 1603.98 47.9655 1611.37 47.9655C1612.11 47.9646 1612.84 48.0156 1613.57 48.1182C1613.12 46.979 1612.89 45.7663 1612.89 44.543C1612.89 38.1156 1619.19 32.9004 1626.96 32.9004C1629.27 32.8884 1631.57 33.3712 1633.68 34.3162C1634.43 28.0518 1640.83 23.1116 1648.57 23.1116C1651.11 23.1012 1653.61 23.6472 1655.92 24.7108Z" fill="#F1F1F1"/>
<path fill-rule="evenodd" clip-rule="evenodd" d="M1671.9 5.93882C1674.18 3.58602 1677.02 1.84454 1680.15 0.875592C1683.28 -0.0933582 1686.61 -0.258467 1689.82 0.395546C1693.04 1.04956 1696.03 2.50156 1698.54 4.61714C1701.04 6.73273 1702.96 9.44352 1704.14 12.4986C1707.07 10.8519 1710.39 9.99619 1713.76 10.0156C1717.13 10.0351 1720.44 10.929 1723.35 12.6095C1726.27 14.29 1728.7 16.6991 1730.4 19.5998C1732.1 22.5005 1733.02 25.7928 1733.05 29.1527C1733.05 29.6417 1733.05 30.1713 1733 30.6195C1737.65 31.5675 1741.78 34.2034 1744.6 38.0163C1747.41 41.8291 1748.7 46.5472 1748.22 51.2559C1747.74 55.9647 1745.53 60.3286 1742.01 63.5017C1738.49 66.6748 1733.91 68.431 1729.16 68.43C1728.41 68.4308 1727.65 68.39 1726.9 68.3077C1724.01 72.1616 1719.79 74.8134 1715.06 75.7535C1710.32 76.6936 1705.41 75.8556 1701.26 73.4007C1699.86 76.4207 1697.71 79.0328 1695.01 80.9876C1692.31 82.9423 1689.16 84.1742 1685.85 84.5656C1682.53 84.9569 1679.18 84.4947 1676.09 83.223C1673.01 81.9513 1670.31 79.9127 1668.24 77.302C1666.36 79.5861 1663.97 81.4119 1661.28 82.6409C1658.58 83.87 1655.63 84.47 1652.67 84.3953C1649.7 84.3207 1646.79 83.5735 1644.16 82.2103C1641.52 80.8472 1639.24 78.9039 1637.47 76.5278C1634.89 77.5545 1632.13 78.0212 1629.35 77.8967C1626.58 77.7723 1623.87 77.0596 1621.4 75.8062C1618.92 74.5529 1616.75 72.7877 1615.01 70.6286C1613.28 68.4696 1612.03 65.9663 1611.34 63.286C1606.96 61.9009 1603.23 58.9936 1600.83 55.0944C1598.42 51.1951 1597.5 46.5635 1598.24 42.0442C1598.97 37.5248 1601.31 33.4187 1604.82 30.4745C1608.34 27.5303 1612.8 25.9442 1617.39 26.0052H1617.98C1618.44 22.6555 1619.78 19.4849 1621.85 16.8093C1623.92 14.1336 1626.66 12.0463 1629.8 10.7553C1632.93 9.46423 1636.35 9.01447 1639.71 9.4508C1643.07 9.88713 1646.26 11.1943 1648.96 13.2422C1651.43 9.65551 1655.02 6.99233 1659.18 5.67486C1663.33 4.35739 1667.81 4.46104 1671.9 5.96938V5.93882Z" fill="white"/>
<path fill-rule="evenodd" clip-rule="evenodd" d="M1629.97 63.9072C1629.96 66.7824 1630.94 69.5743 1632.75 71.8128C1634.56 74.0513 1637.09 75.5999 1639.91 76.1977C1642.73 76.7956 1645.67 76.4063 1648.23 75.0954C1650.8 73.7845 1652.83 71.632 1653.99 69.0002C1653.97 69.4994 1653.91 69.9963 1653.82 70.4874C1652.64 76.8435 1646.2 80.9993 1639.46 79.7567C1632.72 78.514 1628.22 72.3209 1629.4 65.9546C1629.53 65.2561 1629.72 64.5707 1629.97 63.9072Z" fill="#F1F1F1"/>
<path fill-rule="evenodd" clip-rule="evenodd" d="M1679.85 84.4417C1686.72 86.0103 1694 82.0072 1696.68 74.8872C1697.95 71.7015 1698.06 68.1753 1697.01 64.9135C1695.95 61.6517 1693.79 58.8577 1690.9 57.0107C1691.49 57.1449 1692.07 57.3185 1692.64 57.5302C1699.98 60.2703 1703.59 68.7348 1700.68 76.4966C1697.78 84.2583 1689.45 88.2716 1682.11 85.5316C1681.33 85.2387 1680.57 84.8738 1679.85 84.4417Z" fill="#F1F1F1"/>
<path fill-rule="evenodd" clip-rule="evenodd" d="M1715.68 51.9688C1714.66 58.936 1719.26 65.8421 1726.61 67.92C1729.89 68.9083 1733.42 68.7307 1736.58 67.4175C1739.75 66.1044 1742.36 63.7369 1743.97 60.7185C1743.88 61.3127 1743.75 61.9011 1743.59 62.4807C1741.45 70.0082 1733.25 74.2761 1725.29 72.025C1717.33 69.7739 1712.6 61.839 1714.74 54.3115C1714.98 53.5042 1715.3 52.7202 1715.68 51.9688Z" fill="#F1F1F1"/>
<path fill-rule="evenodd" clip-rule="evenodd" d="M1706.99 46.1423C1707.71 43.4528 1707.49 40.5962 1706.35 38.0514C1705.22 35.5066 1703.24 33.4283 1700.75 32.1651C1698.26 30.9018 1695.41 30.5304 1692.68 31.1131C1689.95 31.6958 1687.5 33.1972 1685.75 35.3655C1685.9 34.9043 1686.08 34.4548 1686.29 34.021C1689.01 28.3474 1696.09 26.0759 1702.09 28.928C1708.1 31.7801 1710.75 38.7167 1708.02 44.3802C1707.73 44.9972 1707.38 45.587 1706.99 46.1423Z" fill="#F1F1F1"/>
<path fill-rule="evenodd" clip-rule="evenodd" d="M1667.09 34.8153C1664.67 33.428 1661.84 32.914 1659.08 33.3596C1656.32 33.8053 1653.8 35.1834 1651.94 37.2627C1650.08 39.3421 1649 41.9961 1648.87 44.7795C1648.73 47.5629 1649.57 50.3062 1651.23 52.5492C1650.82 52.282 1650.43 51.9929 1650.06 51.6834C1645.26 47.609 1644.86 40.2037 1649.17 35.1515C1653.48 30.0992 1660.87 29.3047 1665.67 33.3689C1666.19 33.8071 1666.66 34.2912 1667.09 34.8153Z" fill="#F1F1F1"/>
<path fill-rule="evenodd" clip-rule="evenodd" d="M1632.64 44.6558C1630.85 43.6512 1628.78 43.2861 1626.76 43.6212C1624.74 43.9563 1622.89 44.9714 1621.53 46.4976C1620.17 48.0238 1619.37 49.9691 1619.27 52.0098C1619.17 54.0505 1619.77 56.0636 1620.98 57.7142C1620.68 57.5184 1620.4 57.3041 1620.12 57.0725C1619.17 56.2832 1618.4 55.305 1617.85 54.2003C1617.3 53.0956 1616.99 51.889 1616.94 50.6575C1616.89 49.4261 1617.09 48.1971 1617.54 47.0492C1617.99 45.9013 1618.68 44.8598 1619.55 43.9915C1620.43 43.1231 1621.48 42.447 1622.64 42.0065C1623.79 41.566 1625.02 41.3707 1626.26 41.4333C1627.49 41.4958 1628.7 41.8147 1629.8 42.3697C1630.91 42.9246 1631.88 43.7032 1632.67 44.6558H1632.64Z" fill="#F1F1F1"/>
</g>
<g clip-path="url(#clip2_376_1610)">
<path fill-rule="evenodd" clip-rule="evenodd" d="M152.989 397.653C154.027 392.347 159.122 388.311 165.242 388.311C170.578 388.311 175.144 391.386 176.932 395.704C178.906 394 181.433 393.07 184.042 393.088C189.247 393.088 193.559 396.644 194.24 401.25C194.742 401.173 195.25 401.134 195.759 401.133C201.006 401.133 205.269 405.101 205.269 409.995C205.269 410.337 205.249 410.679 205.207 411.018H205.675C207.16 410.966 208.64 411.213 210.027 411.744C211.414 412.275 212.68 413.08 213.749 414.11C214.818 415.14 215.668 416.375 216.249 417.74C216.83 419.105 217.129 420.573 217.129 422.056C217.129 423.54 216.83 425.008 216.249 426.373C215.668 427.738 214.818 428.973 213.749 430.003C212.68 431.033 211.414 431.838 210.027 432.369C208.64 432.9 207.16 433.147 205.675 433.094C204.531 433.098 203.392 432.929 202.299 432.593C201.886 437.151 197.43 440.741 191.984 440.741C190.49 440.765 189.007 440.486 187.624 439.92C186.241 439.355 184.988 438.516 183.939 437.453C181.876 440.721 177.118 443.014 171.596 443.014C167.071 443.014 163.062 441.476 160.594 439.115C158.139 441.098 154.171 442.396 149.695 442.396C143.919 442.396 138.989 440.24 137.056 437.22C135.132 438.3 132.958 438.856 130.751 438.833C125.112 438.833 120.533 435.449 120.533 431.282C120.532 430.473 120.703 429.673 121.035 428.935C117.005 428.152 113.986 424.994 113.986 421.226C113.986 416.867 118.023 413.325 123.001 413.325C123.496 413.324 123.99 413.359 124.48 413.428C124.179 412.66 124.025 411.843 124.026 411.018C124.026 406.687 128.268 403.172 133.494 403.172C135.054 403.164 136.596 403.489 138.019 404.126C138.528 399.905 142.832 396.575 148.045 396.575C149.752 396.568 151.44 396.936 152.989 397.653Z" fill="#F1F1F1"/>
<path fill-rule="evenodd" clip-rule="evenodd" d="M163.75 385.002C165.284 383.417 167.194 382.243 169.303 381.59C171.413 380.937 173.653 380.826 175.816 381.267C177.98 381.707 179.997 382.686 181.682 384.112C183.366 385.537 184.662 387.364 185.452 389.423C187.429 388.313 189.662 387.737 191.93 387.75C194.198 387.763 196.424 388.365 198.388 389.498C200.353 390.63 201.988 392.254 203.133 394.209C204.278 396.163 204.893 398.382 204.918 400.646C204.918 400.976 204.918 401.333 204.884 401.635C208.014 402.274 210.795 404.05 212.688 406.62C214.581 409.189 215.451 412.369 215.129 415.542C214.807 418.715 213.316 421.656 210.946 423.795C208.575 425.933 205.494 427.117 202.299 427.116C201.791 427.116 201.284 427.089 200.779 427.033C198.832 429.631 195.991 431.418 192.804 432.051C189.617 432.685 186.308 432.12 183.513 430.466C182.572 432.501 181.124 434.261 179.308 435.579C177.492 436.896 175.367 437.726 173.138 437.99C170.908 438.254 168.648 437.942 166.573 437.085C164.499 436.228 162.679 434.854 161.288 433.095C160.019 434.634 158.415 435.865 156.598 436.693C154.781 437.521 152.799 437.925 150.802 437.875C148.805 437.825 146.846 437.321 145.073 436.403C143.3 435.484 141.76 434.174 140.57 432.573C138.836 433.265 136.974 433.579 135.108 433.496C133.243 433.412 131.416 432.931 129.751 432.087C128.087 431.242 126.621 430.053 125.454 428.598C124.286 427.143 123.443 425.456 122.981 423.649C120.035 422.716 117.523 420.757 115.904 418.129C114.284 415.501 113.665 412.38 114.159 409.334C114.652 406.288 116.226 403.521 118.592 401.537C120.959 399.553 123.961 398.484 127.051 398.525H127.45C127.761 396.268 128.659 394.131 130.055 392.328C131.451 390.525 133.295 389.118 135.405 388.248C137.514 387.378 139.816 387.075 142.079 387.369C144.343 387.663 146.49 388.544 148.306 389.924C149.966 387.507 152.387 385.712 155.184 384.824C157.982 383.936 160.997 384.006 163.75 385.023V385.002Z" fill="white"/>
<path fill-rule="evenodd" clip-rule="evenodd" d="M135.523 424.067C135.514 426.005 136.175 427.886 137.393 429.395C138.611 430.904 140.312 431.947 142.211 432.35C144.11 432.753 146.089 432.491 147.817 431.607C149.544 430.724 150.914 429.273 151.696 427.5C151.68 427.836 151.641 428.171 151.579 428.502C150.781 432.785 146.449 435.586 141.911 434.749C137.373 433.911 134.347 429.737 135.138 425.447C135.223 424.976 135.352 424.515 135.523 424.067Z" fill="#F1F1F1"/>
<path fill-rule="evenodd" clip-rule="evenodd" d="M169.1 437.907C173.728 438.964 178.63 436.266 180.432 431.468C181.285 429.321 181.364 426.945 180.653 424.747C179.943 422.549 178.489 420.666 176.54 419.421C176.937 419.511 177.328 419.628 177.709 419.771C182.653 421.618 185.08 427.322 183.127 432.553C181.175 437.783 175.564 440.488 170.626 438.641C170.096 438.444 169.585 438.198 169.1 437.907Z" fill="#F1F1F1"/>
<path fill-rule="evenodd" clip-rule="evenodd" d="M193.222 416.022C192.534 420.718 195.635 425.372 200.579 426.772C202.79 427.438 205.163 427.319 207.294 426.434C209.426 425.549 211.184 423.953 212.269 421.919C212.207 422.319 212.122 422.716 212.015 423.107C210.571 428.179 205.049 431.056 199.692 429.539C194.336 428.022 191.152 422.674 192.589 417.601C192.752 417.057 192.964 416.529 193.222 416.022Z" fill="#F1F1F1"/>
<path fill-rule="evenodd" clip-rule="evenodd" d="M187.37 412.096C187.859 410.284 187.708 408.359 186.944 406.644C186.18 404.929 184.848 403.528 183.173 402.677C181.497 401.826 179.579 401.575 177.74 401.968C175.902 402.361 174.254 403.373 173.074 404.834C173.172 404.523 173.294 404.22 173.439 403.928C175.268 400.104 180.033 398.573 184.076 400.495C188.12 402.417 189.901 407.092 188.065 410.909C187.869 411.325 187.637 411.722 187.37 412.096Z" fill="#F1F1F1"/>
<path fill-rule="evenodd" clip-rule="evenodd" d="M160.511 404.463C158.88 403.528 156.976 403.182 155.119 403.482C153.263 403.782 151.566 404.711 150.314 406.112C149.061 407.514 148.33 409.302 148.243 411.178C148.155 413.054 148.716 414.903 149.832 416.414C149.561 416.234 149.299 416.039 149.048 415.831C145.817 413.085 145.548 408.094 148.45 404.69C151.352 401.285 156.324 400.749 159.555 403.488C159.903 403.784 160.223 404.11 160.511 404.463Z" fill="#F1F1F1"/>
<path fill-rule="evenodd" clip-rule="evenodd" d="M137.318 411.093C136.117 410.416 134.72 410.17 133.359 410.396C131.998 410.622 130.756 411.306 129.839 412.335C128.922 413.363 128.386 414.674 128.319 416.049C128.252 417.425 128.659 418.781 129.472 419.894C129.27 419.762 129.077 419.617 128.894 419.461C128.255 418.929 127.734 418.27 127.365 417.526C126.996 416.781 126.787 415.968 126.751 415.138C126.714 414.308 126.852 413.48 127.155 412.706C127.458 411.933 127.92 411.231 128.511 410.646C129.101 410.061 129.808 409.605 130.585 409.308C131.362 409.011 132.193 408.88 133.024 408.922C133.855 408.964 134.668 409.179 135.411 409.553C136.154 409.927 136.81 410.451 137.338 411.093H137.318Z" fill="#F1F1F1"/>
</g>
<g clip-path="url(#clip3_376_1610)">
<path fill-rule="evenodd" clip-rule="evenodd" d="M51.9887 199.653C53.027 194.347 58.1223 190.311 64.2422 190.311C69.5782 190.311 74.1441 193.386 75.9319 197.704C77.9056 196 80.4326 195.07 83.042 195.088C88.2474 195.088 92.5588 198.644 93.2396 203.25C93.7424 203.173 94.2504 203.134 94.7592 203.133C100.006 203.133 104.269 207.101 104.269 211.995C104.269 212.337 104.249 212.679 104.207 213.018H104.675C106.16 212.966 107.64 213.213 109.027 213.744C110.414 214.275 111.68 215.08 112.749 216.11C113.818 217.14 114.668 218.375 115.249 219.74C115.83 221.105 116.129 222.573 116.129 224.056C116.129 225.54 115.83 227.008 115.249 228.373C114.668 229.738 113.818 230.973 112.749 232.003C111.68 233.033 110.414 233.838 109.027 234.369C107.64 234.9 106.16 235.147 104.675 235.094C103.531 235.098 102.392 234.929 101.299 234.593C100.886 239.151 96.4302 242.741 90.9841 242.741C89.4901 242.765 88.0068 242.486 86.624 241.92C85.2412 241.355 83.9875 240.516 82.9389 239.453C80.876 242.721 76.1176 245.014 70.5959 245.014C66.0713 245.014 62.0624 243.476 59.5938 241.115C57.139 243.098 53.1714 244.396 48.6949 244.396C42.9188 244.396 37.9885 242.24 36.0563 239.22C34.1322 240.3 31.9578 240.856 29.7507 240.833C24.1122 240.833 19.5326 237.449 19.5326 233.282C19.5324 232.473 19.7035 231.673 20.0345 230.935C16.005 230.152 12.9863 226.994 12.9863 223.226C12.9863 218.867 17.0227 215.325 22.0011 215.325C22.4958 215.324 22.9898 215.359 23.4796 215.428C23.1786 214.66 23.0247 213.843 23.0257 213.018C23.0257 208.687 27.2684 205.172 32.4944 205.172C34.0535 205.164 35.5963 205.489 37.019 206.126C37.5278 201.905 41.8324 198.575 47.0446 198.575C48.7519 198.568 50.4397 198.936 51.9887 199.653Z" fill="#F1F1F1"/>
<path fill-rule="evenodd" clip-rule="evenodd" d="M62.7501 187.002C64.2842 185.417 66.1943 184.243 68.3034 183.59C70.4126 182.937 72.6526 182.826 74.8163 183.267C76.98 183.707 78.9973 184.686 80.6815 186.112C82.3657 187.537 83.6625 189.364 84.4517 191.423C86.429 190.313 88.6616 189.737 90.9299 189.75C93.1982 189.763 95.4241 190.365 97.3884 191.498C99.3526 192.63 100.988 194.254 102.133 196.209C103.278 198.163 103.893 200.382 103.918 202.646C103.918 202.976 103.918 203.333 103.884 203.635C107.014 204.274 109.795 206.05 111.688 208.62C113.581 211.189 114.451 214.369 114.129 217.542C113.807 220.715 112.316 223.656 109.946 225.795C107.575 227.933 104.494 229.117 101.299 229.116C100.791 229.116 100.284 229.089 99.7789 229.033C97.8316 231.631 94.9915 233.418 91.8043 234.051C88.6172 234.685 85.3079 234.12 82.5126 232.466C81.5721 234.501 80.1245 236.261 78.3081 237.579C76.4916 238.896 74.3671 239.726 72.1376 239.99C69.908 240.254 67.648 239.942 65.5735 239.085C63.4989 238.228 61.6793 236.854 60.2884 235.095C59.0187 236.634 57.4146 237.865 55.5976 238.693C53.7807 239.521 51.7986 239.925 49.8019 239.875C47.8051 239.825 45.846 239.321 44.0732 238.403C42.3004 237.484 40.7604 236.174 39.5701 234.573C37.8359 235.265 35.9738 235.579 34.1082 235.496C32.2425 235.412 30.4163 234.931 28.7514 234.087C27.0865 233.242 25.6213 232.053 24.4537 230.598C23.2861 229.143 22.443 227.456 21.9805 225.649C19.0348 224.716 16.5233 222.757 14.9039 220.129C13.2845 217.501 12.665 214.38 13.1585 211.334C13.652 208.288 15.2255 205.521 17.5922 203.537C19.9589 201.553 22.961 200.484 26.0513 200.525H26.4501C26.7612 198.268 27.6592 196.131 29.0549 194.328C30.4505 192.525 32.2951 191.118 34.4047 190.248C36.5144 189.378 38.8156 189.075 41.0792 189.369C43.3427 189.663 45.4896 190.544 47.3059 191.924C48.966 189.507 51.3867 187.712 54.1844 186.824C56.9821 185.936 59.9967 186.006 62.7501 187.023V187.002Z" fill="white"/>
<path fill-rule="evenodd" clip-rule="evenodd" d="M34.5229 226.067C34.5142 228.005 35.1746 229.886 36.3927 231.395C37.6109 232.904 39.3124 233.947 41.211 234.35C43.1096 234.753 45.0892 234.491 46.8168 233.607C48.5443 232.724 49.9142 231.273 50.6959 229.5C50.6803 229.836 50.6413 230.171 50.579 230.502C49.7813 234.785 45.4493 237.586 40.9109 236.749C36.3726 235.911 33.347 231.737 34.1378 227.447C34.2234 226.976 34.3523 226.515 34.5229 226.067Z" fill="#F1F1F1"/>
<path fill-rule="evenodd" clip-rule="evenodd" d="M68.0999 239.907C72.7276 240.964 77.6304 238.266 79.432 233.468C80.2853 231.321 80.3636 228.945 79.6534 226.747C78.9433 224.549 77.489 222.666 75.54 221.421C75.9371 221.511 76.3276 221.628 76.709 221.771C81.653 223.618 84.0804 229.322 82.1275 234.553C80.1746 239.783 74.5636 242.488 69.6264 240.641C69.096 240.444 68.5849 240.198 68.0999 239.907Z" fill="#F1F1F1"/>
<path fill-rule="evenodd" clip-rule="evenodd" d="M92.2218 218.022C91.5342 222.718 94.6354 227.372 99.5794 228.772C101.79 229.438 104.163 229.319 106.294 228.434C108.426 227.549 110.184 225.953 111.269 223.919C111.207 224.319 111.122 224.716 111.015 225.107C109.571 230.179 104.049 233.056 98.6924 231.539C93.3358 230.022 90.152 224.674 91.5892 219.601C91.7525 219.057 91.9642 218.529 92.2218 218.022Z" fill="#F1F1F1"/>
<path fill-rule="evenodd" clip-rule="evenodd" d="M86.37 214.096C86.8588 212.284 86.7085 210.359 85.9443 208.644C85.1801 206.929 83.8485 205.528 82.1728 204.677C80.497 203.826 78.5791 203.575 76.7404 203.968C74.9018 204.361 73.2543 205.373 72.0742 206.834C72.1724 206.523 72.2943 206.22 72.4387 205.928C74.2678 202.104 79.033 200.573 83.0763 202.495C87.1195 204.417 88.9005 209.092 87.0645 212.909C86.8692 213.325 86.6368 213.722 86.37 214.096Z" fill="#F1F1F1"/>
<path fill-rule="evenodd" clip-rule="evenodd" d="M59.5112 206.463C57.8799 205.528 55.9761 205.182 54.1193 205.482C52.2625 205.782 50.5657 206.711 49.3135 208.112C48.0614 209.514 47.3302 211.302 47.2426 213.178C47.1549 215.054 47.7163 216.903 48.8323 218.414C48.5606 218.234 48.2989 218.039 48.0484 217.831C44.8166 215.085 44.5484 210.094 47.4502 206.69C50.352 203.285 55.3236 202.749 58.5554 205.488C58.903 205.784 59.2229 206.11 59.5112 206.463Z" fill="#F1F1F1"/>
<path fill-rule="evenodd" clip-rule="evenodd" d="M36.3176 213.093C35.1165 212.416 33.7195 212.17 32.3589 212.396C30.9984 212.622 29.7563 213.306 28.8393 214.335C27.9223 215.363 27.3857 216.674 27.3189 218.049C27.252 219.425 27.6588 220.781 28.4717 221.894C28.2703 221.762 28.0774 221.617 27.8941 221.461C27.255 220.929 26.7342 220.27 26.365 219.526C25.9959 218.781 25.7866 217.968 25.7505 217.138C25.7144 216.308 25.8523 215.48 26.1554 214.706C26.4585 213.933 26.9201 213.231 27.5106 212.646C28.1012 212.061 28.8076 211.605 29.5847 211.308C30.3618 211.011 31.1925 210.88 32.0235 210.922C32.8545 210.964 33.6676 211.179 34.4106 211.553C35.1535 211.927 35.8101 212.451 36.3382 213.093H36.3176Z" fill="#F1F1F1"/>
</g>
<g clip-path="url(#clip4_376_1610)">
<path fill-rule="evenodd" clip-rule="evenodd" d="M30.1693 680.529C32.4374 668.89 43.568 660.036 56.9367 660.036C68.5931 660.036 78.567 666.782 82.4725 676.253C86.784 672.515 92.3041 670.476 98.0042 670.516C109.375 670.516 118.793 678.316 120.28 688.42C121.379 688.25 122.489 688.165 123.6 688.164C135.061 688.164 144.374 696.867 144.374 707.603C144.375 708.353 144.329 709.102 144.239 709.847H145.26C148.504 709.732 151.737 710.273 154.768 711.438C157.798 712.604 160.563 714.369 162.898 716.628C165.233 718.888 167.091 721.596 168.359 724.591C169.628 727.585 170.281 730.806 170.281 734.059C170.281 737.313 169.628 740.533 168.359 743.528C167.091 746.522 165.233 749.23 162.898 751.49C160.563 753.75 157.798 755.515 154.768 756.68C151.737 757.845 148.504 758.386 145.26 758.272C142.761 758.279 140.275 757.908 137.885 757.173C136.984 767.171 127.25 775.046 115.354 775.046C112.09 775.097 108.85 774.485 105.829 773.245C102.808 772.005 100.07 770.164 97.7789 767.833C93.2726 775.001 82.8781 780.03 70.8162 780.03C60.9323 780.03 52.1751 776.657 46.7825 771.477C41.42 775.829 32.7529 778.675 22.9742 778.675C10.3565 778.675 -0.413555 773.947 -4.63446 767.321C-8.83762 769.689 -13.5874 770.91 -18.4087 770.86C-30.726 770.86 -40.73 763.436 -40.73 754.297C-40.7303 752.522 -40.3566 750.767 -39.6335 749.147C-48.4358 747.43 -55.03 740.504 -55.03 732.237C-55.03 722.676 -46.2127 714.906 -35.3375 714.906C-34.257 714.905 -33.1778 714.98 -32.1079 715.132C-32.7653 713.448 -33.1016 711.655 -33.0993 709.847C-33.0993 700.345 -23.8313 692.636 -12.4153 692.636C-9.00946 692.618 -5.6393 693.332 -2.53153 694.729C-1.41998 685.468 7.98319 678.165 19.3691 678.165C23.0985 678.15 26.7857 678.957 30.1693 680.529Z" fill="#F1F1F1"/>
<path fill-rule="evenodd" clip-rule="evenodd" d="M53.6772 652.779C57.0285 649.301 61.2009 646.726 65.8082 645.294C70.4156 643.862 75.309 643.617 80.0354 644.584C84.7618 645.551 89.1686 647.698 92.8477 650.825C96.5269 653.952 99.3596 657.96 101.084 662.476C105.403 660.042 110.28 658.777 115.235 658.805C120.19 658.834 125.052 660.156 129.343 662.64C133.634 665.124 137.206 668.685 139.707 672.973C142.208 677.261 143.553 682.128 143.608 687.095C143.608 687.818 143.608 688.601 143.533 689.263C150.371 690.665 156.446 694.561 160.581 700.198C164.716 705.834 166.616 712.808 165.913 719.769C165.209 726.73 161.953 733.181 156.774 737.872C151.596 742.562 144.864 745.158 137.885 745.157C136.776 745.158 135.668 745.098 134.565 744.976C130.312 750.673 124.107 754.593 117.145 755.983C110.183 757.373 102.954 756.134 96.8476 752.505C94.7932 756.969 91.631 760.831 87.663 763.72C83.6951 766.61 79.0542 768.431 74.1838 769.01C69.3135 769.588 64.3765 768.905 59.8447 767.025C55.313 765.145 51.338 762.131 48.2996 758.272C45.5261 761.649 42.0219 764.348 38.0528 766.164C34.0838 767.981 29.7541 768.868 25.3922 768.758C21.0303 768.648 16.7507 767.543 12.8781 765.528C9.00548 763.513 5.64148 760.64 3.04128 757.128C-0.746979 758.645 -4.81468 759.335 -8.89013 759.151C-12.9656 758.967 -16.955 757.914 -20.5918 756.061C-24.2287 754.208 -27.4293 751.599 -29.9799 748.407C-32.5305 745.215 -34.3724 741.515 -35.3825 737.553C-41.8173 735.505 -47.3036 731.208 -50.8412 725.443C-54.3788 719.679 -55.7319 712.833 -54.6539 706.152C-53.5759 699.471 -50.1386 693.401 -44.9687 689.049C-39.7988 684.697 -33.2407 682.352 -26.4901 682.442H-25.6189C-24.9394 677.49 -22.9776 672.803 -19.9288 668.848C-16.8801 664.893 -12.8508 661.807 -8.24228 659.899C-3.63376 657.99 1.39317 657.325 6.33778 657.97C11.2824 658.615 15.9721 660.548 19.9399 663.575C23.5662 658.273 28.8543 654.336 34.9658 652.388C41.0772 650.441 47.6624 650.594 53.6772 652.824V652.779Z" fill="white"/>
<path fill-rule="evenodd" clip-rule="evenodd" d="M-7.98411 738.472C-8.00292 742.722 -6.56043 746.849 -3.89944 750.158C-1.23845 753.467 2.47856 755.756 6.62594 756.64C10.7733 757.524 15.0978 756.949 18.8715 755.011C22.6452 753.073 25.6378 749.891 27.3454 746C27.3114 746.738 27.226 747.473 27.09 748.199C25.3475 757.595 15.8843 763.738 5.97042 761.901C-3.94346 760.064 -10.5527 750.909 -8.82528 741.498C-8.63819 740.466 -8.35661 739.453 -7.98411 738.472Z" fill="#F1F1F1"/>
<path fill-rule="evenodd" clip-rule="evenodd" d="M65.3635 768.827C75.4727 771.146 86.1826 765.229 90.1182 754.703C91.9821 749.994 92.1532 744.781 90.6019 739.96C89.0506 735.138 85.8737 731.008 81.6163 728.277C82.4837 728.476 83.3368 728.732 84.1698 729.045C94.97 733.096 100.272 745.609 96.0064 757.082C91.7404 768.556 79.4833 774.489 68.6982 770.439C67.5395 770.006 66.4232 769.466 65.3635 768.827Z" fill="#F1F1F1"/>
<path fill-rule="evenodd" clip-rule="evenodd" d="M118.057 720.824C116.555 731.124 123.33 741.333 134.13 744.404C138.958 745.865 144.141 745.603 148.798 743.662C153.454 741.72 157.295 738.221 159.666 733.759C159.531 734.637 159.345 735.507 159.11 736.364C155.955 747.491 143.893 753.8 132.192 750.473C120.491 747.145 113.536 735.415 116.675 724.287C117.032 723.094 117.495 721.935 118.057 720.824Z" fill="#F1F1F1"/>
<path fill-rule="evenodd" clip-rule="evenodd" d="M105.274 712.211C106.342 708.235 106.014 704.012 104.344 700.25C102.675 696.489 99.7662 693.416 96.1056 691.549C92.445 689.682 88.2553 689.133 84.2388 689.994C80.2224 690.855 76.6236 693.075 74.0457 696.28C74.2602 695.598 74.5263 694.934 74.8418 694.292C78.8374 685.905 89.2469 682.548 98.0793 686.764C106.912 690.98 110.802 701.234 106.791 709.606C106.365 710.518 105.857 711.39 105.274 712.211Z" fill="#F1F1F1"/>
<path fill-rule="evenodd" clip-rule="evenodd" d="M46.6022 695.467C43.0387 693.416 38.8799 692.657 34.8238 693.315C30.7676 693.974 27.0609 696.011 24.3257 699.085C21.5904 702.159 19.9931 706.082 19.8017 710.197C19.6103 714.311 20.8365 718.367 23.2745 721.682C22.6809 721.287 22.1092 720.86 21.5621 720.403C14.5022 714.379 13.9164 703.433 20.2553 695.964C26.5942 688.496 37.4544 687.321 44.5142 693.329C45.2735 693.977 45.9723 694.692 46.6022 695.467Z" fill="#F1F1F1"/>
</g>
<defs>
<clipPath id="clip0_376_1610">
<rect width="401" height="141" fill="white" transform="translate(1657 152)"/>
</clipPath>
<clipPath id="clip1_376_1610">
<rect width="153" height="92" fill="white" transform="translate(1598)"/>
</clipPath>
<clipPath id="clip2_376_1610">
<rect width="103" height="62" fill="white" transform="translate(114 381)"/>
</clipPath>
<clipPath id="clip3_376_1610">
<rect width="103" height="62" fill="white" transform="translate(13 183)"/>
</clipPath>
<clipPath id="clip4_376_1610">
<rect width="225" height="136" fill="white" transform="translate(-55 644)"/>
</clipPath>
</defs>
</svg>
