<svg width="1920" height="487" viewBox="0 0 1920 487" fill="none" xmlns="http://www.w3.org/2000/svg">
<g clip-path="url(#clip0_411_1456)">
<path fill-rule="evenodd" clip-rule="evenodd" d="M65.4424 399.498C67.7313 394.091 71.5384 389.466 76.401 386.186C81.2635 382.906 86.9721 381.112 92.833 381.022C106.309 381.022 117.743 390.42 121.669 403.393C123.534 402.985 125.438 402.78 127.346 402.782C138.289 402.782 147.574 409.361 150.705 418.426C152.957 417.787 155.287 417.465 157.629 417.469C170.23 417.469 180.47 426.641 180.47 437.952C180.464 441.381 179.519 444.742 177.737 447.669C193.654 449.304 234.773 451.763 238.447 452.986C242.891 454.421 200.379 455.644 186.518 456.668C183.613 456.894 180.47 458.675 180.47 459.845C180.47 471.887 166.582 481.67 149.458 481.67C143.094 481.737 136.805 480.284 131.113 477.43C128.804 480.478 125.809 482.937 122.373 484.607C118.936 486.277 115.155 487.11 111.337 487.04C107.804 487.091 104.302 486.378 101.07 484.949C97.8374 483.52 94.9509 481.409 92.6075 478.759C87.1618 482.544 80.6636 484.512 74.0376 484.382C65.5883 484.382 58.1205 481.471 53.3587 476.965C48.2387 479.849 40.8373 481.67 32.6135 481.67C17.2801 481.67 4.75865 475.37 4.63927 467.581C-2.50834 466.63 -9.70554 466.102 -16.915 465.999C-37.2491 465.693 -75.9275 465.241 -78.5007 463.713C-81.074 462.184 -56.6944 458.396 -23.6135 456.362C-24.5586 455.17 -25.0813 453.697 -25.0991 452.175C-25.0991 447.217 -19.3424 443.19 -12.2328 443.19C-9.5827 443.151 -6.96085 443.739 -4.57934 444.904C-4.16815 436.583 4.90456 429.911 16.02 429.911C17.2133 429.91 18.4054 429.99 19.588 430.15C20.9329 425.768 23.7435 421.985 27.5466 419.437C28.6342 407.008 40.1343 397.212 54.1413 397.212C58.0237 397.202 61.868 397.98 65.4424 399.498Z" fill="#F1F1F1"/>
<path fill-rule="evenodd" clip-rule="evenodd" d="M62.5908 389.463C64.8766 384.057 68.6815 379.433 73.5422 376.155C78.4029 372.877 84.1098 371.086 89.9681 371C103.458 371 114.892 380.384 118.804 393.357C120.671 392.962 122.574 392.761 124.482 392.759C135.438 392.759 144.723 399.339 147.84 408.391C150.092 407.751 152.423 407.429 154.764 407.434C167.378 407.434 181.014 414.226 181.014 425.537C181.014 429.047 184.993 433.22 183.189 436.171C199.106 437.806 241.087 451.763 244.735 452.932C249.165 454.368 197.992 450.952 184.131 452.029C181.213 452.254 178.082 454.036 178.082 455.205C178.082 467.261 163.717 471.634 146.606 471.634C140.24 471.699 133.948 470.25 128.249 467.407C125.94 470.453 122.947 472.91 119.513 474.58C116.079 476.249 112.301 477.085 108.485 477.018C104.949 477.07 101.443 476.356 98.2086 474.925C94.9737 473.493 92.0857 471.378 89.7426 468.723C84.2973 472.509 77.7989 474.477 71.1727 474.346C62.7101 474.346 55.2557 471.435 50.4938 466.929C45.3738 469.827 37.9592 471.634 29.7354 471.634C14.4019 471.634 1.88053 465.334 1.76115 457.545C-0.891685 462.636 -5.30866 462.37 -14.6599 462.197C-21.4512 462.077 -82.3073 463.832 -84.8541 462.303C-87.4008 460.775 -59.5725 448.4 -26.4916 446.353C-27.4385 445.162 -27.9614 443.688 -27.9772 442.166C-27.9772 437.208 -22.2073 433.194 -15.1109 433.194C-12.4471 433.163 -9.81442 433.769 -7.43094 434.961C-7.01975 426.627 2.0397 419.968 13.1551 419.968C14.348 419.968 15.5397 420.044 16.7232 420.194C18.068 415.812 20.8786 412.029 24.6817 409.481C25.7693 397.052 37.2694 387.256 51.2897 387.256C55.1658 387.23 59.0081 387.98 62.5908 389.463Z" fill="white"/>
<path fill-rule="evenodd" clip-rule="evenodd" d="M43.9545 451.218C43.3196 454.534 43.8685 457.969 45.5053 460.921C47.142 463.873 49.7623 466.155 52.9079 467.366C56.0535 468.578 59.5241 468.643 62.7126 467.55C65.9012 466.457 68.6047 464.275 70.3503 461.386C70.2236 461.968 70.0597 462.54 69.8595 463.101C68.5243 466.602 65.8742 469.441 62.4766 471.009C59.079 472.576 55.2039 472.749 51.6808 471.489C48.1578 470.23 45.2669 467.638 43.627 464.269C41.9871 460.9 41.7285 457.022 42.9066 453.464C43.1911 452.687 43.5416 451.935 43.9545 451.218Z" fill="#F1F1F1"/>
<path fill-rule="evenodd" clip-rule="evenodd" d="M-1.71434 446.791C-2.93464 452.679 0.713011 458.874 7.00024 461.12C9.76643 462.197 12.8191 462.285 15.6421 461.367C18.4651 460.449 20.885 458.582 22.4928 456.082C22.3867 456.582 22.2493 457.075 22.0816 457.558C19.84 463.858 12.4916 466.995 5.67382 464.549C-1.14398 462.104 -4.85795 455.032 -2.6163 448.745C-2.38073 448.065 -2.0786 447.411 -1.71434 446.791Z" fill="#F1F1F1"/>
<path fill-rule="evenodd" clip-rule="evenodd" d="M70.3501 420.181C68.111 417.637 65.0474 415.967 61.6996 415.466C58.3518 414.964 54.9349 415.664 52.0515 417.441C49.1681 419.218 47.0035 421.958 45.9395 425.178C44.8755 428.398 44.9804 431.891 46.2357 435.042C45.8568 434.587 45.5026 434.112 45.1746 433.619C43.1869 430.428 42.5302 426.582 43.3459 422.909C44.1616 419.237 46.3845 416.033 49.5355 413.988C52.6864 411.943 56.5131 411.22 60.1907 411.976C63.8684 412.732 67.1025 414.905 69.1961 418.028C69.6378 418.713 70.0237 419.433 70.3501 420.181Z" fill="#F1F1F1"/>
<path fill-rule="evenodd" clip-rule="evenodd" d="M87.9386 454.833C87.3037 458.15 87.8527 461.584 89.4894 464.536C91.1261 467.488 93.7464 469.77 96.892 470.982C100.038 472.193 103.508 472.258 106.697 471.165C109.885 470.072 112.589 467.89 114.334 465.001C114.208 465.583 114.044 466.156 113.844 466.716C112.405 470.066 109.746 472.741 106.409 474.196C103.072 475.651 99.307 475.778 95.88 474.55C92.4529 473.323 89.6214 470.833 87.9613 467.587C86.3013 464.342 85.9374 460.584 86.9438 457.079C87.2112 456.304 87.544 455.552 87.9386 454.833Z" fill="#F1F1F1"/>
<path fill-rule="evenodd" clip-rule="evenodd" d="M103.007 429.313C104.933 426.537 105.823 423.169 105.52 419.802C105.217 416.434 103.741 413.28 101.351 410.894C98.9598 408.508 95.8071 407.041 92.4452 406.751C89.0834 406.461 85.7269 407.366 82.9644 409.308C83.3085 408.839 83.6852 408.395 84.0918 407.979C86.736 405.37 90.288 403.892 93.9986 403.857C97.7092 403.822 101.288 405.233 103.981 407.791C106.674 410.35 108.269 413.857 108.432 417.572C108.594 421.287 107.31 424.92 104.85 427.704C104.279 428.288 103.663 428.826 103.007 429.313Z" fill="#F1F1F1"/>
<path fill-rule="evenodd" clip-rule="evenodd" d="M143.118 450.992C145.28 447.74 146.233 443.829 145.81 439.944C145.387 436.059 143.616 432.446 140.805 429.737C137.994 427.028 134.323 425.395 130.432 425.123C126.542 424.851 122.679 425.958 119.521 428.249C120.847 426.449 122.523 424.937 124.448 423.804C126.373 422.67 128.508 421.939 130.722 421.654C132.937 421.37 135.186 421.537 137.335 422.147C139.483 422.757 141.486 423.796 143.223 425.202C144.96 426.609 146.394 428.353 147.44 430.33C148.486 432.307 149.122 434.475 149.309 436.705C149.496 438.935 149.231 441.179 148.53 443.303C147.828 445.428 146.704 447.387 145.227 449.065C144.583 449.769 143.877 450.414 143.118 450.992Z" fill="#F1F1F1"/>
</g>
<g clip-path="url(#clip1_411_1456)">
<path fill-rule="evenodd" clip-rule="evenodd" d="M1855.34 21.4885C1856.69 14.6417 1863.26 9.43359 1871.17 9.43359C1878.06 9.43359 1883.95 13.4017 1886.26 18.973C1888.81 16.7743 1892.07 15.5749 1895.44 15.5983C1902.16 15.5983 1907.73 20.1865 1908.61 26.1298C1909.26 26.0302 1909.92 25.9799 1910.57 25.9792C1917.35 25.9792 1922.85 31.0988 1922.85 37.4141C1922.85 37.8552 1922.83 38.296 1922.77 38.7339H1923.38C1925.29 38.6664 1927.2 38.9849 1929 39.6702C1930.79 40.3556 1932.42 41.3939 1933.8 42.7231C1935.18 44.0523 1936.28 45.6453 1937.03 47.4069C1937.78 49.1685 1938.17 51.0627 1938.17 52.9766C1938.17 54.8904 1937.78 56.7846 1937.03 58.5462C1936.28 60.3079 1935.18 61.9008 1933.8 63.23C1932.42 64.5592 1930.79 65.5975 1929 66.2829C1927.2 66.9683 1925.29 67.2867 1923.38 67.2192C1921.9 67.2233 1920.43 67.0053 1919.02 66.5727C1918.48 72.454 1912.73 77.0864 1905.7 77.0864C1903.77 77.1166 1901.85 76.7562 1900.07 76.027C1898.28 75.2977 1896.66 74.2148 1895.31 72.8437C1892.65 77.0598 1886.5 80.0182 1879.37 80.0182C1873.53 80.0182 1868.35 78.0341 1865.16 74.9872C1862 77.547 1856.87 79.221 1851.09 79.221C1843.63 79.221 1837.27 76.4398 1834.77 72.5425C1832.29 73.9356 1829.48 74.6533 1826.63 74.624C1819.35 74.624 1813.44 70.2573 1813.44 64.8809C1813.44 63.8369 1813.66 62.8046 1814.08 61.8517C1808.88 60.8419 1804.98 56.7675 1804.98 51.9048C1804.98 46.2804 1810.19 41.7099 1816.62 41.7099C1817.26 41.7092 1817.9 41.7536 1818.53 41.8428C1818.14 40.8522 1817.94 39.7976 1817.95 38.7339C1817.95 33.1448 1823.42 28.6099 1830.17 28.6099C1832.19 28.5995 1834.18 29.0193 1836.01 29.841C1836.67 24.3937 1842.23 20.0979 1848.96 20.0979C1851.17 20.0889 1853.34 20.5636 1855.34 21.4885Z" fill="#F1F1F1"/>
<path fill-rule="evenodd" clip-rule="evenodd" d="M1869.24 5.1636C1871.22 3.11768 1873.69 1.60335 1876.41 0.76079C1879.13 -0.0817755 1882.03 -0.225349 1884.82 0.343359C1887.61 0.912067 1890.22 2.17467 1892.39 4.01431C1894.57 5.85395 1896.24 8.21116 1897.26 10.8678C1899.82 9.43585 1902.7 8.69175 1905.63 8.70866C1908.56 8.72557 1911.43 9.50292 1913.97 10.9642C1916.5 12.4255 1918.62 14.5204 1920.09 17.0427C1921.57 19.565 1922.37 22.4279 1922.4 25.3496C1922.4 25.7748 1922.4 26.2353 1922.36 26.6251C1926.4 27.4494 1929.99 29.7415 1932.43 33.057C1934.88 36.3725 1936 40.4752 1935.58 44.5698C1935.17 48.6643 1933.24 52.459 1930.18 55.2183C1927.12 57.9775 1923.14 59.5047 1919.02 59.5037C1918.36 59.5044 1917.71 59.469 1917.05 59.3974C1914.54 62.7486 1910.87 65.0545 1906.76 65.872C1902.64 66.6895 1898.37 65.9608 1894.76 63.8261C1893.54 66.4522 1891.68 68.7236 1889.33 70.4234C1886.98 72.1231 1884.24 73.1944 1881.36 73.5347C1878.48 73.875 1875.56 73.4731 1872.89 72.3672C1870.21 71.2614 1867.86 69.4887 1866.06 67.2185C1864.42 69.2047 1862.35 70.7924 1860 71.8611C1857.66 72.9298 1855.1 73.4515 1852.52 73.3867C1849.94 73.3218 1847.41 72.672 1845.12 71.4867C1842.83 70.3013 1840.85 68.6115 1839.31 66.5453C1837.07 67.4381 1834.67 67.8439 1832.26 67.7357C1829.85 67.6275 1827.49 67.0078 1825.34 65.9179C1823.19 64.828 1821.3 63.2931 1819.79 61.4156C1818.28 59.5382 1817.19 57.3614 1816.6 55.0307C1812.79 53.8263 1809.55 51.2982 1807.46 47.9075C1805.37 44.5169 1804.57 40.4894 1805.2 36.5596C1805.84 32.6297 1807.87 29.0592 1810.93 26.499C1813.99 23.9388 1817.86 22.5595 1821.85 22.6127H1822.37C1822.77 19.6998 1823.93 16.9428 1825.73 14.6162C1827.53 12.2895 1829.92 10.4745 1832.64 9.35183C1835.36 8.22917 1838.33 7.83807 1841.26 8.21749C1844.18 8.59691 1846.95 9.7336 1849.3 11.5143C1851.44 8.3955 1854.57 6.07969 1858.18 4.93407C1861.79 3.78844 1865.69 3.87857 1869.24 5.19017V5.1636Z" fill="white"/>
<path fill-rule="evenodd" clip-rule="evenodd" d="M1832.79 55.5713C1832.78 58.0715 1833.63 60.4992 1835.21 62.4457C1836.78 64.3923 1838.98 65.7388 1841.43 66.2587C1843.88 66.7786 1846.44 66.4401 1848.67 65.3002C1850.9 64.1602 1852.67 62.2885 1853.67 60C1853.65 60.434 1853.6 60.8661 1853.52 61.2932C1852.49 66.8202 1846.9 70.434 1841.04 69.3534C1835.18 68.2728 1831.27 62.8875 1832.29 57.3516C1832.4 56.7442 1832.57 56.1482 1832.79 55.5713Z" fill="#F1F1F1"/>
<path fill-rule="evenodd" clip-rule="evenodd" d="M1876.15 73.4282C1882.12 74.7922 1888.45 71.3112 1890.78 65.1199C1891.88 62.3498 1891.98 59.2835 1891.07 56.4472C1890.15 53.6108 1888.27 51.1812 1885.76 49.5752C1886.27 49.6919 1886.77 49.8428 1887.27 50.0269C1893.65 52.4096 1896.78 59.7701 1894.26 66.5194C1891.74 73.2687 1884.49 76.7585 1878.12 74.3759C1877.43 74.1212 1876.77 73.804 1876.15 73.4282Z" fill="#F1F1F1"/>
<path fill-rule="evenodd" clip-rule="evenodd" d="M1907.3 45.1904C1906.41 51.2489 1910.41 57.2542 1916.8 59.0611C1919.65 59.9205 1922.72 59.766 1925.47 58.6241C1928.22 57.4823 1930.49 55.4236 1931.89 52.7989C1931.81 53.3156 1931.7 53.8273 1931.56 54.3313C1929.7 60.8769 1922.57 64.5881 1915.65 62.6306C1908.74 60.6732 1904.62 53.7732 1906.48 47.2276C1906.69 46.5256 1906.96 45.8438 1907.3 45.1904Z" fill="#F1F1F1"/>
<path fill-rule="evenodd" clip-rule="evenodd" d="M1899.74 40.1242C1900.37 37.7855 1900.18 35.3014 1899.19 33.0885C1898.2 30.8757 1896.48 29.0685 1894.32 27.97C1892.16 26.8716 1889.68 26.5486 1887.31 27.0553C1884.93 27.562 1882.8 28.8675 1881.28 30.753C1881.41 30.3519 1881.56 29.9611 1881.75 29.5839C1884.11 24.6503 1890.27 22.6751 1895.49 25.1552C1900.71 27.6352 1903.01 33.6671 1900.64 38.5918C1900.38 39.1284 1900.08 39.6413 1899.74 40.1242Z" fill="#F1F1F1"/>
<path fill-rule="evenodd" clip-rule="evenodd" d="M1865.06 30.2745C1862.95 29.0681 1860.49 28.6211 1858.1 29.0086C1855.7 29.3961 1853.51 30.5945 1851.89 32.4026C1850.27 34.2108 1849.33 36.5186 1849.22 38.939C1849.1 41.3593 1849.83 43.7448 1851.27 45.6952C1850.92 45.4628 1850.58 45.2115 1850.26 44.9423C1846.08 41.3993 1845.74 34.96 1849.48 30.5668C1853.23 26.1735 1859.65 25.4826 1863.82 29.0167C1864.27 29.3977 1864.69 29.8187 1865.06 30.2745Z" fill="#F1F1F1"/>
<path fill-rule="evenodd" clip-rule="evenodd" d="M1835.11 38.8306C1833.56 37.9571 1831.75 37.6396 1830 37.931C1828.24 38.2224 1826.64 39.1051 1825.45 40.4322C1824.27 41.7594 1823.58 43.4509 1823.49 45.2254C1823.4 47 1823.93 48.7505 1824.98 50.1858C1824.72 50.0156 1824.47 49.8292 1824.23 49.6278C1823.41 48.9415 1822.73 48.0908 1822.26 47.1302C1821.78 46.1697 1821.51 45.1204 1821.46 44.0496C1821.42 42.9788 1821.6 41.9101 1821.99 40.9119C1822.38 39.9137 1822.97 39.0081 1823.74 38.253C1824.5 37.4979 1825.41 36.91 1826.42 36.5269C1827.42 36.1439 1828.49 35.9741 1829.56 36.0285C1830.64 36.0828 1831.69 36.3602 1832.65 36.8427C1833.61 37.3252 1834.45 38.0023 1835.14 38.8306H1835.11Z" fill="#F1F1F1"/>
</g>
<g clip-path="url(#clip2_411_1456)">
<path fill-rule="evenodd" clip-rule="evenodd" d="M147.712 224.67C148.317 221.589 151.285 219.245 154.85 219.245C157.958 219.245 160.618 221.031 161.66 223.538C162.809 222.548 164.281 222.009 165.801 222.019C168.834 222.019 171.345 224.084 171.742 226.758C172.035 226.714 172.331 226.691 172.627 226.691C175.683 226.691 178.167 228.994 178.167 231.836C178.167 232.035 178.155 232.233 178.131 232.43H178.403C179.268 232.4 180.13 232.543 180.938 232.852C181.746 233.16 182.484 233.627 183.106 234.225C183.729 234.824 184.224 235.54 184.563 236.333C184.901 237.126 185.075 237.978 185.075 238.839C185.075 239.701 184.901 240.553 184.563 241.346C184.224 242.139 183.729 242.855 183.106 243.453C182.484 244.052 181.746 244.519 180.938 244.827C180.13 245.136 179.268 245.279 178.403 245.249C177.736 245.25 177.073 245.152 176.436 244.958C176.196 247.604 173.6 249.689 170.428 249.689C169.557 249.702 168.693 249.54 167.888 249.212C167.082 248.884 166.352 248.397 165.741 247.78C164.54 249.677 161.768 251.008 158.551 251.008C155.915 251.008 153.58 250.115 152.142 248.744C150.712 249.896 148.401 250.649 145.793 250.649C142.429 250.649 139.557 249.398 138.431 247.644C137.31 248.271 136.044 248.594 134.758 248.581C131.473 248.581 128.806 246.616 128.806 244.196C128.805 243.727 128.905 243.262 129.098 242.833C126.751 242.379 124.992 240.545 124.992 238.357C124.992 235.826 127.343 233.769 130.244 233.769C130.532 233.769 130.819 233.789 131.105 233.829C130.929 233.383 130.84 232.909 130.84 232.43C130.84 229.915 133.312 227.874 136.356 227.874C137.264 227.87 138.163 228.059 138.992 228.428C139.288 225.977 141.796 224.044 144.832 224.044C145.826 224.04 146.81 224.254 147.712 224.67Z" fill="#F1F1F1"/>
<path fill-rule="evenodd" clip-rule="evenodd" d="M153.981 217.324C154.874 216.403 155.987 215.722 157.216 215.342C158.444 214.963 159.749 214.899 161.01 215.155C162.27 215.411 163.445 215.979 164.426 216.807C165.407 217.634 166.163 218.695 166.622 219.891C167.774 219.246 169.075 218.911 170.396 218.919C171.717 218.927 173.014 219.276 174.158 219.934C175.303 220.592 176.255 221.534 176.922 222.669C177.589 223.804 177.948 225.093 177.962 226.407C177.962 226.599 177.962 226.806 177.942 226.981C179.766 227.352 181.386 228.384 182.488 229.876C183.591 231.368 184.098 233.214 183.91 235.056C183.723 236.899 182.854 238.607 181.473 239.848C180.092 241.09 178.297 241.777 176.436 241.777C176.14 241.777 175.845 241.761 175.551 241.729C174.417 243.237 172.762 244.275 170.906 244.642C169.049 245.01 167.121 244.682 165.493 243.722C164.945 244.904 164.102 245.926 163.044 246.691C161.985 247.456 160.748 247.938 159.449 248.091C158.15 248.244 156.834 248.063 155.625 247.565C154.417 247.068 153.357 246.27 152.547 245.248C151.807 246.142 150.873 246.857 149.814 247.338C148.756 247.819 147.601 248.053 146.438 248.024C145.275 247.995 144.134 247.703 143.101 247.169C142.068 246.636 141.171 245.875 140.478 244.946C139.468 245.347 138.383 245.53 137.296 245.481C136.209 245.432 135.145 245.154 134.176 244.663C133.206 244.173 132.352 243.482 131.672 242.637C130.992 241.792 130.501 240.813 130.231 239.764C128.516 239.222 127.052 238.084 126.109 236.558C125.166 235.033 124.805 233.22 125.092 231.452C125.38 229.683 126.297 228.077 127.675 226.925C129.054 225.773 130.803 225.152 132.603 225.176H132.835C133.016 223.865 133.539 222.624 134.352 221.577C135.165 220.53 136.24 219.714 137.469 219.208C138.698 218.703 140.038 218.527 141.357 218.698C142.675 218.869 143.926 219.38 144.984 220.182C145.951 218.778 147.361 217.736 148.991 217.22C150.621 216.705 152.377 216.745 153.981 217.336V217.324Z" fill="white"/>
<path fill-rule="evenodd" clip-rule="evenodd" d="M137.538 240.007C137.533 241.132 137.917 242.224 138.627 243.1C139.337 243.976 140.328 244.582 141.434 244.816C142.54 245.05 143.693 244.898 144.699 244.385C145.706 243.872 146.504 243.03 146.959 242C146.95 242.195 146.927 242.39 146.891 242.582C146.426 245.069 143.903 246.695 141.259 246.209C138.615 245.723 136.853 243.299 137.313 240.808C137.363 240.535 137.438 240.266 137.538 240.007Z" fill="#F1F1F1"/>
<path fill-rule="evenodd" clip-rule="evenodd" d="M157.097 248.042C159.792 248.656 162.648 247.09 163.698 244.304C164.195 243.057 164.241 241.677 163.827 240.401C163.413 239.125 162.566 238.031 161.431 237.309C161.662 237.361 161.89 237.429 162.112 237.512C164.992 238.584 166.406 241.896 165.268 244.933C164.131 247.971 160.862 249.541 157.986 248.469C157.677 248.354 157.379 248.212 157.097 248.042Z" fill="#F1F1F1"/>
<path fill-rule="evenodd" clip-rule="evenodd" d="M171.149 235.336C170.748 238.062 172.555 240.765 175.435 241.578C176.722 241.964 178.104 241.895 179.346 241.381C180.588 240.867 181.612 239.941 182.244 238.76C182.208 238.992 182.159 239.223 182.096 239.449C181.255 242.395 178.038 244.065 174.918 243.184C171.798 242.303 169.943 239.198 170.78 236.253C170.875 235.937 170.999 235.63 171.149 235.336Z" fill="#F1F1F1"/>
<path fill-rule="evenodd" clip-rule="evenodd" d="M167.74 233.056C168.024 232.003 167.937 230.885 167.492 229.89C167.047 228.894 166.271 228.08 165.295 227.586C164.319 227.092 163.201 226.947 162.13 227.175C161.059 227.403 160.1 227.99 159.412 228.839C159.469 228.658 159.54 228.482 159.624 228.312C160.69 226.092 163.466 225.203 165.821 226.319C168.176 227.436 169.214 230.15 168.144 232.366C168.031 232.607 167.895 232.838 167.74 233.056Z" fill="#F1F1F1"/>
<path fill-rule="evenodd" clip-rule="evenodd" d="M152.094 228.624C151.144 228.081 150.035 227.88 148.953 228.054C147.872 228.228 146.883 228.768 146.154 229.581C145.424 230.395 144.998 231.433 144.947 232.523C144.896 233.612 145.223 234.685 145.873 235.563C145.715 235.458 145.563 235.345 145.417 235.224C143.534 233.63 143.378 230.732 145.068 228.755C146.759 226.778 149.655 226.467 151.537 228.058C151.74 228.229 151.926 228.419 152.094 228.624Z" fill="#F1F1F1"/>
<path fill-rule="evenodd" clip-rule="evenodd" d="M138.583 232.473C137.883 232.08 137.069 231.937 136.277 232.069C135.484 232.2 134.761 232.597 134.226 233.194C133.692 233.791 133.38 234.553 133.341 235.351C133.302 236.15 133.539 236.937 134.012 237.583C133.895 237.507 133.783 237.423 133.676 237.332C133.304 237.023 133 236.641 132.785 236.208C132.57 235.776 132.448 235.304 132.427 234.822C132.406 234.34 132.486 233.859 132.663 233.41C132.84 232.961 133.108 232.553 133.452 232.214C133.796 231.874 134.208 231.609 134.661 231.437C135.113 231.264 135.597 231.188 136.081 231.212C136.565 231.237 137.039 231.362 137.472 231.579C137.905 231.796 138.287 232.101 138.595 232.473H138.583Z" fill="#F1F1F1"/>
</g>
<g clip-path="url(#clip3_411_1456)">
<path fill-rule="evenodd" clip-rule="evenodd" d="M67.9887 58.6531C69.027 53.3469 74.1223 49.3105 80.2422 49.3105C85.5782 49.3105 90.1441 52.3858 91.9319 56.7036C93.9056 54.9996 96.4326 54.07 99.042 54.0882C104.247 54.0882 108.559 57.644 109.24 62.2501C109.742 62.1729 110.25 62.1339 110.759 62.1334C116.006 62.1334 120.269 66.1011 120.269 70.9954C120.269 71.3373 120.249 71.6789 120.207 72.0183H120.675C122.16 71.966 123.64 72.2128 125.027 72.7439C126.414 73.2751 127.68 74.0798 128.749 75.1099C129.818 76.1401 130.668 77.3746 131.249 78.7398C131.83 80.1051 132.129 81.5731 132.129 83.0563C132.129 84.5396 131.83 86.0076 131.249 87.3728C130.668 88.7381 129.818 89.9726 128.749 91.0028C127.68 92.0329 126.414 92.8376 125.027 93.3687C123.64 93.8999 122.16 94.1467 120.675 94.0944C119.531 94.0976 118.392 93.9286 117.299 93.5933C116.886 98.1513 112.43 101.741 106.984 101.741C105.49 101.765 104.007 101.486 102.624 100.92C101.241 100.355 99.9875 99.516 98.9389 98.4534C96.876 101.721 92.1176 104.014 86.5959 104.014C82.0713 104.014 78.0624 102.476 75.5938 100.115C73.139 102.098 69.1714 103.396 64.6949 103.396C58.9188 103.396 53.9885 101.24 52.0563 98.22C50.1322 99.2996 47.9578 99.8558 45.7507 99.8331C40.1122 99.8331 35.5326 96.4489 35.5326 92.2822C35.5324 91.4731 35.7035 90.6731 36.0345 89.9345C32.005 89.152 28.9863 85.9943 28.9863 82.2257C28.9863 77.8668 33.0227 74.3247 38.0011 74.3247C38.4958 74.3241 38.9898 74.3585 39.4796 74.4277C39.1786 73.6599 39.0247 72.8427 39.0257 72.0183C39.0257 67.6868 43.2684 64.1722 48.4944 64.1722C50.0535 64.1641 51.5963 64.4894 53.019 65.1263C53.5278 60.9047 57.8324 57.5754 63.0446 57.5754C64.7519 57.5684 66.4397 57.9363 67.9887 58.6531Z" fill="#F1F1F1"/>
<path fill-rule="evenodd" clip-rule="evenodd" d="M78.7501 46.0022C80.2842 44.4166 82.1943 43.243 84.3034 42.5901C86.4126 41.9371 88.6526 41.8258 90.8163 42.2665C92.98 42.7073 94.9973 43.6858 96.6815 45.1115C98.3657 46.5373 99.6625 48.3641 100.452 50.423C102.429 49.3132 104.662 48.7365 106.93 48.7497C109.198 48.7628 111.424 49.3652 113.388 50.4977C115.353 51.6302 116.988 53.2537 118.133 55.2085C119.278 57.1633 119.893 59.3821 119.918 61.6464C119.918 61.9759 119.918 62.3328 119.884 62.6349C123.014 63.2737 125.795 65.0501 127.688 67.6196C129.581 70.1891 130.451 73.3687 130.129 76.542C129.807 79.7153 128.316 82.6562 125.946 84.7946C123.575 86.933 120.494 88.1165 117.299 88.1158C116.791 88.1164 116.284 88.0889 115.779 88.0334C113.832 90.6306 110.991 92.4177 107.804 93.0512C104.617 93.6848 101.308 93.1201 98.5126 91.4657C97.5721 93.5009 96.1245 95.2612 94.3081 96.5786C92.4916 97.8959 90.3671 98.7261 88.1376 98.9898C85.908 99.2536 83.648 98.9421 81.5735 98.085C79.4989 97.228 77.6793 95.8542 76.2884 94.0948C75.0187 95.6341 73.4146 96.8645 71.5976 97.6928C69.7807 98.5211 67.7986 98.9254 65.8019 98.8751C63.8051 98.8248 61.846 98.3213 60.0732 97.4026C58.3004 96.484 56.7604 95.1743 55.5701 93.5731C53.8359 94.2649 51.9738 94.5795 50.1082 94.4956C48.2425 94.4117 46.4163 93.9314 44.7514 93.0868C43.0865 92.2421 41.6213 91.0526 40.4537 89.5976C39.2861 88.1425 38.443 86.4555 37.9805 84.6493C35.0348 83.7158 32.5233 81.7566 30.9039 79.1288C29.2845 76.501 28.665 73.3798 29.1585 70.3341C29.652 67.2885 31.2255 64.5213 33.5922 62.5372C35.9589 60.553 38.961 59.4841 42.0513 59.5253H42.4501C42.7612 57.2678 43.6592 55.1311 45.0549 53.328C46.4505 51.5248 48.2951 50.1182 50.4047 49.2481C52.5144 48.378 54.8156 48.0749 57.0792 48.369C59.3427 48.663 61.4896 49.544 63.3059 50.9241C64.966 48.507 67.3867 46.7122 70.1844 45.8243C72.9821 44.9365 75.9967 45.0063 78.7501 46.0228V46.0022Z" fill="white"/>
<path fill-rule="evenodd" clip-rule="evenodd" d="M50.5229 85.0674C50.5142 87.005 51.1746 88.8865 52.3927 90.3951C53.6109 91.9036 55.3124 92.9472 57.211 93.3501C59.1096 93.753 61.0892 93.4907 62.8168 92.6073C64.5443 91.7238 65.9142 90.2732 66.6959 88.4996C66.6803 88.836 66.6413 89.1709 66.579 89.5018C65.7813 93.7853 61.4493 96.586 56.9109 95.7485C52.3726 94.9111 49.347 90.7374 50.1378 86.4471C50.2234 85.9764 50.3523 85.5145 50.5229 85.0674Z" fill="#F1F1F1"/>
<path fill-rule="evenodd" clip-rule="evenodd" d="M84.0996 98.9069C88.7274 99.9641 93.6301 97.2663 95.4317 92.4681C96.285 90.3212 96.3633 87.9448 95.6532 85.7467C94.943 83.5485 93.4887 81.6656 91.5398 80.4209C91.9368 80.5113 92.3274 80.6283 92.7087 80.771C97.6528 82.6175 100.08 88.3219 98.1272 93.5527C96.1744 98.7834 90.5633 101.488 85.6261 99.6414C85.0957 99.4441 84.5847 99.1982 84.0996 98.9069Z" fill="#F1F1F1"/>
<path fill-rule="evenodd" clip-rule="evenodd" d="M108.222 77.0225C107.534 81.7178 110.635 86.3719 115.579 87.7722C117.79 88.4382 120.163 88.3186 122.294 87.4336C124.426 86.5486 126.184 84.9531 127.269 82.9191C127.207 83.3195 127.122 83.716 127.015 84.1066C125.571 89.1795 120.049 92.0557 114.692 90.5386C109.336 89.0216 106.152 83.6741 107.589 78.6013C107.752 78.0572 107.964 77.5288 108.222 77.0225Z" fill="#F1F1F1"/>
<path fill-rule="evenodd" clip-rule="evenodd" d="M102.37 73.0964C102.859 71.2839 102.708 69.3588 101.944 67.6438C101.18 65.9288 99.8485 64.5282 98.1728 63.6769C96.497 62.8256 94.5791 62.5753 92.7404 62.968C90.9018 63.3607 89.2543 64.3725 88.0742 65.8338C88.1724 65.5229 88.2943 65.22 88.4387 64.9277C90.2678 61.1041 95.033 59.5734 99.0763 61.4954C103.12 63.4175 104.901 68.0922 103.065 71.9088C102.869 72.3247 102.637 72.7221 102.37 73.0964Z" fill="#F1F1F1"/>
<path fill-rule="evenodd" clip-rule="evenodd" d="M75.5115 65.4631C73.8802 64.5282 71.9764 64.1818 70.1196 64.4821C68.2628 64.7825 66.5659 65.7112 65.3138 67.1125C64.0617 68.5138 63.3304 70.3024 63.2428 72.1781C63.1552 74.0539 63.7165 75.9027 64.8326 77.4142C64.5608 77.2341 64.2991 77.0394 64.0487 76.8307C60.8168 74.0849 60.5487 69.0945 63.4505 65.6897C66.3523 62.2849 71.3238 61.7495 74.5557 64.4884C74.9032 64.7837 75.2231 65.11 75.5115 65.4631Z" fill="#F1F1F1"/>
<path fill-rule="evenodd" clip-rule="evenodd" d="M52.3173 72.0934C51.1163 71.4164 49.7193 71.1704 48.3587 71.3962C46.9981 71.6221 45.756 72.3061 44.839 73.3347C43.9221 74.3632 43.3855 75.6741 43.3186 77.0494C43.2518 78.4247 43.6586 79.7813 44.4715 80.8937C44.27 80.7618 44.0771 80.6173 43.8939 80.4612C43.2547 79.9293 42.7339 79.2701 42.3648 78.5256C41.9957 77.7812 41.7864 76.968 41.7503 76.1381C41.7142 75.3082 41.8521 74.48 42.1552 73.7064C42.4583 72.9328 42.9198 72.231 43.5104 71.6458C44.1009 71.0606 44.8074 70.6049 45.5845 70.3081C46.3616 70.0112 47.1923 69.8796 48.0233 69.9217C48.8543 69.9639 49.6673 70.1788 50.4103 70.5528C51.1533 70.9267 51.8099 71.4515 52.3379 72.0934H52.3173Z" fill="#F1F1F1"/>
</g>
<g clip-path="url(#clip4_411_1456)">
<path fill-rule="evenodd" clip-rule="evenodd" d="M1814.17 298.529C1816.44 286.89 1827.57 278.036 1840.94 278.036C1852.59 278.036 1862.57 284.782 1866.47 294.253C1870.78 290.515 1876.3 288.476 1882 288.516C1893.37 288.516 1902.79 296.316 1904.28 306.42C1905.38 306.25 1906.49 306.165 1907.6 306.164C1919.06 306.164 1928.37 314.867 1928.37 325.603C1928.37 326.353 1928.33 327.102 1928.24 327.847H1929.26C1932.5 327.732 1935.74 328.273 1938.77 329.438C1941.8 330.604 1944.56 332.369 1946.9 334.628C1949.23 336.888 1951.09 339.596 1952.36 342.591C1953.63 345.585 1954.28 348.806 1954.28 352.059C1954.28 355.313 1953.63 358.533 1952.36 361.528C1951.09 364.522 1949.23 367.23 1946.9 369.49C1944.56 371.75 1941.8 373.515 1938.77 374.68C1935.74 375.845 1932.5 376.386 1929.26 376.272C1926.76 376.279 1924.27 375.908 1921.88 375.173C1920.98 385.171 1911.25 393.046 1899.35 393.046C1896.09 393.097 1892.85 392.485 1889.83 391.245C1886.81 390.005 1884.07 388.164 1881.78 385.833C1877.27 393.001 1866.88 398.03 1854.82 398.03C1844.93 398.03 1836.17 394.657 1830.78 389.477C1825.42 393.829 1816.75 396.675 1806.97 396.675C1794.36 396.675 1783.59 391.947 1779.37 385.321C1775.16 387.689 1770.41 388.91 1765.59 388.86C1753.27 388.86 1743.27 381.436 1743.27 372.297C1743.27 370.522 1743.64 368.767 1744.37 367.147C1735.56 365.43 1728.97 358.504 1728.97 350.237C1728.97 340.676 1737.79 332.906 1748.66 332.906C1749.74 332.905 1750.82 332.98 1751.89 333.132C1751.23 331.448 1750.9 329.655 1750.9 327.847C1750.9 318.345 1760.17 310.636 1771.58 310.636C1774.99 310.618 1778.36 311.332 1781.47 312.729C1782.58 303.468 1791.98 296.165 1803.37 296.165C1807.1 296.15 1810.79 296.957 1814.17 298.529Z" fill="#F1F1F1"/>
<path fill-rule="evenodd" clip-rule="evenodd" d="M1837.68 270.779C1841.03 267.301 1845.2 264.726 1849.81 263.294C1854.42 261.862 1859.31 261.617 1864.03 262.584C1868.76 263.551 1873.17 265.698 1876.85 268.825C1880.53 271.952 1883.36 275.96 1885.08 280.476C1889.4 278.042 1894.28 276.777 1899.23 276.805C1904.19 276.834 1909.05 278.156 1913.34 280.64C1917.63 283.124 1921.21 286.685 1923.71 290.973C1926.21 295.261 1927.55 300.128 1927.61 305.095C1927.61 305.818 1927.61 306.601 1927.53 307.263C1934.37 308.665 1940.45 312.561 1944.58 318.198C1948.72 323.834 1950.62 330.808 1949.91 337.769C1949.21 344.73 1945.95 351.181 1940.77 355.872C1935.6 360.562 1928.86 363.158 1921.88 363.157C1920.78 363.158 1919.67 363.098 1918.56 362.976C1914.31 368.673 1908.11 372.593 1901.14 373.983C1894.18 375.373 1886.95 374.134 1880.85 370.505C1878.79 374.969 1875.63 378.831 1871.66 381.72C1867.69 384.61 1863.05 386.431 1858.18 387.01C1853.31 387.588 1848.38 386.905 1843.84 385.025C1839.31 383.145 1835.34 380.131 1832.3 376.272C1829.53 379.649 1826.02 382.348 1822.05 384.164C1818.08 385.981 1813.75 386.868 1809.39 386.758C1805.03 386.648 1800.75 385.543 1796.88 383.528C1793 381.513 1789.64 378.64 1787.04 375.128C1783.25 376.645 1779.18 377.335 1775.11 377.151C1771.03 376.967 1767.04 375.914 1763.41 374.061C1759.77 372.208 1756.57 369.599 1754.02 366.407C1751.47 363.215 1749.63 359.515 1748.62 355.553C1742.18 353.505 1736.7 349.208 1733.16 343.443C1729.62 337.679 1728.27 330.833 1729.35 324.152C1730.42 317.471 1733.86 311.401 1739.03 307.049C1744.2 302.697 1750.76 300.352 1757.51 300.442H1758.38C1759.06 295.49 1761.02 290.803 1764.07 286.848C1767.12 282.893 1771.15 279.807 1775.76 277.899C1780.37 275.99 1785.39 275.325 1790.34 275.97C1795.28 276.615 1799.97 278.548 1803.94 281.575C1807.57 276.273 1812.85 272.336 1818.97 270.388C1825.08 268.441 1831.66 268.594 1837.68 270.824V270.779Z" fill="white"/>
<path fill-rule="evenodd" clip-rule="evenodd" d="M1776.02 356.472C1776 360.722 1777.44 364.849 1780.1 368.158C1782.76 371.467 1786.48 373.756 1790.63 374.64C1794.77 375.524 1799.1 374.949 1802.87 373.011C1806.65 371.073 1809.64 367.891 1811.35 364C1811.31 364.738 1811.23 365.473 1811.09 366.199C1809.35 375.595 1799.88 381.738 1789.97 379.901C1780.06 378.064 1773.45 368.909 1775.17 359.498C1775.36 358.466 1775.64 357.453 1776.02 356.472Z" fill="#F1F1F1"/>
<path fill-rule="evenodd" clip-rule="evenodd" d="M1849.36 386.827C1859.47 389.146 1870.18 383.229 1874.12 372.703C1875.98 367.994 1876.15 362.781 1874.6 357.96C1873.05 353.138 1869.87 349.008 1865.62 346.277C1866.48 346.476 1867.34 346.732 1868.17 347.045C1878.97 351.096 1884.27 363.609 1880.01 375.082C1875.74 386.556 1863.48 392.489 1852.7 388.439C1851.54 388.006 1850.42 387.466 1849.36 386.827Z" fill="#F1F1F1"/>
<path fill-rule="evenodd" clip-rule="evenodd" d="M1902.06 338.824C1900.56 349.124 1907.33 359.333 1918.13 362.404C1922.96 363.865 1928.14 363.603 1932.8 361.662C1937.45 359.72 1941.3 356.221 1943.67 351.759C1943.53 352.637 1943.35 353.507 1943.11 354.364C1939.96 365.491 1927.89 371.8 1916.19 368.473C1904.49 365.145 1897.54 353.415 1900.68 342.287C1901.03 341.094 1901.49 339.935 1902.06 338.824Z" fill="#F1F1F1"/>
<path fill-rule="evenodd" clip-rule="evenodd" d="M1889.27 330.211C1890.34 326.235 1890.01 322.012 1888.34 318.25C1886.68 314.489 1883.77 311.416 1880.11 309.549C1876.45 307.682 1872.26 307.133 1868.24 307.994C1864.22 308.855 1860.62 311.075 1858.05 314.28C1858.26 313.598 1858.53 312.934 1858.84 312.292C1862.84 303.905 1873.25 300.548 1882.08 304.764C1890.91 308.98 1894.8 319.234 1890.79 327.606C1890.37 328.518 1889.86 329.39 1889.27 330.211Z" fill="#F1F1F1"/>
<path fill-rule="evenodd" clip-rule="evenodd" d="M1830.6 313.467C1827.04 311.416 1822.88 310.657 1818.82 311.315C1814.77 311.974 1811.06 314.011 1808.33 317.085C1805.59 320.159 1803.99 324.082 1803.8 328.197C1803.61 332.311 1804.84 336.367 1807.27 339.682C1806.68 339.287 1806.11 338.86 1805.56 338.403C1798.5 332.379 1797.92 321.433 1804.26 313.964C1810.59 306.496 1821.45 305.321 1828.51 311.329C1829.27 311.977 1829.97 312.692 1830.6 313.467Z" fill="#F1F1F1"/>
<path fill-rule="evenodd" clip-rule="evenodd" d="M1779.94 328.012C1777.31 326.527 1774.26 325.987 1771.29 326.483C1768.32 326.978 1765.6 328.479 1763.6 330.735C1761.6 332.991 1760.43 335.866 1760.28 338.883C1760.13 341.9 1761.02 344.876 1762.8 347.316C1762.36 347.026 1761.94 346.71 1761.54 346.367C1760.14 345.2 1759 343.754 1758.2 342.121C1757.39 340.488 1756.93 338.705 1756.85 336.884C1756.77 335.064 1757.08 333.247 1757.74 331.55C1758.4 329.853 1759.41 328.314 1760.7 327.03C1761.99 325.746 1763.53 324.747 1765.23 324.096C1766.93 323.444 1768.74 323.156 1770.56 323.248C1772.37 323.341 1774.15 323.812 1775.77 324.633C1777.39 325.453 1778.83 326.604 1779.98 328.012H1779.94Z" fill="#F1F1F1"/>
</g>
<defs>
<clipPath id="clip0_411_1456">
<rect width="330" height="116" fill="white" transform="translate(-85 371)"/>
</clipPath>
<clipPath id="clip1_411_1456">
<rect width="133" height="80" fill="white" transform="translate(1805)"/>
</clipPath>
<clipPath id="clip2_411_1456">
<rect width="60" height="36" fill="white" transform="translate(125 215)"/>
</clipPath>
<clipPath id="clip3_411_1456">
<rect width="103" height="62" fill="white" transform="translate(29 42)"/>
</clipPath>
<clipPath id="clip4_411_1456">
<rect width="225" height="136" fill="white" transform="translate(1729 262)"/>
</clipPath>
</defs>
</svg>
