<svg width="70" height="95" viewBox="0 0 70 95" fill="none" xmlns="http://www.w3.org/2000/svg">
<path d="M48.6097 64.951C42.9103 63.5264 32.2818 57.1929 30.958 54.6167C27.1808 47.1834 17.5471 32.6859 9.14752 34.7453C4.87669 35.7935 2.88712 38.4362 3.16387 42.2746L0 45.5964L4.38304 45.4044C5.42565 46.662 6.57954 47.8255 7.83111 48.8812C6.16317 51.9298 4.15864 56.0266 4.69717 59.9167C6.79145 75.1303 25.1164 79.109 33.1943 78.2527C35.0418 81.1021 35.7897 82.6817 37.3006 85.2948C42.5363 94.4333 46.9268 95.5775 48.7818 94.2857C49.8214 93.5475 49.597 91.333 48.4078 88.3804C51.9755 90.462 54.9001 91.2444 55.8874 90.1298C56.8747 89.0152 55.5209 86.033 52.6562 82.6965C56.0818 83.7594 58.6398 83.8333 59.3354 82.6522C60.3078 80.9618 56.9569 77.2341 51.6016 73.7942C56.8373 74.4955 60.8239 73.9714 61.2577 72.3179C61.7962 70.1108 56.1417 66.8038 48.6097 64.951Z" fill="#E9E9E9"/>
<path d="M11.0975 39.6654C11.1874 40.0976 11.1469 40.5467 10.9812 40.9558C10.8156 41.3649 10.5322 41.7157 10.1669 41.9635C9.80165 42.2114 9.37103 42.3452 8.92964 42.348C8.48824 42.3508 8.05593 42.2225 7.68754 41.9794C7.31915 41.7362 7.03126 41.3892 6.86036 40.9822C6.68946 40.5752 6.64325 40.1267 6.72759 39.6934C6.81192 39.2601 7.02299 38.8616 7.33407 38.5485C7.64514 38.2353 8.0422 38.0216 8.4749 37.9343C9.05206 37.818 9.65181 37.9347 10.1432 38.2591C10.6346 38.5834 10.9776 39.089 11.0975 39.6654Z" fill="#2B2A8E"/>
<path d="M8.90464 39.9033C8.92599 40.1195 8.91482 40.3435 8.87253 40.547C8.83025 40.7505 8.75875 40.9243 8.66708 41.0466C8.5754 41.1688 8.46766 41.2339 8.35748 41.2337C8.24731 41.2335 8.13963 41.168 8.04806 41.0454C7.9565 40.9229 7.88516 40.7488 7.84306 40.5451C7.80096 40.3415 7.78999 40.1175 7.81154 39.9014C7.83309 39.6853 7.88619 39.4868 7.96413 39.331C8.04206 39.1753 8.14134 39.0692 8.24941 39.0263C8.32123 38.9977 8.39516 38.9978 8.46697 39.0264C8.53879 39.055 8.60706 39.1117 8.66791 39.1932C8.72877 39.2746 8.781 39.3793 8.82162 39.5011C8.86223 39.623 8.89045 39.7597 8.90464 39.9033Z" fill="#E9E9E9"/>
<path opacity="0.3" d="M46.8049 63.6843C43.702 66.4651 39.6148 68.0013 35.3767 67.9796C26.2894 67.9796 18.9443 61.1855 18.9443 52.7944C18.9488 50.8526 19.3503 48.9306 20.126 47.1382C20.9016 45.3458 22.0362 43.7181 23.465 42.3481C26.5142 46.018 29.1609 49.982 31.3626 54.1769C32.5369 56.4096 40.826 61.4368 46.8049 63.6843Z" fill="#2B2A8E"/>
<path d="M68.4992 18.403C67.1625 16.9606 63.8357 17.7881 60.1934 20.187C61.1674 17.9681 61.8515 15.6306 62.2286 13.2332C63.3851 6.40086 62.176 0.456737 59.5401 0.00884024C59.093 -0.0263404 58.644 0.0437912 58.2283 0.213718C57.8126 0.383644 57.4416 0.648733 57.1444 0.988141C55.2745 2.11927 51.6247 5.02681 49.935 12.8005C48.4331 19.853 48.5157 21.265 42.5829 27.8316C38.3399 32.5231 31.4234 34.8309 27.2404 36.8351C18.6643 40.9421 18.5741 46.0511 19.1449 49.8545C19.7142 53.8161 21.6796 57.4366 24.6796 60.0498C26.7106 61.7104 29.1614 62.7624 31.7538 63.0864C34.1979 63.6107 36.718 63.6622 39.181 63.2382C44.4379 62.1526 48.2528 59.1236 47.7196 56.4666C47.5819 55.9575 47.3301 55.4873 46.9837 55.0923C46.6373 54.6974 46.2056 54.3884 45.722 54.1892C47.8057 54.2131 49.8857 54.0069 51.9251 53.5743C58.6839 52.185 63.6855 48.9055 63.1523 46.2485C62.8744 44.882 61.1697 43.9711 58.6464 43.5611C59.2472 43.2119 59.8555 42.802 60.4563 42.4224C66.1562 38.5356 69.5581 33.5632 68.0562 31.3161C67.2601 30.1242 65.2475 29.9496 62.6792 30.6177H62.7317C67.7633 25.835 70.3391 20.3768 68.4992 18.403Z" fill="#E9E9E9"/>
</svg>
