<svg width="1920" height="1734" viewBox="0 0 1920 1734" fill="none" xmlns="http://www.w3.org/2000/svg">
<g clip-path="url(#clip0_447_1351)">
<path fill-rule="evenodd" clip-rule="evenodd" d="M65.4429 399.498C67.7318 394.091 71.5389 389.466 76.4014 386.186C81.264 382.906 86.9726 381.112 92.8335 381.022C106.31 381.022 117.744 390.42 121.67 403.393C123.535 402.985 125.438 402.78 127.347 402.782C138.29 402.782 147.575 409.361 150.705 418.426C152.958 417.787 155.288 417.465 157.629 417.469C170.23 417.469 180.47 426.641 180.47 437.952C180.465 441.381 179.519 444.742 177.738 447.669C193.655 449.304 234.774 451.763 238.448 452.986C242.891 454.421 200.38 455.644 186.518 456.668C183.614 456.894 180.47 458.675 180.47 459.845C180.47 471.887 166.582 481.67 149.458 481.67C143.094 481.737 136.806 480.284 131.114 477.43C128.804 480.478 125.81 482.937 122.373 484.607C118.937 486.277 115.156 487.11 111.337 487.04C107.804 487.091 104.302 486.378 101.07 484.949C97.8378 483.52 94.9514 481.409 92.608 478.759C87.1623 482.544 80.6641 484.512 74.0381 484.382C65.5888 484.382 58.121 481.471 53.3592 476.965C48.2392 479.849 40.8378 481.67 32.614 481.67C17.2805 481.67 4.75914 475.37 4.63976 467.581C-2.50785 466.63 -9.70506 466.102 -16.9146 465.999C-37.2486 465.693 -75.927 465.241 -78.5002 463.713C-81.0735 462.184 -56.6939 458.396 -23.613 456.362C-24.5581 455.17 -25.0808 453.697 -25.0986 452.175C-25.0986 447.217 -19.3419 443.19 -12.2323 443.19C-9.58221 443.151 -6.96036 443.739 -4.57885 444.904C-4.16766 436.583 4.90505 429.911 16.0204 429.911C17.2138 429.91 18.4059 429.99 19.5885 430.15C20.9334 425.768 23.744 421.985 27.547 419.437C28.6347 407.008 40.1348 397.212 54.1418 397.212C58.0242 397.202 61.8685 397.98 65.4429 399.498Z" fill="#F1F1F1"/>
<path fill-rule="evenodd" clip-rule="evenodd" d="M62.5903 389.463C64.8761 384.057 68.681 379.433 73.5417 376.155C78.4025 372.877 84.1093 371.086 89.9676 371C103.457 371 114.891 380.384 118.804 393.357C120.671 392.962 122.573 392.761 124.481 392.759C135.437 392.759 144.722 399.339 147.839 408.391C150.092 407.751 152.422 407.429 154.763 407.434C167.377 407.434 181.013 414.226 181.013 425.537C181.013 429.047 184.992 433.22 183.188 436.171C199.105 437.806 241.087 451.763 244.734 452.932C249.164 454.368 197.991 450.952 184.13 452.029C181.212 452.254 178.082 454.036 178.082 455.205C178.082 467.261 163.717 471.634 146.606 471.634C140.239 471.699 133.948 470.25 128.248 467.407C125.939 470.453 122.946 472.91 119.512 474.58C116.079 476.249 112.301 477.085 108.484 477.018C104.948 477.07 101.443 476.356 98.2081 474.925C94.9732 473.493 92.0852 471.378 89.7421 468.723C84.2968 472.509 77.7984 474.477 71.1722 474.346C62.7097 474.346 55.2552 471.435 50.4933 466.929C45.3734 469.827 37.9587 471.634 29.7349 471.634C14.4015 471.634 1.88004 465.334 1.76067 457.545C-0.892174 462.636 -5.30915 462.37 -14.6604 462.197C-21.4517 462.077 -82.3078 463.832 -84.8546 462.303C-87.4013 460.775 -59.573 448.4 -26.4921 446.353C-27.439 445.162 -27.9619 443.688 -27.9777 442.166C-27.9777 437.208 -22.2077 433.194 -15.1114 433.194C-12.4476 433.163 -9.81491 433.769 -7.43143 434.961C-7.02024 426.627 2.03922 419.968 13.1546 419.968C14.3475 419.968 15.5392 420.044 16.7227 420.194C18.0675 415.812 20.8782 412.029 24.6812 409.481C25.7689 397.052 37.2689 387.256 51.2892 387.256C55.1653 387.23 59.0076 387.98 62.5903 389.463Z" fill="white"/>
<path fill-rule="evenodd" clip-rule="evenodd" d="M43.955 451.218C43.3201 454.534 43.869 457.969 45.5057 460.921C47.1425 463.873 49.7628 466.155 52.9084 467.366C56.054 468.578 59.5246 468.643 62.7131 467.55C65.9017 466.457 68.6052 464.275 70.3508 461.386C70.2241 461.968 70.0602 462.54 69.86 463.101C68.5248 466.602 65.8747 469.441 62.4771 471.009C59.0795 472.576 55.2043 472.749 51.6813 471.489C48.1583 470.23 45.2674 467.638 43.6275 464.269C41.9876 460.9 41.729 457.022 42.9071 453.464C43.1915 452.687 43.5421 451.935 43.955 451.218Z" fill="#F1F1F1"/>
<path fill-rule="evenodd" clip-rule="evenodd" d="M-1.71434 446.791C-2.93464 452.679 0.713011 458.874 7.00024 461.12C9.76643 462.197 12.8191 462.285 15.6421 461.367C18.4651 460.449 20.885 458.582 22.4928 456.082C22.3867 456.582 22.2493 457.075 22.0816 457.558C19.84 463.858 12.4916 466.995 5.67382 464.549C-1.14398 462.104 -4.85795 455.032 -2.6163 448.745C-2.38073 448.065 -2.0786 447.411 -1.71434 446.791Z" fill="#F1F1F1"/>
<path fill-rule="evenodd" clip-rule="evenodd" d="M70.3501 420.181C68.111 417.637 65.0474 415.967 61.6996 415.466C58.3518 414.964 54.9349 415.664 52.0515 417.441C49.1681 419.218 47.0035 421.958 45.9395 425.178C44.8755 428.398 44.9804 431.891 46.2357 435.042C45.8568 434.587 45.5026 434.112 45.1746 433.619C43.1869 430.428 42.5302 426.582 43.3459 422.909C44.1616 419.237 46.3845 416.033 49.5355 413.988C52.6864 411.943 56.5131 411.22 60.1907 411.976C63.8684 412.732 67.1025 414.905 69.1961 418.028C69.6378 418.713 70.0237 419.433 70.3501 420.181Z" fill="#F1F1F1"/>
<path fill-rule="evenodd" clip-rule="evenodd" d="M87.9386 454.833C87.3037 458.15 87.8527 461.584 89.4894 464.536C91.1261 467.488 93.7464 469.77 96.892 470.982C100.038 472.193 103.508 472.258 106.697 471.165C109.885 470.072 112.589 467.89 114.334 465.001C114.208 465.583 114.044 466.156 113.844 466.716C112.405 470.066 109.746 472.741 106.409 474.196C103.072 475.651 99.307 475.778 95.88 474.55C92.4529 473.323 89.6214 470.833 87.9613 467.587C86.3013 464.342 85.9374 460.584 86.9438 457.079C87.2112 456.304 87.544 455.552 87.9386 454.833Z" fill="#F1F1F1"/>
<path fill-rule="evenodd" clip-rule="evenodd" d="M103.007 429.313C104.934 426.537 105.824 423.169 105.521 419.802C105.218 416.434 103.742 413.28 101.351 410.894C98.9603 408.508 95.8076 407.041 92.4457 406.751C89.0839 406.461 85.7274 407.366 82.9648 409.308C83.309 408.839 83.6857 408.395 84.0923 407.979C86.7365 405.37 90.2885 403.892 93.9991 403.857C97.7097 403.822 101.289 405.233 103.981 407.791C106.674 410.35 108.27 413.857 108.432 417.572C108.594 421.287 107.31 424.92 104.851 427.704C104.28 428.288 103.663 428.826 103.007 429.313Z" fill="#F1F1F1"/>
<path fill-rule="evenodd" clip-rule="evenodd" d="M143.118 450.992C145.28 447.74 146.233 443.829 145.81 439.944C145.387 436.059 143.616 432.446 140.805 429.737C137.994 427.028 134.323 425.395 130.432 425.123C126.542 424.851 122.679 425.958 119.521 428.249C120.847 426.449 122.523 424.937 124.448 423.804C126.373 422.67 128.508 421.939 130.722 421.654C132.937 421.37 135.186 421.537 137.335 422.147C139.483 422.757 141.486 423.796 143.223 425.202C144.96 426.609 146.394 428.353 147.44 430.33C148.486 432.307 149.122 434.475 149.309 436.705C149.496 438.935 149.231 441.179 148.53 443.303C147.828 445.428 146.704 447.387 145.227 449.065C144.583 449.769 143.877 450.414 143.118 450.992Z" fill="#F1F1F1"/>
</g>
<g clip-path="url(#clip1_447_1351)">
<path fill-rule="evenodd" clip-rule="evenodd" d="M1844.44 1483.5C1846.73 1478.09 1850.54 1473.47 1855.4 1470.19C1860.26 1466.91 1865.97 1465.11 1871.83 1465.02C1885.31 1465.02 1896.74 1474.42 1900.67 1487.39C1902.53 1486.99 1904.44 1486.78 1906.35 1486.78C1917.29 1486.78 1926.57 1493.36 1929.71 1502.43C1931.96 1501.79 1934.29 1501.46 1936.63 1501.47C1949.23 1501.47 1959.47 1510.64 1959.47 1521.95C1959.46 1525.38 1958.52 1528.74 1956.74 1531.67C1972.65 1533.3 2013.77 1535.76 2017.45 1536.99C2021.89 1538.42 1979.38 1539.64 1965.52 1540.67C1962.61 1540.89 1959.47 1542.67 1959.47 1543.84C1959.47 1555.89 1945.58 1565.67 1928.46 1565.67C1922.09 1565.74 1915.81 1564.28 1910.11 1561.43C1907.8 1564.48 1904.81 1566.94 1901.37 1568.61C1897.94 1570.28 1894.16 1571.11 1890.34 1571.04C1886.8 1571.09 1883.3 1570.38 1880.07 1568.95C1876.84 1567.52 1873.95 1565.41 1871.61 1562.76C1866.16 1566.54 1859.66 1568.51 1853.04 1568.38C1844.59 1568.38 1837.12 1565.47 1832.36 1560.96C1827.24 1563.85 1819.84 1565.67 1811.61 1565.67C1796.28 1565.67 1783.76 1559.37 1783.64 1551.58C1776.49 1550.63 1769.29 1550.1 1762.09 1550C1741.75 1549.69 1703.07 1549.24 1700.5 1547.71C1697.93 1546.18 1722.31 1542.4 1755.39 1540.36C1754.44 1539.17 1753.92 1537.7 1753.9 1536.17C1753.9 1531.22 1759.66 1527.19 1766.77 1527.19C1769.42 1527.15 1772.04 1527.74 1774.42 1528.9C1774.83 1520.58 1783.91 1513.91 1795.02 1513.91C1796.21 1513.91 1797.41 1513.99 1798.59 1514.15C1799.93 1509.77 1802.74 1505.98 1806.55 1503.44C1807.63 1491.01 1819.13 1481.21 1833.14 1481.21C1837.02 1481.2 1840.87 1481.98 1844.44 1483.5Z" fill="#F1F1F1"/>
<path fill-rule="evenodd" clip-rule="evenodd" d="M1841.59 1473.46C1843.88 1468.06 1847.68 1463.43 1852.54 1460.16C1857.4 1456.88 1863.11 1455.09 1868.97 1455C1882.46 1455 1893.89 1464.38 1897.8 1477.36C1899.67 1476.96 1901.57 1476.76 1903.48 1476.76C1914.44 1476.76 1923.72 1483.34 1926.84 1492.39C1929.09 1491.75 1931.42 1491.43 1933.76 1491.43C1946.38 1491.43 1960.01 1498.23 1960.01 1509.54C1960.01 1513.05 1963.99 1517.22 1962.19 1520.17C1978.11 1521.81 2020.09 1535.76 2023.73 1536.93C2028.16 1538.37 1976.99 1534.95 1963.13 1536.03C1960.21 1536.25 1957.08 1538.04 1957.08 1539.21C1957.08 1551.26 1942.72 1555.63 1925.61 1555.63C1919.24 1555.7 1912.95 1554.25 1907.25 1551.41C1904.94 1554.45 1901.95 1556.91 1898.51 1558.58C1895.08 1560.25 1891.3 1561.08 1887.48 1561.02C1883.95 1561.07 1880.44 1560.36 1877.21 1558.92C1873.97 1557.49 1871.09 1555.38 1868.74 1552.72C1863.3 1556.51 1856.8 1558.48 1850.17 1558.35C1841.71 1558.35 1834.26 1555.43 1829.49 1550.93C1824.37 1553.83 1816.96 1555.63 1808.73 1555.63C1793.4 1555.63 1780.88 1549.33 1780.76 1541.54C1778.11 1546.64 1773.69 1546.37 1764.34 1546.2C1757.55 1546.08 1696.69 1547.83 1694.15 1546.3C1691.6 1544.77 1719.43 1532.4 1752.51 1530.35C1751.56 1529.16 1751.04 1527.69 1751.02 1526.17C1751.02 1521.21 1756.79 1517.19 1763.89 1517.19C1766.55 1517.16 1769.19 1517.77 1771.57 1518.96C1771.98 1510.63 1781.04 1503.97 1792.15 1503.97C1793.35 1503.97 1794.54 1504.04 1795.72 1504.19C1797.07 1499.81 1799.88 1496.03 1803.68 1493.48C1804.77 1481.05 1816.27 1471.26 1830.29 1471.26C1834.17 1471.23 1838.01 1471.98 1841.59 1473.46Z" fill="white"/>
<path fill-rule="evenodd" clip-rule="evenodd" d="M1822.96 1535.22C1822.32 1538.53 1822.87 1541.97 1824.51 1544.92C1826.14 1547.87 1828.76 1550.15 1831.91 1551.37C1835.05 1552.58 1838.52 1552.64 1841.71 1551.55C1844.9 1550.46 1847.61 1548.27 1849.35 1545.39C1849.22 1545.97 1849.06 1546.54 1848.86 1547.1C1847.52 1550.6 1844.87 1553.44 1841.48 1555.01C1838.08 1556.58 1834.2 1556.75 1830.68 1555.49C1827.16 1554.23 1824.27 1551.64 1822.63 1548.27C1820.99 1544.9 1820.73 1541.02 1821.91 1537.46C1822.19 1536.69 1822.54 1535.94 1822.96 1535.22Z" fill="#F1F1F1"/>
<path fill-rule="evenodd" clip-rule="evenodd" d="M1777.29 1530.79C1776.07 1536.68 1779.71 1542.87 1786 1545.12C1788.77 1546.2 1791.82 1546.28 1794.64 1545.37C1797.47 1544.45 1799.89 1542.58 1801.49 1540.08C1801.39 1540.58 1801.25 1541.07 1801.08 1541.56C1798.84 1547.86 1791.49 1551 1784.67 1548.55C1777.86 1546.1 1774.14 1539.03 1776.38 1532.74C1776.62 1532.07 1776.92 1531.41 1777.29 1530.79Z" fill="#F1F1F1"/>
<path fill-rule="evenodd" clip-rule="evenodd" d="M1849.35 1504.18C1847.11 1501.64 1844.05 1499.97 1840.7 1499.47C1837.35 1498.96 1833.93 1499.66 1831.05 1501.44C1828.17 1503.22 1826 1505.96 1824.94 1509.18C1823.88 1512.4 1823.98 1515.89 1825.24 1519.04C1824.86 1518.59 1824.5 1518.11 1824.17 1517.62C1822.19 1514.43 1821.53 1510.58 1822.35 1506.91C1823.16 1503.24 1825.38 1500.03 1828.54 1497.99C1831.69 1495.94 1835.51 1495.22 1839.19 1495.98C1842.87 1496.73 1846.1 1498.91 1848.2 1502.03C1848.64 1502.71 1849.02 1503.43 1849.35 1504.18Z" fill="#F1F1F1"/>
<path fill-rule="evenodd" clip-rule="evenodd" d="M1866.94 1538.83C1866.3 1542.15 1866.85 1545.58 1868.49 1548.54C1870.13 1551.49 1872.75 1553.77 1875.89 1554.98C1879.04 1556.19 1882.51 1556.26 1885.7 1555.17C1888.89 1554.07 1891.59 1551.89 1893.33 1549C1893.21 1549.58 1893.04 1550.16 1892.84 1550.72C1891.4 1554.07 1888.75 1556.74 1885.41 1558.2C1882.07 1559.65 1878.31 1559.78 1874.88 1558.55C1871.45 1557.32 1868.62 1554.83 1866.96 1551.59C1865.3 1548.34 1864.94 1544.58 1865.94 1541.08C1866.21 1540.3 1866.54 1539.55 1866.94 1538.83Z" fill="#F1F1F1"/>
<path fill-rule="evenodd" clip-rule="evenodd" d="M1882.01 1513.31C1883.93 1510.54 1884.82 1507.17 1884.52 1503.8C1884.22 1500.43 1882.74 1497.28 1880.35 1494.89C1877.96 1492.51 1874.81 1491.04 1871.45 1490.75C1868.08 1490.46 1864.73 1491.37 1861.96 1493.31C1862.31 1492.84 1862.69 1492.39 1863.09 1491.98C1865.74 1489.37 1869.29 1487.89 1873 1487.86C1876.71 1487.82 1880.29 1489.23 1882.98 1491.79C1885.67 1494.35 1887.27 1497.86 1887.43 1501.57C1887.59 1505.29 1886.31 1508.92 1883.85 1511.7C1883.28 1512.29 1882.66 1512.83 1882.01 1513.31Z" fill="#F1F1F1"/>
<path fill-rule="evenodd" clip-rule="evenodd" d="M1922.12 1534.99C1924.28 1531.74 1925.23 1527.83 1924.81 1523.94C1924.39 1520.06 1922.62 1516.45 1919.81 1513.74C1916.99 1511.03 1913.32 1509.39 1909.43 1509.12C1905.54 1508.85 1901.68 1509.96 1898.52 1512.25C1899.85 1510.45 1901.52 1508.94 1903.45 1507.8C1905.37 1506.67 1907.51 1505.94 1909.72 1505.65C1911.94 1505.37 1914.19 1505.54 1916.33 1506.15C1918.48 1506.76 1920.49 1507.8 1922.22 1509.2C1923.96 1510.61 1925.39 1512.35 1926.44 1514.33C1927.49 1516.31 1928.12 1518.48 1928.31 1520.7C1928.5 1522.93 1928.23 1525.18 1927.53 1527.3C1926.83 1529.43 1925.7 1531.39 1924.23 1533.06C1923.58 1533.77 1922.88 1534.41 1922.12 1534.99Z" fill="#F1F1F1"/>
</g>
<g clip-path="url(#clip2_447_1351)">
<path fill-rule="evenodd" clip-rule="evenodd" d="M-12.5571 1646.5C-10.2682 1641.09 -6.46111 1636.47 -1.59856 1633.19C3.26399 1629.91 8.97261 1628.11 14.8335 1628.02C28.3099 1628.02 39.7436 1637.42 43.6698 1650.39C45.5347 1649.99 47.4381 1649.78 49.3469 1649.78C60.2899 1649.78 69.5748 1656.36 72.7052 1665.43C74.9576 1664.79 77.2879 1664.46 79.629 1664.47C92.23 1664.47 102.47 1673.64 102.47 1684.95C102.465 1688.38 101.519 1691.74 99.7376 1694.67C115.655 1696.3 156.774 1698.76 160.448 1699.99C164.891 1701.42 122.38 1702.64 108.518 1703.67C105.614 1703.89 102.47 1705.67 102.47 1706.84C102.47 1718.89 88.5824 1728.67 71.4583 1728.67C65.0942 1728.74 58.8058 1727.28 53.1139 1724.43C50.8043 1727.48 47.8095 1729.94 44.3731 1731.61C40.9367 1733.28 37.1555 1734.11 33.337 1734.04C29.8044 1734.09 26.3024 1733.38 23.0701 1731.95C19.8378 1730.52 16.9514 1728.41 14.608 1725.76C9.16228 1729.54 2.66411 1731.51 -3.96193 1731.38C-12.4112 1731.38 -19.879 1728.47 -24.6408 1723.96C-29.7608 1726.85 -37.1622 1728.67 -45.386 1728.67C-60.7195 1728.67 -73.2409 1722.37 -73.3602 1714.58C-80.5079 1713.63 -87.7051 1713.1 -94.9146 1713C-115.249 1712.69 -153.927 1712.24 -156.5 1710.71C-159.073 1709.18 -134.694 1705.4 -101.613 1703.36C-102.558 1702.17 -103.081 1700.7 -103.099 1699.17C-103.099 1694.22 -97.3419 1690.19 -90.2323 1690.19C-87.5822 1690.15 -84.9604 1690.74 -82.5788 1691.9C-82.1677 1683.58 -73.0949 1676.91 -61.9796 1676.91C-60.7862 1676.91 -59.5941 1676.99 -58.4115 1677.15C-57.0666 1672.77 -54.256 1668.98 -50.453 1666.44C-49.3653 1654.01 -37.8652 1644.21 -23.8582 1644.21C-19.9758 1644.2 -16.1315 1644.98 -12.5571 1646.5Z" fill="#F1F1F1"/>
<path fill-rule="evenodd" clip-rule="evenodd" d="M-15.4097 1636.46C-13.1239 1631.06 -9.319 1626.43 -4.45827 1623.16C0.402451 1619.88 6.10933 1618.09 11.9676 1618C25.4573 1618 36.891 1627.38 40.804 1640.36C42.6706 1639.96 44.5731 1639.76 46.481 1639.76C57.4373 1639.76 66.7222 1646.34 69.8393 1655.39C72.0917 1654.75 74.4221 1654.43 76.7632 1654.43C89.3775 1654.43 103.013 1661.23 103.013 1672.54C103.013 1676.05 106.992 1680.22 105.188 1683.17C121.105 1684.81 163.087 1698.76 166.734 1699.93C171.164 1701.37 119.991 1697.95 106.13 1699.03C103.212 1699.25 100.082 1701.04 100.082 1702.21C100.082 1714.26 85.7165 1718.63 68.6057 1718.63C62.2392 1718.7 55.948 1717.25 50.2481 1714.41C47.939 1717.45 44.9463 1719.91 41.5125 1721.58C38.0787 1723.25 34.3005 1724.08 30.4844 1724.02C26.9485 1724.07 23.443 1723.36 20.2081 1721.92C16.9732 1720.49 14.0852 1718.38 11.7421 1715.72C6.29681 1719.51 -0.201614 1721.48 -6.82777 1721.35C-15.2903 1721.35 -22.7448 1718.43 -27.5067 1713.93C-32.6266 1716.83 -40.0413 1718.63 -48.2651 1718.63C-63.5985 1718.63 -76.12 1712.33 -76.2393 1704.54C-78.8922 1709.64 -83.3092 1709.37 -92.6604 1709.2C-99.4517 1709.08 -160.308 1710.83 -162.855 1709.3C-165.401 1707.77 -137.573 1695.4 -104.492 1693.35C-105.439 1692.16 -105.962 1690.69 -105.978 1689.17C-105.978 1684.21 -100.208 1680.19 -93.1114 1680.19C-90.4476 1680.16 -87.8149 1680.77 -85.4314 1681.96C-85.0202 1673.63 -75.9608 1666.97 -64.8454 1666.97C-63.6525 1666.97 -62.4608 1667.04 -61.2773 1667.19C-59.9325 1662.81 -57.1218 1659.03 -53.3188 1656.48C-52.2311 1644.05 -40.7311 1634.26 -26.7108 1634.26C-22.8347 1634.23 -18.9924 1634.98 -15.4097 1636.46Z" fill="white"/>
<path fill-rule="evenodd" clip-rule="evenodd" d="M9.93864 1701.83C9.30374 1705.15 9.85265 1708.58 11.4894 1711.54C13.1261 1714.49 15.7464 1716.77 18.892 1717.98C22.0376 1719.19 25.5082 1719.26 28.6967 1718.17C31.8853 1717.07 34.5888 1714.89 36.3344 1712C36.2077 1712.58 36.0438 1713.16 35.8436 1713.72C34.4046 1717.07 31.7461 1719.74 28.4091 1721.2C25.072 1722.65 21.307 1722.78 17.88 1721.55C14.4529 1720.32 11.6214 1717.83 9.96134 1714.59C8.30129 1711.34 7.93745 1707.58 8.94382 1704.08C9.21116 1703.3 9.54397 1702.55 9.93864 1701.83Z" fill="#F1F1F1"/>
<path fill-rule="evenodd" clip-rule="evenodd" d="M25.007 1676.31C26.9336 1673.54 27.8235 1670.17 27.5207 1666.8C27.2179 1663.43 25.7417 1660.28 23.351 1657.89C20.9603 1655.51 17.8076 1654.04 14.4457 1653.75C11.0839 1653.46 7.72739 1654.37 4.96484 1656.31C5.30896 1655.84 5.68572 1655.39 6.09231 1654.98C8.7365 1652.37 12.2885 1650.89 15.9991 1650.86C19.7097 1650.82 23.2888 1652.23 25.9815 1654.79C28.6741 1657.35 30.2698 1660.86 30.432 1664.57C30.5942 1668.29 29.3102 1671.92 26.8508 1674.7C26.2797 1675.29 25.6631 1675.83 25.007 1676.31Z" fill="#F1F1F1"/>
<path fill-rule="evenodd" clip-rule="evenodd" d="M65.1175 1697.99C67.2798 1694.74 68.2329 1690.83 67.8102 1686.94C67.3875 1683.06 65.6159 1679.45 62.805 1676.74C59.9941 1674.03 56.3227 1672.39 52.4322 1672.12C48.5416 1671.85 44.6795 1672.96 41.5205 1675.25C42.8468 1673.45 44.523 1671.94 46.4482 1670.8C48.3734 1669.67 50.5077 1668.94 52.7224 1668.65C54.9371 1668.37 57.1864 1668.54 59.3348 1669.15C61.4831 1669.76 63.486 1670.8 65.2228 1672.2C66.9595 1673.61 68.3941 1675.35 69.4402 1677.33C70.4862 1679.31 71.122 1681.48 71.3092 1683.7C71.4964 1685.93 71.2312 1688.18 70.5296 1690.3C69.8279 1692.43 68.7043 1694.39 67.2265 1696.06C66.5825 1696.77 65.8767 1697.41 65.1175 1697.99Z" fill="#F1F1F1"/>
</g>
<g clip-path="url(#clip3_447_1351)">
<path fill-rule="evenodd" clip-rule="evenodd" d="M1855.34 21.4885C1856.69 14.6417 1863.26 9.43359 1871.17 9.43359C1878.06 9.43359 1883.95 13.4017 1886.26 18.973C1888.81 16.7743 1892.07 15.5749 1895.44 15.5983C1902.16 15.5983 1907.73 20.1865 1908.61 26.1298C1909.26 26.0302 1909.92 25.9799 1910.57 25.9792C1917.35 25.9792 1922.85 31.0988 1922.85 37.4141C1922.85 37.8552 1922.83 38.296 1922.77 38.7339H1923.38C1925.29 38.6664 1927.2 38.9849 1929 39.6702C1930.79 40.3556 1932.42 41.3939 1933.8 42.7231C1935.18 44.0523 1936.28 45.6453 1937.03 47.4069C1937.78 49.1685 1938.17 51.0627 1938.17 52.9766C1938.17 54.8904 1937.78 56.7846 1937.03 58.5462C1936.28 60.3079 1935.18 61.9008 1933.8 63.23C1932.42 64.5592 1930.79 65.5975 1929 66.2829C1927.2 66.9683 1925.29 67.2867 1923.38 67.2192C1921.9 67.2233 1920.43 67.0053 1919.02 66.5727C1918.48 72.454 1912.73 77.0864 1905.7 77.0864C1903.77 77.1166 1901.85 76.7562 1900.07 76.027C1898.28 75.2977 1896.66 74.2148 1895.31 72.8437C1892.65 77.0598 1886.5 80.0182 1879.37 80.0182C1873.53 80.0182 1868.35 78.0341 1865.16 74.9872C1862 77.547 1856.87 79.221 1851.09 79.221C1843.63 79.221 1837.27 76.4398 1834.77 72.5425C1832.29 73.9356 1829.48 74.6533 1826.63 74.624C1819.35 74.624 1813.44 70.2573 1813.44 64.8809C1813.44 63.8369 1813.66 62.8046 1814.08 61.8517C1808.88 60.8419 1804.98 56.7675 1804.98 51.9048C1804.98 46.2804 1810.19 41.7099 1816.62 41.7099C1817.26 41.7092 1817.9 41.7536 1818.53 41.8428C1818.14 40.8522 1817.94 39.7976 1817.95 38.7339C1817.95 33.1448 1823.42 28.6099 1830.17 28.6099C1832.19 28.5995 1834.18 29.0193 1836.01 29.841C1836.67 24.3937 1842.23 20.0979 1848.96 20.0979C1851.17 20.0889 1853.34 20.5636 1855.34 21.4885Z" fill="#F1F1F1"/>
<path fill-rule="evenodd" clip-rule="evenodd" d="M1869.24 5.1636C1871.22 3.11768 1873.69 1.60335 1876.41 0.76079C1879.13 -0.0817755 1882.03 -0.225349 1884.82 0.343359C1887.61 0.912067 1890.22 2.17467 1892.39 4.01431C1894.57 5.85395 1896.24 8.21116 1897.26 10.8678C1899.82 9.43585 1902.7 8.69175 1905.63 8.70866C1908.56 8.72557 1911.43 9.50292 1913.97 10.9642C1916.5 12.4255 1918.62 14.5204 1920.09 17.0427C1921.57 19.565 1922.37 22.4279 1922.4 25.3496C1922.4 25.7748 1922.4 26.2353 1922.36 26.6251C1926.4 27.4494 1929.99 29.7415 1932.43 33.057C1934.88 36.3725 1936 40.4752 1935.58 44.5698C1935.17 48.6643 1933.24 52.459 1930.18 55.2183C1927.12 57.9775 1923.14 59.5047 1919.02 59.5037C1918.36 59.5044 1917.71 59.469 1917.05 59.3974C1914.54 62.7486 1910.87 65.0545 1906.76 65.872C1902.64 66.6895 1898.37 65.9608 1894.76 63.8261C1893.54 66.4522 1891.68 68.7236 1889.33 70.4234C1886.98 72.1231 1884.24 73.1944 1881.36 73.5347C1878.48 73.875 1875.56 73.4731 1872.89 72.3672C1870.21 71.2614 1867.86 69.4887 1866.06 67.2185C1864.42 69.2047 1862.35 70.7924 1860 71.8611C1857.66 72.9298 1855.1 73.4515 1852.52 73.3867C1849.94 73.3218 1847.41 72.672 1845.12 71.4867C1842.83 70.3013 1840.85 68.6115 1839.31 66.5453C1837.07 67.4381 1834.67 67.8439 1832.26 67.7357C1829.85 67.6275 1827.49 67.0078 1825.34 65.9179C1823.19 64.828 1821.3 63.2931 1819.79 61.4156C1818.28 59.5382 1817.19 57.3614 1816.6 55.0307C1812.79 53.8263 1809.55 51.2982 1807.46 47.9075C1805.37 44.5169 1804.57 40.4894 1805.2 36.5596C1805.84 32.6297 1807.87 29.0592 1810.93 26.499C1813.99 23.9388 1817.86 22.5595 1821.85 22.6127H1822.37C1822.77 19.6998 1823.93 16.9428 1825.73 14.6162C1827.53 12.2895 1829.92 10.4745 1832.64 9.35183C1835.36 8.22917 1838.33 7.83807 1841.26 8.21749C1844.18 8.59691 1846.95 9.7336 1849.3 11.5143C1851.44 8.3955 1854.57 6.07969 1858.18 4.93407C1861.79 3.78844 1865.69 3.87857 1869.24 5.19017V5.1636Z" fill="white"/>
<path fill-rule="evenodd" clip-rule="evenodd" d="M1832.79 55.5713C1832.78 58.0715 1833.63 60.4992 1835.21 62.4457C1836.78 64.3923 1838.98 65.7388 1841.43 66.2587C1843.88 66.7786 1846.44 66.4401 1848.67 65.3002C1850.9 64.1602 1852.67 62.2885 1853.67 60C1853.65 60.434 1853.6 60.8661 1853.52 61.2932C1852.49 66.8202 1846.9 70.434 1841.04 69.3534C1835.18 68.2728 1831.27 62.8875 1832.29 57.3516C1832.4 56.7442 1832.57 56.1482 1832.79 55.5713Z" fill="#F1F1F1"/>
<path fill-rule="evenodd" clip-rule="evenodd" d="M1876.15 73.4282C1882.12 74.7922 1888.45 71.3112 1890.78 65.1199C1891.88 62.3498 1891.98 59.2835 1891.07 56.4472C1890.15 53.6108 1888.27 51.1812 1885.76 49.5752C1886.27 49.6919 1886.77 49.8428 1887.27 50.0269C1893.65 52.4096 1896.78 59.7701 1894.26 66.5194C1891.74 73.2687 1884.49 76.7585 1878.12 74.3759C1877.43 74.1212 1876.77 73.804 1876.15 73.4282Z" fill="#F1F1F1"/>
<path fill-rule="evenodd" clip-rule="evenodd" d="M1907.3 45.1904C1906.41 51.2489 1910.41 57.2542 1916.8 59.0611C1919.65 59.9205 1922.72 59.766 1925.47 58.6241C1928.22 57.4823 1930.49 55.4236 1931.89 52.7989C1931.81 53.3156 1931.7 53.8273 1931.56 54.3313C1929.7 60.8769 1922.57 64.5881 1915.65 62.6306C1908.74 60.6732 1904.62 53.7732 1906.48 47.2276C1906.69 46.5256 1906.96 45.8438 1907.3 45.1904Z" fill="#F1F1F1"/>
<path fill-rule="evenodd" clip-rule="evenodd" d="M1899.74 40.1242C1900.37 37.7855 1900.18 35.3014 1899.19 33.0885C1898.2 30.8757 1896.48 29.0685 1894.32 27.97C1892.16 26.8716 1889.68 26.5486 1887.31 27.0553C1884.93 27.562 1882.8 28.8675 1881.28 30.753C1881.41 30.3519 1881.56 29.9611 1881.75 29.5839C1884.11 24.6503 1890.27 22.6751 1895.49 25.1552C1900.71 27.6352 1903.01 33.6671 1900.64 38.5918C1900.38 39.1284 1900.08 39.6413 1899.74 40.1242Z" fill="#F1F1F1"/>
<path fill-rule="evenodd" clip-rule="evenodd" d="M1865.06 30.2745C1862.95 29.0681 1860.49 28.6211 1858.1 29.0086C1855.7 29.3961 1853.51 30.5945 1851.89 32.4026C1850.27 34.2108 1849.33 36.5186 1849.22 38.939C1849.1 41.3593 1849.83 43.7448 1851.27 45.6952C1850.92 45.4628 1850.58 45.2115 1850.26 44.9423C1846.08 41.3993 1845.74 34.96 1849.48 30.5668C1853.23 26.1735 1859.65 25.4826 1863.82 29.0167C1864.27 29.3977 1864.69 29.8187 1865.06 30.2745Z" fill="#F1F1F1"/>
<path fill-rule="evenodd" clip-rule="evenodd" d="M1835.11 38.8306C1833.56 37.9571 1831.75 37.6396 1830 37.931C1828.24 38.2224 1826.64 39.1051 1825.45 40.4322C1824.27 41.7594 1823.58 43.4509 1823.49 45.2254C1823.4 47 1823.93 48.7505 1824.98 50.1858C1824.72 50.0156 1824.47 49.8292 1824.23 49.6278C1823.41 48.9415 1822.73 48.0908 1822.26 47.1302C1821.78 46.1697 1821.51 45.1204 1821.46 44.0496C1821.42 42.9788 1821.6 41.9101 1821.99 40.9119C1822.38 39.9137 1822.97 39.0081 1823.74 38.253C1824.5 37.4979 1825.41 36.91 1826.42 36.5269C1827.42 36.1439 1828.49 35.9741 1829.56 36.0285C1830.64 36.0828 1831.69 36.3602 1832.65 36.8427C1833.61 37.3252 1834.45 38.0023 1835.14 38.8306H1835.11Z" fill="#F1F1F1"/>
</g>
<g clip-path="url(#clip4_447_1351)">
<path fill-rule="evenodd" clip-rule="evenodd" d="M147.712 224.67C148.317 221.589 151.285 219.245 154.85 219.245C157.958 219.245 160.618 221.031 161.66 223.538C162.809 222.548 164.281 222.009 165.801 222.019C168.834 222.019 171.345 224.084 171.742 226.758C172.035 226.714 172.331 226.691 172.627 226.691C175.683 226.691 178.167 228.994 178.167 231.836C178.167 232.035 178.155 232.233 178.131 232.43H178.403C179.268 232.4 180.13 232.543 180.938 232.852C181.746 233.16 182.484 233.627 183.106 234.225C183.729 234.824 184.224 235.54 184.563 236.333C184.901 237.126 185.075 237.978 185.075 238.839C185.075 239.701 184.901 240.553 184.563 241.346C184.224 242.139 183.729 242.855 183.106 243.453C182.484 244.052 181.746 244.519 180.938 244.827C180.13 245.136 179.268 245.279 178.403 245.249C177.736 245.25 177.073 245.152 176.436 244.958C176.196 247.604 173.6 249.689 170.428 249.689C169.557 249.702 168.693 249.54 167.888 249.212C167.082 248.884 166.352 248.397 165.741 247.78C164.54 249.677 161.768 251.008 158.551 251.008C155.915 251.008 153.58 250.115 152.142 248.744C150.712 249.896 148.401 250.649 145.793 250.649C142.429 250.649 139.557 249.398 138.431 247.644C137.31 248.271 136.044 248.594 134.758 248.581C131.473 248.581 128.806 246.616 128.806 244.196C128.805 243.727 128.905 243.262 129.098 242.833C126.751 242.379 124.992 240.545 124.992 238.357C124.992 235.826 127.343 233.769 130.244 233.769C130.532 233.769 130.819 233.789 131.105 233.829C130.929 233.383 130.84 232.909 130.84 232.43C130.84 229.915 133.312 227.874 136.356 227.874C137.264 227.87 138.163 228.059 138.992 228.428C139.288 225.977 141.796 224.044 144.832 224.044C145.826 224.04 146.81 224.254 147.712 224.67Z" fill="#F1F1F1"/>
<path fill-rule="evenodd" clip-rule="evenodd" d="M153.981 217.324C154.874 216.403 155.987 215.722 157.216 215.342C158.444 214.963 159.749 214.899 161.01 215.155C162.27 215.411 163.445 215.979 164.426 216.807C165.407 217.634 166.163 218.695 166.622 219.891C167.774 219.246 169.075 218.911 170.396 218.919C171.717 218.927 173.014 219.276 174.158 219.934C175.303 220.592 176.255 221.534 176.922 222.669C177.589 223.804 177.948 225.093 177.962 226.407C177.962 226.599 177.962 226.806 177.942 226.981C179.766 227.352 181.386 228.384 182.488 229.876C183.591 231.368 184.098 233.214 183.91 235.056C183.723 236.899 182.854 238.607 181.473 239.848C180.092 241.09 178.297 241.777 176.436 241.777C176.14 241.777 175.845 241.761 175.551 241.729C174.417 243.237 172.762 244.275 170.906 244.642C169.049 245.01 167.121 244.682 165.493 243.722C164.945 244.904 164.102 245.926 163.044 246.691C161.985 247.456 160.748 247.938 159.449 248.091C158.15 248.244 156.834 248.063 155.625 247.565C154.417 247.068 153.357 246.27 152.547 245.248C151.807 246.142 150.873 246.857 149.814 247.338C148.756 247.819 147.601 248.053 146.438 248.024C145.275 247.995 144.134 247.703 143.101 247.169C142.068 246.636 141.171 245.875 140.478 244.946C139.468 245.347 138.383 245.53 137.296 245.481C136.209 245.432 135.145 245.154 134.176 244.663C133.206 244.173 132.352 243.482 131.672 242.637C130.992 241.792 130.501 240.813 130.231 239.764C128.516 239.222 127.052 238.084 126.109 236.558C125.166 235.033 124.805 233.22 125.092 231.452C125.38 229.683 126.297 228.077 127.675 226.925C129.054 225.773 130.803 225.152 132.603 225.176H132.835C133.016 223.865 133.539 222.624 134.352 221.577C135.165 220.53 136.24 219.714 137.469 219.208C138.698 218.703 140.038 218.527 141.357 218.698C142.675 218.869 143.926 219.38 144.984 220.182C145.951 218.778 147.361 217.736 148.991 217.22C150.621 216.705 152.377 216.745 153.981 217.336V217.324Z" fill="white"/>
<path fill-rule="evenodd" clip-rule="evenodd" d="M137.538 240.007C137.533 241.132 137.917 242.224 138.627 243.1C139.337 243.976 140.328 244.582 141.434 244.816C142.54 245.05 143.693 244.898 144.699 244.385C145.706 243.872 146.504 243.03 146.959 242C146.95 242.195 146.927 242.39 146.891 242.582C146.426 245.069 143.903 246.695 141.259 246.209C138.615 245.723 136.853 243.299 137.313 240.808C137.363 240.535 137.438 240.266 137.538 240.007Z" fill="#F1F1F1"/>
<path fill-rule="evenodd" clip-rule="evenodd" d="M157.097 248.042C159.792 248.656 162.648 247.09 163.698 244.304C164.195 243.057 164.241 241.677 163.827 240.401C163.413 239.125 162.566 238.031 161.431 237.309C161.662 237.361 161.89 237.429 162.112 237.512C164.992 238.584 166.406 241.896 165.268 244.933C164.131 247.971 160.862 249.541 157.986 248.469C157.677 248.354 157.379 248.212 157.097 248.042Z" fill="#F1F1F1"/>
<path fill-rule="evenodd" clip-rule="evenodd" d="M171.149 235.336C170.748 238.062 172.555 240.765 175.435 241.578C176.722 241.964 178.104 241.895 179.346 241.381C180.588 240.867 181.612 239.941 182.244 238.76C182.208 238.992 182.159 239.223 182.096 239.449C181.255 242.395 178.038 244.065 174.918 243.184C171.798 242.303 169.943 239.198 170.78 236.253C170.875 235.937 170.999 235.63 171.149 235.336Z" fill="#F1F1F1"/>
<path fill-rule="evenodd" clip-rule="evenodd" d="M167.74 233.056C168.024 232.003 167.937 230.885 167.492 229.89C167.047 228.894 166.271 228.08 165.295 227.586C164.319 227.092 163.201 226.947 162.13 227.175C161.059 227.403 160.1 227.99 159.412 228.839C159.469 228.658 159.54 228.482 159.624 228.312C160.69 226.092 163.466 225.203 165.821 226.319C168.176 227.436 169.214 230.15 168.144 232.366C168.031 232.607 167.895 232.838 167.74 233.056Z" fill="#F1F1F1"/>
<path fill-rule="evenodd" clip-rule="evenodd" d="M152.094 228.624C151.143 228.081 150.034 227.88 148.953 228.054C147.871 228.228 146.883 228.768 146.153 229.581C145.424 230.395 144.998 231.433 144.947 232.523C144.896 233.612 145.223 234.685 145.873 235.563C145.715 235.458 145.562 235.345 145.416 235.224C143.534 233.63 143.377 230.732 145.068 228.755C146.758 226.778 149.654 226.467 151.537 228.058C151.739 228.229 151.926 228.419 152.094 228.624Z" fill="#F1F1F1"/>
<path fill-rule="evenodd" clip-rule="evenodd" d="M138.583 232.473C137.883 232.08 137.069 231.937 136.277 232.069C135.484 232.2 134.761 232.597 134.226 233.194C133.692 233.791 133.38 234.553 133.341 235.351C133.302 236.15 133.539 236.937 134.012 237.583C133.895 237.507 133.783 237.423 133.676 237.332C133.304 237.023 133 236.641 132.785 236.208C132.57 235.776 132.448 235.304 132.427 234.822C132.406 234.34 132.486 233.859 132.663 233.41C132.84 232.961 133.108 232.553 133.452 232.214C133.796 231.874 134.208 231.609 134.661 231.437C135.113 231.264 135.597 231.188 136.081 231.212C136.565 231.237 137.039 231.362 137.472 231.579C137.905 231.796 138.287 232.101 138.595 232.473H138.583Z" fill="#F1F1F1"/>
</g>
<g clip-path="url(#clip5_447_1351)">
<path fill-rule="evenodd" clip-rule="evenodd" d="M1770.71 1308.67C1771.32 1305.59 1774.29 1303.25 1777.85 1303.25C1780.96 1303.25 1783.62 1305.03 1784.66 1307.54C1785.81 1306.55 1787.28 1306.01 1788.8 1306.02C1791.83 1306.02 1794.35 1308.08 1794.74 1310.76C1795.03 1310.71 1795.33 1310.69 1795.63 1310.69C1798.68 1310.69 1801.17 1312.99 1801.17 1315.84C1801.17 1316.03 1801.15 1316.23 1801.13 1316.43H1801.4C1802.27 1316.4 1803.13 1316.54 1803.94 1316.85C1804.75 1317.16 1805.48 1317.63 1806.11 1318.23C1806.73 1318.82 1807.22 1319.54 1807.56 1320.33C1807.9 1321.13 1808.08 1321.98 1808.08 1322.84C1808.08 1323.7 1807.9 1324.55 1807.56 1325.35C1807.22 1326.14 1806.73 1326.86 1806.11 1327.45C1805.48 1328.05 1804.75 1328.52 1803.94 1328.83C1803.13 1329.14 1802.27 1329.28 1801.4 1329.25C1800.74 1329.25 1800.07 1329.15 1799.44 1328.96C1799.2 1331.6 1796.6 1333.69 1793.43 1333.69C1792.56 1333.7 1791.69 1333.54 1790.89 1333.21C1790.08 1332.88 1789.35 1332.4 1788.74 1331.78C1787.54 1333.68 1784.77 1335.01 1781.55 1335.01C1778.92 1335.01 1776.58 1334.12 1775.14 1332.74C1773.71 1333.9 1771.4 1334.65 1768.79 1334.65C1765.43 1334.65 1762.56 1333.4 1761.43 1331.64C1760.31 1332.27 1759.04 1332.59 1757.76 1332.58C1754.47 1332.58 1751.81 1330.62 1751.81 1328.2C1751.81 1327.73 1751.91 1327.26 1752.1 1326.83C1749.75 1326.38 1747.99 1324.55 1747.99 1322.36C1747.99 1319.83 1750.34 1317.77 1753.24 1317.77C1753.53 1317.77 1753.82 1317.79 1754.1 1317.83C1753.93 1317.38 1753.84 1316.91 1753.84 1316.43C1753.84 1313.92 1756.31 1311.87 1759.36 1311.87C1760.26 1311.87 1761.16 1312.06 1761.99 1312.43C1762.29 1309.98 1764.8 1308.04 1767.83 1308.04C1768.83 1308.04 1769.81 1308.25 1770.71 1308.67Z" fill="#F1F1F1"/>
<path fill-rule="evenodd" clip-rule="evenodd" d="M1776.98 1301.32C1777.87 1300.4 1778.99 1299.72 1780.22 1299.34C1781.44 1298.96 1782.75 1298.9 1784.01 1299.15C1785.27 1299.41 1786.45 1299.98 1787.43 1300.81C1788.41 1301.63 1789.16 1302.7 1789.62 1303.89C1790.77 1303.25 1792.07 1302.91 1793.4 1302.92C1794.72 1302.93 1796.01 1303.28 1797.16 1303.93C1798.3 1304.59 1799.26 1305.53 1799.92 1306.67C1800.59 1307.8 1800.95 1309.09 1800.96 1310.41C1800.96 1310.6 1800.96 1310.81 1800.94 1310.98C1802.77 1311.35 1804.39 1312.38 1805.49 1313.88C1806.59 1315.37 1807.1 1317.21 1806.91 1319.06C1806.72 1320.9 1805.85 1322.61 1804.47 1323.85C1803.09 1325.09 1801.3 1325.78 1799.44 1325.78C1799.14 1325.78 1798.84 1325.76 1798.55 1325.73C1797.42 1327.24 1795.76 1328.27 1793.91 1328.64C1792.05 1329.01 1790.12 1328.68 1788.49 1327.72C1787.94 1328.9 1787.1 1329.93 1786.04 1330.69C1784.99 1331.46 1783.75 1331.94 1782.45 1332.09C1781.15 1332.24 1779.83 1332.06 1778.63 1331.57C1777.42 1331.07 1776.36 1330.27 1775.55 1329.25C1774.81 1330.14 1773.87 1330.86 1772.81 1331.34C1771.76 1331.82 1770.6 1332.05 1769.44 1332.02C1768.27 1331.99 1767.13 1331.7 1766.1 1331.17C1765.07 1330.64 1764.17 1329.88 1763.48 1328.95C1762.47 1329.35 1761.38 1329.53 1760.3 1329.48C1759.21 1329.43 1758.15 1329.15 1757.18 1328.66C1756.21 1328.17 1755.35 1327.48 1754.67 1326.64C1753.99 1325.79 1753.5 1324.81 1753.23 1323.76C1751.52 1323.22 1750.05 1322.08 1749.11 1320.56C1748.17 1319.03 1747.8 1317.22 1748.09 1315.45C1748.38 1313.68 1749.3 1312.08 1750.68 1310.92C1752.05 1309.77 1753.8 1309.15 1755.6 1309.18H1755.84C1756.02 1307.87 1756.54 1306.62 1757.35 1305.58C1758.17 1304.53 1759.24 1303.71 1760.47 1303.21C1761.7 1302.7 1763.04 1302.53 1764.36 1302.7C1765.68 1302.87 1766.93 1303.38 1767.98 1304.18C1768.95 1302.78 1770.36 1301.74 1771.99 1301.22C1773.62 1300.7 1775.38 1300.75 1776.98 1301.34V1301.32Z" fill="white"/>
<path fill-rule="evenodd" clip-rule="evenodd" d="M1760.54 1324.01C1760.53 1325.13 1760.92 1326.22 1761.63 1327.1C1762.34 1327.98 1763.33 1328.58 1764.43 1328.82C1765.54 1329.05 1766.69 1328.9 1767.7 1328.38C1768.71 1327.87 1769.5 1327.03 1769.96 1326C1769.95 1326.2 1769.93 1326.39 1769.89 1326.58C1769.43 1329.07 1766.9 1330.7 1764.26 1330.21C1761.62 1329.72 1759.85 1327.3 1760.31 1324.81C1760.36 1324.53 1760.44 1324.27 1760.54 1324.01Z" fill="#F1F1F1"/>
<path fill-rule="evenodd" clip-rule="evenodd" d="M1780.1 1332.04C1782.79 1332.66 1785.65 1331.09 1786.7 1328.3C1787.19 1327.06 1787.24 1325.68 1786.83 1324.4C1786.41 1323.12 1785.57 1322.03 1784.43 1321.31C1784.66 1321.36 1784.89 1321.43 1785.11 1321.51C1787.99 1322.58 1789.41 1325.9 1788.27 1328.93C1787.13 1331.97 1783.86 1333.54 1780.99 1332.47C1780.68 1332.35 1780.38 1332.21 1780.1 1332.04Z" fill="#F1F1F1"/>
<path fill-rule="evenodd" clip-rule="evenodd" d="M1794.15 1319.34C1793.75 1322.06 1795.55 1324.76 1798.43 1325.58C1799.72 1325.96 1801.1 1325.89 1802.35 1325.38C1803.59 1324.87 1804.61 1323.94 1805.24 1322.76C1805.21 1322.99 1805.16 1323.22 1805.1 1323.45C1804.25 1326.39 1801.04 1328.06 1797.92 1327.18C1794.8 1326.3 1792.94 1323.2 1793.78 1320.25C1793.88 1319.94 1794 1319.63 1794.15 1319.34Z" fill="#F1F1F1"/>
<path fill-rule="evenodd" clip-rule="evenodd" d="M1790.74 1317.06C1791.02 1316 1790.94 1314.89 1790.49 1313.89C1790.05 1312.89 1789.27 1312.08 1788.29 1311.59C1787.32 1311.09 1786.2 1310.95 1785.13 1311.17C1784.06 1311.4 1783.1 1311.99 1782.41 1312.84C1782.47 1312.66 1782.54 1312.48 1782.62 1312.31C1783.69 1310.09 1786.47 1309.2 1788.82 1310.32C1791.18 1311.44 1792.21 1314.15 1791.14 1316.37C1791.03 1316.61 1790.9 1316.84 1790.74 1317.06Z" fill="#F1F1F1"/>
<path fill-rule="evenodd" clip-rule="evenodd" d="M1775.09 1312.62C1774.14 1312.08 1773.03 1311.88 1771.95 1312.05C1770.87 1312.23 1769.88 1312.77 1769.15 1313.58C1768.42 1314.39 1768 1315.43 1767.95 1316.52C1767.9 1317.61 1768.22 1318.69 1768.87 1319.56C1768.71 1319.46 1768.56 1319.35 1768.42 1319.22C1766.53 1317.63 1766.38 1314.73 1768.07 1312.76C1769.76 1310.78 1772.65 1310.47 1774.54 1312.06C1774.74 1312.23 1774.93 1312.42 1775.09 1312.62Z" fill="#F1F1F1"/>
<path fill-rule="evenodd" clip-rule="evenodd" d="M1761.58 1316.47C1760.88 1316.08 1760.07 1315.94 1759.28 1316.07C1758.48 1316.2 1757.76 1316.6 1757.23 1317.19C1756.69 1317.79 1756.38 1318.55 1756.34 1319.35C1756.3 1320.15 1756.54 1320.94 1757.01 1321.58C1756.89 1321.51 1756.78 1321.42 1756.68 1321.33C1756.3 1321.02 1756 1320.64 1755.79 1320.21C1755.57 1319.78 1755.45 1319.3 1755.43 1318.82C1755.41 1318.34 1755.49 1317.86 1755.66 1317.41C1755.84 1316.96 1756.11 1316.55 1756.45 1316.21C1756.8 1315.87 1757.21 1315.61 1757.66 1315.44C1758.11 1315.26 1758.6 1315.19 1759.08 1315.21C1759.57 1315.24 1760.04 1315.36 1760.47 1315.58C1760.9 1315.8 1761.29 1316.1 1761.59 1316.47H1761.58Z" fill="#F1F1F1"/>
</g>
<g clip-path="url(#clip6_447_1351)">
<path fill-rule="evenodd" clip-rule="evenodd" d="M100.644 1093.64C102.126 1086.1 109.398 1080.38 118.132 1080.38C125.748 1080.38 132.264 1084.74 134.815 1090.87C137.632 1088.45 141.239 1087.13 144.963 1087.16C152.392 1087.16 158.545 1092.2 159.517 1098.74C160.234 1098.63 160.959 1098.58 161.685 1098.58C169.173 1098.58 175.258 1104.21 175.258 1111.15C175.258 1111.64 175.229 1112.12 175.17 1112.61H175.837C177.956 1112.53 180.069 1112.88 182.048 1113.64C184.028 1114.39 185.835 1115.53 187.36 1116.99C188.886 1118.46 190.099 1120.21 190.928 1122.15C191.757 1124.08 192.184 1126.17 192.184 1128.27C192.184 1130.38 191.757 1132.46 190.928 1134.4C190.099 1136.34 188.886 1138.09 187.36 1139.55C185.835 1141.01 184.028 1142.16 182.048 1142.91C180.069 1143.66 177.956 1144.01 175.837 1143.94C174.204 1143.94 172.579 1143.7 171.018 1143.23C170.43 1149.7 164.07 1154.79 156.298 1154.79C154.165 1154.83 152.049 1154.43 150.075 1153.63C148.101 1152.83 146.312 1151.64 144.816 1150.13C141.872 1154.76 135.08 1158.02 127.2 1158.02C120.743 1158.02 115.021 1155.84 111.498 1152.48C107.994 1155.3 102.332 1157.14 95.9432 1157.14C87.6997 1157.14 80.6632 1154.08 77.9056 1149.8C75.1595 1151.33 72.0563 1152.12 68.9064 1152.09C60.8591 1152.09 54.3232 1147.28 54.3232 1141.37C54.323 1140.22 54.5671 1139.08 55.0396 1138.04C49.2887 1136.93 44.9805 1132.44 44.9805 1127.09C44.9805 1120.91 50.7411 1115.88 57.8463 1115.88C58.5522 1115.88 59.2573 1115.93 59.9562 1116.03C59.5268 1114.94 59.3071 1113.78 59.3085 1112.61C59.3085 1106.46 65.3636 1101.47 72.8221 1101.47C75.0472 1101.46 77.2491 1101.92 79.2795 1102.82C80.0057 1096.83 86.1491 1092.11 93.5879 1092.11C96.0245 1092.1 98.4334 1092.62 100.644 1093.64Z" fill="#F1F1F1"/>
<path fill-rule="evenodd" clip-rule="evenodd" d="M116.003 1075.68C118.192 1073.43 120.918 1071.76 123.928 1070.84C126.938 1069.91 130.135 1069.75 133.223 1070.38C136.311 1071 139.19 1072.39 141.594 1074.42C143.998 1076.44 145.848 1079.03 146.975 1081.96C149.797 1080.38 152.983 1079.56 156.22 1079.58C159.458 1079.6 162.634 1080.45 165.438 1082.06C168.241 1083.67 170.575 1085.97 172.209 1088.75C173.843 1091.52 174.721 1094.67 174.757 1097.89C174.757 1098.35 174.757 1098.86 174.708 1099.29C179.176 1100.2 183.145 1102.72 185.846 1106.36C188.548 1110.01 189.789 1114.52 189.33 1119.03C188.87 1123.53 186.742 1127.71 183.359 1130.74C179.976 1133.78 175.578 1135.46 171.018 1135.45C170.294 1135.46 169.57 1135.42 168.85 1135.34C166.07 1139.02 162.017 1141.56 157.468 1142.46C152.92 1143.36 148.197 1142.56 144.207 1140.21C142.865 1143.1 140.799 1145.6 138.207 1147.47C135.614 1149.34 132.582 1150.51 129.4 1150.89C126.218 1151.26 122.993 1150.82 120.032 1149.6C117.071 1148.39 114.474 1146.44 112.489 1143.94C110.677 1146.13 108.388 1147.87 105.795 1149.05C103.202 1150.22 100.373 1150.8 97.523 1150.73C94.6733 1150.65 91.8773 1149.94 89.3472 1148.64C86.817 1147.33 84.6192 1145.47 82.9204 1143.2C80.4454 1144.18 77.7879 1144.63 75.1252 1144.51C72.4626 1144.39 69.8562 1143.71 67.4801 1142.51C65.104 1141.31 63.013 1139.62 61.3466 1137.56C59.6802 1135.49 58.4768 1133.1 57.8169 1130.53C53.6128 1129.21 50.0284 1126.43 47.7172 1122.7C45.406 1118.97 44.522 1114.54 45.2262 1110.22C45.9305 1105.89 48.1762 1101.97 51.5539 1099.15C54.9316 1096.33 59.2162 1094.82 63.6266 1094.87H64.1958C64.6397 1091.67 65.9214 1088.64 67.9133 1086.08C69.9051 1083.52 72.5376 1081.52 75.5485 1080.29C78.5594 1079.05 81.8437 1078.62 85.0741 1079.04C88.3046 1079.46 91.3686 1080.71 93.9609 1082.67C96.33 1079.24 99.7849 1076.69 103.778 1075.43C107.771 1074.17 112.073 1074.27 116.003 1075.71V1075.68Z" fill="white"/>
<path fill-rule="evenodd" clip-rule="evenodd" d="M75.7171 1131.13C75.7048 1133.88 76.6472 1136.55 78.3857 1138.69C80.1242 1140.83 82.5527 1142.31 85.2623 1142.88C87.9719 1143.46 90.7973 1143.08 93.2628 1141.83C95.7283 1140.58 97.6834 1138.52 98.799 1136C98.7768 1136.48 98.721 1136.95 98.6321 1137.42C97.4938 1143.5 91.3111 1147.48 84.834 1146.29C78.357 1145.1 74.0389 1139.18 75.1675 1133.09C75.2897 1132.42 75.4737 1131.76 75.7171 1131.13Z" fill="#F1F1F1"/>
<path fill-rule="evenodd" clip-rule="evenodd" d="M123.637 1150.77C130.241 1152.27 137.239 1148.44 139.81 1141.63C141.028 1138.58 141.139 1135.21 140.126 1132.09C139.112 1128.97 137.037 1126.3 134.255 1124.53C134.822 1124.66 135.379 1124.83 135.924 1125.03C142.98 1127.65 146.444 1135.75 143.657 1143.17C140.87 1150.6 132.862 1154.43 125.815 1151.81C125.058 1151.53 124.329 1151.18 123.637 1150.77Z" fill="#F1F1F1"/>
<path fill-rule="evenodd" clip-rule="evenodd" d="M158.064 1119.71C157.083 1126.37 161.509 1132.98 168.565 1134.97C171.719 1135.91 175.106 1135.74 178.148 1134.49C181.19 1133.23 183.7 1130.97 185.248 1128.08C185.16 1128.65 185.039 1129.21 184.885 1129.76C182.824 1136.97 174.944 1141.05 167.299 1138.89C159.654 1136.74 155.11 1129.15 157.161 1121.95C157.394 1121.18 157.697 1120.43 158.064 1119.71Z" fill="#F1F1F1"/>
<path fill-rule="evenodd" clip-rule="evenodd" d="M149.712 1114.14C150.41 1111.56 150.195 1108.83 149.105 1106.4C148.014 1103.96 146.114 1101.97 143.722 1100.77C141.33 1099.56 138.593 1099.2 135.969 1099.76C133.345 1100.32 130.994 1101.75 129.31 1103.83C129.45 1103.39 129.624 1102.96 129.83 1102.54C132.44 1097.11 139.241 1094.94 145.012 1097.67C150.782 1100.4 153.324 1107.03 150.704 1112.45C150.425 1113.04 150.093 1113.6 149.712 1114.14Z" fill="#F1F1F1"/>
<path fill-rule="evenodd" clip-rule="evenodd" d="M111.379 1103.3C109.051 1101.97 106.334 1101.48 103.684 1101.91C101.034 1102.34 98.6125 1103.65 96.8254 1105.64C95.0384 1107.63 93.9948 1110.17 93.8697 1112.83C93.7447 1115.5 94.5458 1118.12 96.1387 1120.26C95.7508 1120.01 95.3773 1119.73 95.0199 1119.44C90.4074 1115.54 90.0247 1108.46 94.1661 1103.62C98.3075 1098.79 105.403 1098.03 110.015 1101.92C110.511 1102.34 110.968 1102.8 111.379 1103.3Z" fill="#F1F1F1"/>
<path fill-rule="evenodd" clip-rule="evenodd" d="M78.2777 1112.71C76.5636 1111.75 74.5698 1111.4 72.628 1111.72C70.6862 1112.04 68.9135 1113.02 67.6048 1114.48C66.2961 1115.93 65.5303 1117.8 65.4349 1119.75C65.3394 1121.7 65.9201 1123.63 67.0802 1125.2C66.7927 1125.02 66.5174 1124.81 66.2558 1124.59C65.3437 1123.84 64.6004 1122.9 64.0736 1121.84C63.5468 1120.79 63.248 1119.63 63.1965 1118.45C63.145 1117.28 63.3418 1116.1 63.7744 1115C64.2069 1113.9 64.8657 1112.91 65.7085 1112.08C66.5513 1111.25 67.5596 1110.6 68.6687 1110.18C69.7778 1109.76 70.9633 1109.57 72.1493 1109.63C73.3353 1109.69 74.4956 1110 75.556 1110.53C76.6164 1111.06 77.5534 1111.8 78.3071 1112.71H78.2777Z" fill="#F1F1F1"/>
</g>
<g clip-path="url(#clip7_447_1351)">
<path fill-rule="evenodd" clip-rule="evenodd" d="M67.9887 58.6531C69.027 53.3469 74.1223 49.3105 80.2422 49.3105C85.5782 49.3105 90.1441 52.3858 91.9319 56.7036C93.9056 54.9996 96.4326 54.07 99.042 54.0882C104.247 54.0882 108.559 57.644 109.24 62.2501C109.742 62.1729 110.25 62.1339 110.759 62.1334C116.006 62.1334 120.269 66.1011 120.269 70.9954C120.269 71.3373 120.249 71.6789 120.207 72.0183H120.675C122.16 71.966 123.64 72.2128 125.027 72.7439C126.414 73.2751 127.68 74.0798 128.749 75.1099C129.818 76.1401 130.668 77.3746 131.249 78.7398C131.83 80.1051 132.129 81.5731 132.129 83.0563C132.129 84.5396 131.83 86.0076 131.249 87.3728C130.668 88.7381 129.818 89.9726 128.749 91.0028C127.68 92.0329 126.414 92.8376 125.027 93.3687C123.64 93.8999 122.16 94.1467 120.675 94.0944C119.531 94.0976 118.392 93.9286 117.299 93.5933C116.886 98.1513 112.43 101.741 106.984 101.741C105.49 101.765 104.007 101.486 102.624 100.92C101.241 100.355 99.9875 99.516 98.9389 98.4534C96.876 101.721 92.1176 104.014 86.5959 104.014C82.0713 104.014 78.0624 102.476 75.5938 100.115C73.139 102.098 69.1714 103.396 64.6949 103.396C58.9188 103.396 53.9885 101.24 52.0563 98.22C50.1322 99.2996 47.9578 99.8558 45.7507 99.8331C40.1122 99.8331 35.5326 96.4489 35.5326 92.2822C35.5324 91.4731 35.7035 90.6731 36.0345 89.9345C32.005 89.152 28.9863 85.9943 28.9863 82.2257C28.9863 77.8668 33.0227 74.3247 38.0011 74.3247C38.4958 74.3241 38.9898 74.3585 39.4796 74.4277C39.1786 73.6599 39.0247 72.8427 39.0257 72.0183C39.0257 67.6868 43.2684 64.1722 48.4944 64.1722C50.0535 64.1641 51.5963 64.4894 53.019 65.1263C53.5278 60.9047 57.8324 57.5754 63.0446 57.5754C64.7519 57.5684 66.4397 57.9363 67.9887 58.6531Z" fill="#F1F1F1"/>
<path fill-rule="evenodd" clip-rule="evenodd" d="M78.7501 46.0022C80.2842 44.4166 82.1943 43.243 84.3034 42.5901C86.4126 41.9371 88.6526 41.8258 90.8163 42.2665C92.98 42.7073 94.9973 43.6858 96.6815 45.1115C98.3657 46.5373 99.6625 48.3641 100.452 50.423C102.429 49.3132 104.662 48.7365 106.93 48.7497C109.198 48.7628 111.424 49.3652 113.388 50.4977C115.353 51.6302 116.988 53.2537 118.133 55.2085C119.278 57.1633 119.893 59.3821 119.918 61.6464C119.918 61.9759 119.918 62.3328 119.884 62.6349C123.014 63.2737 125.795 65.0501 127.688 67.6196C129.581 70.1891 130.451 73.3687 130.129 76.542C129.807 79.7153 128.316 82.6562 125.946 84.7946C123.575 86.933 120.494 88.1165 117.299 88.1158C116.791 88.1164 116.284 88.0889 115.779 88.0334C113.832 90.6306 110.991 92.4177 107.804 93.0512C104.617 93.6848 101.308 93.1201 98.5126 91.4657C97.5721 93.5009 96.1245 95.2612 94.3081 96.5786C92.4916 97.8959 90.3671 98.7261 88.1376 98.9898C85.908 99.2536 83.648 98.9421 81.5735 98.085C79.4989 97.228 77.6793 95.8542 76.2884 94.0948C75.0187 95.6341 73.4146 96.8645 71.5976 97.6928C69.7807 98.5211 67.7986 98.9254 65.8019 98.8751C63.8051 98.8248 61.846 98.3213 60.0732 97.4026C58.3004 96.484 56.7604 95.1743 55.5701 93.5731C53.8359 94.2649 51.9738 94.5795 50.1082 94.4956C48.2425 94.4117 46.4163 93.9314 44.7514 93.0868C43.0865 92.2421 41.6213 91.0526 40.4537 89.5976C39.2861 88.1425 38.443 86.4555 37.9805 84.6493C35.0348 83.7158 32.5233 81.7566 30.9039 79.1288C29.2845 76.501 28.665 73.3798 29.1585 70.3341C29.652 67.2885 31.2255 64.5213 33.5922 62.5372C35.9589 60.553 38.961 59.4841 42.0513 59.5253H42.4501C42.7612 57.2678 43.6592 55.1311 45.0549 53.328C46.4505 51.5248 48.2951 50.1182 50.4047 49.2481C52.5144 48.378 54.8156 48.0749 57.0792 48.369C59.3427 48.663 61.4896 49.544 63.3059 50.9241C64.966 48.507 67.3867 46.7122 70.1844 45.8243C72.9821 44.9365 75.9967 45.0063 78.7501 46.0228V46.0022Z" fill="white"/>
<path fill-rule="evenodd" clip-rule="evenodd" d="M50.5224 85.0674C50.5138 87.005 51.1741 88.8865 52.3922 90.3951C53.6104 91.9036 55.3119 92.9472 57.2105 93.3501C59.1091 93.753 61.0888 93.4907 62.8163 92.6073C64.5438 91.7238 65.9137 90.2732 66.6954 88.4996C66.6799 88.836 66.6408 89.1709 66.5785 89.5018C65.7809 93.7853 61.4488 96.586 56.9104 95.7485C52.3721 94.9111 49.3465 90.7374 50.1373 86.4471C50.2229 85.9764 50.3518 85.5145 50.5224 85.0674Z" fill="#F1F1F1"/>
<path fill-rule="evenodd" clip-rule="evenodd" d="M84.0996 98.9069C88.7274 99.9641 93.6301 97.2663 95.4317 92.4681C96.285 90.3212 96.3633 87.9448 95.6532 85.7467C94.943 83.5485 93.4887 81.6656 91.5398 80.4209C91.9368 80.5113 92.3274 80.6283 92.7087 80.771C97.6528 82.6175 100.08 88.3219 98.1272 93.5527C96.1744 98.7834 90.5633 101.488 85.6261 99.6414C85.0957 99.4441 84.5847 99.1982 84.0996 98.9069Z" fill="#F1F1F1"/>
<path fill-rule="evenodd" clip-rule="evenodd" d="M108.222 77.0225C107.534 81.7178 110.635 86.3719 115.579 87.7722C117.79 88.4382 120.163 88.3186 122.294 87.4336C124.426 86.5486 126.184 84.9531 127.269 82.9191C127.207 83.3195 127.122 83.716 127.015 84.1066C125.571 89.1795 120.049 92.0557 114.692 90.5386C109.336 89.0216 106.152 83.6741 107.589 78.6013C107.752 78.0572 107.964 77.5288 108.222 77.0225Z" fill="#F1F1F1"/>
<path fill-rule="evenodd" clip-rule="evenodd" d="M102.37 73.0964C102.859 71.2839 102.708 69.3588 101.944 67.6438C101.18 65.9288 99.8485 64.5282 98.1728 63.6769C96.497 62.8256 94.5791 62.5753 92.7404 62.968C90.9018 63.3607 89.2543 64.3725 88.0742 65.8338C88.1724 65.5229 88.2943 65.22 88.4387 64.9277C90.2678 61.1041 95.033 59.5734 99.0763 61.4954C103.12 63.4175 104.901 68.0922 103.065 71.9088C102.869 72.3247 102.637 72.7221 102.37 73.0964Z" fill="#F1F1F1"/>
<path fill-rule="evenodd" clip-rule="evenodd" d="M75.511 65.4631C73.8797 64.5282 71.9759 64.1818 70.1191 64.4821C68.2623 64.7825 66.5654 65.7112 65.3133 67.1125C64.0612 68.5138 63.3299 70.3024 63.2423 72.1781C63.1547 74.0539 63.716 75.9027 64.8321 77.4142C64.5603 77.2341 64.2986 77.0394 64.0482 76.8307C60.8163 74.0849 60.5482 69.0945 63.45 65.6897C66.3518 62.2849 71.3233 61.7495 74.5552 64.4884C74.9027 64.7837 75.2227 65.11 75.511 65.4631Z" fill="#F1F1F1"/>
<path fill-rule="evenodd" clip-rule="evenodd" d="M52.3168 72.0934C51.1158 71.4164 49.7188 71.1704 48.3582 71.3962C46.9976 71.6221 45.7555 72.3061 44.8385 73.3347C43.9216 74.3632 43.385 75.6741 43.3181 77.0494C43.2513 78.4247 43.6581 79.7813 44.471 80.8937C44.2696 80.7618 44.0766 80.6173 43.8934 80.4612C43.2542 79.9293 42.7334 79.2701 42.3643 78.5256C41.9952 77.7812 41.7859 76.968 41.7498 76.1381C41.7137 75.3082 41.8516 74.48 42.1547 73.7064C42.4578 72.9328 42.9194 72.231 43.5099 71.6458C44.1004 71.0606 44.8069 70.6049 45.584 70.3081C46.3611 70.0112 47.1918 69.8796 48.0228 69.9217C48.8538 69.9639 49.6668 70.1788 50.4098 70.5528C51.1528 70.9267 51.8094 71.4515 52.3375 72.0934H52.3168Z" fill="#F1F1F1"/>
</g>
<g clip-path="url(#clip8_447_1351)">
<path fill-rule="evenodd" clip-rule="evenodd" d="M1846.99 1142.65C1848.03 1137.35 1853.12 1133.31 1859.24 1133.31C1864.58 1133.31 1869.14 1136.39 1870.93 1140.7C1872.91 1139 1875.43 1138.07 1878.04 1138.09C1883.25 1138.09 1887.56 1141.64 1888.24 1146.25C1888.74 1146.17 1889.25 1146.13 1889.76 1146.13C1895.01 1146.13 1899.27 1150.1 1899.27 1155C1899.27 1155.34 1899.25 1155.68 1899.21 1156.02H1899.67C1901.16 1155.97 1902.64 1156.21 1904.03 1156.74C1905.41 1157.28 1906.68 1158.08 1907.75 1159.11C1908.82 1160.14 1909.67 1161.37 1910.25 1162.74C1910.83 1164.11 1911.13 1165.57 1911.13 1167.06C1911.13 1168.54 1910.83 1170.01 1910.25 1171.37C1909.67 1172.74 1908.82 1173.97 1907.75 1175C1906.68 1176.03 1905.41 1176.84 1904.03 1177.37C1902.64 1177.9 1901.16 1178.15 1899.67 1178.09C1898.53 1178.1 1897.39 1177.93 1896.3 1177.59C1895.89 1182.15 1891.43 1185.74 1885.98 1185.74C1884.49 1185.76 1883.01 1185.49 1881.62 1184.92C1880.24 1184.36 1878.99 1183.52 1877.94 1182.45C1875.88 1185.72 1871.12 1188.01 1865.6 1188.01C1861.07 1188.01 1857.06 1186.48 1854.59 1184.11C1852.14 1186.1 1848.17 1187.4 1843.69 1187.4C1837.92 1187.4 1832.99 1185.24 1831.06 1182.22C1829.13 1183.3 1826.96 1183.86 1824.75 1183.83C1819.11 1183.83 1814.53 1180.45 1814.53 1176.28C1814.53 1175.47 1814.7 1174.67 1815.03 1173.93C1811.01 1173.15 1807.99 1169.99 1807.99 1166.23C1807.99 1161.87 1812.02 1158.32 1817 1158.32C1817.5 1158.32 1817.99 1158.36 1818.48 1158.43C1818.18 1157.66 1818.02 1156.84 1818.03 1156.02C1818.03 1151.69 1822.27 1148.17 1827.49 1148.17C1829.05 1148.16 1830.6 1148.49 1832.02 1149.13C1832.53 1144.9 1836.83 1141.58 1842.04 1141.58C1843.75 1141.57 1845.44 1141.94 1846.99 1142.65Z" fill="#F1F1F1"/>
<path fill-rule="evenodd" clip-rule="evenodd" d="M1857.75 1130C1859.28 1128.42 1861.19 1127.24 1863.3 1126.59C1865.41 1125.94 1867.65 1125.83 1869.82 1126.27C1871.98 1126.71 1874 1127.69 1875.68 1129.11C1877.37 1130.54 1878.66 1132.36 1879.45 1134.42C1881.43 1133.31 1883.66 1132.74 1885.93 1132.75C1888.2 1132.76 1890.42 1133.37 1892.39 1134.5C1894.35 1135.63 1895.99 1137.25 1897.13 1139.21C1898.28 1141.16 1898.89 1143.38 1898.92 1145.65C1898.92 1145.98 1898.92 1146.33 1898.88 1146.63C1902.01 1147.27 1904.8 1149.05 1906.69 1151.62C1908.58 1154.19 1909.45 1157.37 1909.13 1160.54C1908.81 1163.72 1907.32 1166.66 1904.95 1168.79C1902.58 1170.93 1899.49 1172.12 1896.3 1172.12C1895.79 1172.12 1895.28 1172.09 1894.78 1172.03C1892.83 1174.63 1889.99 1176.42 1886.8 1177.05C1883.62 1177.68 1880.31 1177.12 1877.51 1175.47C1876.57 1177.5 1875.12 1179.26 1873.31 1180.58C1871.49 1181.9 1869.37 1182.73 1867.14 1182.99C1864.91 1183.25 1862.65 1182.94 1860.57 1182.09C1858.5 1181.23 1856.68 1179.85 1855.29 1178.09C1854.02 1179.63 1852.41 1180.86 1850.6 1181.69C1848.78 1182.52 1846.8 1182.93 1844.8 1182.88C1842.81 1182.82 1840.85 1182.32 1839.07 1181.4C1837.3 1180.48 1835.76 1179.17 1834.57 1177.57C1832.84 1178.26 1830.97 1178.58 1829.11 1178.5C1827.24 1178.41 1825.42 1177.93 1823.75 1177.09C1822.09 1176.24 1820.62 1175.05 1819.45 1173.6C1818.29 1172.14 1817.44 1170.46 1816.98 1168.65C1814.03 1167.72 1811.52 1165.76 1809.9 1163.13C1808.28 1160.5 1807.67 1157.38 1808.16 1154.33C1808.65 1151.29 1810.23 1148.52 1812.59 1146.54C1814.96 1144.55 1817.96 1143.48 1821.05 1143.53H1821.45C1821.76 1141.27 1822.66 1139.13 1824.05 1137.33C1825.45 1135.52 1827.3 1134.12 1829.4 1133.25C1831.51 1132.38 1833.82 1132.07 1836.08 1132.37C1838.34 1132.66 1840.49 1133.54 1842.31 1134.92C1843.97 1132.51 1846.39 1130.71 1849.18 1129.82C1851.98 1128.94 1855 1129.01 1857.75 1130.02V1130Z" fill="white"/>
<path fill-rule="evenodd" clip-rule="evenodd" d="M1829.52 1169.07C1829.51 1171.01 1830.17 1172.89 1831.39 1174.4C1832.61 1175.9 1834.31 1176.95 1836.21 1177.35C1838.11 1177.75 1840.09 1177.49 1841.82 1176.61C1843.54 1175.72 1844.91 1174.27 1845.7 1172.5C1845.68 1172.84 1845.64 1173.17 1845.58 1173.5C1844.78 1177.79 1840.45 1180.59 1835.91 1179.75C1831.37 1178.91 1828.35 1174.74 1829.14 1170.45C1829.22 1169.98 1829.35 1169.51 1829.52 1169.07Z" fill="#F1F1F1"/>
<path fill-rule="evenodd" clip-rule="evenodd" d="M1863.1 1182.91C1867.73 1183.96 1872.63 1181.27 1874.43 1176.47C1875.29 1174.32 1875.36 1171.94 1874.65 1169.75C1873.94 1167.55 1872.49 1165.67 1870.54 1164.42C1870.94 1164.51 1871.33 1164.63 1871.71 1164.77C1876.65 1166.62 1879.08 1172.32 1877.13 1177.55C1875.17 1182.78 1869.56 1185.49 1864.63 1183.64C1864.1 1183.44 1863.58 1183.2 1863.1 1182.91Z" fill="#F1F1F1"/>
<path fill-rule="evenodd" clip-rule="evenodd" d="M1887.22 1161.02C1886.53 1165.72 1889.64 1170.37 1894.58 1171.77C1896.79 1172.44 1899.16 1172.32 1901.29 1171.43C1903.43 1170.55 1905.18 1168.95 1906.27 1166.92C1906.21 1167.32 1906.12 1167.72 1906.01 1168.11C1904.57 1173.18 1899.05 1176.06 1893.69 1174.54C1888.34 1173.02 1885.15 1167.67 1886.59 1162.6C1886.75 1162.06 1886.96 1161.53 1887.22 1161.02Z" fill="#F1F1F1"/>
<path fill-rule="evenodd" clip-rule="evenodd" d="M1881.37 1157.1C1881.86 1155.28 1881.71 1153.36 1880.94 1151.64C1880.18 1149.93 1878.85 1148.53 1877.17 1147.68C1875.5 1146.83 1873.58 1146.58 1871.74 1146.97C1869.9 1147.36 1868.25 1148.37 1867.07 1149.83C1867.17 1149.52 1867.29 1149.22 1867.44 1148.93C1869.27 1145.1 1874.03 1143.57 1878.08 1145.5C1882.12 1147.42 1883.9 1152.09 1882.06 1155.91C1881.87 1156.32 1881.64 1156.72 1881.37 1157.1Z" fill="#F1F1F1"/>
<path fill-rule="evenodd" clip-rule="evenodd" d="M1854.51 1149.46C1852.88 1148.53 1850.98 1148.18 1849.12 1148.48C1847.26 1148.78 1845.57 1149.71 1844.31 1151.11C1843.06 1152.51 1842.33 1154.3 1842.24 1156.18C1842.15 1158.05 1842.72 1159.9 1843.83 1161.41C1843.56 1161.23 1843.3 1161.04 1843.05 1160.83C1839.82 1158.08 1839.55 1153.09 1842.45 1149.69C1845.35 1146.28 1850.32 1145.75 1853.56 1148.49C1853.9 1148.78 1854.22 1149.11 1854.51 1149.46Z" fill="#F1F1F1"/>
<path fill-rule="evenodd" clip-rule="evenodd" d="M1831.32 1156.09C1830.12 1155.42 1828.72 1155.17 1827.36 1155.4C1826 1155.62 1824.76 1156.31 1823.84 1157.33C1822.92 1158.36 1822.39 1159.67 1822.32 1161.05C1822.25 1162.42 1822.66 1163.78 1823.47 1164.89C1823.27 1164.76 1823.08 1164.62 1822.89 1164.46C1822.25 1163.93 1821.73 1163.27 1821.36 1162.53C1821 1161.78 1820.79 1160.97 1820.75 1160.14C1820.71 1159.31 1820.85 1158.48 1821.15 1157.71C1821.46 1156.93 1821.92 1156.23 1822.51 1155.65C1823.1 1155.06 1823.81 1154.6 1824.58 1154.31C1825.36 1154.01 1826.19 1153.88 1827.02 1153.92C1827.85 1153.96 1828.67 1154.18 1829.41 1154.55C1830.15 1154.93 1830.81 1155.45 1831.34 1156.09H1831.32Z" fill="#F1F1F1"/>
</g>
<g clip-path="url(#clip9_447_1351)">
<path fill-rule="evenodd" clip-rule="evenodd" d="M127.989 987.653C129.027 982.347 134.122 978.311 140.242 978.311C145.578 978.311 150.144 981.386 151.932 985.704C153.906 984 156.433 983.07 159.042 983.088C164.247 983.088 168.559 986.644 169.24 991.25C169.742 991.173 170.25 991.134 170.759 991.133C176.006 991.133 180.269 995.101 180.269 999.995C180.269 1000.34 180.249 1000.68 180.207 1001.02H180.675C182.16 1000.97 183.64 1001.21 185.027 1001.74C186.414 1002.28 187.68 1003.08 188.749 1004.11C189.818 1005.14 190.668 1006.37 191.249 1007.74C191.83 1009.11 192.129 1010.57 192.129 1012.06C192.129 1013.54 191.83 1015.01 191.249 1016.37C190.668 1017.74 189.818 1018.97 188.749 1020C187.68 1021.03 186.414 1021.84 185.027 1022.37C183.64 1022.9 182.16 1023.15 180.675 1023.09C179.531 1023.1 178.392 1022.93 177.299 1022.59C176.886 1027.15 172.43 1030.74 166.984 1030.74C165.49 1030.76 164.007 1030.49 162.624 1029.92C161.241 1029.36 159.988 1028.52 158.939 1027.45C156.876 1030.72 152.118 1033.01 146.596 1033.01C142.071 1033.01 138.062 1031.48 135.594 1029.11C133.139 1031.1 129.171 1032.4 124.695 1032.4C118.919 1032.4 113.989 1030.24 112.056 1027.22C110.132 1028.3 107.958 1028.86 105.751 1028.83C100.112 1028.83 95.5326 1025.45 95.5326 1021.28C95.5324 1020.47 95.7035 1019.67 96.0345 1018.93C92.005 1018.15 88.9863 1014.99 88.9863 1011.23C88.9863 1006.87 93.0227 1003.32 98.0011 1003.32C98.4958 1003.32 98.9898 1003.36 99.4796 1003.43C99.1786 1002.66 99.0247 1001.84 99.0257 1001.02C99.0257 996.687 103.268 993.172 108.494 993.172C110.054 993.164 111.596 993.489 113.019 994.126C113.528 989.905 117.832 986.575 123.045 986.575C124.752 986.568 126.44 986.936 127.989 987.653Z" fill="#F1F1F1"/>
<path fill-rule="evenodd" clip-rule="evenodd" d="M138.75 975.002C140.284 973.417 142.194 972.243 144.303 971.59C146.413 970.937 148.653 970.826 150.816 971.267C152.98 971.707 154.997 972.686 156.682 974.112C158.366 975.537 159.662 977.364 160.452 979.423C162.429 978.313 164.662 977.737 166.93 977.75C169.198 977.763 171.424 978.365 173.388 979.498C175.353 980.63 176.988 982.254 178.133 984.209C179.278 986.163 179.893 988.382 179.918 990.646C179.918 990.976 179.918 991.333 179.884 991.635C183.014 992.274 185.795 994.05 187.688 996.62C189.581 999.189 190.451 1002.37 190.129 1005.54C189.807 1008.72 188.316 1011.66 185.946 1013.79C183.575 1015.93 180.494 1017.12 177.299 1017.12C176.791 1017.12 176.284 1017.09 175.779 1017.03C173.832 1019.63 170.991 1021.42 167.804 1022.05C164.617 1022.68 161.308 1022.12 158.513 1020.47C157.572 1022.5 156.124 1024.26 154.308 1025.58C152.492 1026.9 150.367 1027.73 148.138 1027.99C145.908 1028.25 143.648 1027.94 141.573 1027.09C139.499 1026.23 137.679 1024.85 136.288 1023.09C135.019 1024.63 133.415 1025.86 131.598 1026.69C129.781 1027.52 127.799 1027.93 125.802 1027.88C123.805 1027.82 121.846 1027.32 120.073 1026.4C118.3 1025.48 116.76 1024.17 115.57 1022.57C113.836 1023.26 111.974 1023.58 110.108 1023.5C108.243 1023.41 106.416 1022.93 104.751 1022.09C103.087 1021.24 101.621 1020.05 100.454 1018.6C99.2861 1017.14 98.443 1015.46 97.9805 1013.65C95.0348 1012.72 92.5233 1010.76 90.9039 1008.13C89.2845 1005.5 88.665 1002.38 89.1585 999.334C89.652 996.288 91.2255 993.521 93.5922 991.537C95.9589 989.553 98.961 988.484 102.051 988.525H102.45C102.761 986.268 103.659 984.131 105.055 982.328C106.451 980.525 108.295 979.118 110.405 978.248C112.514 977.378 114.816 977.075 117.079 977.369C119.343 977.663 121.49 978.544 123.306 979.924C124.966 977.507 127.387 975.712 130.184 974.824C132.982 973.936 135.997 974.006 138.75 975.023V975.002Z" fill="white"/>
<path fill-rule="evenodd" clip-rule="evenodd" d="M110.522 1014.07C110.514 1016.01 111.174 1017.89 112.392 1019.4C113.61 1020.9 115.312 1021.95 117.211 1022.35C119.109 1022.75 121.089 1022.49 122.816 1021.61C124.544 1020.72 125.914 1019.27 126.695 1017.5C126.68 1017.84 126.641 1018.17 126.579 1018.5C125.781 1022.79 121.449 1025.59 116.91 1024.75C112.372 1023.91 109.347 1019.74 110.137 1015.45C110.223 1014.98 110.352 1014.51 110.522 1014.07Z" fill="#F1F1F1"/>
<path fill-rule="evenodd" clip-rule="evenodd" d="M144.1 1027.91C148.727 1028.96 153.63 1026.27 155.432 1021.47C156.285 1019.32 156.363 1016.94 155.653 1014.75C154.943 1012.55 153.489 1010.67 151.54 1009.42C151.937 1009.51 152.327 1009.63 152.709 1009.77C157.653 1011.62 160.08 1017.32 158.127 1022.55C156.174 1027.78 150.563 1030.49 145.626 1028.64C145.096 1028.44 144.585 1028.2 144.1 1027.91Z" fill="#F1F1F1"/>
<path fill-rule="evenodd" clip-rule="evenodd" d="M168.222 1006.02C167.534 1010.72 170.635 1015.37 175.579 1016.77C177.79 1017.44 180.163 1017.32 182.294 1016.43C184.426 1015.55 186.184 1013.95 187.269 1011.92C187.207 1012.32 187.122 1012.72 187.015 1013.11C185.571 1018.18 180.049 1021.06 174.692 1019.54C169.336 1018.02 166.152 1012.67 167.589 1007.6C167.752 1007.06 167.964 1006.53 168.222 1006.02Z" fill="#F1F1F1"/>
<path fill-rule="evenodd" clip-rule="evenodd" d="M162.37 1002.1C162.859 1000.28 162.708 998.359 161.944 996.644C161.18 994.929 159.848 993.528 158.173 992.677C156.497 991.826 154.579 991.575 152.74 991.968C150.902 992.361 149.254 993.373 148.074 994.834C148.172 994.523 148.294 994.22 148.439 993.928C150.268 990.104 155.033 988.573 159.076 990.495C163.12 992.417 164.901 997.092 163.065 1000.91C162.869 1001.32 162.637 1001.72 162.37 1002.1Z" fill="#F1F1F1"/>
<path fill-rule="evenodd" clip-rule="evenodd" d="M135.511 994.463C133.88 993.528 131.976 993.182 130.119 993.482C128.262 993.782 126.565 994.711 125.313 996.112C124.061 997.514 123.33 999.302 123.242 1001.18C123.155 1003.05 123.716 1004.9 124.832 1006.41C124.56 1006.23 124.299 1006.04 124.048 1005.83C120.816 1003.08 120.548 998.094 123.45 994.69C126.352 991.285 131.323 990.749 134.555 993.488C134.903 993.784 135.223 994.11 135.511 994.463Z" fill="#F1F1F1"/>
<path fill-rule="evenodd" clip-rule="evenodd" d="M112.317 1001.09C111.116 1000.42 109.719 1000.17 108.358 1000.4C106.998 1000.62 105.756 1001.31 104.839 1002.33C103.922 1003.36 103.385 1004.67 103.318 1006.05C103.251 1007.42 103.658 1008.78 104.471 1009.89C104.27 1009.76 104.077 1009.62 103.893 1009.46C103.254 1008.93 102.733 1008.27 102.364 1007.53C101.995 1006.78 101.786 1005.97 101.75 1005.14C101.714 1004.31 101.852 1003.48 102.155 1002.71C102.458 1001.93 102.919 1001.23 103.51 1000.65C104.1 1000.06 104.807 999.605 105.584 999.308C106.361 999.011 107.192 998.88 108.023 998.922C108.854 998.964 109.667 999.179 110.41 999.553C111.153 999.927 111.809 1000.45 112.337 1001.09H112.317Z" fill="#F1F1F1"/>
</g>
<g clip-path="url(#clip10_447_1351)">
<path fill-rule="evenodd" clip-rule="evenodd" d="M1814.17 298.529C1816.44 286.89 1827.57 278.036 1840.94 278.036C1852.59 278.036 1862.57 284.782 1866.47 294.253C1870.78 290.515 1876.3 288.476 1882 288.516C1893.37 288.516 1902.79 296.316 1904.28 306.42C1905.38 306.25 1906.49 306.165 1907.6 306.164C1919.06 306.164 1928.37 314.867 1928.37 325.603C1928.37 326.353 1928.33 327.102 1928.24 327.847H1929.26C1932.5 327.732 1935.74 328.273 1938.77 329.438C1941.8 330.604 1944.56 332.369 1946.9 334.628C1949.23 336.888 1951.09 339.596 1952.36 342.591C1953.63 345.585 1954.28 348.806 1954.28 352.059C1954.28 355.313 1953.63 358.533 1952.36 361.528C1951.09 364.522 1949.23 367.23 1946.9 369.49C1944.56 371.75 1941.8 373.515 1938.77 374.68C1935.74 375.845 1932.5 376.386 1929.26 376.272C1926.76 376.279 1924.27 375.908 1921.88 375.173C1920.98 385.171 1911.25 393.046 1899.35 393.046C1896.09 393.097 1892.85 392.485 1889.83 391.245C1886.81 390.005 1884.07 388.164 1881.78 385.833C1877.27 393.001 1866.88 398.03 1854.82 398.03C1844.93 398.03 1836.17 394.657 1830.78 389.477C1825.42 393.829 1816.75 396.675 1806.97 396.675C1794.36 396.675 1783.59 391.947 1779.37 385.321C1775.16 387.689 1770.41 388.91 1765.59 388.86C1753.27 388.86 1743.27 381.436 1743.27 372.297C1743.27 370.522 1743.64 368.767 1744.37 367.147C1735.56 365.43 1728.97 358.504 1728.97 350.237C1728.97 340.676 1737.79 332.906 1748.66 332.906C1749.74 332.905 1750.82 332.98 1751.89 333.132C1751.23 331.448 1750.9 329.655 1750.9 327.847C1750.9 318.345 1760.17 310.636 1771.58 310.636C1774.99 310.618 1778.36 311.332 1781.47 312.729C1782.58 303.468 1791.98 296.165 1803.37 296.165C1807.1 296.15 1810.79 296.957 1814.17 298.529Z" fill="#F1F1F1"/>
<path fill-rule="evenodd" clip-rule="evenodd" d="M1837.68 270.779C1841.03 267.301 1845.2 264.726 1849.81 263.294C1854.42 261.862 1859.31 261.617 1864.03 262.584C1868.76 263.551 1873.17 265.698 1876.85 268.825C1880.53 271.952 1883.36 275.96 1885.08 280.476C1889.4 278.042 1894.28 276.777 1899.23 276.805C1904.19 276.834 1909.05 278.156 1913.34 280.64C1917.63 283.124 1921.21 286.685 1923.71 290.973C1926.21 295.261 1927.55 300.128 1927.61 305.095C1927.61 305.818 1927.61 306.601 1927.53 307.263C1934.37 308.665 1940.45 312.561 1944.58 318.198C1948.72 323.834 1950.62 330.808 1949.91 337.769C1949.21 344.73 1945.95 351.181 1940.77 355.872C1935.6 360.562 1928.86 363.158 1921.88 363.157C1920.78 363.158 1919.67 363.098 1918.56 362.976C1914.31 368.673 1908.11 372.593 1901.14 373.983C1894.18 375.373 1886.95 374.134 1880.85 370.505C1878.79 374.969 1875.63 378.831 1871.66 381.72C1867.69 384.61 1863.05 386.431 1858.18 387.01C1853.31 387.588 1848.38 386.905 1843.84 385.025C1839.31 383.145 1835.34 380.131 1832.3 376.272C1829.53 379.649 1826.02 382.348 1822.05 384.164C1818.08 385.981 1813.75 386.868 1809.39 386.758C1805.03 386.648 1800.75 385.543 1796.88 383.528C1793 381.513 1789.64 378.64 1787.04 375.128C1783.25 376.645 1779.18 377.335 1775.11 377.151C1771.03 376.967 1767.04 375.914 1763.41 374.061C1759.77 372.208 1756.57 369.599 1754.02 366.407C1751.47 363.215 1749.63 359.515 1748.62 355.553C1742.18 353.505 1736.7 349.208 1733.16 343.443C1729.62 337.679 1728.27 330.833 1729.35 324.152C1730.42 317.471 1733.86 311.401 1739.03 307.049C1744.2 302.697 1750.76 300.352 1757.51 300.442H1758.38C1759.06 295.49 1761.02 290.803 1764.07 286.848C1767.12 282.893 1771.15 279.807 1775.76 277.899C1780.37 275.99 1785.39 275.325 1790.34 275.97C1795.28 276.615 1799.97 278.548 1803.94 281.575C1807.57 276.273 1812.85 272.336 1818.97 270.388C1825.08 268.441 1831.66 268.594 1837.68 270.824V270.779Z" fill="white"/>
<path fill-rule="evenodd" clip-rule="evenodd" d="M1776.02 356.472C1776 360.722 1777.44 364.849 1780.1 368.158C1782.76 371.467 1786.48 373.756 1790.63 374.64C1794.77 375.524 1799.1 374.949 1802.87 373.011C1806.65 371.073 1809.64 367.891 1811.35 364C1811.31 364.738 1811.23 365.473 1811.09 366.199C1809.35 375.595 1799.88 381.738 1789.97 379.901C1780.06 378.064 1773.45 368.909 1775.17 359.498C1775.36 358.466 1775.64 357.453 1776.02 356.472Z" fill="#F1F1F1"/>
<path fill-rule="evenodd" clip-rule="evenodd" d="M1849.36 386.827C1859.47 389.146 1870.18 383.229 1874.12 372.703C1875.98 367.994 1876.15 362.781 1874.6 357.96C1873.05 353.138 1869.87 349.008 1865.62 346.277C1866.48 346.476 1867.34 346.732 1868.17 347.045C1878.97 351.096 1884.27 363.609 1880.01 375.082C1875.74 386.556 1863.48 392.489 1852.7 388.439C1851.54 388.006 1850.42 387.466 1849.36 386.827Z" fill="#F1F1F1"/>
<path fill-rule="evenodd" clip-rule="evenodd" d="M1902.06 338.824C1900.56 349.124 1907.33 359.333 1918.13 362.404C1922.96 363.865 1928.14 363.603 1932.8 361.662C1937.45 359.72 1941.3 356.221 1943.67 351.759C1943.53 352.637 1943.35 353.507 1943.11 354.364C1939.96 365.491 1927.89 371.8 1916.19 368.473C1904.49 365.145 1897.54 353.415 1900.68 342.287C1901.03 341.094 1901.49 339.935 1902.06 338.824Z" fill="#F1F1F1"/>
<path fill-rule="evenodd" clip-rule="evenodd" d="M1889.27 330.211C1890.34 326.235 1890.01 322.012 1888.34 318.25C1886.68 314.489 1883.77 311.416 1880.11 309.549C1876.45 307.682 1872.26 307.133 1868.24 307.994C1864.22 308.855 1860.62 311.075 1858.05 314.28C1858.26 313.598 1858.53 312.934 1858.84 312.292C1862.84 303.905 1873.25 300.548 1882.08 304.764C1890.91 308.98 1894.8 319.234 1890.79 327.606C1890.37 328.518 1889.86 329.39 1889.27 330.211Z" fill="#F1F1F1"/>
<path fill-rule="evenodd" clip-rule="evenodd" d="M1830.6 313.467C1827.04 311.416 1822.88 310.657 1818.82 311.315C1814.77 311.974 1811.06 314.011 1808.33 317.085C1805.59 320.159 1803.99 324.082 1803.8 328.197C1803.61 332.311 1804.84 336.367 1807.27 339.682C1806.68 339.287 1806.11 338.86 1805.56 338.403C1798.5 332.379 1797.92 321.433 1804.26 313.964C1810.59 306.496 1821.45 305.321 1828.51 311.329C1829.27 311.977 1829.97 312.692 1830.6 313.467Z" fill="#F1F1F1"/>
<path fill-rule="evenodd" clip-rule="evenodd" d="M1779.94 328.012C1777.31 326.527 1774.26 325.987 1771.29 326.483C1768.32 326.978 1765.6 328.479 1763.6 330.735C1761.6 332.991 1760.43 335.866 1760.28 338.883C1760.13 341.9 1761.02 344.876 1762.8 347.316C1762.36 347.026 1761.94 346.71 1761.54 346.367C1760.14 345.2 1759 343.754 1758.2 342.121C1757.39 340.488 1756.93 338.705 1756.85 336.884C1756.77 335.064 1757.08 333.247 1757.74 331.55C1758.4 329.853 1759.41 328.314 1760.7 327.03C1761.99 325.746 1763.53 324.747 1765.23 324.096C1766.93 323.444 1768.74 323.156 1770.56 323.248C1772.37 323.341 1774.15 323.812 1775.77 324.633C1777.39 325.453 1778.83 326.604 1779.98 328.012H1779.94Z" fill="#F1F1F1"/>
</g>
<defs>
<clipPath id="clip0_447_1351">
<rect width="330" height="116" fill="white" transform="translate(-85 371)"/>
</clipPath>
<clipPath id="clip1_447_1351">
<rect width="330" height="116" fill="white" transform="translate(1694 1455)"/>
</clipPath>
<clipPath id="clip2_447_1351">
<rect width="330" height="116" fill="white" transform="translate(-163 1618)"/>
</clipPath>
<clipPath id="clip3_447_1351">
<rect width="133" height="80" fill="white" transform="translate(1805)"/>
</clipPath>
<clipPath id="clip4_447_1351">
<rect width="60" height="36" fill="white" transform="translate(125 215)"/>
</clipPath>
<clipPath id="clip5_447_1351">
<rect width="60" height="36" fill="white" transform="translate(1748 1299)"/>
</clipPath>
<clipPath id="clip6_447_1351">
<rect width="147" height="88" fill="white" transform="translate(45 1070)"/>
</clipPath>
<clipPath id="clip7_447_1351">
<rect width="103" height="62" fill="white" transform="translate(29 42)"/>
</clipPath>
<clipPath id="clip8_447_1351">
<rect width="103" height="62" fill="white" transform="translate(1808 1126)"/>
</clipPath>
<clipPath id="clip9_447_1351">
<rect width="103" height="62" fill="white" transform="translate(89 971)"/>
</clipPath>
<clipPath id="clip10_447_1351">
<rect width="225" height="136" fill="white" transform="translate(1729 262)"/>
</clipPath>
</defs>
</svg>
