<svg xmlns="http://www.w3.org/2000/svg" viewBox="0 0 431 25" preserveAspectRatio="none">

    <path fill="#3A88FD" fill-rule="evenodd"
        d="M428.26,17.31c-107.7-4.74-199.34-5.82-261-5.59,45.52-2.65,108-5.37,181.1-6.57a1.48,1.48,0,0,0,1.34-.74,2,2,0,0,0,.5-1.28,2,2,0,0,0-2-2C177.24-2.07,46.11,2.41,1.88,5a2,2,0,0,0,.24,4c35-2.09,124.9-5.35,246-5C173.66,6.83,119.42,10.74,97,12.86a1.42,1.42,0,0,0-1.2,2.08,2.84,2.84,0,0,0,2.71,1.7h0c42.52-1.44,167.63-2.54,328.69,4.55a2.58,2.58,0,0,0,2.5-1.85A1.55,1.55,0,0,0,428.26,17.31Z" />
</svg>