<svg width="1920" height="408" viewBox="0 0 1920 408" fill="none" xmlns="http://www.w3.org/2000/svg">
<g clip-path="url(#clip0_376_2011)">
<path fill-rule="evenodd" clip-rule="evenodd" d="M84.4424 313.498C86.7313 308.091 90.5384 303.466 95.401 300.186C100.264 296.906 105.972 295.112 111.833 295.022C125.309 295.022 136.743 304.42 140.669 317.393C142.534 316.985 144.438 316.78 146.346 316.782C157.289 316.782 166.574 323.361 169.705 332.426C171.957 331.787 174.287 331.465 176.629 331.469C189.23 331.469 199.47 340.641 199.47 351.952C199.464 355.381 198.519 358.742 196.737 361.669C212.654 363.304 253.773 365.763 257.447 366.986C261.891 368.421 219.379 369.644 205.518 370.668C202.613 370.894 199.47 372.675 199.47 373.845C199.47 385.887 185.582 395.67 168.458 395.67C162.094 395.737 155.805 394.284 150.113 391.43C147.804 394.478 144.809 396.937 141.373 398.607C137.936 400.277 134.155 401.11 130.337 401.04C126.804 401.091 123.302 400.378 120.07 398.949C116.837 397.52 113.951 395.409 111.607 392.759C106.162 396.544 99.6636 398.512 93.0376 398.382C84.5883 398.382 77.1205 395.471 72.3587 390.965C67.2387 393.849 59.8373 395.67 51.6135 395.67C36.2801 395.67 23.7587 389.37 23.6393 381.581C16.4917 380.63 9.29446 380.102 2.08495 379.999C-18.2491 379.693 -56.9275 379.241 -59.5007 377.713C-62.074 376.184 -37.6944 372.396 -4.61346 370.362C-5.55862 369.17 -6.08126 367.697 -6.09906 366.175C-6.09906 361.217 -0.342388 357.19 6.76722 357.19C9.4173 357.151 12.0392 357.739 14.4207 358.904C14.8318 350.583 23.9046 343.911 35.02 343.911C36.2133 343.91 37.4054 343.99 38.588 344.15C39.9329 339.768 42.7435 335.985 46.5466 333.437C47.6342 321.008 59.1343 311.212 73.1413 311.212C77.0237 311.202 80.868 311.98 84.4424 313.498Z" fill="#F1F1F1"/>
<path fill-rule="evenodd" clip-rule="evenodd" d="M81.5908 303.463C83.8766 298.057 87.6815 293.433 92.5422 290.155C97.4029 286.877 103.11 285.086 108.968 285C122.458 285 133.892 294.384 137.804 307.357C139.671 306.962 141.574 306.761 143.482 306.759C154.438 306.759 163.723 313.339 166.84 322.391C169.092 321.751 171.423 321.429 173.764 321.434C186.378 321.434 200.014 328.226 200.014 339.537C200.014 343.047 203.993 347.22 202.189 350.171C218.106 351.806 260.087 365.763 263.735 366.932C268.165 368.368 216.992 364.952 203.131 366.029C200.213 366.254 197.082 368.036 197.082 369.205C197.082 381.261 182.717 385.634 165.606 385.634C159.24 385.699 152.948 384.25 147.249 381.407C144.94 384.453 141.947 386.91 138.513 388.58C135.079 390.249 131.301 391.085 127.485 391.018C123.949 391.07 120.443 390.356 117.209 388.925C113.974 387.493 111.086 385.378 108.743 382.723C103.297 386.509 96.7989 388.477 90.1727 388.346C81.7101 388.346 74.2557 385.435 69.4938 380.929C64.3738 383.827 56.9592 385.634 48.7354 385.634C33.4019 385.634 20.8805 379.334 20.7612 371.545C18.1083 376.636 13.6913 376.37 4.34007 376.197C-2.45119 376.077 -63.3073 377.832 -65.8541 376.303C-68.4008 374.775 -40.5725 362.4 -7.49159 360.353C-8.43854 359.162 -8.96141 357.688 -8.97718 356.166C-8.97718 351.208 -3.20726 347.194 3.88909 347.194C6.55288 347.163 9.18558 347.769 11.5691 348.961C11.9802 340.627 21.0397 333.968 32.1551 333.968C33.348 333.968 34.5397 334.044 35.7232 334.194C37.068 329.812 39.8786 326.029 43.6817 323.481C44.7693 311.052 56.2694 301.256 70.2897 301.256C74.1658 301.23 78.0081 301.98 81.5908 303.463Z" fill="white"/>
<path fill-rule="evenodd" clip-rule="evenodd" d="M62.9545 365.218C62.3196 368.534 62.8685 371.969 64.5053 374.921C66.142 377.873 68.7623 380.155 71.9079 381.366C75.0535 382.578 78.5241 382.643 81.7126 381.55C84.9012 380.457 87.6047 378.275 89.3503 375.386C89.2236 375.968 89.0597 376.54 88.8595 377.101C87.5243 380.602 84.8742 383.441 81.4766 385.009C78.079 386.576 74.2039 386.749 70.6808 385.489C67.1578 384.23 64.2669 381.638 62.627 378.269C60.9871 374.9 60.7285 371.022 61.9066 367.464C62.1911 366.687 62.5416 365.935 62.9545 365.218Z" fill="#F1F1F1"/>
<path fill-rule="evenodd" clip-rule="evenodd" d="M17.2857 360.791C16.0654 366.679 19.713 372.874 26.0002 375.12C28.7664 376.197 31.8191 376.285 34.6421 375.367C37.4651 374.449 39.885 372.582 41.4928 370.082C41.3867 370.582 41.2493 371.075 41.0816 371.558C38.84 377.858 31.4916 380.995 24.6738 378.549C17.856 376.104 14.142 369.032 16.3837 362.745C16.6193 362.065 16.9214 361.411 17.2857 360.791Z" fill="#F1F1F1"/>
<path fill-rule="evenodd" clip-rule="evenodd" d="M89.3501 334.181C87.111 331.637 84.0474 329.967 80.6996 329.466C77.3518 328.964 73.9349 329.664 71.0515 331.441C68.1681 333.218 66.0035 335.958 64.9395 339.178C63.8755 342.398 63.9804 345.891 65.2357 349.042C64.8568 348.587 64.5026 348.112 64.1746 347.619C62.1869 344.428 61.5302 340.582 62.3459 336.909C63.1616 333.237 65.3845 330.033 68.5355 327.988C71.6864 325.943 75.5131 325.22 79.1907 325.976C82.8684 326.732 86.1025 328.905 88.1961 332.028C88.6378 332.713 89.0237 333.433 89.3501 334.181Z" fill="#F1F1F1"/>
<path fill-rule="evenodd" clip-rule="evenodd" d="M106.939 368.833C106.304 372.15 106.853 375.584 108.489 378.536C110.126 381.488 112.746 383.77 115.892 384.982C119.038 386.193 122.508 386.258 125.697 385.165C128.885 384.072 131.589 381.89 133.334 379.001C133.208 379.583 133.044 380.156 132.844 380.716C131.405 384.066 128.746 386.741 125.409 388.196C122.072 389.651 118.307 389.778 114.88 388.55C111.453 387.323 108.621 384.833 106.961 381.587C105.301 378.342 104.937 374.584 105.944 371.079C106.211 370.304 106.544 369.552 106.939 368.833Z" fill="#F1F1F1"/>
<path fill-rule="evenodd" clip-rule="evenodd" d="M122.007 343.313C123.933 340.537 124.823 337.169 124.52 333.802C124.217 330.434 122.741 327.28 120.351 324.894C117.96 322.508 114.807 321.041 111.445 320.751C108.083 320.461 104.727 321.366 101.964 323.308C102.308 322.839 102.685 322.395 103.092 321.979C105.736 319.37 109.288 317.892 112.999 317.857C116.709 317.822 120.288 319.233 122.981 321.791C125.674 324.35 127.269 327.857 127.432 331.572C127.594 335.287 126.31 338.92 123.85 341.704C123.279 342.288 122.663 342.826 122.007 343.313Z" fill="#F1F1F1"/>
<path fill-rule="evenodd" clip-rule="evenodd" d="M162.118 364.992C164.28 361.74 165.233 357.829 164.81 353.944C164.387 350.059 162.616 346.446 159.805 343.737C156.994 341.028 153.323 339.395 149.432 339.123C145.542 338.851 141.679 339.958 138.521 342.249C139.847 340.449 141.523 338.937 143.448 337.804C145.373 336.67 147.508 335.939 149.722 335.654C151.937 335.37 154.186 335.537 156.335 336.147C158.483 336.757 160.486 337.796 162.223 339.202C163.96 340.609 165.394 342.353 166.44 344.33C167.486 346.307 168.122 348.475 168.309 350.705C168.496 352.935 168.231 355.179 167.53 357.303C166.828 359.428 165.704 361.387 164.227 363.065C163.583 363.769 162.877 364.414 162.118 364.992Z" fill="#F1F1F1"/>
</g>
<g clip-path="url(#clip1_376_2011)">
<path fill-rule="evenodd" clip-rule="evenodd" d="M1887.9 35.4551C1890.11 24.1579 1900.94 15.5645 1913.95 15.5645C1925.3 15.5645 1935.01 22.1118 1938.81 31.3045C1943 27.6766 1948.38 25.6976 1953.92 25.7363C1964.99 25.7363 1974.16 33.3067 1975.61 43.1132C1976.68 42.9489 1977.76 42.8659 1978.84 42.8647C1989.99 42.8647 1999.06 51.312 1999.06 61.7323C1999.06 62.4602 1999.01 63.1874 1998.93 63.9099H1999.92C2003.08 63.7986 2006.22 64.324 2009.17 65.4549C2012.12 66.5858 2014.81 68.2989 2017.09 70.4921C2019.36 72.6853 2021.17 75.3137 2022.4 78.2204C2023.64 81.127 2024.27 84.2525 2024.27 87.4103C2024.27 90.5681 2023.64 93.6936 2022.4 96.6003C2021.17 99.507 2019.36 102.135 2017.09 104.329C2014.81 106.522 2012.12 108.235 2009.17 109.366C2006.22 110.497 2003.08 111.022 1999.92 110.911C1997.49 110.917 1995.07 110.558 1992.74 109.844C1991.86 119.548 1982.39 127.192 1970.81 127.192C1967.63 127.241 1964.48 126.647 1961.54 125.443C1958.6 124.24 1955.93 122.453 1953.7 120.191C1949.32 127.148 1939.2 132.029 1927.46 132.029C1917.84 132.029 1909.32 128.755 1904.07 123.728C1898.85 127.952 1890.41 130.714 1880.89 130.714C1868.61 130.714 1858.13 126.125 1854.02 119.694C1849.93 121.993 1845.31 123.177 1840.62 123.129C1828.63 123.129 1818.89 115.924 1818.89 107.052C1818.89 105.33 1819.25 103.627 1819.96 102.054C1811.39 100.388 1804.97 93.6654 1804.97 85.642C1804.97 76.3616 1813.55 68.8204 1824.14 68.8204C1825.19 68.8192 1826.24 68.8924 1827.28 69.0396C1826.64 67.4051 1826.31 65.6651 1826.32 63.9099C1826.32 54.688 1835.34 47.2053 1846.45 47.2053C1849.76 47.1881 1853.04 47.8808 1856.07 49.2367C1857.15 40.2487 1866.3 33.1606 1877.39 33.1606C1881.02 33.1456 1884.6 33.929 1887.9 35.4551Z" fill="#F1F1F1"/>
<path fill-rule="evenodd" clip-rule="evenodd" d="M1910.78 8.52062C1914.04 5.14486 1918.1 2.64622 1922.59 1.25599C1927.07 -0.134246 1931.83 -0.371141 1936.43 0.567226C1941.03 1.50559 1945.32 3.58889 1948.91 6.6243C1952.49 9.6597 1955.24 13.5491 1956.92 17.9325C1961.13 15.5698 1965.87 14.3421 1970.7 14.37C1975.52 14.3979 1980.25 15.6805 1984.43 18.0916C1988.6 20.5028 1992.08 23.9593 1994.52 28.1211C1996.95 32.283 1998.26 37.0067 1998.31 41.8275C1998.31 42.529 1998.31 43.289 1998.24 43.932C2004.89 45.2922 2010.81 49.0742 2014.83 54.5448C2018.86 60.0154 2020.71 66.7848 2020.02 73.5408C2019.34 80.2968 2016.17 86.5581 2011.13 91.1108C2006.09 95.6635 1999.53 98.1834 1992.74 98.1818C1991.66 98.183 1990.58 98.1245 1989.51 98.0064C1985.37 103.536 1979.33 107.341 1972.55 108.689C1965.78 110.038 1958.74 108.836 1952.8 105.314C1950.8 109.647 1947.72 113.395 1943.86 116.199C1940 119.004 1935.48 120.771 1930.74 121.333C1926 121.894 1921.19 121.231 1916.78 119.407C1912.37 117.582 1908.5 114.657 1905.55 110.911C1902.85 114.188 1899.43 116.808 1895.57 118.572C1891.71 120.335 1887.49 121.196 1883.25 121.089C1879 120.982 1874.84 119.91 1871.07 117.954C1867.3 115.998 1864.02 113.21 1861.49 109.8C1857.81 111.274 1853.85 111.943 1849.88 111.765C1845.91 111.586 1842.03 110.563 1838.49 108.765C1834.95 106.967 1831.84 104.434 1829.35 101.336C1826.87 98.2387 1825.08 94.647 1824.09 90.8014C1817.83 88.814 1812.49 84.6427 1809.05 79.0481C1805.6 73.4535 1804.29 66.8083 1805.34 60.324C1806.39 53.8397 1809.73 47.9483 1814.76 43.724C1819.8 39.4997 1826.18 37.2239 1832.75 37.3116H1833.6C1834.26 32.5054 1836.17 27.9563 1839.14 24.1173C1842.1 20.2784 1846.03 17.2836 1850.51 15.4312C1855 13.5788 1859.89 12.9335 1864.7 13.5595C1869.51 14.1856 1874.08 16.0611 1877.94 18.9994C1881.47 13.8533 1886.62 10.0322 1892.57 8.14189C1898.52 6.25161 1904.92 6.40033 1910.78 8.56446V8.52062Z" fill="white"/>
<path fill-rule="evenodd" clip-rule="evenodd" d="M1850.76 91.6924C1850.74 95.8177 1852.15 99.8234 1854.74 103.035C1857.33 106.247 1860.95 108.469 1864.98 109.327C1869.02 110.184 1873.23 109.626 1876.9 107.745C1880.57 105.864 1883.49 102.776 1885.15 98.9997C1885.12 99.7159 1885.03 100.429 1884.9 101.133C1883.2 110.253 1873.99 116.216 1864.34 114.433C1854.69 112.65 1848.26 103.764 1849.94 94.6299C1850.13 93.6277 1850.4 92.6444 1850.76 91.6924Z" fill="#F1F1F1"/>
<path fill-rule="evenodd" clip-rule="evenodd" d="M1903.89 49.9535C1900.42 47.963 1896.38 47.2256 1892.43 47.8649C1888.48 48.5043 1884.87 50.4816 1882.21 53.465C1879.55 56.4485 1877.99 60.2564 1877.81 64.25C1877.62 68.2435 1878.81 72.1796 1881.19 75.3977C1880.61 75.0144 1880.05 74.5997 1879.52 74.1555C1872.65 68.3096 1872.08 57.6847 1878.25 50.4358C1884.42 43.1869 1894.99 42.047 1901.86 47.8783C1902.6 48.507 1903.28 49.2016 1903.89 49.9535Z" fill="#F1F1F1"/>
<path fill-rule="evenodd" clip-rule="evenodd" d="M1854.58 64.0706C1852.02 62.6293 1849.05 62.1054 1846.16 62.5862C1843.27 63.067 1840.63 64.5235 1838.68 66.7132C1836.73 68.903 1835.59 71.694 1835.44 74.622C1835.3 77.55 1836.17 80.4384 1837.9 82.8066C1837.47 82.5257 1837.06 82.2182 1836.67 81.8859C1835.31 80.7535 1834.2 79.3499 1833.42 77.7649C1832.63 76.18 1832.19 74.4487 1832.11 72.6818C1832.03 70.915 1832.33 69.1517 1832.97 67.5047C1833.62 65.8577 1834.6 64.3634 1835.85 63.1175C1837.11 61.8716 1838.61 60.9016 1840.26 60.2695C1841.91 59.6374 1843.68 59.3573 1845.45 59.447C1847.21 59.5367 1848.94 59.9943 1850.52 60.7905C1852.1 61.5867 1853.5 62.7039 1854.62 64.0706H1854.58Z" fill="#F1F1F1"/>
</g>
<g clip-path="url(#clip2_376_2011)">
<path fill-rule="evenodd" clip-rule="evenodd" d="M258.989 181.653C260.027 176.347 265.122 172.311 271.242 172.311C276.578 172.311 281.144 175.386 282.932 179.704C284.906 178 287.433 177.07 290.042 177.088C295.247 177.088 299.559 180.644 300.24 185.25C300.742 185.173 301.25 185.134 301.759 185.133C307.006 185.133 311.269 189.101 311.269 193.995C311.269 194.337 311.249 194.679 311.207 195.018H311.675C313.16 194.966 314.64 195.213 316.027 195.744C317.414 196.275 318.68 197.08 319.749 198.11C320.818 199.14 321.668 200.375 322.249 201.74C322.83 203.105 323.129 204.573 323.129 206.056C323.129 207.54 322.83 209.008 322.249 210.373C321.668 211.738 320.818 212.973 319.749 214.003C318.68 215.033 317.414 215.838 316.027 216.369C314.64 216.9 313.16 217.147 311.675 217.094C310.531 217.098 309.392 216.929 308.299 216.593C307.886 221.151 303.43 224.741 297.984 224.741C296.49 224.765 295.007 224.486 293.624 223.92C292.241 223.355 290.988 222.516 289.939 221.453C287.876 224.721 283.118 227.014 277.596 227.014C273.071 227.014 269.062 225.476 266.594 223.115C264.139 225.098 260.171 226.396 255.695 226.396C249.919 226.396 244.989 224.24 243.056 221.22C241.132 222.3 238.958 222.856 236.751 222.833C231.112 222.833 226.533 219.449 226.533 215.282C226.532 214.473 226.703 213.673 227.035 212.935C223.005 212.152 219.986 208.994 219.986 205.226C219.986 200.867 224.023 197.325 229.001 197.325C229.496 197.324 229.99 197.359 230.48 197.428C230.179 196.66 230.025 195.843 230.026 195.018C230.026 190.687 234.268 187.172 239.494 187.172C241.054 187.164 242.596 187.489 244.019 188.126C244.528 183.905 248.832 180.575 254.045 180.575C255.752 180.568 257.44 180.936 258.989 181.653Z" fill="#F1F1F1"/>
<path fill-rule="evenodd" clip-rule="evenodd" d="M269.75 169.002C271.284 167.417 273.194 166.243 275.303 165.59C277.413 164.937 279.653 164.826 281.816 165.267C283.98 165.707 285.997 166.686 287.682 168.112C289.366 169.537 290.662 171.364 291.452 173.423C293.429 172.313 295.662 171.737 297.93 171.75C300.198 171.763 302.424 172.365 304.388 173.498C306.353 174.63 307.988 176.254 309.133 178.209C310.278 180.163 310.893 182.382 310.918 184.646C310.918 184.976 310.918 185.333 310.884 185.635C314.014 186.274 316.795 188.05 318.688 190.62C320.581 193.189 321.451 196.369 321.129 199.542C320.807 202.715 319.316 205.656 316.946 207.795C314.575 209.933 311.494 211.117 308.299 211.116C307.791 211.116 307.284 211.089 306.779 211.033C304.832 213.631 301.991 215.418 298.804 216.051C295.617 216.685 292.308 216.12 289.513 214.466C288.572 216.501 287.124 218.261 285.308 219.579C283.492 220.896 281.367 221.726 279.138 221.99C276.908 222.254 274.648 221.942 272.573 221.085C270.499 220.228 268.679 218.854 267.288 217.095C266.019 218.634 264.415 219.865 262.598 220.693C260.781 221.521 258.799 221.925 256.802 221.875C254.805 221.825 252.846 221.321 251.073 220.403C249.3 219.484 247.76 218.174 246.57 216.573C244.836 217.265 242.974 217.579 241.108 217.496C239.243 217.412 237.416 216.931 235.751 216.087C234.087 215.242 232.621 214.053 231.454 212.598C230.286 211.143 229.443 209.456 228.981 207.649C226.035 206.716 223.523 204.757 221.904 202.129C220.284 199.501 219.665 196.38 220.159 193.334C220.652 190.288 222.226 187.521 224.592 185.537C226.959 183.553 229.961 182.484 233.051 182.525H233.45C233.761 180.268 234.659 178.131 236.055 176.328C237.451 174.525 239.295 173.118 241.405 172.248C243.514 171.378 245.816 171.075 248.079 171.369C250.343 171.663 252.49 172.544 254.306 173.924C255.966 171.507 258.387 169.712 261.184 168.824C263.982 167.936 266.997 168.006 269.75 169.023V169.002Z" fill="white"/>
<path fill-rule="evenodd" clip-rule="evenodd" d="M241.523 208.067C241.514 210.005 242.175 211.886 243.393 213.395C244.611 214.904 246.312 215.947 248.211 216.35C250.11 216.753 252.089 216.491 253.817 215.607C255.544 214.724 256.914 213.273 257.696 211.5C257.68 211.836 257.641 212.171 257.579 212.502C256.781 216.785 252.449 219.586 247.911 218.749C243.373 217.911 240.347 213.737 241.138 209.447C241.223 208.976 241.352 208.515 241.523 208.067Z" fill="#F1F1F1"/>
<path fill-rule="evenodd" clip-rule="evenodd" d="M275.1 221.907C279.727 222.964 284.63 220.266 286.432 215.468C287.285 213.321 287.363 210.945 286.653 208.747C285.943 206.549 284.489 204.666 282.54 203.421C282.937 203.511 283.327 203.628 283.709 203.771C288.653 205.618 291.08 211.322 289.127 216.553C287.174 221.783 281.563 224.488 276.626 222.641C276.096 222.444 275.585 222.198 275.1 221.907Z" fill="#F1F1F1"/>
<path fill-rule="evenodd" clip-rule="evenodd" d="M299.222 200.022C298.534 204.718 301.635 209.372 306.579 210.772C308.79 211.438 311.163 211.319 313.294 210.434C315.426 209.549 317.184 207.953 318.269 205.919C318.207 206.319 318.122 206.716 318.015 207.107C316.571 212.179 311.049 215.056 305.692 213.539C300.336 212.022 297.152 206.674 298.589 201.601C298.752 201.057 298.964 200.529 299.222 200.022Z" fill="#F1F1F1"/>
<path fill-rule="evenodd" clip-rule="evenodd" d="M293.37 196.096C293.859 194.284 293.708 192.359 292.944 190.644C292.18 188.929 290.848 187.528 289.173 186.677C287.497 185.826 285.579 185.575 283.74 185.968C281.902 186.361 280.254 187.373 279.074 188.834C279.172 188.523 279.294 188.22 279.439 187.928C281.268 184.104 286.033 182.573 290.076 184.495C294.12 186.417 295.901 191.092 294.065 194.909C293.869 195.325 293.637 195.722 293.37 196.096Z" fill="#F1F1F1"/>
<path fill-rule="evenodd" clip-rule="evenodd" d="M266.511 188.463C264.88 187.528 262.976 187.182 261.12 187.482C259.263 187.782 257.566 188.711 256.314 190.112C255.062 191.514 254.33 193.302 254.243 195.178C254.155 197.054 254.717 198.903 255.833 200.414C255.561 200.234 255.299 200.039 255.049 199.831C251.817 197.085 251.549 192.094 254.45 188.69C257.352 185.285 262.324 184.749 265.556 187.488C265.903 187.784 266.223 188.11 266.511 188.463Z" fill="#F1F1F1"/>
<path fill-rule="evenodd" clip-rule="evenodd" d="M243.317 195.093C242.116 194.416 240.719 194.17 239.359 194.396C237.998 194.622 236.756 195.306 235.839 196.335C234.922 197.363 234.386 198.674 234.319 200.049C234.252 201.425 234.659 202.781 235.471 203.894C235.27 203.762 235.077 203.617 234.894 203.461C234.255 202.929 233.734 202.27 233.365 201.526C232.996 200.781 232.786 199.968 232.75 199.138C232.714 198.308 232.852 197.48 233.155 196.706C233.458 195.933 233.92 195.231 234.51 194.646C235.101 194.061 235.807 193.605 236.584 193.308C237.362 193.011 238.192 192.88 239.023 192.922C239.854 192.964 240.667 193.179 241.41 193.553C242.153 193.927 242.81 194.451 243.338 195.093H243.317Z" fill="#F1F1F1"/>
</g>
<g clip-path="url(#clip3_376_2011)">
<path fill-rule="evenodd" clip-rule="evenodd" d="M67.9887 23.6531C69.027 18.3469 74.1223 14.3105 80.2422 14.3105C85.5782 14.3105 90.1441 17.3858 91.9319 21.7036C93.9056 19.9996 96.4326 19.07 99.042 19.0882C104.247 19.0882 108.559 22.644 109.24 27.2501C109.742 27.1729 110.25 27.1339 110.759 27.1334C116.006 27.1334 120.269 31.1011 120.269 35.9954C120.269 36.3373 120.249 36.6789 120.207 37.0183H120.675C122.16 36.966 123.64 37.2128 125.027 37.7439C126.414 38.2751 127.68 39.0798 128.749 40.1099C129.818 41.1401 130.668 42.3746 131.249 43.7398C131.83 45.1051 132.129 46.5731 132.129 48.0563C132.129 49.5396 131.83 51.0076 131.249 52.3728C130.668 53.7381 129.818 54.9726 128.749 56.0028C127.68 57.0329 126.414 57.8376 125.027 58.3687C123.64 58.8999 122.16 59.1467 120.675 59.0944C119.531 59.0976 118.392 58.9286 117.299 58.5933C116.886 63.1513 112.43 66.7415 106.984 66.7415C105.49 66.7649 104.007 66.4856 102.624 65.9204C101.241 65.3552 99.9875 64.516 98.9389 63.4534C96.876 66.7209 92.1176 69.0136 86.5959 69.0136C82.0713 69.0136 78.0624 67.476 75.5938 65.1146C73.139 67.0984 69.1714 68.3958 64.6949 68.3958C58.9188 68.3958 53.9885 66.2403 52.0563 63.22C50.1322 64.2996 47.9578 64.8558 45.7507 64.8331C40.1122 64.8331 35.5326 61.4489 35.5326 57.2822C35.5324 56.4731 35.7035 55.6731 36.0345 54.9345C32.005 54.152 28.9863 50.9943 28.9863 47.2257C28.9863 42.8668 33.0227 39.3247 38.0011 39.3247C38.4958 39.3241 38.9898 39.3585 39.4796 39.4277C39.1786 38.6599 39.0247 37.8427 39.0257 37.0183C39.0257 32.6868 43.2684 29.1722 48.4944 29.1722C50.0535 29.1641 51.5963 29.4894 53.019 30.1263C53.5278 25.9047 57.8324 22.5754 63.0446 22.5754C64.7519 22.5684 66.4397 22.9363 67.9887 23.6531Z" fill="#F1F1F1"/>
<path fill-rule="evenodd" clip-rule="evenodd" d="M78.7501 11.0022C80.2842 9.41664 82.1943 8.24304 84.3034 7.59005C86.4126 6.93706 88.6526 6.82579 90.8163 7.26654C92.98 7.70729 94.9973 8.68581 96.6815 10.1115C98.3657 11.5373 99.6625 13.3641 100.452 15.423C102.429 14.3132 104.662 13.7365 106.93 13.7497C109.198 13.7628 111.424 14.3652 113.388 15.4977C115.353 16.6302 116.988 18.2537 118.133 20.2085C119.278 22.1633 119.893 24.3821 119.918 26.6464C119.918 26.9759 119.918 27.3328 119.884 27.6349C123.014 28.2737 125.795 30.0501 127.688 32.6196C129.581 35.1891 130.451 38.3687 130.129 41.542C129.807 44.7153 128.316 47.6562 125.946 49.7946C123.575 51.933 120.494 53.1165 117.299 53.1158C116.791 53.1164 116.284 53.0889 115.779 53.0334C113.832 55.6306 110.991 57.4177 107.804 58.0512C104.617 58.6848 101.308 58.1201 98.5126 56.4657C97.5721 58.5009 96.1245 60.2612 94.3081 61.5786C92.4916 62.8959 90.3671 63.7261 88.1376 63.9898C85.908 64.2536 83.648 63.9421 81.5735 63.085C79.4989 62.228 77.6793 60.8542 76.2884 59.0948C75.0187 60.6341 73.4146 61.8645 71.5976 62.6928C69.7807 63.5211 67.7986 63.9254 65.8019 63.8751C63.8051 63.8248 61.846 63.3213 60.0732 62.4026C58.3004 61.484 56.7604 60.1743 55.5701 58.5731C53.8359 59.2649 51.9738 59.5795 50.1082 59.4956C48.2425 59.4117 46.4163 58.9314 44.7514 58.0868C43.0865 57.2421 41.6213 56.0526 40.4537 54.5976C39.2861 53.1425 38.443 51.4555 37.9805 49.6493C35.0348 48.7158 32.5233 46.7566 30.9039 44.1288C29.2845 41.501 28.665 38.3798 29.1585 35.3341C29.652 32.2885 31.2255 29.5213 33.5922 27.5372C35.9589 25.553 38.961 24.4841 42.0513 24.5253H42.4501C42.7612 22.2678 43.6592 20.1311 45.0549 18.328C46.4505 16.5248 48.2951 15.1182 50.4047 14.2481C52.5144 13.378 54.8156 13.0749 57.0792 13.369C59.3427 13.663 61.4896 14.544 63.3059 15.9241C64.966 13.507 67.3867 11.7122 70.1844 10.8243C72.9821 9.93648 75.9967 10.0063 78.7501 11.0228V11.0022Z" fill="white"/>
<path fill-rule="evenodd" clip-rule="evenodd" d="M50.5229 50.0674C50.5142 52.005 51.1746 53.8865 52.3927 55.3951C53.6109 56.9036 55.3124 57.9472 57.211 58.3501C59.1096 58.753 61.0892 58.4907 62.8168 57.6073C64.5443 56.7238 65.9142 55.2732 66.6959 53.4996C66.6803 53.836 66.6413 54.1709 66.579 54.5018C65.7813 58.7853 61.4493 61.586 56.9109 60.7485C52.3726 59.9111 49.347 55.7374 50.1378 51.4471C50.2234 50.9764 50.3523 50.5145 50.5229 50.0674Z" fill="#F1F1F1"/>
<path fill-rule="evenodd" clip-rule="evenodd" d="M84.0996 63.9069C88.7274 64.9641 93.6301 62.2663 95.4317 57.4681C96.285 55.3212 96.3633 52.9448 95.6532 50.7467C94.943 48.5485 93.4887 46.6656 91.5398 45.4209C91.9368 45.5113 92.3274 45.6283 92.7087 45.771C97.6528 47.6175 100.08 53.3219 98.1272 58.5527C96.1744 63.7834 90.5633 66.488 85.6261 64.6414C85.0957 64.4441 84.5847 64.1982 84.0996 63.9069Z" fill="#F1F1F1"/>
<path fill-rule="evenodd" clip-rule="evenodd" d="M108.222 42.0225C107.534 46.7178 110.635 51.3719 115.579 52.7722C117.79 53.4382 120.163 53.3186 122.294 52.4336C124.426 51.5486 126.184 49.9531 127.269 47.9191C127.207 48.3195 127.122 48.716 127.015 49.1066C125.571 54.1795 120.049 57.0557 114.692 55.5386C109.336 54.0216 106.152 48.6741 107.589 43.6013C107.752 43.0572 107.964 42.5288 108.222 42.0225Z" fill="#F1F1F1"/>
<path fill-rule="evenodd" clip-rule="evenodd" d="M102.37 38.0964C102.859 36.2839 102.708 34.3588 101.944 32.6438C101.18 30.9288 99.8485 29.5282 98.1728 28.6769C96.497 27.8256 94.5791 27.5753 92.7404 27.968C90.9018 28.3607 89.2543 29.3725 88.0742 30.8338C88.1724 30.5229 88.2943 30.22 88.4387 29.9277C90.2678 26.1041 95.033 24.5734 99.0763 26.4954C103.12 28.4175 104.901 33.0922 103.065 36.9088C102.869 37.3247 102.637 37.7221 102.37 38.0964Z" fill="#F1F1F1"/>
<path fill-rule="evenodd" clip-rule="evenodd" d="M75.5115 30.4631C73.8802 29.5282 71.9764 29.1818 70.1196 29.4821C68.2628 29.7825 66.5659 30.7112 65.3138 32.1125C64.0617 33.5138 63.3304 35.3024 63.2428 37.1781C63.1552 39.0539 63.7165 40.9027 64.8326 42.4142C64.5608 42.2341 64.2991 42.0394 64.0487 41.8307C60.8168 39.0849 60.5487 34.0945 63.4505 30.6897C66.3523 27.2849 71.3238 26.7495 74.5557 29.4884C74.9032 29.7837 75.2231 30.11 75.5115 30.4631Z" fill="#F1F1F1"/>
<path fill-rule="evenodd" clip-rule="evenodd" d="M52.3173 37.0934C51.1163 36.4164 49.7193 36.1704 48.3587 36.3962C46.9981 36.6221 45.756 37.3061 44.839 38.3347C43.9221 39.3632 43.3855 40.6741 43.3186 42.0494C43.2518 43.4247 43.6586 44.7813 44.4715 45.8937C44.27 45.7618 44.0771 45.6173 43.8939 45.4612C43.2547 44.9293 42.7339 44.2701 42.3648 43.5256C41.9957 42.7812 41.7864 41.968 41.7503 41.1381C41.7142 40.3082 41.8521 39.48 42.1552 38.7064C42.4583 37.9328 42.9198 37.231 43.5104 36.6458C44.1009 36.0606 44.8074 35.6049 45.5845 35.3081C46.3616 35.0112 47.1923 34.8796 48.0233 34.9217C48.8543 34.9639 49.6673 35.1788 50.4103 35.5528C51.1533 35.9267 51.8099 36.4515 52.3379 37.0934H52.3173Z" fill="#F1F1F1"/>
</g>
<g clip-path="url(#clip4_376_2011)">
<path fill-rule="evenodd" clip-rule="evenodd" d="M1788.17 308.529C1790.44 296.89 1801.57 288.036 1814.94 288.036C1826.59 288.036 1836.57 294.782 1840.47 304.253C1844.78 300.515 1850.3 298.476 1856 298.516C1867.37 298.516 1876.79 306.316 1878.28 316.42C1879.38 316.25 1880.49 316.165 1881.6 316.164C1893.06 316.164 1902.37 324.867 1902.37 335.603C1902.37 336.353 1902.33 337.102 1902.24 337.847H1903.26C1906.5 337.732 1909.74 338.273 1912.77 339.438C1915.8 340.604 1918.56 342.369 1920.9 344.628C1923.23 346.888 1925.09 349.596 1926.36 352.591C1927.63 355.585 1928.28 358.806 1928.28 362.059C1928.28 365.313 1927.63 368.533 1926.36 371.528C1925.09 374.522 1923.23 377.23 1920.9 379.49C1918.56 381.75 1915.8 383.515 1912.77 384.68C1909.74 385.845 1906.5 386.386 1903.26 386.272C1900.76 386.279 1898.27 385.908 1895.88 385.173C1894.98 395.171 1885.25 403.046 1873.35 403.046C1870.09 403.097 1866.85 402.485 1863.83 401.245C1860.81 400.005 1858.07 398.164 1855.78 395.833C1851.27 403.001 1840.88 408.03 1828.82 408.03C1818.93 408.03 1810.17 404.657 1804.78 399.477C1799.42 403.829 1790.75 406.675 1780.97 406.675C1768.36 406.675 1757.59 401.947 1753.37 395.321C1749.16 397.689 1744.41 398.91 1739.59 398.86C1727.27 398.86 1717.27 391.436 1717.27 382.297C1717.27 380.522 1717.64 378.767 1718.37 377.147C1709.56 375.43 1702.97 368.504 1702.97 360.237C1702.97 350.676 1711.79 342.906 1722.66 342.906C1723.74 342.905 1724.82 342.98 1725.89 343.132C1725.23 341.448 1724.9 339.655 1724.9 337.847C1724.9 328.345 1734.17 320.636 1745.58 320.636C1748.99 320.618 1752.36 321.332 1755.47 322.729C1756.58 313.468 1765.98 306.165 1777.37 306.165C1781.1 306.15 1784.79 306.957 1788.17 308.529Z" fill="#F1F1F1"/>
<path fill-rule="evenodd" clip-rule="evenodd" d="M1811.68 280.779C1815.03 277.301 1819.2 274.726 1823.81 273.294C1828.42 271.862 1833.31 271.617 1838.04 272.584C1842.76 273.551 1847.17 275.698 1850.85 278.825C1854.53 281.952 1857.36 285.96 1859.08 290.476C1863.4 288.042 1868.28 286.777 1873.24 286.805C1878.19 286.834 1883.05 288.156 1887.34 290.64C1891.63 293.124 1895.21 296.685 1897.71 300.973C1900.21 305.261 1901.55 310.128 1901.61 315.095C1901.61 315.818 1901.61 316.601 1901.53 317.263C1908.37 318.665 1914.45 322.561 1918.58 328.198C1922.72 333.834 1924.62 340.808 1923.91 347.769C1923.21 354.73 1919.95 361.181 1914.77 365.872C1909.6 370.562 1902.86 373.158 1895.89 373.157C1894.78 373.158 1893.67 373.098 1892.57 372.976C1888.31 378.673 1882.11 382.593 1875.15 383.983C1868.18 385.373 1860.95 384.134 1854.85 380.505C1852.79 384.969 1849.63 388.831 1845.66 391.72C1841.7 394.61 1837.05 396.431 1832.18 397.01C1827.31 397.588 1822.38 396.905 1817.84 395.025C1813.31 393.145 1809.34 390.131 1806.3 386.272C1803.53 389.649 1800.02 392.348 1796.05 394.164C1792.08 395.981 1787.75 396.868 1783.39 396.758C1779.03 396.648 1774.75 395.543 1770.88 393.528C1767.01 391.513 1763.64 388.64 1761.04 385.128C1757.25 386.645 1753.19 387.335 1749.11 387.151C1745.03 386.967 1741.05 385.914 1737.41 384.061C1733.77 382.208 1730.57 379.599 1728.02 376.407C1725.47 373.215 1723.63 369.515 1722.62 365.553C1716.18 363.505 1710.7 359.208 1707.16 353.443C1703.62 347.679 1702.27 340.833 1703.35 334.152C1704.42 327.471 1707.86 321.401 1713.03 317.049C1718.2 312.697 1724.76 310.352 1731.51 310.442H1732.38C1733.06 305.49 1735.02 300.803 1738.07 296.848C1741.12 292.893 1745.15 289.807 1749.76 287.899C1754.37 285.99 1759.39 285.325 1764.34 285.97C1769.28 286.615 1773.97 288.548 1777.94 291.575C1781.57 286.273 1786.85 282.336 1792.97 280.388C1799.08 278.441 1805.66 278.594 1811.68 280.824V280.779Z" fill="white"/>
<path fill-rule="evenodd" clip-rule="evenodd" d="M1750.02 366.472C1750 370.722 1751.44 374.849 1754.1 378.158C1756.76 381.467 1760.48 383.756 1764.63 384.64C1768.77 385.524 1773.1 384.949 1776.87 383.011C1780.65 381.073 1783.64 377.891 1785.35 374C1785.31 374.738 1785.23 375.473 1785.09 376.199C1783.35 385.595 1773.88 391.738 1763.97 389.901C1754.06 388.064 1747.45 378.909 1749.17 369.498C1749.36 368.466 1749.64 367.453 1750.02 366.472Z" fill="#F1F1F1"/>
<path fill-rule="evenodd" clip-rule="evenodd" d="M1823.36 396.827C1833.47 399.146 1844.18 393.229 1848.12 382.703C1849.98 377.994 1850.15 372.781 1848.6 367.96C1847.05 363.138 1843.87 359.008 1839.62 356.277C1840.48 356.476 1841.34 356.732 1842.17 357.045C1852.97 361.096 1858.27 373.609 1854.01 385.082C1849.74 396.556 1837.48 402.489 1826.7 398.439C1825.54 398.006 1824.42 397.466 1823.36 396.827Z" fill="#F1F1F1"/>
<path fill-rule="evenodd" clip-rule="evenodd" d="M1876.06 348.824C1874.55 359.124 1881.33 369.333 1892.13 372.404C1896.96 373.865 1902.14 373.603 1906.8 371.662C1911.45 369.72 1915.29 366.221 1917.67 361.759C1917.53 362.637 1917.34 363.507 1917.11 364.364C1913.96 375.491 1901.89 381.8 1890.19 378.473C1878.49 375.145 1871.54 363.415 1874.68 352.287C1875.03 351.094 1875.49 349.935 1876.06 348.824Z" fill="#F1F1F1"/>
<path fill-rule="evenodd" clip-rule="evenodd" d="M1863.27 340.211C1864.34 336.235 1864.01 332.012 1862.34 328.25C1860.68 324.489 1857.77 321.416 1854.11 319.549C1850.45 317.682 1846.26 317.133 1842.24 317.994C1838.22 318.855 1834.62 321.075 1832.05 324.28C1832.26 323.598 1832.53 322.934 1832.84 322.292C1836.84 313.905 1847.25 310.548 1856.08 314.764C1864.91 318.98 1868.8 329.234 1864.79 337.606C1864.37 338.518 1863.86 339.39 1863.27 340.211Z" fill="#F1F1F1"/>
<path fill-rule="evenodd" clip-rule="evenodd" d="M1804.6 323.467C1801.04 321.416 1796.88 320.657 1792.82 321.315C1788.77 321.974 1785.06 324.011 1782.33 327.085C1779.59 330.159 1777.99 334.082 1777.8 338.197C1777.61 342.311 1778.84 346.367 1781.27 349.682C1780.68 349.287 1780.11 348.86 1779.56 348.403C1772.5 342.379 1771.92 331.433 1778.26 323.964C1784.59 316.496 1795.45 315.321 1802.51 321.329C1803.27 321.977 1803.97 322.692 1804.6 323.467Z" fill="#F1F1F1"/>
<path fill-rule="evenodd" clip-rule="evenodd" d="M1753.94 338.012C1751.31 336.527 1748.26 335.987 1745.29 336.483C1742.32 336.978 1739.6 338.479 1737.6 340.735C1735.6 342.991 1734.43 345.866 1734.28 348.883C1734.13 351.9 1735.02 354.876 1736.8 357.316C1736.36 357.026 1735.94 356.71 1735.54 356.367C1734.14 355.2 1733 353.754 1732.2 352.121C1731.39 350.488 1730.93 348.705 1730.85 346.884C1730.77 345.064 1731.08 343.247 1731.74 341.55C1732.4 339.853 1733.41 338.314 1734.7 337.03C1735.99 335.746 1737.53 334.747 1739.23 334.096C1740.93 333.444 1742.74 333.156 1744.56 333.248C1746.37 333.341 1748.15 333.812 1749.77 334.633C1751.39 335.453 1752.83 336.604 1753.98 338.012H1753.94Z" fill="#F1F1F1"/>
</g>
<defs>
<clipPath id="clip0_376_2011">
<rect width="330" height="116" fill="white" transform="translate(-66 285)"/>
</clipPath>
<clipPath id="clip1_376_2011">
<rect width="219" height="132" fill="white" transform="translate(1805)"/>
</clipPath>
<clipPath id="clip2_376_2011">
<rect width="103" height="62" fill="white" transform="translate(220 165)"/>
</clipPath>
<clipPath id="clip3_376_2011">
<rect width="103" height="62" fill="white" transform="translate(29 7)"/>
</clipPath>
<clipPath id="clip4_376_2011">
<rect width="225" height="136" fill="white" transform="translate(1703 272)"/>
</clipPath>
</defs>
</svg>
