<svg width="126" height="126" viewBox="0 0 126 126" fill="none" xmlns="http://www.w3.org/2000/svg">
<path opacity="0.495257" d="M25.992 42.4655C28.8804 45.0708 41.5134 49.0084 42.6567 52.2666C42.7338 52.4863 31.6179 75.8044 30.1687 76.0461C24.1051 77.0552 17.9618 72.2366 11.9697 70.5284" stroke="#33C0CE" stroke-width="6.3" stroke-linecap="round" stroke-linejoin="round"/>
<path opacity="0.495257" d="M109.161 40.95C102.604 42.8403 105.748 41.8533 99.7185 43.8816C96.5287 44.9557 90.0629 46.8362 87.3711 48.6461C86.2709 49.3868 87.8349 51.1507 88.0969 51.9456C89.4021 55.8939 93.1029 78.5027 94.2714 78.6998C100.334 79.7197 108.279 74.7203 113.882 72.8349" stroke="#33C0CE" stroke-width="6.3" stroke-linecap="round" stroke-linejoin="round"/>
<path d="M84.4892 50.438C79.2859 50.438 66.0474 46.9907 61.4297 50.438C58.7842 52.4146 54.3675 64.11 59.2418 65.322C62.6977 66.1826 65.781 59.7371 68.7222 59.1514C71.2974 58.6389 84.5769 66.0394 86.2256 68.2275" stroke="#33C0CE" stroke-width="6.3" stroke-linecap="round" stroke-linejoin="round"/>
<path d="M86.2255 69.3641C86.2968 73.7026 80.8864 79.7697 79.9412 80.7005C78.3525 82.2693 76.0995 83.95 68.4199 84.8972" stroke="#33C0CE" stroke-width="6.3" stroke-linecap="round" stroke-linejoin="round"/>
<path d="M43.6789 71.0359C46.4152 70.3946 47.5581 71.7269 47.1078 75.0329C44.9746 79.849 38.3976 78.6107 41.6501 73.7102" stroke="#33C0CE" stroke-width="6.3" stroke-linecap="round" stroke-linejoin="round"/>
<path d="M54.0984 72.8422C56.6611 72.3644 56.9824 74.3953 55.0623 78.9349C53.2746 83.5262 48.6606 81.4355 49.6018 76.5357" stroke="#33C0CE" stroke-width="6.3" stroke-linecap="round" stroke-linejoin="round"/>
<path d="M61.2287 76.5625C63.7495 76.5625 65.0098 78.3114 65.0098 81.8092C64.7164 85.4874 58.1904 86.8294 58.1904 80.4189" stroke="#33C0CE" stroke-width="6.3" stroke-linecap="round" stroke-linejoin="round"/>
<path d="M58.1901 55.7728C55.564 55.7562 52.6436 54.9101 49.2858 54.9708C45.928 55.0314 43.903 55.5359 40.7627 56.1042" stroke="#33C0CE" stroke-width="6.3" stroke-linecap="round" stroke-linejoin="round"/>
<path d="M78.7695 71.448C80.0625 72.332 80.8631 72.774 81.1714 72.774" stroke="#33C0CE" stroke-width="6.3" stroke-linecap="round" stroke-linejoin="round"/>
<path d="M75.2393 76.9414C76.7272 78.2043 77.7375 78.8357 78.2701 78.8357" stroke="#33C0CE" stroke-width="6.3" stroke-linecap="round" stroke-linejoin="round"/>
<path d="M69.5566 81.4877C71.0446 82.7505 72.0548 83.382 72.5875 83.382" stroke="#33C0CE" stroke-width="6.3" stroke-linecap="round" stroke-linejoin="round"/>
<path fill-rule="evenodd" clip-rule="evenodd" d="M40.3846 74.6682C36.1665 73.9105 33.4759 73.5316 32.313 73.5316C31.1501 73.5316 33.8407 73.9105 40.3846 74.6682Z" stroke="#33C0CE" stroke-width="6.3" stroke-linecap="round" stroke-linejoin="round"/>
</svg>
