<svg width="124" height="124" viewBox="0 0 124 124" fill="none" xmlns="http://www.w3.org/2000/svg">
<path d="M60.3578 19.2077C68.4511 7.59076 83.2123 26.2958 72.8396 33.9522C64.7794 39.9022 55.3165 30.6281 59.1007 22.5587" stroke="#FFDD86" stroke-width="6.2" stroke-linecap="round" stroke-linejoin="round"/>
<path opacity="0.503384" d="M67.2142 44.9258L68.2258 62.3341L67.2142 63.6236L65.8701 62.764V44.9258" stroke="#FFDD86" stroke-width="6.2" stroke-linecap="round" stroke-linejoin="round"/>
<path d="M59.3311 42.8439C63.235 43.6077 71.7879 40.5431 75.0258 42.9783C78.7625 45.7888 80.3337 73.7461 80.4014 74.3516" stroke="#FFDD86" stroke-width="6.2" stroke-linecap="round" stroke-linejoin="round"/>
<path d="M58.2412 45.6523C55.2067 53.5998 52.9875 67.4303 55.0437 72.5352" stroke="#FFDD86" stroke-width="6.2" stroke-linecap="round" stroke-linejoin="round"/>
<path d="M59.3682 44.9258C59.9783 47.924 60.276 58.1656 59.7496 72.5352" stroke="#FFDD86" stroke-width="6.2" stroke-linecap="round" stroke-linejoin="round"/>
<path d="M59.1806 93.2422C59.3205 97.4542 58.6382 104.161 59.1806 106.568C59.7365 109.035 62.7483 108.542 63.6904 108.263" stroke="#FFDD86" stroke-width="6.2" stroke-linecap="round" stroke-linejoin="round"/>
<path d="M73.8732 42.7461C74.3697 46.7319 71.4986 107.317 72.1398 107.999C72.4492 108.329 75.1105 107.977 75.6787 107.856" stroke="#FFDD86" stroke-width="6.2" stroke-linecap="round" stroke-linejoin="round"/>
<path fill-rule="evenodd" clip-rule="evenodd" d="M47.2652 75.693C44.5529 76.2197 44.1983 78.4322 44.0471 79.5984C43.7521 81.8732 43.4653 88.2925 44.0471 89.3624C44.6288 90.4323 46.9931 91.2002 50.4305 91.2002C53.8678 91.2002 60.731 91.6209 62.8635 91.2002C64.996 90.7795 67.2729 77.1237 64.9014 76.1876C62.0254 75.4005 49.9775 75.1663 47.2652 75.693Z" stroke="#FFDD86" stroke-width="6.2" stroke-linecap="round" stroke-linejoin="round"/>
<path d="M66.0499 77.2578C66.8988 82.4595 67.3232 85.6726 67.3232 86.8972C67.3232 88.7341 67.0795 90.8633 65.7358 91.1211C65.1795 91.2278 64.0941 91.2278 62.4795 91.1211" stroke="#FFDD86" stroke-width="6.2" stroke-linecap="round" stroke-linejoin="round"/>
<path d="M59.4222 74.3576C59.5795 73.1774 59.1173 72.5874 58.0354 72.5874C56.4126 72.5874 54.7689 72.3075 54.2346 73.0437C53.8783 73.5346 53.7002 74.1776 53.7002 74.9727" stroke="#FFDD86" stroke-width="6.2" stroke-linecap="round" stroke-linejoin="round"/>
</svg>
