<svg width="126" height="126" viewBox="0 0 126 126" fill="none" xmlns="http://www.w3.org/2000/svg">
<path d="M30.3383 108.675C30.1567 103.84 32.2421 79.5533 31.4615 77.2545C30.949 75.7426 28.9281 74.8031 29.3533 70.9137C29.9843 65.1399 36.4376 63.9466 37.2138 58.2371C37.4173 56.7338 37.6341 55.2032 37.6341 53.6884C37.6341 53.0439 37.7747 51.1149 37.7747 51.7593C37.7747 54.6148 36.3674 57.9177 37.6341 60.7171" stroke="#FDA55E" stroke-width="6.3" stroke-linecap="round" stroke-linejoin="round"/>
<path d="M48.8808 40.4515C48.8352 43.1743 48.6791 46.0793 47.4243 49.0544C44.8768 55.0943 37.4548 58.9528 41.2735 69.3566C42.7811 73.4638 53.7086 72.7954 56.1654 70.3893C63.0216 63.6745 51.99 53.3685 50.4996 49.5699C49.7967 47.7757 50.1008 46.1503 49.6902 44.4082C49.3725 43.0576 48.7338 42.5906 49.6902 41.8273" stroke="#FDA55E" stroke-width="6.3" stroke-linecap="round" stroke-linejoin="round"/>
<path d="M32.3789 77.6333C35.2424 78.8428 37.9436 78.4034 40.8587 78.0762" stroke="#FDA55E" stroke-width="6.3" stroke-linecap="round" stroke-linejoin="round"/>
<path d="M43.1865 72.4434C43.6398 75.2228 42.9121 97.2701 43.925 98.6535" stroke="#FDA55E" stroke-width="6.3" stroke-linecap="round" stroke-linejoin="round"/>
<path d="M54.4121 72.8289C54.2526 84.7669 55.0759 96.7633 55.0759 108.675" stroke="#FDA55E" stroke-width="6.3" stroke-linecap="round" stroke-linejoin="round"/>
<path d="M54.3496 57.4111C58.1038 49.9209 59.998 42.9051 61.8274 34.7682C62.1249 33.4435 63.1111 28.8883 63.3479 28.8883C63.6396 28.8883 68.7174 48.6149 70.5382 55.0944" stroke="#FDA55E" stroke-width="6.3" stroke-linecap="round" stroke-linejoin="round"/>
<path fill-rule="evenodd" clip-rule="evenodd" d="M84.7993 72.2506C82.9018 70.9016 82.2085 68.0104 82.3485 66.7513C82.6875 63.6952 86.341 61.651 87.3234 58.7134C87.9013 56.9854 87.9928 54.8237 88.2914 55.1222C88.8208 55.6515 88.7069 58.5793 89.2594 59.5427C91.1954 62.9306 98.3515 67.4326 92.8936 72.2506C91.5661 73.4225 88.868 73.4225 84.7993 72.2506Z" stroke="#FDA55E" stroke-width="6.3" stroke-linecap="round" stroke-linejoin="round"/>
<path d="M79.7881 82.6663C83.472 80.7512 95.9943 81.3194 96.2157 81.6572C96.6902 82.3825 95.6885 106.268 96.4887 107.899" stroke="#FDA55E" stroke-width="6.3" stroke-linecap="round" stroke-linejoin="round"/>
<path d="M64.1769 81.3086C57.4317 68.9744 68.7606 67.4372 70.1545 62.1762C70.8822 59.4297 71.1688 58.9529 71.3537 58.9529C72.422 58.9529 71.6101 61.0653 71.9454 62.1762C73.2349 66.4491 83.6418 70.9016 79.2102 79.3093" stroke="#FDA55E" stroke-width="6.3" stroke-linecap="round" stroke-linejoin="round"/>
<path d="M64.4289 88.6318C64.1699 95.1066 64.7608 101.531 64.7608 107.904" stroke="#FDA55E" stroke-width="6.3" stroke-linecap="round" stroke-linejoin="round"/>
<path d="M69.3804 48.0018C66.7786 47.1541 64.3489 48.9566 64.1219 48.931C62.3907 48.733 60.5298 46.8307 57.4316 48.603" stroke="#FDA55E" stroke-width="6.3" stroke-linecap="round" stroke-linejoin="round"/>
<path opacity="0.503384" d="M74.0065 64.349C72.1247 69.332 68.3214 73.1549 64.7559 77.0686" stroke="#FDA55E" stroke-width="5.04" stroke-linecap="round" stroke-linejoin="round"/>
<path opacity="0.503384" d="M76.7052 70.9016C75.8841 75.6848 74.2497 79.447 70.5381 80.5377" stroke="#FDA55E" stroke-width="6.3" stroke-linecap="round" stroke-linejoin="round"/>
<path opacity="0.503384" d="M83.6426 63.5781C86.9893 64.834 88.305 67.9667 89.8097 70.9015" stroke="#FDA55E" stroke-width="5.04" stroke-linecap="round" stroke-linejoin="round"/>
<path opacity="0.503384" d="M38.646 67.4326C41.5026 71.5642 34.3057 73.2101 34.3057 77.0687" stroke="#FDA55E" stroke-width="6.3" stroke-linecap="round" stroke-linejoin="round"/>
<path opacity="0.503384" d="M45.9853 54.3275C46.4015 59.1763 46.1718 64.2173 45.542 68.9743" stroke="#FDA55E" stroke-width="6.3" stroke-linecap="round" stroke-linejoin="round"/>
<path opacity="0.503384" d="M52.1522 55.8693C52.5685 60.7181 52.3388 65.759 51.709 70.5161" stroke="#FDA55E" stroke-width="5.04" stroke-linecap="round" stroke-linejoin="round"/>
<path d="M90.1943 93.6427C90.1943 92.4855 90.1943 91.3296 90.1943 90.1737" stroke="#FDA55E" stroke-width="6.3" stroke-linecap="round" stroke-linejoin="round"/>
<path d="M76.7086 80.5376C76.8982 83.8523 76.3027 101.899 76.8092 107.904" stroke="#FDA55E" stroke-width="6.3" stroke-linecap="round" stroke-linejoin="round"/>
<path d="M61.6022 28.8882C59.9052 25.9047 61.7468 23.3138 62.3869 22.6348C64.0764 20.8371 63.5905 16.9646 63.9549 17.352C64.3602 17.7829 63.9358 20.0797 64.217 20.8269C64.6045 21.8571 69.6704 26.3274 66.3091 28.4718" stroke="#FDA55E" stroke-width="6.3" stroke-linecap="round" stroke-linejoin="round"/>
<path d="M48.2629 77.4541C48.256 77.8788 48.3948 78.2189 48.485 78.6104" stroke="#FDA55E" stroke-width="6.3" stroke-linecap="round" stroke-linejoin="round"/>
<path d="M92.3975 72.4434C92.4275 73.1493 92.6187 78.7682 92.6187 77.7065" stroke="#FDA55E" stroke-width="6.3" stroke-linecap="round" stroke-linejoin="round"/>
<path d="M85.2744 72.8289C85.7262 75.2455 85.4486 77.7636 85.8649 80.1523" stroke="#FDA55E" stroke-width="6.3" stroke-linecap="round" stroke-linejoin="round"/>
</svg>
