<svg width="90" height="90" viewBox="0 0 90 90" fill="none" xmlns="http://www.w3.org/2000/svg">
<path d="M43.7396 14.4154C49.562 6.05794 60.1816 19.5148 52.7192 25.023C46.9205 29.3036 40.1127 22.6316 42.8351 16.8262" stroke="#53E0EF" stroke-width="4.46043" stroke-linecap="round" stroke-linejoin="round"/>
<path opacity="0.503384" d="M48.672 32.917L49.3998 45.441L48.672 46.3687L47.7051 45.7502V32.917" stroke="#53E0EF" stroke-width="4.46043" stroke-linecap="round" stroke-linejoin="round"/>
<path d="M43.001 31.4192C45.8096 31.9688 51.9627 29.764 54.2921 31.5159C56.9805 33.5379 58.1108 53.651 58.1595 54.0866" stroke="#53E0EF" stroke-width="4.46043" stroke-linecap="round" stroke-linejoin="round"/>
<path d="M42.2167 33.4404C40.0336 39.158 38.4371 49.108 39.9163 52.7806" stroke="#53E0EF" stroke-width="4.46043" stroke-linecap="round" stroke-linejoin="round"/>
<path d="M43.0269 32.917C43.4658 35.074 43.68 42.4421 43.3012 52.7799" stroke="#53E0EF" stroke-width="4.46043" stroke-linecap="round" stroke-linejoin="round"/>
<path d="M42.8923 67.6777C42.993 70.708 42.5022 75.5329 42.8923 77.2646C43.2923 79.0398 45.4591 78.6849 46.1369 78.4841" stroke="#53E0EF" stroke-width="4.46043" stroke-linecap="round" stroke-linejoin="round"/>
<path d="M53.4626 31.3496C53.8197 34.2171 51.7542 77.8035 52.2155 78.2942C52.4381 78.5318 54.3527 78.2784 54.7615 78.1911" stroke="#53E0EF" stroke-width="4.46043" stroke-linecap="round" stroke-linejoin="round"/>
<path fill-rule="evenodd" clip-rule="evenodd" d="M34.3204 55.052C32.3691 55.4309 32.114 57.0227 32.0052 57.8617C31.793 59.4982 31.5867 64.1164 32.0052 64.8861C32.4238 65.6558 34.1247 66.2083 36.5976 66.2083C39.0705 66.2083 44.0081 66.5109 45.5422 66.2083C47.0764 65.9056 48.7144 56.0813 47.0083 55.4079C44.9393 54.8416 36.2717 54.6731 34.3204 55.052Z" stroke="#53E0EF" stroke-width="4.46043" stroke-linecap="round" stroke-linejoin="round"/>
<path d="M47.8343 56.1777C48.445 59.9199 48.7503 62.2315 48.7503 63.1125C48.7503 64.434 48.575 65.9658 47.6083 66.1513C47.2081 66.2281 46.4272 66.2281 45.2656 66.1513" stroke="#53E0EF" stroke-width="4.46043" stroke-linecap="round" stroke-linejoin="round"/>
<path d="M43.0662 54.0914C43.1794 53.2423 42.8469 52.8178 42.0686 52.8178C40.9011 52.8178 39.7186 52.6165 39.3341 53.1462C39.0779 53.4993 38.9497 53.9619 38.9497 54.5339" stroke="#53E0EF" stroke-width="4.46043" stroke-linecap="round" stroke-linejoin="round"/>
</svg>
