<svg width="91" height="91" viewBox="0 0 91 91" fill="none" xmlns="http://www.w3.org/2000/svg">
<path opacity="0.495257" d="M18.7345 30.5869C20.8125 32.4612 29.9009 35.294 30.7234 37.6381C30.7789 37.7962 22.7819 54.5718 21.7392 54.7457C17.377 55.4716 12.9573 52.005 8.64648 50.7761" stroke="#5AA5FB" stroke-width="4.53237" stroke-linecap="round" stroke-linejoin="round"/>
<path opacity="0.495257" d="M78.5684 29.4961C73.8511 30.8561 76.1131 30.146 71.7752 31.6052C69.4804 32.3779 64.8287 33.7308 62.8922 35.0329C62.1007 35.5658 63.2259 36.8348 63.4144 37.4066C64.3534 40.2471 67.0158 56.5125 67.8565 56.6542C72.2178 57.388 77.9338 53.7913 81.9649 52.4349" stroke="#5AA5FB" stroke-width="4.53237" stroke-linecap="round" stroke-linejoin="round"/>
<path d="M60.8188 36.323C57.0755 36.323 47.5513 33.8429 44.2292 36.323C42.326 37.745 39.1486 46.1589 42.6552 47.0309C45.1415 47.65 47.3597 43.0129 49.4757 42.5916C51.3283 42.2229 60.8819 47.547 62.0681 49.1212" stroke="#5AA5FB" stroke-width="4.53237" stroke-linecap="round" stroke-linejoin="round"/>
<path d="M62.0676 49.9385C62.1189 53.0597 58.2265 57.4245 57.5465 58.0941C56.4036 59.2228 54.7827 60.4319 49.2578 61.1134" stroke="#5AA5FB" stroke-width="4.53237" stroke-linecap="round" stroke-linejoin="round"/>
<path d="M31.4588 51.1408C33.4274 50.6794 34.2497 51.6379 33.9256 54.0163C32.391 57.4811 27.6593 56.5902 29.9993 53.0647" stroke="#5AA5FB" stroke-width="4.53237" stroke-linecap="round" stroke-linejoin="round"/>
<path d="M38.9549 52.4407C40.7986 52.097 41.0298 53.5581 39.6484 56.824C38.3623 60.127 35.0429 58.623 35.72 55.0979" stroke="#5AA5FB" stroke-width="4.53237" stroke-linecap="round" stroke-linejoin="round"/>
<path d="M44.0848 55.1172C45.8982 55.1172 46.805 56.3754 46.805 58.8918C46.5938 61.538 41.8989 62.5034 41.8989 57.8916" stroke="#5AA5FB" stroke-width="4.53237" stroke-linecap="round" stroke-linejoin="round"/>
<path d="M41.8985 40.1603C40.0092 40.1484 37.9082 39.5397 35.4926 39.5833C33.0769 39.6269 31.6201 39.9899 29.3608 40.3987" stroke="#5AA5FB" stroke-width="4.53237" stroke-linecap="round" stroke-linejoin="round"/>
<path d="M56.7041 51.4375C57.6343 52.0735 58.2103 52.3915 58.4321 52.3915" stroke="#5AA5FB" stroke-width="4.53237" stroke-linecap="round" stroke-linejoin="round"/>
<path d="M54.1641 55.3896C55.2345 56.2982 55.9613 56.7524 56.3445 56.7524" stroke="#5AA5FB" stroke-width="4.53237" stroke-linecap="round" stroke-linejoin="round"/>
<path d="M50.0757 58.6602C51.1461 59.5687 51.8729 60.0229 52.2562 60.0229" stroke="#5AA5FB" stroke-width="4.53237" stroke-linecap="round" stroke-linejoin="round"/>
<path fill-rule="evenodd" clip-rule="evenodd" d="M29.0886 53.7542C26.0539 53.2091 24.1183 52.9365 23.2816 52.9365C22.445 52.9365 24.3807 53.2091 29.0886 53.7542Z" stroke="#5AA5FB" stroke-width="4.53237" stroke-linecap="round" stroke-linejoin="round"/>
</svg>
